<svg width="1512" height="704" viewBox="0 0 1512 704" fill="none" xmlns="http://www.w3.org/2000/svg">
<rect width="1512" height="704" fill="white"/>
<path d="M262.409 329.352V317.182H319.75V329.352H298.375V387H283.784V329.352H262.409ZM343.443 356.727V387H328.92V317.182H343.034V343.875H343.648C344.83 340.784 346.739 338.364 349.375 336.614C352.011 334.841 355.318 333.955 359.295 333.955C362.932 333.955 366.102 334.75 368.807 336.341C371.534 337.909 373.648 340.17 375.148 343.125C376.67 346.057 377.42 349.568 377.398 353.659V387H362.875V356.25C362.898 353.023 362.08 350.511 360.42 348.716C358.784 346.92 356.489 346.023 353.534 346.023C351.557 346.023 349.807 346.443 348.284 347.284C346.784 348.125 345.602 349.352 344.739 350.966C343.898 352.557 343.466 354.477 343.443 356.727ZM403.759 387.989C400.418 387.989 397.44 387.409 394.827 386.25C392.213 385.068 390.145 383.33 388.622 381.034C387.122 378.716 386.372 375.83 386.372 372.375C386.372 369.466 386.906 367.023 387.974 365.045C389.043 363.068 390.497 361.477 392.338 360.273C394.179 359.068 396.27 358.159 398.611 357.545C400.974 356.932 403.452 356.5 406.043 356.25C409.088 355.932 411.543 355.636 413.406 355.364C415.27 355.068 416.622 354.636 417.463 354.068C418.304 353.5 418.724 352.659 418.724 351.545V351.341C418.724 349.182 418.043 347.511 416.679 346.33C415.338 345.148 413.429 344.557 410.952 344.557C408.338 344.557 406.259 345.136 404.713 346.295C403.168 347.432 402.145 348.864 401.645 350.591L388.213 349.5C388.895 346.318 390.236 343.568 392.236 341.25C394.236 338.909 396.815 337.114 399.974 335.864C403.156 334.591 406.838 333.955 411.02 333.955C413.929 333.955 416.713 334.295 419.372 334.977C422.054 335.659 424.429 336.716 426.497 338.148C428.588 339.58 430.236 341.42 431.44 343.67C432.645 345.898 433.247 348.568 433.247 351.682V387H419.474V379.739H419.065C418.224 381.375 417.099 382.818 415.69 384.068C414.281 385.295 412.588 386.261 410.611 386.966C408.634 387.648 406.349 387.989 403.759 387.989ZM407.918 377.966C410.054 377.966 411.94 377.545 413.577 376.705C415.213 375.841 416.497 374.682 417.429 373.227C418.361 371.773 418.827 370.125 418.827 368.284V362.727C418.372 363.023 417.747 363.295 416.952 363.545C416.179 363.773 415.304 363.989 414.327 364.193C413.349 364.375 412.372 364.545 411.395 364.705C410.418 364.841 409.531 364.966 408.736 365.08C407.031 365.33 405.543 365.727 404.27 366.273C402.997 366.818 402.009 367.557 401.304 368.489C400.599 369.398 400.247 370.534 400.247 371.898C400.247 373.875 400.963 375.386 402.395 376.432C403.849 377.455 405.69 377.966 407.918 377.966ZM459.037 356.727V387H444.514V334.636H458.355V343.875H458.969C460.128 340.83 462.071 338.42 464.798 336.648C467.526 334.852 470.832 333.955 474.719 333.955C478.355 333.955 481.526 334.75 484.23 336.341C486.935 337.932 489.037 340.205 490.537 343.159C492.037 346.091 492.787 349.591 492.787 353.659V387H478.264V356.25C478.287 353.045 477.469 350.545 475.81 348.75C474.151 346.932 471.866 346.023 468.957 346.023C467.003 346.023 465.276 346.443 463.776 347.284C462.298 348.125 461.139 349.352 460.298 350.966C459.48 352.557 459.06 354.477 459.037 356.727ZM517.392 371.932L517.426 354.511H519.54L536.312 334.636H552.983L530.449 360.955H527.006L517.392 371.932ZM504.233 387V317.182H518.756V387H504.233ZM536.96 387L521.551 364.193L531.233 353.932L553.972 387H536.96ZM603.676 349.568L590.381 350.386C590.153 349.25 589.665 348.227 588.915 347.318C588.165 346.386 587.176 345.648 585.949 345.102C584.744 344.534 583.301 344.25 581.619 344.25C579.369 344.25 577.472 344.727 575.926 345.682C574.381 346.614 573.608 347.864 573.608 349.432C573.608 350.682 574.108 351.739 575.108 352.602C576.108 353.466 577.824 354.159 580.256 354.682L589.733 356.591C594.824 357.636 598.619 359.318 601.119 361.636C603.619 363.955 604.869 367 604.869 370.773C604.869 374.205 603.858 377.216 601.835 379.807C599.835 382.398 597.085 384.42 593.585 385.875C590.108 387.307 586.097 388.023 581.551 388.023C574.619 388.023 569.097 386.58 564.983 383.693C560.892 380.784 558.494 376.83 557.79 371.83L572.074 371.08C572.506 373.193 573.551 374.807 575.21 375.92C576.869 377.011 578.994 377.557 581.585 377.557C584.131 377.557 586.176 377.068 587.722 376.091C589.29 375.091 590.085 373.807 590.108 372.239C590.085 370.92 589.528 369.841 588.438 369C587.347 368.136 585.665 367.477 583.392 367.023L574.324 365.216C569.21 364.193 565.403 362.42 562.903 359.898C560.426 357.375 559.188 354.159 559.188 350.25C559.188 346.886 560.097 343.989 561.915 341.557C563.756 339.125 566.335 337.25 569.653 335.932C572.994 334.614 576.903 333.955 581.381 333.955C587.994 333.955 593.199 335.352 596.994 338.148C600.813 340.943 603.04 344.75 603.676 349.568ZM636.506 387V317.182H682.733V329.352H651.267V345.989H679.665V358.159H651.267V387H636.506ZM712.205 388.023C706.909 388.023 702.33 386.898 698.466 384.648C694.625 382.375 691.659 379.216 689.568 375.17C687.477 371.102 686.432 366.386 686.432 361.023C686.432 355.614 687.477 350.886 689.568 346.841C691.659 342.773 694.625 339.614 698.466 337.364C702.33 335.091 706.909 333.955 712.205 333.955C717.5 333.955 722.068 335.091 725.909 337.364C729.773 339.614 732.75 342.773 734.841 346.841C736.932 350.886 737.977 355.614 737.977 361.023C737.977 366.386 736.932 371.102 734.841 375.17C732.75 379.216 729.773 382.375 725.909 384.648C722.068 386.898 717.5 388.023 712.205 388.023ZM712.273 376.773C714.682 376.773 716.693 376.091 718.307 374.727C719.92 373.341 721.136 371.455 721.955 369.068C722.795 366.682 723.216 363.966 723.216 360.92C723.216 357.875 722.795 355.159 721.955 352.773C721.136 350.386 719.92 348.5 718.307 347.114C716.693 345.727 714.682 345.034 712.273 345.034C709.841 345.034 707.795 345.727 706.136 347.114C704.5 348.5 703.261 350.386 702.42 352.773C701.602 355.159 701.193 357.875 701.193 360.92C701.193 363.966 701.602 366.682 702.42 369.068C703.261 371.455 704.5 373.341 706.136 374.727C707.795 376.091 709.841 376.773 712.273 376.773ZM747.42 387V334.636H761.5V343.773H762.045C763 340.523 764.602 338.068 766.852 336.409C769.102 334.727 771.693 333.886 774.625 333.886C775.352 333.886 776.136 333.932 776.977 334.023C777.818 334.114 778.557 334.239 779.193 334.398V347.284C778.511 347.08 777.568 346.898 776.364 346.739C775.159 346.58 774.057 346.5 773.057 346.5C770.92 346.5 769.011 346.966 767.33 347.898C765.67 348.807 764.352 350.08 763.375 351.716C762.42 353.352 761.943 355.239 761.943 357.375V387H747.42ZM824.909 387L804.932 317.182H821.057L832.614 365.693H833.193L845.943 317.182H859.75L872.466 365.795H873.08L884.636 317.182H900.761L880.784 387H866.398L853.102 341.352H852.557L839.295 387H824.909ZM917.696 387.989C914.355 387.989 911.378 387.409 908.764 386.25C906.151 385.068 904.082 383.33 902.56 381.034C901.06 378.716 900.31 375.83 900.31 372.375C900.31 369.466 900.844 367.023 901.912 365.045C902.98 363.068 904.435 361.477 906.276 360.273C908.116 359.068 910.207 358.159 912.548 357.545C914.912 356.932 917.389 356.5 919.98 356.25C923.026 355.932 925.48 355.636 927.344 355.364C929.207 355.068 930.56 354.636 931.401 354.068C932.241 353.5 932.662 352.659 932.662 351.545V351.341C932.662 349.182 931.98 347.511 930.616 346.33C929.276 345.148 927.366 344.557 924.889 344.557C922.276 344.557 920.196 345.136 918.651 346.295C917.105 347.432 916.082 348.864 915.582 350.591L902.151 349.5C902.832 346.318 904.173 343.568 906.173 341.25C908.173 338.909 910.753 337.114 913.912 335.864C917.094 334.591 920.776 333.955 924.957 333.955C927.866 333.955 930.651 334.295 933.31 334.977C935.991 335.659 938.366 336.716 940.435 338.148C942.526 339.58 944.173 341.42 945.378 343.67C946.582 345.898 947.185 348.568 947.185 351.682V387H933.412V379.739H933.003C932.162 381.375 931.037 382.818 929.628 384.068C928.219 385.295 926.526 386.261 924.548 386.966C922.571 387.648 920.287 387.989 917.696 387.989ZM921.855 377.966C923.991 377.966 925.878 377.545 927.514 376.705C929.151 375.841 930.435 374.682 931.366 373.227C932.298 371.773 932.764 370.125 932.764 368.284V362.727C932.31 363.023 931.685 363.295 930.889 363.545C930.116 363.773 929.241 363.989 928.264 364.193C927.287 364.375 926.31 364.545 925.332 364.705C924.355 364.841 923.469 364.966 922.673 365.08C920.969 365.33 919.48 365.727 918.207 366.273C916.935 366.818 915.946 367.557 915.241 368.489C914.537 369.398 914.185 370.534 914.185 371.898C914.185 373.875 914.901 375.386 916.332 376.432C917.787 377.455 919.628 377.966 921.855 377.966ZM986.304 334.636V345.545H954.77V334.636H986.304ZM961.929 322.091H976.452V370.909C976.452 372.25 976.656 373.295 977.065 374.045C977.474 374.773 978.043 375.284 978.77 375.58C979.52 375.875 980.384 376.023 981.361 376.023C982.043 376.023 982.724 375.966 983.406 375.852C984.088 375.716 984.611 375.614 984.974 375.545L987.259 386.352C986.531 386.58 985.509 386.841 984.19 387.136C982.872 387.455 981.27 387.648 979.384 387.716C975.884 387.852 972.815 387.386 970.179 386.318C967.565 385.25 965.531 383.591 964.077 381.341C962.622 379.091 961.906 376.25 961.929 372.818V322.091ZM1018.86 388.023C1013.5 388.023 1008.88 386.886 1005.02 384.614C1001.18 382.318 998.224 379.136 996.156 375.068C994.111 371 993.088 366.318 993.088 361.023C993.088 355.659 994.122 350.955 996.19 346.909C998.281 342.841 1001.25 339.67 1005.09 337.398C1008.93 335.102 1013.5 333.955 1018.79 333.955C1023.36 333.955 1027.36 334.784 1030.79 336.443C1034.22 338.102 1036.94 340.432 1038.94 343.432C1040.94 346.432 1042.04 349.955 1042.25 354H1028.54C1028.16 351.386 1027.13 349.284 1025.47 347.693C1023.84 346.08 1021.69 345.273 1019.03 345.273C1016.78 345.273 1014.82 345.886 1013.13 347.114C1011.47 348.318 1010.18 350.08 1009.25 352.398C1008.32 354.716 1007.85 357.523 1007.85 360.818C1007.85 364.159 1008.3 367 1009.21 369.341C1010.14 371.682 1011.45 373.466 1013.13 374.693C1014.82 375.92 1016.78 376.534 1019.03 376.534C1020.69 376.534 1022.18 376.193 1023.5 375.511C1024.84 374.83 1025.94 373.841 1026.8 372.545C1027.69 371.227 1028.27 369.648 1028.54 367.807H1042.25C1042.02 371.807 1040.93 375.33 1038.97 378.375C1037.04 381.398 1034.37 383.761 1030.96 385.466C1027.55 387.17 1023.52 388.023 1018.86 388.023ZM1066.07 356.727V387H1051.55V317.182H1065.66V343.875H1066.27C1067.45 340.784 1069.36 338.364 1072 336.614C1074.64 334.841 1077.94 333.955 1081.92 333.955C1085.56 333.955 1088.73 334.75 1091.43 336.341C1094.16 337.909 1096.27 340.17 1097.77 343.125C1099.3 346.057 1100.05 349.568 1100.02 353.659V387H1085.5V356.25C1085.52 353.023 1084.7 350.511 1083.05 348.716C1081.41 346.92 1079.11 346.023 1076.16 346.023C1074.18 346.023 1072.43 346.443 1070.91 347.284C1069.41 348.125 1068.23 349.352 1067.36 350.966C1066.52 352.557 1066.09 354.477 1066.07 356.727ZM1111.45 387V334.636H1125.97V387H1111.45ZM1118.75 327.886C1116.59 327.886 1114.74 327.17 1113.19 325.739C1111.67 324.284 1110.91 322.545 1110.91 320.523C1110.91 318.523 1111.67 316.807 1113.19 315.375C1114.74 313.92 1116.59 313.193 1118.75 313.193C1120.91 313.193 1122.75 313.92 1124.27 315.375C1125.82 316.807 1126.59 318.523 1126.59 320.523C1126.59 322.545 1125.82 324.284 1124.27 325.739C1122.75 327.17 1120.91 327.886 1118.75 327.886ZM1152.13 356.727V387H1137.61V334.636H1151.45V343.875H1152.06C1153.22 340.83 1155.16 338.42 1157.89 336.648C1160.62 334.852 1163.93 333.955 1167.81 333.955C1171.45 333.955 1174.62 334.75 1177.32 336.341C1180.03 337.932 1182.13 340.205 1183.63 343.159C1185.13 346.091 1185.88 349.591 1185.88 353.659V387H1171.36V356.25C1171.38 353.045 1170.56 350.545 1168.9 348.75C1167.24 346.932 1164.96 346.023 1162.05 346.023C1160.1 346.023 1158.37 346.443 1156.87 347.284C1155.39 348.125 1154.23 349.352 1153.39 350.966C1152.57 352.557 1152.15 354.477 1152.13 356.727ZM1220.92 407.727C1216.21 407.727 1212.18 407.08 1208.82 405.784C1205.47 404.511 1202.82 402.773 1200.84 400.568C1198.86 398.364 1197.58 395.886 1196.99 393.136L1210.42 391.33C1210.83 392.375 1211.47 393.352 1212.36 394.261C1213.25 395.17 1214.42 395.898 1215.87 396.443C1217.35 397.011 1219.14 397.295 1221.26 397.295C1224.42 397.295 1227.02 396.523 1229.07 394.977C1231.13 393.455 1232.17 390.898 1232.17 387.307V377.727H1231.55C1230.92 379.182 1229.96 380.557 1228.69 381.852C1227.42 383.148 1225.78 384.205 1223.78 385.023C1221.78 385.841 1219.39 386.25 1216.62 386.25C1212.69 386.25 1209.11 385.341 1205.88 383.523C1202.68 381.682 1200.12 378.875 1198.21 375.102C1196.33 371.307 1195.38 366.511 1195.38 360.716C1195.38 354.784 1196.35 349.83 1198.28 345.852C1200.21 341.875 1202.78 338.898 1205.99 336.92C1209.21 334.943 1212.75 333.955 1216.59 333.955C1219.52 333.955 1221.97 334.455 1223.95 335.455C1225.93 336.432 1227.52 337.659 1228.72 339.136C1229.95 340.591 1230.89 342.023 1231.55 343.432H1232.1V334.636H1246.52V387.511C1246.52 391.966 1245.43 395.693 1243.25 398.693C1241.07 401.693 1238.04 403.943 1234.18 405.443C1230.34 406.966 1225.92 407.727 1220.92 407.727ZM1221.22 375.341C1223.57 375.341 1225.54 374.761 1227.16 373.602C1228.79 372.42 1230.04 370.739 1230.91 368.557C1231.79 366.352 1232.24 363.716 1232.24 360.648C1232.24 357.58 1231.8 354.92 1230.94 352.67C1230.08 350.398 1228.83 348.636 1227.19 347.386C1225.55 346.136 1223.57 345.511 1221.22 345.511C1218.84 345.511 1216.83 346.159 1215.19 347.455C1213.55 348.727 1212.32 350.5 1211.47 352.773C1210.63 355.045 1210.21 357.67 1210.21 360.648C1210.21 363.67 1210.63 366.284 1211.47 368.489C1212.34 370.67 1213.58 372.364 1215.19 373.568C1216.83 374.75 1218.84 375.341 1221.22 375.341Z" fill="black"/>
<path d="M262.409 329.352V317.182H319.75V329.352H298.375V387H283.784V329.352H262.409ZM343.443 356.727V387H328.92V317.182H343.034V343.875H343.648C344.83 340.784 346.739 338.364 349.375 336.614C352.011 334.841 355.318 333.955 359.295 333.955C362.932 333.955 366.102 334.75 368.807 336.341C371.534 337.909 373.648 340.17 375.148 343.125C376.67 346.057 377.42 349.568 377.398 353.659V387H362.875V356.25C362.898 353.023 362.08 350.511 360.42 348.716C358.784 346.92 356.489 346.023 353.534 346.023C351.557 346.023 349.807 346.443 348.284 347.284C346.784 348.125 345.602 349.352 344.739 350.966C343.898 352.557 343.466 354.477 343.443 356.727ZM403.759 387.989C400.418 387.989 397.44 387.409 394.827 386.25C392.213 385.068 390.145 383.33 388.622 381.034C387.122 378.716 386.372 375.83 386.372 372.375C386.372 369.466 386.906 367.023 387.974 365.045C389.043 363.068 390.497 361.477 392.338 360.273C394.179 359.068 396.27 358.159 398.611 357.545C400.974 356.932 403.452 356.5 406.043 356.25C409.088 355.932 411.543 355.636 413.406 355.364C415.27 355.068 416.622 354.636 417.463 354.068C418.304 353.5 418.724 352.659 418.724 351.545V351.341C418.724 349.182 418.043 347.511 416.679 346.33C415.338 345.148 413.429 344.557 410.952 344.557C408.338 344.557 406.259 345.136 404.713 346.295C403.168 347.432 402.145 348.864 401.645 350.591L388.213 349.5C388.895 346.318 390.236 343.568 392.236 341.25C394.236 338.909 396.815 337.114 399.974 335.864C403.156 334.591 406.838 333.955 411.02 333.955C413.929 333.955 416.713 334.295 419.372 334.977C422.054 335.659 424.429 336.716 426.497 338.148C428.588 339.58 430.236 341.42 431.44 343.67C432.645 345.898 433.247 348.568 433.247 351.682V387H419.474V379.739H419.065C418.224 381.375 417.099 382.818 415.69 384.068C414.281 385.295 412.588 386.261 410.611 386.966C408.634 387.648 406.349 387.989 403.759 387.989ZM407.918 377.966C410.054 377.966 411.94 377.545 413.577 376.705C415.213 375.841 416.497 374.682 417.429 373.227C418.361 371.773 418.827 370.125 418.827 368.284V362.727C418.372 363.023 417.747 363.295 416.952 363.545C416.179 363.773 415.304 363.989 414.327 364.193C413.349 364.375 412.372 364.545 411.395 364.705C410.418 364.841 409.531 364.966 408.736 365.08C407.031 365.33 405.543 365.727 404.27 366.273C402.997 366.818 402.009 367.557 401.304 368.489C400.599 369.398 400.247 370.534 400.247 371.898C400.247 373.875 400.963 375.386 402.395 376.432C403.849 377.455 405.69 377.966 407.918 377.966ZM459.037 356.727V387H444.514V334.636H458.355V343.875H458.969C460.128 340.83 462.071 338.42 464.798 336.648C467.526 334.852 470.832 333.955 474.719 333.955C478.355 333.955 481.526 334.75 484.23 336.341C486.935 337.932 489.037 340.205 490.537 343.159C492.037 346.091 492.787 349.591 492.787 353.659V387H478.264V356.25C478.287 353.045 477.469 350.545 475.81 348.75C474.151 346.932 471.866 346.023 468.957 346.023C467.003 346.023 465.276 346.443 463.776 347.284C462.298 348.125 461.139 349.352 460.298 350.966C459.48 352.557 459.06 354.477 459.037 356.727ZM517.392 371.932L517.426 354.511H519.54L536.312 334.636H552.983L530.449 360.955H527.006L517.392 371.932ZM504.233 387V317.182H518.756V387H504.233ZM536.96 387L521.551 364.193L531.233 353.932L553.972 387H536.96ZM603.676 349.568L590.381 350.386C590.153 349.25 589.665 348.227 588.915 347.318C588.165 346.386 587.176 345.648 585.949 345.102C584.744 344.534 583.301 344.25 581.619 344.25C579.369 344.25 577.472 344.727 575.926 345.682C574.381 346.614 573.608 347.864 573.608 349.432C573.608 350.682 574.108 351.739 575.108 352.602C576.108 353.466 577.824 354.159 580.256 354.682L589.733 356.591C594.824 357.636 598.619 359.318 601.119 361.636C603.619 363.955 604.869 367 604.869 370.773C604.869 374.205 603.858 377.216 601.835 379.807C599.835 382.398 597.085 384.42 593.585 385.875C590.108 387.307 586.097 388.023 581.551 388.023C574.619 388.023 569.097 386.58 564.983 383.693C560.892 380.784 558.494 376.83 557.79 371.83L572.074 371.08C572.506 373.193 573.551 374.807 575.21 375.92C576.869 377.011 578.994 377.557 581.585 377.557C584.131 377.557 586.176 377.068 587.722 376.091C589.29 375.091 590.085 373.807 590.108 372.239C590.085 370.92 589.528 369.841 588.438 369C587.347 368.136 585.665 367.477 583.392 367.023L574.324 365.216C569.21 364.193 565.403 362.42 562.903 359.898C560.426 357.375 559.188 354.159 559.188 350.25C559.188 346.886 560.097 343.989 561.915 341.557C563.756 339.125 566.335 337.25 569.653 335.932C572.994 334.614 576.903 333.955 581.381 333.955C587.994 333.955 593.199 335.352 596.994 338.148C600.813 340.943 603.04 344.75 603.676 349.568ZM636.506 387V317.182H682.733V329.352H651.267V345.989H679.665V358.159H651.267V387H636.506ZM712.205 388.023C706.909 388.023 702.33 386.898 698.466 384.648C694.625 382.375 691.659 379.216 689.568 375.17C687.477 371.102 686.432 366.386 686.432 361.023C686.432 355.614 687.477 350.886 689.568 346.841C691.659 342.773 694.625 339.614 698.466 337.364C702.33 335.091 706.909 333.955 712.205 333.955C717.5 333.955 722.068 335.091 725.909 337.364C729.773 339.614 732.75 342.773 734.841 346.841C736.932 350.886 737.977 355.614 737.977 361.023C737.977 366.386 736.932 371.102 734.841 375.17C732.75 379.216 729.773 382.375 725.909 384.648C722.068 386.898 717.5 388.023 712.205 388.023ZM712.273 376.773C714.682 376.773 716.693 376.091 718.307 374.727C719.92 373.341 721.136 371.455 721.955 369.068C722.795 366.682 723.216 363.966 723.216 360.92C723.216 357.875 722.795 355.159 721.955 352.773C721.136 350.386 719.92 348.5 718.307 347.114C716.693 345.727 714.682 345.034 712.273 345.034C709.841 345.034 707.795 345.727 706.136 347.114C704.5 348.5 703.261 350.386 702.42 352.773C701.602 355.159 701.193 357.875 701.193 360.92C701.193 363.966 701.602 366.682 702.42 369.068C703.261 371.455 704.5 373.341 706.136 374.727C707.795 376.091 709.841 376.773 712.273 376.773ZM747.42 387V334.636H761.5V343.773H762.045C763 340.523 764.602 338.068 766.852 336.409C769.102 334.727 771.693 333.886 774.625 333.886C775.352 333.886 776.136 333.932 776.977 334.023C777.818 334.114 778.557 334.239 779.193 334.398V347.284C778.511 347.08 777.568 346.898 776.364 346.739C775.159 346.58 774.057 346.5 773.057 346.5C770.92 346.5 769.011 346.966 767.33 347.898C765.67 348.807 764.352 350.08 763.375 351.716C762.42 353.352 761.943 355.239 761.943 357.375V387H747.42ZM824.909 387L804.932 317.182H821.057L832.614 365.693H833.193L845.943 317.182H859.75L872.466 365.795H873.08L884.636 317.182H900.761L880.784 387H866.398L853.102 341.352H852.557L839.295 387H824.909ZM917.696 387.989C914.355 387.989 911.378 387.409 908.764 386.25C906.151 385.068 904.082 383.33 902.56 381.034C901.06 378.716 900.31 375.83 900.31 372.375C900.31 369.466 900.844 367.023 901.912 365.045C902.98 363.068 904.435 361.477 906.276 360.273C908.116 359.068 910.207 358.159 912.548 357.545C914.912 356.932 917.389 356.5 919.98 356.25C923.026 355.932 925.48 355.636 927.344 355.364C929.207 355.068 930.56 354.636 931.401 354.068C932.241 353.5 932.662 352.659 932.662 351.545V351.341C932.662 349.182 931.98 347.511 930.616 346.33C929.276 345.148 927.366 344.557 924.889 344.557C922.276 344.557 920.196 345.136 918.651 346.295C917.105 347.432 916.082 348.864 915.582 350.591L902.151 349.5C902.832 346.318 904.173 343.568 906.173 341.25C908.173 338.909 910.753 337.114 913.912 335.864C917.094 334.591 920.776 333.955 924.957 333.955C927.866 333.955 930.651 334.295 933.31 334.977C935.991 335.659 938.366 336.716 940.435 338.148C942.526 339.58 944.173 341.42 945.378 343.67C946.582 345.898 947.185 348.568 947.185 351.682V387H933.412V379.739H933.003C932.162 381.375 931.037 382.818 929.628 384.068C928.219 385.295 926.526 386.261 924.548 386.966C922.571 387.648 920.287 387.989 917.696 387.989ZM921.855 377.966C923.991 377.966 925.878 377.545 927.514 376.705C929.151 375.841 930.435 374.682 931.366 373.227C932.298 371.773 932.764 370.125 932.764 368.284V362.727C932.31 363.023 931.685 363.295 930.889 363.545C930.116 363.773 929.241 363.989 928.264 364.193C927.287 364.375 926.31 364.545 925.332 364.705C924.355 364.841 923.469 364.966 922.673 365.08C920.969 365.33 919.48 365.727 918.207 366.273C916.935 366.818 915.946 367.557 915.241 368.489C914.537 369.398 914.185 370.534 914.185 371.898C914.185 373.875 914.901 375.386 916.332 376.432C917.787 377.455 919.628 377.966 921.855 377.966ZM986.304 334.636V345.545H954.77V334.636H986.304ZM961.929 322.091H976.452V370.909C976.452 372.25 976.656 373.295 977.065 374.045C977.474 374.773 978.043 375.284 978.77 375.58C979.52 375.875 980.384 376.023 981.361 376.023C982.043 376.023 982.724 375.966 983.406 375.852C984.088 375.716 984.611 375.614 984.974 375.545L987.259 386.352C986.531 386.58 985.509 386.841 984.19 387.136C982.872 387.455 981.27 387.648 979.384 387.716C975.884 387.852 972.815 387.386 970.179 386.318C967.565 385.25 965.531 383.591 964.077 381.341C962.622 379.091 961.906 376.25 961.929 372.818V322.091ZM1018.86 388.023C1013.5 388.023 1008.88 386.886 1005.02 384.614C1001.18 382.318 998.224 379.136 996.156 375.068C994.111 371 993.088 366.318 993.088 361.023C993.088 355.659 994.122 350.955 996.19 346.909C998.281 342.841 1001.25 339.67 1005.09 337.398C1008.93 335.102 1013.5 333.955 1018.79 333.955C1023.36 333.955 1027.36 334.784 1030.79 336.443C1034.22 338.102 1036.94 340.432 1038.94 343.432C1040.94 346.432 1042.04 349.955 1042.25 354H1028.54C1028.16 351.386 1027.13 349.284 1025.47 347.693C1023.84 346.08 1021.69 345.273 1019.03 345.273C1016.78 345.273 1014.82 345.886 1013.13 347.114C1011.47 348.318 1010.18 350.08 1009.25 352.398C1008.32 354.716 1007.85 357.523 1007.85 360.818C1007.85 364.159 1008.3 367 1009.21 369.341C1010.14 371.682 1011.45 373.466 1013.13 374.693C1014.82 375.92 1016.78 376.534 1019.03 376.534C1020.69 376.534 1022.18 376.193 1023.5 375.511C1024.84 374.83 1025.94 373.841 1026.8 372.545C1027.69 371.227 1028.27 369.648 1028.54 367.807H1042.25C1042.02 371.807 1040.93 375.33 1038.97 378.375C1037.04 381.398 1034.37 383.761 1030.96 385.466C1027.55 387.17 1023.52 388.023 1018.86 388.023ZM1066.07 356.727V387H1051.55V317.182H1065.66V343.875H1066.27C1067.45 340.784 1069.36 338.364 1072 336.614C1074.64 334.841 1077.94 333.955 1081.92 333.955C1085.56 333.955 1088.73 334.75 1091.43 336.341C1094.16 337.909 1096.27 340.17 1097.77 343.125C1099.3 346.057 1100.05 349.568 1100.02 353.659V387H1085.5V356.25C1085.52 353.023 1084.7 350.511 1083.05 348.716C1081.41 346.92 1079.11 346.023 1076.16 346.023C1074.18 346.023 1072.43 346.443 1070.91 347.284C1069.41 348.125 1068.23 349.352 1067.36 350.966C1066.52 352.557 1066.09 354.477 1066.07 356.727ZM1111.45 387V334.636H1125.97V387H1111.45ZM1118.75 327.886C1116.59 327.886 1114.74 327.17 1113.19 325.739C1111.67 324.284 1110.91 322.545 1110.91 320.523C1110.91 318.523 1111.67 316.807 1113.19 315.375C1114.74 313.92 1116.59 313.193 1118.75 313.193C1120.91 313.193 1122.75 313.92 1124.27 315.375C1125.82 316.807 1126.59 318.523 1126.59 320.523C1126.59 322.545 1125.82 324.284 1124.27 325.739C1122.75 327.17 1120.91 327.886 1118.75 327.886ZM1152.13 356.727V387H1137.61V334.636H1151.45V343.875H1152.06C1153.22 340.83 1155.16 338.42 1157.89 336.648C1160.62 334.852 1163.93 333.955 1167.81 333.955C1171.45 333.955 1174.62 334.75 1177.32 336.341C1180.03 337.932 1182.13 340.205 1183.63 343.159C1185.13 346.091 1185.88 349.591 1185.88 353.659V387H1171.36V356.25C1171.38 353.045 1170.56 350.545 1168.9 348.75C1167.24 346.932 1164.96 346.023 1162.05 346.023C1160.1 346.023 1158.37 346.443 1156.87 347.284C1155.39 348.125 1154.23 349.352 1153.39 350.966C1152.57 352.557 1152.15 354.477 1152.13 356.727ZM1220.92 407.727C1216.21 407.727 1212.18 407.08 1208.82 405.784C1205.47 404.511 1202.82 402.773 1200.84 400.568C1198.86 398.364 1197.58 395.886 1196.99 393.136L1210.42 391.33C1210.83 392.375 1211.47 393.352 1212.36 394.261C1213.25 395.17 1214.42 395.898 1215.87 396.443C1217.35 397.011 1219.14 397.295 1221.26 397.295C1224.42 397.295 1227.02 396.523 1229.07 394.977C1231.13 393.455 1232.17 390.898 1232.17 387.307V377.727H1231.55C1230.92 379.182 1229.96 380.557 1228.69 381.852C1227.42 383.148 1225.78 384.205 1223.78 385.023C1221.78 385.841 1219.39 386.25 1216.62 386.25C1212.69 386.25 1209.11 385.341 1205.88 383.523C1202.68 381.682 1200.12 378.875 1198.21 375.102C1196.33 371.307 1195.38 366.511 1195.38 360.716C1195.38 354.784 1196.35 349.83 1198.28 345.852C1200.21 341.875 1202.78 338.898 1205.99 336.92C1209.21 334.943 1212.75 333.955 1216.59 333.955C1219.52 333.955 1221.97 334.455 1223.95 335.455C1225.93 336.432 1227.52 337.659 1228.72 339.136C1229.95 340.591 1230.89 342.023 1231.55 343.432H1232.1V334.636H1246.52V387.511C1246.52 391.966 1245.43 395.693 1243.25 398.693C1241.07 401.693 1238.04 403.943 1234.18 405.443C1230.34 406.966 1225.92 407.727 1220.92 407.727ZM1221.22 375.341C1223.57 375.341 1225.54 374.761 1227.16 373.602C1228.79 372.42 1230.04 370.739 1230.91 368.557C1231.79 366.352 1232.24 363.716 1232.24 360.648C1232.24 357.58 1231.8 354.92 1230.94 352.67C1230.08 350.398 1228.83 348.636 1227.19 347.386C1225.55 346.136 1223.57 345.511 1221.22 345.511C1218.84 345.511 1216.83 346.159 1215.19 347.455C1213.55 348.727 1212.32 350.5 1211.47 352.773C1210.63 355.045 1210.21 357.67 1210.21 360.648C1210.21 363.67 1210.63 366.284 1211.47 368.489C1212.34 370.67 1213.58 372.364 1215.19 373.568C1216.83 374.75 1218.84 375.341 1221.22 375.341Z" fill="url(#paint0_linear_562_3471)"/>
<defs>
<linearGradient id="paint0_linear_562_3471" x1="259" y1="352" x2="1253" y2="352" gradientUnits="userSpaceOnUse">
<stop stop-color="#FF36E6"/>
<stop offset="0.485" stop-color="#5243FE"/>
<stop offset="1" stop-color="#1400FF"/>
</linearGradient>
</defs>
</svg>
