<svg width="1512" height="808" viewBox="0 0 1512 808" fill="none" xmlns="http://www.w3.org/2000/svg">
<rect width="1512" height="808" fill="white"/>
<path d="M262.409 381.352V369.182H319.75V381.352H298.375V439H283.784V381.352H262.409ZM343.443 408.727V439H328.92V369.182H343.034V395.875H343.648C344.83 392.784 346.739 390.364 349.375 388.614C352.011 386.841 355.318 385.955 359.295 385.955C362.932 385.955 366.102 386.75 368.807 388.341C371.534 389.909 373.648 392.17 375.148 395.125C376.67 398.057 377.42 401.568 377.398 405.659V439H362.875V408.25C362.898 405.023 362.08 402.511 360.42 400.716C358.784 398.92 356.489 398.023 353.534 398.023C351.557 398.023 349.807 398.443 348.284 399.284C346.784 400.125 345.602 401.352 344.739 402.966C343.898 404.557 343.466 406.477 343.443 408.727ZM403.759 439.989C400.418 439.989 397.44 439.409 394.827 438.25C392.213 437.068 390.145 435.33 388.622 433.034C387.122 430.716 386.372 427.83 386.372 424.375C386.372 421.466 386.906 419.023 387.974 417.045C389.043 415.068 390.497 413.477 392.338 412.273C394.179 411.068 396.27 410.159 398.611 409.545C400.974 408.932 403.452 408.5 406.043 408.25C409.088 407.932 411.543 407.636 413.406 407.364C415.27 407.068 416.622 406.636 417.463 406.068C418.304 405.5 418.724 404.659 418.724 403.545V403.341C418.724 401.182 418.043 399.511 416.679 398.33C415.338 397.148 413.429 396.557 410.952 396.557C408.338 396.557 406.259 397.136 404.713 398.295C403.168 399.432 402.145 400.864 401.645 402.591L388.213 401.5C388.895 398.318 390.236 395.568 392.236 393.25C394.236 390.909 396.815 389.114 399.974 387.864C403.156 386.591 406.838 385.955 411.02 385.955C413.929 385.955 416.713 386.295 419.372 386.977C422.054 387.659 424.429 388.716 426.497 390.148C428.588 391.58 430.236 393.42 431.44 395.67C432.645 397.898 433.247 400.568 433.247 403.682V439H419.474V431.739H419.065C418.224 433.375 417.099 434.818 415.69 436.068C414.281 437.295 412.588 438.261 410.611 438.966C408.634 439.648 406.349 439.989 403.759 439.989ZM407.918 429.966C410.054 429.966 411.94 429.545 413.577 428.705C415.213 427.841 416.497 426.682 417.429 425.227C418.361 423.773 418.827 422.125 418.827 420.284V414.727C418.372 415.023 417.747 415.295 416.952 415.545C416.179 415.773 415.304 415.989 414.327 416.193C413.349 416.375 412.372 416.545 411.395 416.705C410.418 416.841 409.531 416.966 408.736 417.08C407.031 417.33 405.543 417.727 404.27 418.273C402.997 418.818 402.009 419.557 401.304 420.489C400.599 421.398 400.247 422.534 400.247 423.898C400.247 425.875 400.963 427.386 402.395 428.432C403.849 429.455 405.69 429.966 407.918 429.966ZM459.037 408.727V439H444.514V386.636H458.355V395.875H458.969C460.128 392.83 462.071 390.42 464.798 388.648C467.526 386.852 470.832 385.955 474.719 385.955C478.355 385.955 481.526 386.75 484.23 388.341C486.935 389.932 489.037 392.205 490.537 395.159C492.037 398.091 492.787 401.591 492.787 405.659V439H478.264V408.25C478.287 405.045 477.469 402.545 475.81 400.75C474.151 398.932 471.866 398.023 468.957 398.023C467.003 398.023 465.276 398.443 463.776 399.284C462.298 400.125 461.139 401.352 460.298 402.966C459.48 404.557 459.06 406.477 459.037 408.727ZM517.392 423.932L517.426 406.511H519.54L536.312 386.636H552.983L530.449 412.955H527.006L517.392 423.932ZM504.233 439V369.182H518.756V439H504.233ZM536.96 439L521.551 416.193L531.233 405.932L553.972 439H536.96ZM603.676 401.568L590.381 402.386C590.153 401.25 589.665 400.227 588.915 399.318C588.165 398.386 587.176 397.648 585.949 397.102C584.744 396.534 583.301 396.25 581.619 396.25C579.369 396.25 577.472 396.727 575.926 397.682C574.381 398.614 573.608 399.864 573.608 401.432C573.608 402.682 574.108 403.739 575.108 404.602C576.108 405.466 577.824 406.159 580.256 406.682L589.733 408.591C594.824 409.636 598.619 411.318 601.119 413.636C603.619 415.955 604.869 419 604.869 422.773C604.869 426.205 603.858 429.216 601.835 431.807C599.835 434.398 597.085 436.42 593.585 437.875C590.108 439.307 586.097 440.023 581.551 440.023C574.619 440.023 569.097 438.58 564.983 435.693C560.892 432.784 558.494 428.83 557.79 423.83L572.074 423.08C572.506 425.193 573.551 426.807 575.21 427.92C576.869 429.011 578.994 429.557 581.585 429.557C584.131 429.557 586.176 429.068 587.722 428.091C589.29 427.091 590.085 425.807 590.108 424.239C590.085 422.92 589.528 421.841 588.438 421C587.347 420.136 585.665 419.477 583.392 419.023L574.324 417.216C569.21 416.193 565.403 414.42 562.903 411.898C560.426 409.375 559.188 406.159 559.188 402.25C559.188 398.886 560.097 395.989 561.915 393.557C563.756 391.125 566.335 389.25 569.653 387.932C572.994 386.614 576.903 385.955 581.381 385.955C587.994 385.955 593.199 387.352 596.994 390.148C600.813 392.943 603.04 396.75 603.676 401.568ZM636.506 439V369.182H682.733V381.352H651.267V397.989H679.665V410.159H651.267V439H636.506ZM712.205 440.023C706.909 440.023 702.33 438.898 698.466 436.648C694.625 434.375 691.659 431.216 689.568 427.17C687.477 423.102 686.432 418.386 686.432 413.023C686.432 407.614 687.477 402.886 689.568 398.841C691.659 394.773 694.625 391.614 698.466 389.364C702.33 387.091 706.909 385.955 712.205 385.955C717.5 385.955 722.068 387.091 725.909 389.364C729.773 391.614 732.75 394.773 734.841 398.841C736.932 402.886 737.977 407.614 737.977 413.023C737.977 418.386 736.932 423.102 734.841 427.17C732.75 431.216 729.773 434.375 725.909 436.648C722.068 438.898 717.5 440.023 712.205 440.023ZM712.273 428.773C714.682 428.773 716.693 428.091 718.307 426.727C719.92 425.341 721.136 423.455 721.955 421.068C722.795 418.682 723.216 415.966 723.216 412.92C723.216 409.875 722.795 407.159 721.955 404.773C721.136 402.386 719.92 400.5 718.307 399.114C716.693 397.727 714.682 397.034 712.273 397.034C709.841 397.034 707.795 397.727 706.136 399.114C704.5 400.5 703.261 402.386 702.42 404.773C701.602 407.159 701.193 409.875 701.193 412.92C701.193 415.966 701.602 418.682 702.42 421.068C703.261 423.455 704.5 425.341 706.136 426.727C707.795 428.091 709.841 428.773 712.273 428.773ZM747.42 439V386.636H761.5V395.773H762.045C763 392.523 764.602 390.068 766.852 388.409C769.102 386.727 771.693 385.886 774.625 385.886C775.352 385.886 776.136 385.932 776.977 386.023C777.818 386.114 778.557 386.239 779.193 386.398V399.284C778.511 399.08 777.568 398.898 776.364 398.739C775.159 398.58 774.057 398.5 773.057 398.5C770.92 398.5 769.011 398.966 767.33 399.898C765.67 400.807 764.352 402.08 763.375 403.716C762.42 405.352 761.943 407.239 761.943 409.375V439H747.42ZM824.909 439L804.932 369.182H821.057L832.614 417.693H833.193L845.943 369.182H859.75L872.466 417.795H873.08L884.636 369.182H900.761L880.784 439H866.398L853.102 393.352H852.557L839.295 439H824.909ZM917.696 439.989C914.355 439.989 911.378 439.409 908.764 438.25C906.151 437.068 904.082 435.33 902.56 433.034C901.06 430.716 900.31 427.83 900.31 424.375C900.31 421.466 900.844 419.023 901.912 417.045C902.98 415.068 904.435 413.477 906.276 412.273C908.116 411.068 910.207 410.159 912.548 409.545C914.912 408.932 917.389 408.5 919.98 408.25C923.026 407.932 925.48 407.636 927.344 407.364C929.207 407.068 930.56 406.636 931.401 406.068C932.241 405.5 932.662 404.659 932.662 403.545V403.341C932.662 401.182 931.98 399.511 930.616 398.33C929.276 397.148 927.366 396.557 924.889 396.557C922.276 396.557 920.196 397.136 918.651 398.295C917.105 399.432 916.082 400.864 915.582 402.591L902.151 401.5C902.832 398.318 904.173 395.568 906.173 393.25C908.173 390.909 910.753 389.114 913.912 387.864C917.094 386.591 920.776 385.955 924.957 385.955C927.866 385.955 930.651 386.295 933.31 386.977C935.991 387.659 938.366 388.716 940.435 390.148C942.526 391.58 944.173 393.42 945.378 395.67C946.582 397.898 947.185 400.568 947.185 403.682V439H933.412V431.739H933.003C932.162 433.375 931.037 434.818 929.628 436.068C928.219 437.295 926.526 438.261 924.548 438.966C922.571 439.648 920.287 439.989 917.696 439.989ZM921.855 429.966C923.991 429.966 925.878 429.545 927.514 428.705C929.151 427.841 930.435 426.682 931.366 425.227C932.298 423.773 932.764 422.125 932.764 420.284V414.727C932.31 415.023 931.685 415.295 930.889 415.545C930.116 415.773 929.241 415.989 928.264 416.193C927.287 416.375 926.31 416.545 925.332 416.705C924.355 416.841 923.469 416.966 922.673 417.08C920.969 417.33 919.48 417.727 918.207 418.273C916.935 418.818 915.946 419.557 915.241 420.489C914.537 421.398 914.185 422.534 914.185 423.898C914.185 425.875 914.901 427.386 916.332 428.432C917.787 429.455 919.628 429.966 921.855 429.966ZM986.304 386.636V397.545H954.77V386.636H986.304ZM961.929 374.091H976.452V422.909C976.452 424.25 976.656 425.295 977.065 426.045C977.474 426.773 978.043 427.284 978.77 427.58C979.52 427.875 980.384 428.023 981.361 428.023C982.043 428.023 982.724 427.966 983.406 427.852C984.088 427.716 984.611 427.614 984.974 427.545L987.259 438.352C986.531 438.58 985.509 438.841 984.19 439.136C982.872 439.455 981.27 439.648 979.384 439.716C975.884 439.852 972.815 439.386 970.179 438.318C967.565 437.25 965.531 435.591 964.077 433.341C962.622 431.091 961.906 428.25 961.929 424.818V374.091ZM1018.86 440.023C1013.5 440.023 1008.88 438.886 1005.02 436.614C1001.18 434.318 998.224 431.136 996.156 427.068C994.111 423 993.088 418.318 993.088 413.023C993.088 407.659 994.122 402.955 996.19 398.909C998.281 394.841 1001.25 391.67 1005.09 389.398C1008.93 387.102 1013.5 385.955 1018.79 385.955C1023.36 385.955 1027.36 386.784 1030.79 388.443C1034.22 390.102 1036.94 392.432 1038.94 395.432C1040.94 398.432 1042.04 401.955 1042.25 406H1028.54C1028.16 403.386 1027.13 401.284 1025.47 399.693C1023.84 398.08 1021.69 397.273 1019.03 397.273C1016.78 397.273 1014.82 397.886 1013.13 399.114C1011.47 400.318 1010.18 402.08 1009.25 404.398C1008.32 406.716 1007.85 409.523 1007.85 412.818C1007.85 416.159 1008.3 419 1009.21 421.341C1010.14 423.682 1011.45 425.466 1013.13 426.693C1014.82 427.92 1016.78 428.534 1019.03 428.534C1020.69 428.534 1022.18 428.193 1023.5 427.511C1024.84 426.83 1025.94 425.841 1026.8 424.545C1027.69 423.227 1028.27 421.648 1028.54 419.807H1042.25C1042.02 423.807 1040.93 427.33 1038.97 430.375C1037.04 433.398 1034.37 435.761 1030.96 437.466C1027.55 439.17 1023.52 440.023 1018.86 440.023ZM1066.07 408.727V439H1051.55V369.182H1065.66V395.875H1066.27C1067.45 392.784 1069.36 390.364 1072 388.614C1074.64 386.841 1077.94 385.955 1081.92 385.955C1085.56 385.955 1088.73 386.75 1091.43 388.341C1094.16 389.909 1096.27 392.17 1097.77 395.125C1099.3 398.057 1100.05 401.568 1100.02 405.659V439H1085.5V408.25C1085.52 405.023 1084.7 402.511 1083.05 400.716C1081.41 398.92 1079.11 398.023 1076.16 398.023C1074.18 398.023 1072.43 398.443 1070.91 399.284C1069.41 400.125 1068.23 401.352 1067.36 402.966C1066.52 404.557 1066.09 406.477 1066.07 408.727ZM1111.45 439V386.636H1125.97V439H1111.45ZM1118.75 379.886C1116.59 379.886 1114.74 379.17 1113.19 377.739C1111.67 376.284 1110.91 374.545 1110.91 372.523C1110.91 370.523 1111.67 368.807 1113.19 367.375C1114.74 365.92 1116.59 365.193 1118.75 365.193C1120.91 365.193 1122.75 365.92 1124.27 367.375C1125.82 368.807 1126.59 370.523 1126.59 372.523C1126.59 374.545 1125.82 376.284 1124.27 377.739C1122.75 379.17 1120.91 379.886 1118.75 379.886ZM1152.13 408.727V439H1137.61V386.636H1151.45V395.875H1152.06C1153.22 392.83 1155.16 390.42 1157.89 388.648C1160.62 386.852 1163.93 385.955 1167.81 385.955C1171.45 385.955 1174.62 386.75 1177.32 388.341C1180.03 389.932 1182.13 392.205 1183.63 395.159C1185.13 398.091 1185.88 401.591 1185.88 405.659V439H1171.36V408.25C1171.38 405.045 1170.56 402.545 1168.9 400.75C1167.24 398.932 1164.96 398.023 1162.05 398.023C1160.1 398.023 1158.37 398.443 1156.87 399.284C1155.39 400.125 1154.23 401.352 1153.39 402.966C1152.57 404.557 1152.15 406.477 1152.13 408.727ZM1220.92 459.727C1216.21 459.727 1212.18 459.08 1208.82 457.784C1205.47 456.511 1202.82 454.773 1200.84 452.568C1198.86 450.364 1197.58 447.886 1196.99 445.136L1210.42 443.33C1210.83 444.375 1211.47 445.352 1212.36 446.261C1213.25 447.17 1214.42 447.898 1215.87 448.443C1217.35 449.011 1219.14 449.295 1221.26 449.295C1224.42 449.295 1227.02 448.523 1229.07 446.977C1231.13 445.455 1232.17 442.898 1232.17 439.307V429.727H1231.55C1230.92 431.182 1229.96 432.557 1228.69 433.852C1227.42 435.148 1225.78 436.205 1223.78 437.023C1221.78 437.841 1219.39 438.25 1216.62 438.25C1212.69 438.25 1209.11 437.341 1205.88 435.523C1202.68 433.682 1200.12 430.875 1198.21 427.102C1196.33 423.307 1195.38 418.511 1195.38 412.716C1195.38 406.784 1196.35 401.83 1198.28 397.852C1200.21 393.875 1202.78 390.898 1205.99 388.92C1209.21 386.943 1212.75 385.955 1216.59 385.955C1219.52 385.955 1221.97 386.455 1223.95 387.455C1225.93 388.432 1227.52 389.659 1228.72 391.136C1229.95 392.591 1230.89 394.023 1231.55 395.432H1232.1V386.636H1246.52V439.511C1246.52 443.966 1245.43 447.693 1243.25 450.693C1241.07 453.693 1238.04 455.943 1234.18 457.443C1230.34 458.966 1225.92 459.727 1220.92 459.727ZM1221.22 427.341C1223.57 427.341 1225.54 426.761 1227.16 425.602C1228.79 424.42 1230.04 422.739 1230.91 420.557C1231.79 418.352 1232.24 415.716 1232.24 412.648C1232.24 409.58 1231.8 406.92 1230.94 404.67C1230.08 402.398 1228.83 400.636 1227.19 399.386C1225.55 398.136 1223.57 397.511 1221.22 397.511C1218.84 397.511 1216.83 398.159 1215.19 399.455C1213.55 400.727 1212.32 402.5 1211.47 404.773C1210.63 407.045 1210.21 409.67 1210.21 412.648C1210.21 415.67 1210.63 418.284 1211.47 420.489C1212.34 422.67 1213.58 424.364 1215.19 425.568C1216.83 426.75 1218.84 427.341 1221.22 427.341Z" fill="black"/>
<path d="M262.409 381.352V369.182H319.75V381.352H298.375V439H283.784V381.352H262.409ZM343.443 408.727V439H328.92V369.182H343.034V395.875H343.648C344.83 392.784 346.739 390.364 349.375 388.614C352.011 386.841 355.318 385.955 359.295 385.955C362.932 385.955 366.102 386.75 368.807 388.341C371.534 389.909 373.648 392.17 375.148 395.125C376.67 398.057 377.42 401.568 377.398 405.659V439H362.875V408.25C362.898 405.023 362.08 402.511 360.42 400.716C358.784 398.92 356.489 398.023 353.534 398.023C351.557 398.023 349.807 398.443 348.284 399.284C346.784 400.125 345.602 401.352 344.739 402.966C343.898 404.557 343.466 406.477 343.443 408.727ZM403.759 439.989C400.418 439.989 397.44 439.409 394.827 438.25C392.213 437.068 390.145 435.33 388.622 433.034C387.122 430.716 386.372 427.83 386.372 424.375C386.372 421.466 386.906 419.023 387.974 417.045C389.043 415.068 390.497 413.477 392.338 412.273C394.179 411.068 396.27 410.159 398.611 409.545C400.974 408.932 403.452 408.5 406.043 408.25C409.088 407.932 411.543 407.636 413.406 407.364C415.27 407.068 416.622 406.636 417.463 406.068C418.304 405.5 418.724 404.659 418.724 403.545V403.341C418.724 401.182 418.043 399.511 416.679 398.33C415.338 397.148 413.429 396.557 410.952 396.557C408.338 396.557 406.259 397.136 404.713 398.295C403.168 399.432 402.145 400.864 401.645 402.591L388.213 401.5C388.895 398.318 390.236 395.568 392.236 393.25C394.236 390.909 396.815 389.114 399.974 387.864C403.156 386.591 406.838 385.955 411.02 385.955C413.929 385.955 416.713 386.295 419.372 386.977C422.054 387.659 424.429 388.716 426.497 390.148C428.588 391.58 430.236 393.42 431.44 395.67C432.645 397.898 433.247 400.568 433.247 403.682V439H419.474V431.739H419.065C418.224 433.375 417.099 434.818 415.69 436.068C414.281 437.295 412.588 438.261 410.611 438.966C408.634 439.648 406.349 439.989 403.759 439.989ZM407.918 429.966C410.054 429.966 411.94 429.545 413.577 428.705C415.213 427.841 416.497 426.682 417.429 425.227C418.361 423.773 418.827 422.125 418.827 420.284V414.727C418.372 415.023 417.747 415.295 416.952 415.545C416.179 415.773 415.304 415.989 414.327 416.193C413.349 416.375 412.372 416.545 411.395 416.705C410.418 416.841 409.531 416.966 408.736 417.08C407.031 417.33 405.543 417.727 404.27 418.273C402.997 418.818 402.009 419.557 401.304 420.489C400.599 421.398 400.247 422.534 400.247 423.898C400.247 425.875 400.963 427.386 402.395 428.432C403.849 429.455 405.69 429.966 407.918 429.966ZM459.037 408.727V439H444.514V386.636H458.355V395.875H458.969C460.128 392.83 462.071 390.42 464.798 388.648C467.526 386.852 470.832 385.955 474.719 385.955C478.355 385.955 481.526 386.75 484.23 388.341C486.935 389.932 489.037 392.205 490.537 395.159C492.037 398.091 492.787 401.591 492.787 405.659V439H478.264V408.25C478.287 405.045 477.469 402.545 475.81 400.75C474.151 398.932 471.866 398.023 468.957 398.023C467.003 398.023 465.276 398.443 463.776 399.284C462.298 400.125 461.139 401.352 460.298 402.966C459.48 404.557 459.06 406.477 459.037 408.727ZM517.392 423.932L517.426 406.511H519.54L536.312 386.636H552.983L530.449 412.955H527.006L517.392 423.932ZM504.233 439V369.182H518.756V439H504.233ZM536.96 439L521.551 416.193L531.233 405.932L553.972 439H536.96ZM603.676 401.568L590.381 402.386C590.153 401.25 589.665 400.227 588.915 399.318C588.165 398.386 587.176 397.648 585.949 397.102C584.744 396.534 583.301 396.25 581.619 396.25C579.369 396.25 577.472 396.727 575.926 397.682C574.381 398.614 573.608 399.864 573.608 401.432C573.608 402.682 574.108 403.739 575.108 404.602C576.108 405.466 577.824 406.159 580.256 406.682L589.733 408.591C594.824 409.636 598.619 411.318 601.119 413.636C603.619 415.955 604.869 419 604.869 422.773C604.869 426.205 603.858 429.216 601.835 431.807C599.835 434.398 597.085 436.42 593.585 437.875C590.108 439.307 586.097 440.023 581.551 440.023C574.619 440.023 569.097 438.58 564.983 435.693C560.892 432.784 558.494 428.83 557.79 423.83L572.074 423.08C572.506 425.193 573.551 426.807 575.21 427.92C576.869 429.011 578.994 429.557 581.585 429.557C584.131 429.557 586.176 429.068 587.722 428.091C589.29 427.091 590.085 425.807 590.108 424.239C590.085 422.92 589.528 421.841 588.438 421C587.347 420.136 585.665 419.477 583.392 419.023L574.324 417.216C569.21 416.193 565.403 414.42 562.903 411.898C560.426 409.375 559.188 406.159 559.188 402.25C559.188 398.886 560.097 395.989 561.915 393.557C563.756 391.125 566.335 389.25 569.653 387.932C572.994 386.614 576.903 385.955 581.381 385.955C587.994 385.955 593.199 387.352 596.994 390.148C600.813 392.943 603.04 396.75 603.676 401.568ZM636.506 439V369.182H682.733V381.352H651.267V397.989H679.665V410.159H651.267V439H636.506ZM712.205 440.023C706.909 440.023 702.33 438.898 698.466 436.648C694.625 434.375 691.659 431.216 689.568 427.17C687.477 423.102 686.432 418.386 686.432 413.023C686.432 407.614 687.477 402.886 689.568 398.841C691.659 394.773 694.625 391.614 698.466 389.364C702.33 387.091 706.909 385.955 712.205 385.955C717.5 385.955 722.068 387.091 725.909 389.364C729.773 391.614 732.75 394.773 734.841 398.841C736.932 402.886 737.977 407.614 737.977 413.023C737.977 418.386 736.932 423.102 734.841 427.17C732.75 431.216 729.773 434.375 725.909 436.648C722.068 438.898 717.5 440.023 712.205 440.023ZM712.273 428.773C714.682 428.773 716.693 428.091 718.307 426.727C719.92 425.341 721.136 423.455 721.955 421.068C722.795 418.682 723.216 415.966 723.216 412.92C723.216 409.875 722.795 407.159 721.955 404.773C721.136 402.386 719.92 400.5 718.307 399.114C716.693 397.727 714.682 397.034 712.273 397.034C709.841 397.034 707.795 397.727 706.136 399.114C704.5 400.5 703.261 402.386 702.42 404.773C701.602 407.159 701.193 409.875 701.193 412.92C701.193 415.966 701.602 418.682 702.42 421.068C703.261 423.455 704.5 425.341 706.136 426.727C707.795 428.091 709.841 428.773 712.273 428.773ZM747.42 439V386.636H761.5V395.773H762.045C763 392.523 764.602 390.068 766.852 388.409C769.102 386.727 771.693 385.886 774.625 385.886C775.352 385.886 776.136 385.932 776.977 386.023C777.818 386.114 778.557 386.239 779.193 386.398V399.284C778.511 399.08 777.568 398.898 776.364 398.739C775.159 398.58 774.057 398.5 773.057 398.5C770.92 398.5 769.011 398.966 767.33 399.898C765.67 400.807 764.352 402.08 763.375 403.716C762.42 405.352 761.943 407.239 761.943 409.375V439H747.42ZM824.909 439L804.932 369.182H821.057L832.614 417.693H833.193L845.943 369.182H859.75L872.466 417.795H873.08L884.636 369.182H900.761L880.784 439H866.398L853.102 393.352H852.557L839.295 439H824.909ZM917.696 439.989C914.355 439.989 911.378 439.409 908.764 438.25C906.151 437.068 904.082 435.33 902.56 433.034C901.06 430.716 900.31 427.83 900.31 424.375C900.31 421.466 900.844 419.023 901.912 417.045C902.98 415.068 904.435 413.477 906.276 412.273C908.116 411.068 910.207 410.159 912.548 409.545C914.912 408.932 917.389 408.5 919.98 408.25C923.026 407.932 925.48 407.636 927.344 407.364C929.207 407.068 930.56 406.636 931.401 406.068C932.241 405.5 932.662 404.659 932.662 403.545V403.341C932.662 401.182 931.98 399.511 930.616 398.33C929.276 397.148 927.366 396.557 924.889 396.557C922.276 396.557 920.196 397.136 918.651 398.295C917.105 399.432 916.082 400.864 915.582 402.591L902.151 401.5C902.832 398.318 904.173 395.568 906.173 393.25C908.173 390.909 910.753 389.114 913.912 387.864C917.094 386.591 920.776 385.955 924.957 385.955C927.866 385.955 930.651 386.295 933.31 386.977C935.991 387.659 938.366 388.716 940.435 390.148C942.526 391.58 944.173 393.42 945.378 395.67C946.582 397.898 947.185 400.568 947.185 403.682V439H933.412V431.739H933.003C932.162 433.375 931.037 434.818 929.628 436.068C928.219 437.295 926.526 438.261 924.548 438.966C922.571 439.648 920.287 439.989 917.696 439.989ZM921.855 429.966C923.991 429.966 925.878 429.545 927.514 428.705C929.151 427.841 930.435 426.682 931.366 425.227C932.298 423.773 932.764 422.125 932.764 420.284V414.727C932.31 415.023 931.685 415.295 930.889 415.545C930.116 415.773 929.241 415.989 928.264 416.193C927.287 416.375 926.31 416.545 925.332 416.705C924.355 416.841 923.469 416.966 922.673 417.08C920.969 417.33 919.48 417.727 918.207 418.273C916.935 418.818 915.946 419.557 915.241 420.489C914.537 421.398 914.185 422.534 914.185 423.898C914.185 425.875 914.901 427.386 916.332 428.432C917.787 429.455 919.628 429.966 921.855 429.966ZM986.304 386.636V397.545H954.77V386.636H986.304ZM961.929 374.091H976.452V422.909C976.452 424.25 976.656 425.295 977.065 426.045C977.474 426.773 978.043 427.284 978.77 427.58C979.52 427.875 980.384 428.023 981.361 428.023C982.043 428.023 982.724 427.966 983.406 427.852C984.088 427.716 984.611 427.614 984.974 427.545L987.259 438.352C986.531 438.58 985.509 438.841 984.19 439.136C982.872 439.455 981.27 439.648 979.384 439.716C975.884 439.852 972.815 439.386 970.179 438.318C967.565 437.25 965.531 435.591 964.077 433.341C962.622 431.091 961.906 428.25 961.929 424.818V374.091ZM1018.86 440.023C1013.5 440.023 1008.88 438.886 1005.02 436.614C1001.18 434.318 998.224 431.136 996.156 427.068C994.111 423 993.088 418.318 993.088 413.023C993.088 407.659 994.122 402.955 996.19 398.909C998.281 394.841 1001.25 391.67 1005.09 389.398C1008.93 387.102 1013.5 385.955 1018.79 385.955C1023.36 385.955 1027.36 386.784 1030.79 388.443C1034.22 390.102 1036.94 392.432 1038.94 395.432C1040.94 398.432 1042.04 401.955 1042.25 406H1028.54C1028.16 403.386 1027.13 401.284 1025.47 399.693C1023.84 398.08 1021.69 397.273 1019.03 397.273C1016.78 397.273 1014.82 397.886 1013.13 399.114C1011.47 400.318 1010.18 402.08 1009.25 404.398C1008.32 406.716 1007.85 409.523 1007.85 412.818C1007.85 416.159 1008.3 419 1009.21 421.341C1010.14 423.682 1011.45 425.466 1013.13 426.693C1014.82 427.92 1016.78 428.534 1019.03 428.534C1020.69 428.534 1022.18 428.193 1023.5 427.511C1024.84 426.83 1025.94 425.841 1026.8 424.545C1027.69 423.227 1028.27 421.648 1028.54 419.807H1042.25C1042.02 423.807 1040.93 427.33 1038.97 430.375C1037.04 433.398 1034.37 435.761 1030.96 437.466C1027.55 439.17 1023.52 440.023 1018.86 440.023ZM1066.07 408.727V439H1051.55V369.182H1065.66V395.875H1066.27C1067.45 392.784 1069.36 390.364 1072 388.614C1074.64 386.841 1077.94 385.955 1081.92 385.955C1085.56 385.955 1088.73 386.75 1091.43 388.341C1094.16 389.909 1096.27 392.17 1097.77 395.125C1099.3 398.057 1100.05 401.568 1100.02 405.659V439H1085.5V408.25C1085.52 405.023 1084.7 402.511 1083.05 400.716C1081.41 398.92 1079.11 398.023 1076.16 398.023C1074.18 398.023 1072.43 398.443 1070.91 399.284C1069.41 400.125 1068.23 401.352 1067.36 402.966C1066.52 404.557 1066.09 406.477 1066.07 408.727ZM1111.45 439V386.636H1125.97V439H1111.45ZM1118.75 379.886C1116.59 379.886 1114.74 379.17 1113.19 377.739C1111.67 376.284 1110.91 374.545 1110.91 372.523C1110.91 370.523 1111.67 368.807 1113.19 367.375C1114.74 365.92 1116.59 365.193 1118.75 365.193C1120.91 365.193 1122.75 365.92 1124.27 367.375C1125.82 368.807 1126.59 370.523 1126.59 372.523C1126.59 374.545 1125.82 376.284 1124.27 377.739C1122.75 379.17 1120.91 379.886 1118.75 379.886ZM1152.13 408.727V439H1137.61V386.636H1151.45V395.875H1152.06C1153.22 392.83 1155.16 390.42 1157.89 388.648C1160.62 386.852 1163.93 385.955 1167.81 385.955C1171.45 385.955 1174.62 386.75 1177.32 388.341C1180.03 389.932 1182.13 392.205 1183.63 395.159C1185.13 398.091 1185.88 401.591 1185.88 405.659V439H1171.36V408.25C1171.38 405.045 1170.56 402.545 1168.9 400.75C1167.24 398.932 1164.96 398.023 1162.05 398.023C1160.1 398.023 1158.37 398.443 1156.87 399.284C1155.39 400.125 1154.23 401.352 1153.39 402.966C1152.57 404.557 1152.15 406.477 1152.13 408.727ZM1220.92 459.727C1216.21 459.727 1212.18 459.08 1208.82 457.784C1205.47 456.511 1202.82 454.773 1200.84 452.568C1198.86 450.364 1197.58 447.886 1196.99 445.136L1210.42 443.33C1210.83 444.375 1211.47 445.352 1212.36 446.261C1213.25 447.17 1214.42 447.898 1215.87 448.443C1217.35 449.011 1219.14 449.295 1221.26 449.295C1224.42 449.295 1227.02 448.523 1229.07 446.977C1231.13 445.455 1232.17 442.898 1232.17 439.307V429.727H1231.55C1230.92 431.182 1229.96 432.557 1228.69 433.852C1227.42 435.148 1225.78 436.205 1223.78 437.023C1221.78 437.841 1219.39 438.25 1216.62 438.25C1212.69 438.25 1209.11 437.341 1205.88 435.523C1202.68 433.682 1200.12 430.875 1198.21 427.102C1196.33 423.307 1195.38 418.511 1195.38 412.716C1195.38 406.784 1196.35 401.83 1198.28 397.852C1200.21 393.875 1202.78 390.898 1205.99 388.92C1209.21 386.943 1212.75 385.955 1216.59 385.955C1219.52 385.955 1221.97 386.455 1223.95 387.455C1225.93 388.432 1227.52 389.659 1228.72 391.136C1229.95 392.591 1230.89 394.023 1231.55 395.432H1232.1V386.636H1246.52V439.511C1246.52 443.966 1245.43 447.693 1243.25 450.693C1241.07 453.693 1238.04 455.943 1234.18 457.443C1230.34 458.966 1225.92 459.727 1220.92 459.727ZM1221.22 427.341C1223.57 427.341 1225.54 426.761 1227.16 425.602C1228.79 424.42 1230.04 422.739 1230.91 420.557C1231.79 418.352 1232.24 415.716 1232.24 412.648C1232.24 409.58 1231.8 406.92 1230.94 404.67C1230.08 402.398 1228.83 400.636 1227.19 399.386C1225.55 398.136 1223.57 397.511 1221.22 397.511C1218.84 397.511 1216.83 398.159 1215.19 399.455C1213.55 400.727 1212.32 402.5 1211.47 404.773C1210.63 407.045 1210.21 409.67 1210.21 412.648C1210.21 415.67 1210.63 418.284 1211.47 420.489C1212.34 422.67 1213.58 424.364 1215.19 425.568C1216.83 426.75 1218.84 427.341 1221.22 427.341Z" fill="url(#paint0_linear_562_3471)"/>
<path d="M651.759 41V23.5455H658.646C659.969 23.5455 661.097 23.7983 662.029 24.304C662.961 24.804 663.671 25.5 664.16 26.392C664.654 27.2784 664.901 28.3011 664.901 29.4602C664.901 30.6193 664.651 31.642 664.151 32.5284C663.651 33.4148 662.927 34.1051 661.978 34.5994C661.035 35.0937 659.893 35.3409 658.552 35.3409H654.163V32.3835H657.955C658.665 32.3835 659.251 32.2614 659.711 32.017C660.177 31.767 660.523 31.4233 660.751 30.9858C660.984 30.5426 661.1 30.0341 661.1 29.4602C661.1 28.8807 660.984 28.375 660.751 27.9432C660.523 27.5057 660.177 27.1676 659.711 26.929C659.245 26.6847 658.654 26.5625 657.938 26.5625H655.45V41H651.759ZM675.625 35.4261V27.9091H679.256V41H675.77V38.6222H675.634C675.338 39.3892 674.847 40.0057 674.159 40.4716C673.477 40.9375 672.645 41.1705 671.662 41.1705C670.787 41.1705 670.017 40.9716 669.352 40.5739C668.688 40.1761 668.168 39.6108 667.793 38.8778C667.423 38.1449 667.236 37.267 667.23 36.2443V27.9091H670.861V35.5966C670.866 36.3693 671.074 36.9801 671.483 37.429C671.892 37.8778 672.44 38.1023 673.128 38.1023C673.565 38.1023 673.974 38.0028 674.355 37.804C674.736 37.5994 675.043 37.2983 675.276 36.9006C675.514 36.5028 675.631 36.0114 675.625 35.4261ZM682.228 41V23.5455H685.859V30.108H685.969C686.129 29.7557 686.359 29.3977 686.66 29.0341C686.967 28.6648 687.364 28.358 687.853 28.1136C688.347 27.8636 688.961 27.7386 689.694 27.7386C690.648 27.7386 691.529 27.9886 692.336 28.4886C693.143 28.983 693.788 29.7301 694.271 30.7301C694.754 31.7244 694.995 32.9716 694.995 34.4716C694.995 35.9318 694.759 37.1648 694.288 38.1705C693.822 39.1705 693.185 39.929 692.379 40.446C691.577 40.9574 690.68 41.2131 689.685 41.2131C688.981 41.2131 688.381 41.0966 687.887 40.8636C687.398 40.6307 686.998 40.3381 686.685 39.9858C686.373 39.6278 686.134 39.267 685.969 38.9034H685.808V41H682.228ZM685.782 34.4545C685.782 35.233 685.89 35.9119 686.106 36.4915C686.322 37.071 686.634 37.5227 687.043 37.8466C687.452 38.1648 687.95 38.3239 688.535 38.3239C689.126 38.3239 689.626 38.1619 690.035 37.8381C690.444 37.5085 690.754 37.054 690.964 36.4744C691.18 35.8892 691.288 35.2159 691.288 34.4545C691.288 33.6989 691.183 33.0341 690.972 32.4602C690.762 31.8864 690.452 31.4375 690.043 31.1136C689.634 30.7898 689.131 30.6278 688.535 30.6278C687.944 30.6278 687.444 30.7841 687.035 31.0966C686.631 31.4091 686.322 31.8523 686.106 32.4261C685.89 33 685.782 33.6761 685.782 34.4545ZM701.048 23.5455V41H697.418V23.5455H701.048ZM703.957 41V27.9091H707.587V41H703.957ZM705.781 26.2216C705.241 26.2216 704.778 26.0426 704.391 25.6847C704.011 25.321 703.82 24.8864 703.82 24.3807C703.82 23.8807 704.011 23.4517 704.391 23.0938C704.778 22.7301 705.241 22.5483 705.781 22.5483C706.32 22.5483 706.781 22.7301 707.161 23.0938C707.548 23.4517 707.741 23.8807 707.741 24.3807C707.741 24.8864 707.548 25.321 707.161 25.6847C706.781 26.0426 706.32 26.2216 705.781 26.2216ZM721.388 31.642L718.064 31.8466C718.007 31.5625 717.885 31.3068 717.697 31.0795C717.51 30.8466 717.263 30.6619 716.956 30.5256C716.655 30.3835 716.294 30.3125 715.874 30.3125C715.311 30.3125 714.837 30.4318 714.45 30.6705C714.064 30.9034 713.871 31.2159 713.871 31.608C713.871 31.9205 713.996 32.1847 714.246 32.4006C714.496 32.6165 714.925 32.7898 715.533 32.9205L717.902 33.3977C719.175 33.6591 720.124 34.0795 720.749 34.6591C721.374 35.2386 721.686 36 721.686 36.9432C721.686 37.8011 721.433 38.554 720.928 39.2017C720.428 39.8494 719.74 40.3551 718.865 40.7188C717.996 41.0767 716.993 41.2557 715.857 41.2557C714.124 41.2557 712.743 40.8949 711.714 40.1733C710.692 39.446 710.092 38.4574 709.916 37.2074L713.487 37.0199C713.595 37.5483 713.857 37.9517 714.271 38.2301C714.686 38.5028 715.217 38.6392 715.865 38.6392C716.501 38.6392 717.013 38.517 717.399 38.2727C717.791 38.0227 717.99 37.7017 717.996 37.3097C717.99 36.9801 717.851 36.7102 717.578 36.5C717.305 36.2841 716.885 36.1193 716.317 36.0057L714.05 35.554C712.771 35.2983 711.82 34.8551 711.195 34.2244C710.575 33.5937 710.266 32.7898 710.266 31.8125C710.266 30.9716 710.493 30.2472 710.947 29.6392C711.408 29.0312 712.053 28.5625 712.882 28.233C713.717 27.9034 714.695 27.7386 715.814 27.7386C717.467 27.7386 718.768 28.0881 719.717 28.7869C720.672 29.4858 721.229 30.4375 721.388 31.642ZM727.603 33.4318V41H723.972V23.5455H727.501V30.2188H727.654C727.95 29.446 728.427 28.8409 729.086 28.4034C729.745 27.9602 730.572 27.7386 731.566 27.7386C732.475 27.7386 733.268 27.9375 733.944 28.3352C734.626 28.7273 735.154 29.2926 735.529 30.0312C735.91 30.7642 736.097 31.642 736.092 32.6648V41H732.461V33.3125C732.467 32.5057 732.262 31.8778 731.847 31.429C731.438 30.9801 730.864 30.7557 730.126 30.7557C729.631 30.7557 729.194 30.8608 728.813 31.071C728.438 31.2812 728.143 31.5881 727.927 31.9915C727.717 32.3892 727.609 32.8693 727.603 33.4318ZM744.572 41V23.5455H748.202V30.108H748.313C748.472 29.7557 748.702 29.3977 749.004 29.0341C749.31 28.6648 749.708 28.358 750.197 28.1136C750.691 27.8636 751.305 27.7386 752.038 27.7386C752.992 27.7386 753.873 27.9886 754.68 28.4886C755.487 28.983 756.131 29.7301 756.614 30.7301C757.097 31.7244 757.339 32.9716 757.339 34.4716C757.339 35.9318 757.103 37.1648 756.631 38.1705C756.165 39.1705 755.529 39.929 754.722 40.446C753.921 40.9574 753.023 41.2131 752.029 41.2131C751.325 41.2131 750.725 41.0966 750.231 40.8636C749.742 40.6307 749.342 40.3381 749.029 39.9858C748.717 39.6278 748.478 39.267 748.313 38.9034H748.151V41H744.572ZM748.126 34.4545C748.126 35.233 748.234 35.9119 748.45 36.4915C748.665 37.071 748.978 37.5227 749.387 37.8466C749.796 38.1648 750.293 38.3239 750.879 38.3239C751.469 38.3239 751.969 38.1619 752.379 37.8381C752.788 37.5085 753.097 37.054 753.308 36.4744C753.523 35.8892 753.631 35.2159 753.631 34.4545C753.631 33.6989 753.526 33.0341 753.316 32.4602C753.106 31.8864 752.796 31.4375 752.387 31.1136C751.978 30.7898 751.475 30.6278 750.879 30.6278C750.288 30.6278 749.788 30.7841 749.379 31.0966C748.975 31.4091 748.665 31.8523 748.45 32.4261C748.234 33 748.126 33.6761 748.126 34.4545ZM761.581 45.9091C761.121 45.9091 760.689 45.8722 760.286 45.7983C759.888 45.7301 759.558 45.642 759.297 45.5341L760.115 42.8239C760.541 42.9545 760.925 43.0256 761.266 43.0369C761.612 43.0483 761.911 42.9688 762.161 42.7983C762.416 42.6278 762.624 42.3381 762.783 41.929L762.996 41.375L758.3 27.9091H762.118L764.828 37.5227H764.964L767.7 27.9091H771.544L766.456 42.4148C766.212 43.1193 765.879 43.733 765.459 44.2557C765.044 44.7841 764.518 45.1903 763.882 45.4744C763.246 45.7642 762.479 45.9091 761.581 45.9091ZM779.025 41V23.5455H790.582V26.5881H782.715V30.7472H789.815V33.7898H782.715V41H779.025ZM792.785 41V27.9091H796.305V30.1932H796.441C796.68 29.3807 797.08 28.767 797.643 28.3523C798.205 27.9318 798.853 27.7216 799.586 27.7216C799.768 27.7216 799.964 27.733 800.174 27.7557C800.384 27.7784 800.569 27.8097 800.728 27.8494V31.071C800.558 31.0199 800.322 30.9744 800.021 30.9347C799.719 30.8949 799.444 30.875 799.194 30.875C798.66 30.875 798.183 30.9915 797.762 31.2244C797.347 31.4517 797.018 31.7699 796.773 32.179C796.535 32.5881 796.415 33.0597 796.415 33.5938V41H792.785ZM805.963 41.2472C805.128 41.2472 804.384 41.1023 803.73 40.8125C803.077 40.517 802.56 40.0824 802.179 39.5085C801.804 38.929 801.616 38.2074 801.616 37.3438C801.616 36.6165 801.75 36.0057 802.017 35.5114C802.284 35.017 802.648 34.6193 803.108 34.3182C803.568 34.017 804.091 33.7898 804.676 33.6364C805.267 33.483 805.886 33.375 806.534 33.3125C807.295 33.233 807.909 33.1591 808.375 33.0909C808.841 33.017 809.179 32.9091 809.389 32.767C809.599 32.625 809.705 32.4148 809.705 32.1364V32.0852C809.705 31.5455 809.534 31.1278 809.193 30.8324C808.858 30.5369 808.381 30.3892 807.761 30.3892C807.108 30.3892 806.588 30.5341 806.202 30.8239C805.815 31.108 805.56 31.4659 805.435 31.8977L802.077 31.625C802.247 30.8295 802.582 30.142 803.082 29.5625C803.582 28.9773 804.227 28.5284 805.017 28.2159C805.813 27.8977 806.733 27.7386 807.778 27.7386C808.506 27.7386 809.202 27.8239 809.866 27.9943C810.537 28.1648 811.131 28.429 811.648 28.7869C812.17 29.1449 812.582 29.6051 812.884 30.1676C813.185 30.7244 813.335 31.392 813.335 32.1705V41H809.892V39.1847H809.79C809.58 39.5938 809.298 39.9545 808.946 40.267C808.594 40.5739 808.17 40.8153 807.676 40.9915C807.182 41.1619 806.611 41.2472 805.963 41.2472ZM807.003 38.7415C807.537 38.7415 808.009 38.6364 808.418 38.4261C808.827 38.2102 809.148 37.9205 809.381 37.5568C809.614 37.1932 809.73 36.7812 809.73 36.321V34.9318C809.616 35.0057 809.46 35.0739 809.261 35.1364C809.068 35.1932 808.849 35.2472 808.605 35.2983C808.361 35.3437 808.116 35.3864 807.872 35.4261C807.628 35.4602 807.406 35.4915 807.207 35.5199C806.781 35.5824 806.409 35.6818 806.091 35.8182C805.773 35.9545 805.526 36.1392 805.349 36.3722C805.173 36.5994 805.085 36.8835 805.085 37.2244C805.085 37.7188 805.264 38.0966 805.622 38.358C805.986 38.6136 806.446 38.7415 807.003 38.7415ZM816.152 41V27.9091H819.612V30.2188H819.766C820.038 29.4517 820.493 28.8466 821.129 28.4034C821.766 27.9602 822.527 27.7386 823.413 27.7386C824.311 27.7386 825.075 27.9631 825.706 28.4119C826.337 28.8551 826.757 29.4574 826.967 30.2188H827.104C827.371 29.4688 827.854 28.8693 828.553 28.4205C829.257 27.9659 830.089 27.7386 831.05 27.7386C832.271 27.7386 833.263 28.1278 834.024 28.9062C834.791 29.679 835.175 30.7756 835.175 32.196V41H831.553V32.9119C831.553 32.1847 831.359 31.6392 830.973 31.2756C830.587 30.9119 830.104 30.7301 829.524 30.7301C828.865 30.7301 828.351 30.9403 827.982 31.3608C827.612 31.7756 827.428 32.3239 827.428 33.0057V41H823.908V32.8352C823.908 32.1932 823.723 31.6818 823.354 31.3011C822.99 30.9205 822.51 30.7301 821.913 30.7301C821.51 30.7301 821.146 30.8324 820.822 31.0369C820.504 31.2358 820.251 31.517 820.064 31.8807C819.876 32.2386 819.783 32.6591 819.783 33.142V41H816.152ZM844.009 41.2557C842.662 41.2557 841.503 40.983 840.531 40.4375C839.565 39.8864 838.821 39.108 838.298 38.1023C837.776 37.0909 837.514 35.8949 837.514 34.5142C837.514 33.1676 837.776 31.9858 838.298 30.9688C838.821 29.9517 839.557 29.1591 840.506 28.5909C841.46 28.0227 842.58 27.7386 843.864 27.7386C844.727 27.7386 845.531 27.8778 846.276 28.1562C847.026 28.429 847.679 28.8409 848.236 29.392C848.798 29.9432 849.236 30.6364 849.548 31.4716C849.861 32.3011 850.017 33.2727 850.017 34.3864V35.3835H838.963V33.1335H846.599C846.599 32.6108 846.486 32.1477 846.259 31.7443C846.031 31.3409 845.716 31.0256 845.312 30.7983C844.915 30.5653 844.452 30.4489 843.923 30.4489C843.372 30.4489 842.884 30.5767 842.457 30.8324C842.037 31.0824 841.707 31.4205 841.469 31.8466C841.23 32.267 841.108 32.7358 841.102 33.2528V35.392C841.102 36.0398 841.222 36.5994 841.46 37.071C841.705 37.5426 842.048 37.9062 842.491 38.1619C842.935 38.4176 843.46 38.5455 844.068 38.5455C844.472 38.5455 844.841 38.4886 845.176 38.375C845.511 38.2614 845.798 38.0909 846.037 37.8636C846.276 37.6364 846.457 37.358 846.582 37.0284L849.94 37.25C849.77 38.0568 849.42 38.7614 848.892 39.3636C848.369 39.9602 847.693 40.4261 846.864 40.7614C846.04 41.0909 845.088 41.2557 844.009 41.2557ZM852.386 41V27.9091H855.906V30.1932H856.043C856.281 29.3807 856.682 28.767 857.244 28.3523C857.807 27.9318 858.455 27.7216 859.188 27.7216C859.369 27.7216 859.565 27.733 859.776 27.7557C859.986 27.7784 860.17 27.8097 860.33 27.8494V31.071C860.159 31.0199 859.923 30.9744 859.622 30.9347C859.321 30.8949 859.045 30.875 858.795 30.875C858.261 30.875 857.784 30.9915 857.364 31.2244C856.949 31.4517 856.619 31.7699 856.375 32.179C856.136 32.5881 856.017 33.0597 856.017 33.5938V41H852.386Z" fill="black"/>
<path d="M651.759 41V23.5455H658.646C659.969 23.5455 661.097 23.7983 662.029 24.304C662.961 24.804 663.671 25.5 664.16 26.392C664.654 27.2784 664.901 28.3011 664.901 29.4602C664.901 30.6193 664.651 31.642 664.151 32.5284C663.651 33.4148 662.927 34.1051 661.978 34.5994C661.035 35.0937 659.893 35.3409 658.552 35.3409H654.163V32.3835H657.955C658.665 32.3835 659.251 32.2614 659.711 32.017C660.177 31.767 660.523 31.4233 660.751 30.9858C660.984 30.5426 661.1 30.0341 661.1 29.4602C661.1 28.8807 660.984 28.375 660.751 27.9432C660.523 27.5057 660.177 27.1676 659.711 26.929C659.245 26.6847 658.654 26.5625 657.938 26.5625H655.45V41H651.759ZM675.625 35.4261V27.9091H679.256V41H675.77V38.6222H675.634C675.338 39.3892 674.847 40.0057 674.159 40.4716C673.477 40.9375 672.645 41.1705 671.662 41.1705C670.787 41.1705 670.017 40.9716 669.352 40.5739C668.688 40.1761 668.168 39.6108 667.793 38.8778C667.423 38.1449 667.236 37.267 667.23 36.2443V27.9091H670.861V35.5966C670.866 36.3693 671.074 36.9801 671.483 37.429C671.892 37.8778 672.44 38.1023 673.128 38.1023C673.565 38.1023 673.974 38.0028 674.355 37.804C674.736 37.5994 675.043 37.2983 675.276 36.9006C675.514 36.5028 675.631 36.0114 675.625 35.4261ZM682.228 41V23.5455H685.859V30.108H685.969C686.129 29.7557 686.359 29.3977 686.66 29.0341C686.967 28.6648 687.364 28.358 687.853 28.1136C688.347 27.8636 688.961 27.7386 689.694 27.7386C690.648 27.7386 691.529 27.9886 692.336 28.4886C693.143 28.983 693.788 29.7301 694.271 30.7301C694.754 31.7244 694.995 32.9716 694.995 34.4716C694.995 35.9318 694.759 37.1648 694.288 38.1705C693.822 39.1705 693.185 39.929 692.379 40.446C691.577 40.9574 690.68 41.2131 689.685 41.2131C688.981 41.2131 688.381 41.0966 687.887 40.8636C687.398 40.6307 686.998 40.3381 686.685 39.9858C686.373 39.6278 686.134 39.267 685.969 38.9034H685.808V41H682.228ZM685.782 34.4545C685.782 35.233 685.89 35.9119 686.106 36.4915C686.322 37.071 686.634 37.5227 687.043 37.8466C687.452 38.1648 687.95 38.3239 688.535 38.3239C689.126 38.3239 689.626 38.1619 690.035 37.8381C690.444 37.5085 690.754 37.054 690.964 36.4744C691.18 35.8892 691.288 35.2159 691.288 34.4545C691.288 33.6989 691.183 33.0341 690.972 32.4602C690.762 31.8864 690.452 31.4375 690.043 31.1136C689.634 30.7898 689.131 30.6278 688.535 30.6278C687.944 30.6278 687.444 30.7841 687.035 31.0966C686.631 31.4091 686.322 31.8523 686.106 32.4261C685.89 33 685.782 33.6761 685.782 34.4545ZM701.048 23.5455V41H697.418V23.5455H701.048ZM703.957 41V27.9091H707.587V41H703.957ZM705.781 26.2216C705.241 26.2216 704.778 26.0426 704.391 25.6847C704.011 25.321 703.82 24.8864 703.82 24.3807C703.82 23.8807 704.011 23.4517 704.391 23.0938C704.778 22.7301 705.241 22.5483 705.781 22.5483C706.32 22.5483 706.781 22.7301 707.161 23.0938C707.548 23.4517 707.741 23.8807 707.741 24.3807C707.741 24.8864 707.548 25.321 707.161 25.6847C706.781 26.0426 706.32 26.2216 705.781 26.2216ZM721.388 31.642L718.064 31.8466C718.007 31.5625 717.885 31.3068 717.697 31.0795C717.51 30.8466 717.263 30.6619 716.956 30.5256C716.655 30.3835 716.294 30.3125 715.874 30.3125C715.311 30.3125 714.837 30.4318 714.45 30.6705C714.064 30.9034 713.871 31.2159 713.871 31.608C713.871 31.9205 713.996 32.1847 714.246 32.4006C714.496 32.6165 714.925 32.7898 715.533 32.9205L717.902 33.3977C719.175 33.6591 720.124 34.0795 720.749 34.6591C721.374 35.2386 721.686 36 721.686 36.9432C721.686 37.8011 721.433 38.554 720.928 39.2017C720.428 39.8494 719.74 40.3551 718.865 40.7188C717.996 41.0767 716.993 41.2557 715.857 41.2557C714.124 41.2557 712.743 40.8949 711.714 40.1733C710.692 39.446 710.092 38.4574 709.916 37.2074L713.487 37.0199C713.595 37.5483 713.857 37.9517 714.271 38.2301C714.686 38.5028 715.217 38.6392 715.865 38.6392C716.501 38.6392 717.013 38.517 717.399 38.2727C717.791 38.0227 717.99 37.7017 717.996 37.3097C717.99 36.9801 717.851 36.7102 717.578 36.5C717.305 36.2841 716.885 36.1193 716.317 36.0057L714.05 35.554C712.771 35.2983 711.82 34.8551 711.195 34.2244C710.575 33.5937 710.266 32.7898 710.266 31.8125C710.266 30.9716 710.493 30.2472 710.947 29.6392C711.408 29.0312 712.053 28.5625 712.882 28.233C713.717 27.9034 714.695 27.7386 715.814 27.7386C717.467 27.7386 718.768 28.0881 719.717 28.7869C720.672 29.4858 721.229 30.4375 721.388 31.642ZM727.603 33.4318V41H723.972V23.5455H727.501V30.2188H727.654C727.95 29.446 728.427 28.8409 729.086 28.4034C729.745 27.9602 730.572 27.7386 731.566 27.7386C732.475 27.7386 733.268 27.9375 733.944 28.3352C734.626 28.7273 735.154 29.2926 735.529 30.0312C735.91 30.7642 736.097 31.642 736.092 32.6648V41H732.461V33.3125C732.467 32.5057 732.262 31.8778 731.847 31.429C731.438 30.9801 730.864 30.7557 730.126 30.7557C729.631 30.7557 729.194 30.8608 728.813 31.071C728.438 31.2812 728.143 31.5881 727.927 31.9915C727.717 32.3892 727.609 32.8693 727.603 33.4318ZM744.572 41V23.5455H748.202V30.108H748.313C748.472 29.7557 748.702 29.3977 749.004 29.0341C749.31 28.6648 749.708 28.358 750.197 28.1136C750.691 27.8636 751.305 27.7386 752.038 27.7386C752.992 27.7386 753.873 27.9886 754.68 28.4886C755.487 28.983 756.131 29.7301 756.614 30.7301C757.097 31.7244 757.339 32.9716 757.339 34.4716C757.339 35.9318 757.103 37.1648 756.631 38.1705C756.165 39.1705 755.529 39.929 754.722 40.446C753.921 40.9574 753.023 41.2131 752.029 41.2131C751.325 41.2131 750.725 41.0966 750.231 40.8636C749.742 40.6307 749.342 40.3381 749.029 39.9858C748.717 39.6278 748.478 39.267 748.313 38.9034H748.151V41H744.572ZM748.126 34.4545C748.126 35.233 748.234 35.9119 748.45 36.4915C748.665 37.071 748.978 37.5227 749.387 37.8466C749.796 38.1648 750.293 38.3239 750.879 38.3239C751.469 38.3239 751.969 38.1619 752.379 37.8381C752.788 37.5085 753.097 37.054 753.308 36.4744C753.523 35.8892 753.631 35.2159 753.631 34.4545C753.631 33.6989 753.526 33.0341 753.316 32.4602C753.106 31.8864 752.796 31.4375 752.387 31.1136C751.978 30.7898 751.475 30.6278 750.879 30.6278C750.288 30.6278 749.788 30.7841 749.379 31.0966C748.975 31.4091 748.665 31.8523 748.45 32.4261C748.234 33 748.126 33.6761 748.126 34.4545ZM761.581 45.9091C761.121 45.9091 760.689 45.8722 760.286 45.7983C759.888 45.7301 759.558 45.642 759.297 45.5341L760.115 42.8239C760.541 42.9545 760.925 43.0256 761.266 43.0369C761.612 43.0483 761.911 42.9688 762.161 42.7983C762.416 42.6278 762.624 42.3381 762.783 41.929L762.996 41.375L758.3 27.9091H762.118L764.828 37.5227H764.964L767.7 27.9091H771.544L766.456 42.4148C766.212 43.1193 765.879 43.733 765.459 44.2557C765.044 44.7841 764.518 45.1903 763.882 45.4744C763.246 45.7642 762.479 45.9091 761.581 45.9091ZM779.025 41V23.5455H790.582V26.5881H782.715V30.7472H789.815V33.7898H782.715V41H779.025ZM792.785 41V27.9091H796.305V30.1932H796.441C796.68 29.3807 797.08 28.767 797.643 28.3523C798.205 27.9318 798.853 27.7216 799.586 27.7216C799.768 27.7216 799.964 27.733 800.174 27.7557C800.384 27.7784 800.569 27.8097 800.728 27.8494V31.071C800.558 31.0199 800.322 30.9744 800.021 30.9347C799.719 30.8949 799.444 30.875 799.194 30.875C798.66 30.875 798.183 30.9915 797.762 31.2244C797.347 31.4517 797.018 31.7699 796.773 32.179C796.535 32.5881 796.415 33.0597 796.415 33.5938V41H792.785ZM805.963 41.2472C805.128 41.2472 804.384 41.1023 803.73 40.8125C803.077 40.517 802.56 40.0824 802.179 39.5085C801.804 38.929 801.616 38.2074 801.616 37.3438C801.616 36.6165 801.75 36.0057 802.017 35.5114C802.284 35.017 802.648 34.6193 803.108 34.3182C803.568 34.017 804.091 33.7898 804.676 33.6364C805.267 33.483 805.886 33.375 806.534 33.3125C807.295 33.233 807.909 33.1591 808.375 33.0909C808.841 33.017 809.179 32.9091 809.389 32.767C809.599 32.625 809.705 32.4148 809.705 32.1364V32.0852C809.705 31.5455 809.534 31.1278 809.193 30.8324C808.858 30.5369 808.381 30.3892 807.761 30.3892C807.108 30.3892 806.588 30.5341 806.202 30.8239C805.815 31.108 805.56 31.4659 805.435 31.8977L802.077 31.625C802.247 30.8295 802.582 30.142 803.082 29.5625C803.582 28.9773 804.227 28.5284 805.017 28.2159C805.813 27.8977 806.733 27.7386 807.778 27.7386C808.506 27.7386 809.202 27.8239 809.866 27.9943C810.537 28.1648 811.131 28.429 811.648 28.7869C812.17 29.1449 812.582 29.6051 812.884 30.1676C813.185 30.7244 813.335 31.392 813.335 32.1705V41H809.892V39.1847H809.79C809.58 39.5938 809.298 39.9545 808.946 40.267C808.594 40.5739 808.17 40.8153 807.676 40.9915C807.182 41.1619 806.611 41.2472 805.963 41.2472ZM807.003 38.7415C807.537 38.7415 808.009 38.6364 808.418 38.4261C808.827 38.2102 809.148 37.9205 809.381 37.5568C809.614 37.1932 809.73 36.7812 809.73 36.321V34.9318C809.616 35.0057 809.46 35.0739 809.261 35.1364C809.068 35.1932 808.849 35.2472 808.605 35.2983C808.361 35.3437 808.116 35.3864 807.872 35.4261C807.628 35.4602 807.406 35.4915 807.207 35.5199C806.781 35.5824 806.409 35.6818 806.091 35.8182C805.773 35.9545 805.526 36.1392 805.349 36.3722C805.173 36.5994 805.085 36.8835 805.085 37.2244C805.085 37.7188 805.264 38.0966 805.622 38.358C805.986 38.6136 806.446 38.7415 807.003 38.7415ZM816.152 41V27.9091H819.612V30.2188H819.766C820.038 29.4517 820.493 28.8466 821.129 28.4034C821.766 27.9602 822.527 27.7386 823.413 27.7386C824.311 27.7386 825.075 27.9631 825.706 28.4119C826.337 28.8551 826.757 29.4574 826.967 30.2188H827.104C827.371 29.4688 827.854 28.8693 828.553 28.4205C829.257 27.9659 830.089 27.7386 831.05 27.7386C832.271 27.7386 833.263 28.1278 834.024 28.9062C834.791 29.679 835.175 30.7756 835.175 32.196V41H831.553V32.9119C831.553 32.1847 831.359 31.6392 830.973 31.2756C830.587 30.9119 830.104 30.7301 829.524 30.7301C828.865 30.7301 828.351 30.9403 827.982 31.3608C827.612 31.7756 827.428 32.3239 827.428 33.0057V41H823.908V32.8352C823.908 32.1932 823.723 31.6818 823.354 31.3011C822.99 30.9205 822.51 30.7301 821.913 30.7301C821.51 30.7301 821.146 30.8324 820.822 31.0369C820.504 31.2358 820.251 31.517 820.064 31.8807C819.876 32.2386 819.783 32.6591 819.783 33.142V41H816.152ZM844.009 41.2557C842.662 41.2557 841.503 40.983 840.531 40.4375C839.565 39.8864 838.821 39.108 838.298 38.1023C837.776 37.0909 837.514 35.8949 837.514 34.5142C837.514 33.1676 837.776 31.9858 838.298 30.9688C838.821 29.9517 839.557 29.1591 840.506 28.5909C841.46 28.0227 842.58 27.7386 843.864 27.7386C844.727 27.7386 845.531 27.8778 846.276 28.1562C847.026 28.429 847.679 28.8409 848.236 29.392C848.798 29.9432 849.236 30.6364 849.548 31.4716C849.861 32.3011 850.017 33.2727 850.017 34.3864V35.3835H838.963V33.1335H846.599C846.599 32.6108 846.486 32.1477 846.259 31.7443C846.031 31.3409 845.716 31.0256 845.312 30.7983C844.915 30.5653 844.452 30.4489 843.923 30.4489C843.372 30.4489 842.884 30.5767 842.457 30.8324C842.037 31.0824 841.707 31.4205 841.469 31.8466C841.23 32.267 841.108 32.7358 841.102 33.2528V35.392C841.102 36.0398 841.222 36.5994 841.46 37.071C841.705 37.5426 842.048 37.9062 842.491 38.1619C842.935 38.4176 843.46 38.5455 844.068 38.5455C844.472 38.5455 844.841 38.4886 845.176 38.375C845.511 38.2614 845.798 38.0909 846.037 37.8636C846.276 37.6364 846.457 37.358 846.582 37.0284L849.94 37.25C849.77 38.0568 849.42 38.7614 848.892 39.3636C848.369 39.9602 847.693 40.4261 846.864 40.7614C846.04 41.0909 845.088 41.2557 844.009 41.2557ZM852.386 41V27.9091H855.906V30.1932H856.043C856.281 29.3807 856.682 28.767 857.244 28.3523C857.807 27.9318 858.455 27.7216 859.188 27.7216C859.369 27.7216 859.565 27.733 859.776 27.7557C859.986 27.7784 860.17 27.8097 860.33 27.8494V31.071C860.159 31.0199 859.923 30.9744 859.622 30.9347C859.321 30.8949 859.045 30.875 858.795 30.875C858.261 30.875 857.784 30.9915 857.364 31.2244C856.949 31.4517 856.619 31.7699 856.375 32.179C856.136 32.5881 856.017 33.0597 856.017 33.5938V41H852.386Z" fill="url(#paint1_linear_562_3471)"/>
<defs>
<linearGradient id="paint0_linear_562_3471" x1="259" y1="404" x2="1253" y2="404" gradientUnits="userSpaceOnUse">
<stop stop-color="#FF36E6"/>
<stop offset="0.485" stop-color="#5243FE"/>
<stop offset="1" stop-color="#1400FF"/>
</linearGradient>
<linearGradient id="paint1_linear_562_3471" x1="650" y1="32.5" x2="861" y2="32.5" gradientUnits="userSpaceOnUse">
<stop stop-color="#FF36E6"/>
<stop offset="0.485" stop-color="#5243FE"/>
<stop offset="1" stop-color="#1400FF"/>
</linearGradient>
</defs>
</svg>
