<svg width="1512" height="461" viewBox="0 0 1512 461" fill="none" xmlns="http://www.w3.org/2000/svg">
<rect width="1512" height="461" fill="url(#paint0_linear_446_4302)"/>
<path d="M423.46 215.568V207.455H461.688V215.568H447.438V254H437.71V215.568H423.46ZM475.883 233.818V254H466.201V207.455H475.61V225.25H476.019C476.807 223.189 478.08 221.576 479.838 220.409C481.595 219.227 483.8 218.636 486.451 218.636C488.875 218.636 490.989 219.167 492.792 220.227C494.61 221.273 496.019 222.78 497.019 224.75C498.034 226.705 498.534 229.045 498.519 231.773V254H488.838V233.5C488.853 231.348 488.307 229.674 487.201 228.477C486.11 227.28 484.58 226.682 482.61 226.682C481.292 226.682 480.125 226.962 479.11 227.523C478.11 228.083 477.322 228.902 476.747 229.977C476.186 231.038 475.898 232.318 475.883 233.818ZM514.493 254.659C512.266 254.659 510.281 254.273 508.539 253.5C506.796 252.712 505.417 251.553 504.402 250.023C503.402 248.477 502.902 246.553 502.902 244.25C502.902 242.311 503.258 240.682 503.97 239.364C504.683 238.045 505.652 236.985 506.88 236.182C508.107 235.379 509.501 234.773 511.061 234.364C512.637 233.955 514.289 233.667 516.016 233.5C518.046 233.288 519.683 233.091 520.925 232.909C522.167 232.712 523.069 232.424 523.63 232.045C524.19 231.667 524.47 231.106 524.47 230.364V230.227C524.47 228.788 524.016 227.674 523.107 226.886C522.213 226.098 520.94 225.705 519.289 225.705C517.546 225.705 516.16 226.091 515.13 226.864C514.099 227.621 513.417 228.576 513.084 229.727L504.13 229C504.584 226.879 505.478 225.045 506.811 223.5C508.145 221.939 509.864 220.742 511.97 219.909C514.092 219.061 516.546 218.636 519.334 218.636C521.273 218.636 523.13 218.864 524.902 219.318C526.69 219.773 528.273 220.477 529.652 221.432C531.046 222.386 532.145 223.614 532.948 225.114C533.751 226.598 534.152 228.379 534.152 230.455V254H524.97V249.159H524.698C524.137 250.25 523.387 251.212 522.448 252.045C521.508 252.864 520.38 253.508 519.061 253.977C517.743 254.432 516.22 254.659 514.493 254.659ZM517.266 247.977C518.69 247.977 519.948 247.697 521.039 247.136C522.13 246.561 522.986 245.788 523.607 244.818C524.228 243.848 524.539 242.75 524.539 241.523V237.818C524.236 238.015 523.819 238.197 523.289 238.364C522.773 238.515 522.19 238.659 521.539 238.795C520.887 238.917 520.236 239.03 519.584 239.136C518.933 239.227 518.342 239.311 517.811 239.386C516.675 239.553 515.683 239.818 514.834 240.182C513.986 240.545 513.327 241.038 512.857 241.659C512.387 242.265 512.152 243.023 512.152 243.932C512.152 245.25 512.63 246.258 513.584 246.955C514.554 247.636 515.781 247.977 517.266 247.977ZM549.745 233.818V254H540.064V219.091H549.291V225.25H549.7C550.473 223.22 551.768 221.614 553.586 220.432C555.405 219.235 557.609 218.636 560.2 218.636C562.624 218.636 564.738 219.167 566.541 220.227C568.344 221.288 569.745 222.803 570.745 224.773C571.745 226.727 572.245 229.061 572.245 231.773V254H562.564V233.5C562.579 231.364 562.033 229.697 560.927 228.5C559.821 227.288 558.298 226.682 556.359 226.682C555.056 226.682 553.905 226.962 552.905 227.523C551.92 228.083 551.147 228.902 550.586 229.977C550.041 231.038 549.761 232.318 549.745 233.818ZM587.049 243.955L587.072 232.341H588.481L599.663 219.091H610.776L595.753 236.636H593.458L587.049 243.955ZM578.276 254V207.455H587.958V254H578.276ZM600.094 254L589.822 238.795L596.276 231.955L611.435 254H600.094ZM642.972 229.045L634.108 229.591C633.956 228.833 633.631 228.152 633.131 227.545C632.631 226.924 631.972 226.432 631.153 226.068C630.35 225.689 629.388 225.5 628.267 225.5C626.767 225.5 625.502 225.818 624.472 226.455C623.441 227.076 622.926 227.909 622.926 228.955C622.926 229.788 623.259 230.492 623.926 231.068C624.593 231.644 625.737 232.106 627.358 232.455L633.676 233.727C637.07 234.424 639.6 235.545 641.267 237.091C642.934 238.636 643.767 240.667 643.767 243.182C643.767 245.47 643.093 247.477 641.744 249.205C640.411 250.932 638.578 252.28 636.244 253.25C633.926 254.205 631.252 254.682 628.222 254.682C623.6 254.682 619.919 253.72 617.176 251.795C614.449 249.856 612.85 247.22 612.381 243.886L621.903 243.386C622.191 244.795 622.888 245.871 623.994 246.614C625.1 247.341 626.517 247.705 628.244 247.705C629.941 247.705 631.305 247.379 632.335 246.727C633.381 246.061 633.911 245.205 633.926 244.159C633.911 243.28 633.54 242.561 632.812 242C632.085 241.424 630.964 240.985 629.449 240.682L623.403 239.477C619.994 238.795 617.456 237.614 615.79 235.932C614.138 234.25 613.312 232.106 613.312 229.5C613.312 227.258 613.919 225.326 615.131 223.705C616.358 222.083 618.078 220.833 620.29 219.955C622.517 219.076 625.123 218.636 628.108 218.636C632.517 218.636 635.987 219.568 638.517 221.432C641.063 223.295 642.547 225.833 642.972 229.045Z" fill="white"/>
<path d="M423.46 215.568V207.455H461.688V215.568H447.438V254H437.71V215.568H423.46ZM475.883 233.818V254H466.201V207.455H475.61V225.25H476.019C476.807 223.189 478.08 221.576 479.838 220.409C481.595 219.227 483.8 218.636 486.451 218.636C488.875 218.636 490.989 219.167 492.792 220.227C494.61 221.273 496.019 222.78 497.019 224.75C498.034 226.705 498.534 229.045 498.519 231.773V254H488.838V233.5C488.853 231.348 488.307 229.674 487.201 228.477C486.11 227.28 484.58 226.682 482.61 226.682C481.292 226.682 480.125 226.962 479.11 227.523C478.11 228.083 477.322 228.902 476.747 229.977C476.186 231.038 475.898 232.318 475.883 233.818ZM514.493 254.659C512.266 254.659 510.281 254.273 508.539 253.5C506.796 252.712 505.417 251.553 504.402 250.023C503.402 248.477 502.902 246.553 502.902 244.25C502.902 242.311 503.258 240.682 503.97 239.364C504.683 238.045 505.652 236.985 506.88 236.182C508.107 235.379 509.501 234.773 511.061 234.364C512.637 233.955 514.289 233.667 516.016 233.5C518.046 233.288 519.683 233.091 520.925 232.909C522.167 232.712 523.069 232.424 523.63 232.045C524.19 231.667 524.47 231.106 524.47 230.364V230.227C524.47 228.788 524.016 227.674 523.107 226.886C522.213 226.098 520.94 225.705 519.289 225.705C517.546 225.705 516.16 226.091 515.13 226.864C514.099 227.621 513.417 228.576 513.084 229.727L504.13 229C504.584 226.879 505.478 225.045 506.811 223.5C508.145 221.939 509.864 220.742 511.97 219.909C514.092 219.061 516.546 218.636 519.334 218.636C521.273 218.636 523.13 218.864 524.902 219.318C526.69 219.773 528.273 220.477 529.652 221.432C531.046 222.386 532.145 223.614 532.948 225.114C533.751 226.598 534.152 228.379 534.152 230.455V254H524.97V249.159H524.698C524.137 250.25 523.387 251.212 522.448 252.045C521.508 252.864 520.38 253.508 519.061 253.977C517.743 254.432 516.22 254.659 514.493 254.659ZM517.266 247.977C518.69 247.977 519.948 247.697 521.039 247.136C522.13 246.561 522.986 245.788 523.607 244.818C524.228 243.848 524.539 242.75 524.539 241.523V237.818C524.236 238.015 523.819 238.197 523.289 238.364C522.773 238.515 522.19 238.659 521.539 238.795C520.887 238.917 520.236 239.03 519.584 239.136C518.933 239.227 518.342 239.311 517.811 239.386C516.675 239.553 515.683 239.818 514.834 240.182C513.986 240.545 513.327 241.038 512.857 241.659C512.387 242.265 512.152 243.023 512.152 243.932C512.152 245.25 512.63 246.258 513.584 246.955C514.554 247.636 515.781 247.977 517.266 247.977ZM549.745 233.818V254H540.064V219.091H549.291V225.25H549.7C550.473 223.22 551.768 221.614 553.586 220.432C555.405 219.235 557.609 218.636 560.2 218.636C562.624 218.636 564.738 219.167 566.541 220.227C568.344 221.288 569.745 222.803 570.745 224.773C571.745 226.727 572.245 229.061 572.245 231.773V254H562.564V233.5C562.579 231.364 562.033 229.697 560.927 228.5C559.821 227.288 558.298 226.682 556.359 226.682C555.056 226.682 553.905 226.962 552.905 227.523C551.92 228.083 551.147 228.902 550.586 229.977C550.041 231.038 549.761 232.318 549.745 233.818ZM587.049 243.955L587.072 232.341H588.481L599.663 219.091H610.776L595.753 236.636H593.458L587.049 243.955ZM578.276 254V207.455H587.958V254H578.276ZM600.094 254L589.822 238.795L596.276 231.955L611.435 254H600.094ZM642.972 229.045L634.108 229.591C633.956 228.833 633.631 228.152 633.131 227.545C632.631 226.924 631.972 226.432 631.153 226.068C630.35 225.689 629.388 225.5 628.267 225.5C626.767 225.5 625.502 225.818 624.472 226.455C623.441 227.076 622.926 227.909 622.926 228.955C622.926 229.788 623.259 230.492 623.926 231.068C624.593 231.644 625.737 232.106 627.358 232.455L633.676 233.727C637.07 234.424 639.6 235.545 641.267 237.091C642.934 238.636 643.767 240.667 643.767 243.182C643.767 245.47 643.093 247.477 641.744 249.205C640.411 250.932 638.578 252.28 636.244 253.25C633.926 254.205 631.252 254.682 628.222 254.682C623.6 254.682 619.919 253.72 617.176 251.795C614.449 249.856 612.85 247.22 612.381 243.886L621.903 243.386C622.191 244.795 622.888 245.871 623.994 246.614C625.1 247.341 626.517 247.705 628.244 247.705C629.941 247.705 631.305 247.379 632.335 246.727C633.381 246.061 633.911 245.205 633.926 244.159C633.911 243.28 633.54 242.561 632.812 242C632.085 241.424 630.964 240.985 629.449 240.682L623.403 239.477C619.994 238.795 617.456 237.614 615.79 235.932C614.138 234.25 613.312 232.106 613.312 229.5C613.312 227.258 613.919 225.326 615.131 223.705C616.358 222.083 618.078 220.833 620.29 219.955C622.517 219.076 625.123 218.636 628.108 218.636C632.517 218.636 635.987 219.568 638.517 221.432C641.063 223.295 642.547 225.833 642.972 229.045Z" fill="url(#paint1_linear_446_4302)"/>
<path d="M669.159 209.42V207.545H682.25V209.42H676.761V225H674.648V209.42H669.159ZM686.651 217.125V225H684.639V207.545H686.651V213.955H686.821C687.128 213.278 687.588 212.741 688.202 212.344C688.821 211.94 689.645 211.739 690.673 211.739C691.565 211.739 692.347 211.918 693.017 212.276C693.688 212.628 694.208 213.17 694.577 213.903C694.952 214.631 695.139 215.557 695.139 216.682V225H693.128V216.818C693.128 215.778 692.858 214.974 692.318 214.406C691.784 213.832 691.043 213.545 690.094 213.545C689.435 213.545 688.844 213.685 688.321 213.963C687.804 214.241 687.395 214.648 687.094 215.182C686.798 215.716 686.651 216.364 686.651 217.125ZM703.708 225.273C702.446 225.273 701.358 224.994 700.443 224.438C699.534 223.875 698.833 223.091 698.338 222.085C697.85 221.074 697.605 219.898 697.605 218.557C697.605 217.216 697.85 216.034 698.338 215.011C698.833 213.983 699.52 213.182 700.401 212.608C701.287 212.028 702.321 211.739 703.503 211.739C704.185 211.739 704.858 211.852 705.523 212.08C706.188 212.307 706.793 212.676 707.338 213.188C707.884 213.693 708.318 214.364 708.642 215.199C708.966 216.034 709.128 217.062 709.128 218.284V219.136H699.037V217.398H707.083C707.083 216.659 706.935 216 706.639 215.42C706.35 214.841 705.935 214.384 705.395 214.048C704.861 213.713 704.23 213.545 703.503 213.545C702.702 213.545 702.009 213.744 701.424 214.142C700.844 214.534 700.398 215.045 700.086 215.676C699.773 216.307 699.617 216.983 699.617 217.705V218.864C699.617 219.852 699.787 220.69 700.128 221.378C700.475 222.06 700.955 222.58 701.568 222.938C702.182 223.29 702.895 223.466 703.708 223.466C704.236 223.466 704.713 223.392 705.139 223.244C705.571 223.091 705.943 222.864 706.256 222.562C706.568 222.256 706.81 221.875 706.98 221.42L708.924 221.966C708.719 222.625 708.375 223.205 707.892 223.705C707.409 224.199 706.813 224.585 706.103 224.864C705.392 225.136 704.594 225.273 703.708 225.273ZM723.567 211.909V213.614H716.511V211.909H723.567ZM718.624 225V210.102C718.624 209.352 718.8 208.727 719.153 208.227C719.505 207.727 719.962 207.352 720.525 207.102C721.087 206.852 721.681 206.727 722.306 206.727C722.8 206.727 723.204 206.767 723.516 206.847C723.829 206.926 724.062 207 724.215 207.068L723.636 208.807C723.533 208.773 723.391 208.73 723.209 208.679C723.033 208.628 722.8 208.602 722.511 208.602C721.846 208.602 721.366 208.77 721.07 209.105C720.78 209.44 720.636 209.932 720.636 210.58V225H718.624ZM734.036 219.648V211.909H736.048V225H734.036V222.784H733.9C733.593 223.449 733.116 224.014 732.468 224.48C731.82 224.94 731.002 225.17 730.013 225.17C729.195 225.17 728.468 224.991 727.832 224.634C727.195 224.27 726.695 223.724 726.332 222.997C725.968 222.264 725.786 221.341 725.786 220.227V211.909H727.798V220.091C727.798 221.045 728.065 221.807 728.599 222.375C729.138 222.943 729.826 223.227 730.661 223.227C731.161 223.227 731.67 223.099 732.187 222.844C732.71 222.588 733.147 222.196 733.499 221.668C733.857 221.139 734.036 220.466 734.036 219.648ZM744.825 211.909V213.614H738.041V211.909H744.825ZM740.018 208.773H742.029V221.25C742.029 221.818 742.112 222.244 742.276 222.528C742.447 222.807 742.663 222.994 742.924 223.091C743.191 223.182 743.472 223.227 743.768 223.227C743.989 223.227 744.171 223.216 744.313 223.193C744.455 223.165 744.569 223.142 744.654 223.125L745.063 224.932C744.927 224.983 744.737 225.034 744.492 225.085C744.248 225.142 743.938 225.17 743.563 225.17C742.995 225.17 742.438 225.048 741.893 224.804C741.353 224.56 740.904 224.188 740.546 223.688C740.194 223.188 740.018 222.557 740.018 221.795V208.773ZM755.5 219.648V211.909H757.512V225H755.5V222.784H755.364C755.057 223.449 754.58 224.014 753.932 224.48C753.284 224.94 752.466 225.17 751.478 225.17C750.659 225.17 749.932 224.991 749.296 224.634C748.659 224.27 748.159 223.724 747.796 222.997C747.432 222.264 747.25 221.341 747.25 220.227V211.909H749.262V220.091C749.262 221.045 749.529 221.807 750.063 222.375C750.603 222.943 751.29 223.227 752.125 223.227C752.625 223.227 753.134 223.099 753.651 222.844C754.174 222.588 754.611 222.196 754.963 221.668C755.321 221.139 755.5 220.466 755.5 219.648ZM760.596 225V211.909H762.539V213.886H762.675C762.914 213.239 763.346 212.713 763.971 212.31C764.596 211.906 765.3 211.705 766.084 211.705C766.232 211.705 766.417 211.707 766.638 211.713C766.86 211.719 767.027 211.727 767.141 211.739V213.784C767.073 213.767 766.917 213.741 766.672 213.707C766.434 213.668 766.181 213.648 765.914 213.648C765.277 213.648 764.709 213.781 764.209 214.048C763.715 214.31 763.323 214.673 763.033 215.139C762.749 215.599 762.607 216.125 762.607 216.716V225H760.596ZM774.015 225.273C772.754 225.273 771.666 224.994 770.751 224.438C769.842 223.875 769.14 223.091 768.646 222.085C768.158 221.074 767.913 219.898 767.913 218.557C767.913 217.216 768.158 216.034 768.646 215.011C769.14 213.983 769.828 213.182 770.709 212.608C771.595 212.028 772.629 211.739 773.811 211.739C774.493 211.739 775.166 211.852 775.831 212.08C776.496 212.307 777.101 212.676 777.646 213.188C778.192 213.693 778.626 214.364 778.95 215.199C779.274 216.034 779.436 217.062 779.436 218.284V219.136H769.345V217.398H777.39C777.39 216.659 777.243 216 776.947 215.42C776.658 214.841 776.243 214.384 775.703 214.048C775.169 213.713 774.538 213.545 773.811 213.545C773.01 213.545 772.317 213.744 771.731 214.142C771.152 214.534 770.706 215.045 770.393 215.676C770.081 216.307 769.925 216.983 769.925 217.705V218.864C769.925 219.852 770.095 220.69 770.436 221.378C770.783 222.06 771.263 222.58 771.876 222.938C772.49 223.29 773.203 223.466 774.015 223.466C774.544 223.466 775.021 223.392 775.447 223.244C775.879 223.091 776.251 222.864 776.564 222.562C776.876 222.256 777.118 221.875 777.288 221.42L779.231 221.966C779.027 222.625 778.683 223.205 778.2 223.705C777.717 224.199 777.121 224.585 776.41 224.864C775.7 225.136 774.902 225.273 774.015 225.273ZM793.364 225.273C792.182 225.273 791.145 224.991 790.253 224.429C789.367 223.866 788.673 223.08 788.173 222.068C787.679 221.057 787.432 219.875 787.432 218.523C787.432 217.159 787.679 215.969 788.173 214.952C788.673 213.935 789.367 213.145 790.253 212.582C791.145 212.02 792.182 211.739 793.364 211.739C794.546 211.739 795.58 212.02 796.466 212.582C797.358 213.145 798.051 213.935 798.546 214.952C799.046 215.969 799.296 217.159 799.296 218.523C799.296 219.875 799.046 221.057 798.546 222.068C798.051 223.08 797.358 223.866 796.466 224.429C795.58 224.991 794.546 225.273 793.364 225.273ZM793.364 223.466C794.262 223.466 795 223.236 795.58 222.776C796.159 222.315 796.588 221.71 796.867 220.96C797.145 220.21 797.284 219.398 797.284 218.523C797.284 217.648 797.145 216.832 796.867 216.077C796.588 215.321 796.159 214.71 795.58 214.244C795 213.778 794.262 213.545 793.364 213.545C792.466 213.545 791.727 213.778 791.148 214.244C790.568 214.71 790.139 215.321 789.861 216.077C789.583 216.832 789.443 217.648 789.443 218.523C789.443 219.398 789.583 220.21 789.861 220.96C790.139 221.71 790.568 222.315 791.148 222.776C791.727 223.236 792.466 223.466 793.364 223.466ZM807.595 211.909V213.614H800.539V211.909H807.595ZM802.652 225V210.102C802.652 209.352 802.828 208.727 803.181 208.227C803.533 207.727 803.99 207.352 804.553 207.102C805.115 206.852 805.709 206.727 806.334 206.727C806.828 206.727 807.232 206.767 807.544 206.847C807.857 206.926 808.09 207 808.243 207.068L807.664 208.807C807.561 208.773 807.419 208.73 807.238 208.679C807.061 208.628 806.828 208.602 806.539 208.602C805.874 208.602 805.394 208.77 805.098 209.105C804.809 209.44 804.664 209.932 804.664 210.58V225H802.652ZM820.908 225.273C819.817 225.273 818.854 224.997 818.018 224.446C817.183 223.889 816.53 223.105 816.058 222.094C815.587 221.077 815.351 219.875 815.351 218.489C815.351 217.114 815.587 215.92 816.058 214.909C816.53 213.898 817.186 213.116 818.027 212.565C818.868 212.014 819.839 211.739 820.942 211.739C821.794 211.739 822.467 211.881 822.962 212.165C823.462 212.443 823.842 212.761 824.104 213.119C824.371 213.472 824.578 213.761 824.726 213.989H824.896V207.545H826.908V225H824.964V222.989H824.726C824.578 223.227 824.368 223.528 824.095 223.892C823.822 224.25 823.433 224.571 822.927 224.855C822.422 225.134 821.748 225.273 820.908 225.273ZM821.18 223.466C821.987 223.466 822.669 223.256 823.226 222.835C823.783 222.409 824.206 221.821 824.496 221.071C824.785 220.315 824.93 219.443 824.93 218.455C824.93 217.477 824.788 216.622 824.504 215.889C824.22 215.151 823.8 214.577 823.243 214.168C822.686 213.753 821.998 213.545 821.18 213.545C820.328 213.545 819.618 213.764 819.05 214.202C818.487 214.634 818.064 215.222 817.78 215.966C817.501 216.705 817.362 217.534 817.362 218.455C817.362 219.386 817.504 220.233 817.788 220.994C818.078 221.75 818.504 222.352 819.067 222.801C819.635 223.244 820.339 223.466 821.18 223.466ZM830.271 225V211.909H832.282V225H830.271ZM831.293 209.727C830.901 209.727 830.563 209.594 830.279 209.327C830.001 209.06 829.862 208.739 829.862 208.364C829.862 207.989 830.001 207.668 830.279 207.401C830.563 207.134 830.901 207 831.293 207C831.685 207 832.021 207.134 832.299 207.401C832.583 207.668 832.725 207.989 832.725 208.364C832.725 208.739 832.583 209.06 832.299 209.327C832.021 209.594 831.685 209.727 831.293 209.727ZM840.65 230.182C839.678 230.182 838.843 230.057 838.144 229.807C837.445 229.562 836.863 229.239 836.397 228.835C835.937 228.438 835.57 228.011 835.298 227.557L836.9 226.432C837.082 226.67 837.312 226.943 837.59 227.25C837.869 227.562 838.249 227.832 838.732 228.06C839.221 228.293 839.86 228.409 840.65 228.409C841.707 228.409 842.579 228.153 843.266 227.642C843.954 227.131 844.298 226.33 844.298 225.239V222.58H844.127C843.98 222.818 843.769 223.114 843.497 223.466C843.23 223.812 842.843 224.122 842.337 224.395C841.837 224.662 841.161 224.795 840.309 224.795C839.252 224.795 838.303 224.545 837.462 224.045C836.627 223.545 835.965 222.818 835.477 221.864C834.994 220.909 834.752 219.75 834.752 218.386C834.752 217.045 834.988 215.878 835.46 214.884C835.931 213.884 836.587 213.111 837.428 212.565C838.269 212.014 839.241 211.739 840.343 211.739C841.195 211.739 841.872 211.881 842.372 212.165C842.877 212.443 843.264 212.761 843.531 213.119C843.803 213.472 844.014 213.761 844.161 213.989H844.366V211.909H846.309V225.375C846.309 226.5 846.053 227.415 845.542 228.119C845.036 228.83 844.355 229.349 843.497 229.679C842.644 230.014 841.695 230.182 840.65 230.182ZM840.582 222.989C841.389 222.989 842.07 222.804 842.627 222.435C843.184 222.065 843.607 221.534 843.897 220.841C844.187 220.148 844.332 219.318 844.332 218.352C844.332 217.409 844.19 216.577 843.906 215.855C843.622 215.134 843.201 214.568 842.644 214.159C842.087 213.75 841.4 213.545 840.582 213.545C839.73 213.545 839.019 213.761 838.451 214.193C837.889 214.625 837.465 215.205 837.181 215.932C836.903 216.659 836.764 217.466 836.764 218.352C836.764 219.261 836.906 220.065 837.19 220.764C837.48 221.457 837.906 222.003 838.468 222.401C839.036 222.793 839.741 222.989 840.582 222.989ZM849.391 225V211.909H851.402V225H849.391ZM850.414 209.727C850.022 209.727 849.684 209.594 849.399 209.327C849.121 209.06 848.982 208.739 848.982 208.364C848.982 207.989 849.121 207.668 849.399 207.401C849.684 207.134 850.022 207 850.414 207C850.806 207 851.141 207.134 851.419 207.401C851.703 207.668 851.845 207.989 851.845 208.364C851.845 208.739 851.703 209.06 851.419 209.327C851.141 209.594 850.806 209.727 850.414 209.727ZM860.179 211.909V213.614H853.395V211.909H860.179ZM855.373 208.773H857.384V221.25C857.384 221.818 857.466 222.244 857.631 222.528C857.802 222.807 858.017 222.994 858.279 223.091C858.546 223.182 858.827 223.227 859.123 223.227C859.344 223.227 859.526 223.216 859.668 223.193C859.81 223.165 859.924 223.142 860.009 223.125L860.418 224.932C860.282 224.983 860.091 225.034 859.847 225.085C859.603 225.142 859.293 225.17 858.918 225.17C858.35 225.17 857.793 225.048 857.248 224.804C856.708 224.56 856.259 224.188 855.901 223.688C855.549 223.188 855.373 222.557 855.373 221.795V208.773ZM866.457 225.307C865.628 225.307 864.875 225.151 864.199 224.838C863.523 224.52 862.986 224.062 862.588 223.466C862.19 222.864 861.991 222.136 861.991 221.284C861.991 220.534 862.139 219.926 862.435 219.46C862.73 218.989 863.125 218.619 863.619 218.352C864.114 218.085 864.659 217.886 865.256 217.756C865.858 217.619 866.463 217.511 867.071 217.432C867.866 217.33 868.511 217.253 869.006 217.202C869.506 217.145 869.869 217.051 870.096 216.92C870.329 216.79 870.446 216.562 870.446 216.239V216.17C870.446 215.33 870.216 214.676 869.756 214.21C869.301 213.744 868.611 213.511 867.685 213.511C866.724 213.511 865.971 213.722 865.426 214.142C864.881 214.562 864.497 215.011 864.275 215.489L862.366 214.807C862.707 214.011 863.162 213.392 863.73 212.949C864.304 212.5 864.929 212.187 865.605 212.011C866.287 211.83 866.957 211.739 867.616 211.739C868.037 211.739 868.52 211.79 869.065 211.892C869.616 211.989 870.148 212.19 870.659 212.497C871.176 212.804 871.605 213.267 871.946 213.886C872.287 214.506 872.457 215.335 872.457 216.375V225H870.446V223.227H870.344C870.207 223.511 869.98 223.815 869.662 224.139C869.344 224.463 868.92 224.739 868.392 224.966C867.864 225.193 867.219 225.307 866.457 225.307ZM866.764 223.5C867.56 223.5 868.23 223.344 868.775 223.031C869.327 222.719 869.741 222.315 870.02 221.821C870.304 221.327 870.446 220.807 870.446 220.261V218.42C870.361 218.523 870.173 218.616 869.883 218.702C869.599 218.781 869.27 218.852 868.895 218.915C868.525 218.972 868.165 219.023 867.812 219.068C867.466 219.108 867.185 219.142 866.969 219.17C866.446 219.239 865.957 219.349 865.503 219.503C865.054 219.651 864.69 219.875 864.412 220.176C864.139 220.472 864.003 220.875 864.003 221.386C864.003 222.085 864.261 222.614 864.778 222.972C865.301 223.324 865.963 223.5 866.764 223.5ZM877.54 207.545V225H875.528V207.545H877.54ZM886.774 225V211.909H888.785V225H886.774ZM887.796 209.727C887.404 209.727 887.066 209.594 886.782 209.327C886.504 209.06 886.365 208.739 886.365 208.364C886.365 207.989 886.504 207.668 886.782 207.401C887.066 207.134 887.404 207 887.796 207C888.188 207 888.524 207.134 888.802 207.401C889.086 207.668 889.228 207.989 889.228 208.364C889.228 208.739 889.086 209.06 888.802 209.327C888.524 209.594 888.188 209.727 887.796 209.727ZM896.812 225.273C895.721 225.273 894.758 224.997 893.923 224.446C893.088 223.889 892.434 223.105 891.963 222.094C891.491 221.077 891.255 219.875 891.255 218.489C891.255 217.114 891.491 215.92 891.963 214.909C892.434 213.898 893.091 213.116 893.932 212.565C894.772 212.014 895.744 211.739 896.846 211.739C897.699 211.739 898.372 211.881 898.866 212.165C899.366 212.443 899.747 212.761 900.008 213.119C900.275 213.472 900.483 213.761 900.63 213.989H900.801V207.545H902.812V225H900.869V222.989H900.63C900.483 223.227 900.272 223.528 900 223.892C899.727 224.25 899.338 224.571 898.832 224.855C898.326 225.134 897.653 225.273 896.812 225.273ZM897.085 223.466C897.892 223.466 898.574 223.256 899.13 222.835C899.687 222.409 900.111 221.821 900.4 221.071C900.69 220.315 900.835 219.443 900.835 218.455C900.835 217.477 900.693 216.622 900.409 215.889C900.125 215.151 899.704 214.577 899.147 214.168C898.591 213.753 897.903 213.545 897.085 213.545C896.233 213.545 895.522 213.764 894.954 214.202C894.392 214.634 893.968 215.222 893.684 215.966C893.406 216.705 893.267 217.534 893.267 218.455C893.267 219.386 893.409 220.233 893.693 220.994C893.983 221.75 894.409 222.352 894.971 222.801C895.539 223.244 896.244 223.466 897.085 223.466ZM911.664 225.273C910.403 225.273 909.314 224.994 908.4 224.438C907.491 223.875 906.789 223.091 906.295 222.085C905.806 221.074 905.562 219.898 905.562 218.557C905.562 217.216 905.806 216.034 906.295 215.011C906.789 213.983 907.476 213.182 908.357 212.608C909.243 212.028 910.278 211.739 911.459 211.739C912.141 211.739 912.814 211.852 913.479 212.08C914.144 212.307 914.749 212.676 915.295 213.188C915.84 213.693 916.275 214.364 916.599 215.199C916.922 216.034 917.084 217.062 917.084 218.284V219.136H906.993V217.398H915.039C915.039 216.659 914.891 216 914.596 215.42C914.306 214.841 913.891 214.384 913.351 214.048C912.817 213.713 912.187 213.545 911.459 213.545C910.658 213.545 909.965 213.744 909.38 214.142C908.8 214.534 908.354 215.045 908.042 215.676C907.729 216.307 907.573 216.983 907.573 217.705V218.864C907.573 219.852 907.743 220.69 908.084 221.378C908.431 222.06 908.911 222.58 909.525 222.938C910.138 223.29 910.851 223.466 911.664 223.466C912.192 223.466 912.67 223.392 913.096 223.244C913.528 223.091 913.9 222.864 914.212 222.562C914.525 222.256 914.766 221.875 914.937 221.42L916.88 221.966C916.675 222.625 916.332 223.205 915.849 223.705C915.366 224.199 914.769 224.585 914.059 224.864C913.349 225.136 912.55 225.273 911.664 225.273ZM921.555 217.125V225H919.544V211.909H921.487V213.955H921.658C921.964 213.29 922.43 212.756 923.055 212.352C923.68 211.943 924.487 211.739 925.476 211.739C926.362 211.739 927.138 211.92 927.803 212.284C928.467 212.642 928.984 213.188 929.354 213.92C929.723 214.648 929.908 215.568 929.908 216.682V225H927.896V216.818C927.896 215.79 927.629 214.989 927.095 214.415C926.561 213.835 925.828 213.545 924.896 213.545C924.254 213.545 923.68 213.685 923.175 213.963C922.675 214.241 922.28 214.648 921.99 215.182C921.7 215.716 921.555 216.364 921.555 217.125ZM938.676 211.909V213.614H931.892V211.909H938.676ZM933.869 208.773H935.881V221.25C935.881 221.818 935.963 222.244 936.128 222.528C936.298 222.807 936.514 222.994 936.776 223.091C937.043 223.182 937.324 223.227 937.619 223.227C937.841 223.227 938.023 223.216 938.165 223.193C938.307 223.165 938.421 223.142 938.506 223.125L938.915 224.932C938.779 224.983 938.588 225.034 938.344 225.085C938.1 225.142 937.79 225.17 937.415 225.17C936.847 225.17 936.29 225.048 935.744 224.804C935.205 224.56 934.756 224.188 934.398 223.688C934.046 223.188 933.869 222.557 933.869 221.795V208.773ZM941.102 225V211.909H943.113V225H941.102ZM942.125 209.727C941.733 209.727 941.394 209.594 941.11 209.327C940.832 209.06 940.693 208.739 940.693 208.364C940.693 207.989 940.832 207.668 941.11 207.401C941.394 207.134 941.733 207 942.125 207C942.517 207 942.852 207.134 943.13 207.401C943.414 207.668 943.556 207.989 943.556 208.364C943.556 208.739 943.414 209.06 943.13 209.327C942.852 209.594 942.517 209.727 942.125 209.727ZM951.89 211.909V213.614H945.106V211.909H951.89ZM947.084 208.773H949.095V221.25C949.095 221.818 949.177 222.244 949.342 222.528C949.513 222.807 949.728 222.994 949.99 223.091C950.257 223.182 950.538 223.227 950.834 223.227C951.055 223.227 951.237 223.216 951.379 223.193C951.521 223.165 951.635 223.142 951.72 223.125L952.129 224.932C951.993 224.983 951.802 225.034 951.558 225.085C951.314 225.142 951.004 225.17 950.629 225.17C950.061 225.17 949.504 225.048 948.959 224.804C948.419 224.56 947.97 224.188 947.612 223.688C947.26 223.188 947.084 222.557 947.084 221.795V208.773ZM955.611 229.909C955.27 229.909 954.966 229.881 954.699 229.824C954.432 229.773 954.248 229.722 954.145 229.67L954.657 227.898C955.145 228.023 955.577 228.068 955.952 228.034C956.327 228 956.66 227.832 956.949 227.531C957.245 227.236 957.515 226.756 957.759 226.091L958.134 225.068L953.293 211.909H955.475L959.089 222.341H959.225L962.839 211.909H965.02L959.464 226.909C959.214 227.585 958.904 228.145 958.535 228.588C958.165 229.037 957.736 229.369 957.248 229.585C956.765 229.801 956.219 229.909 955.611 229.909ZM973.225 225V211.909H975.237V225H973.225ZM974.248 209.727C973.856 209.727 973.518 209.594 973.234 209.327C972.955 209.06 972.816 208.739 972.816 208.364C972.816 207.989 972.955 207.668 973.234 207.401C973.518 207.134 973.856 207 974.248 207C974.64 207 974.975 207.134 975.254 207.401C975.538 207.668 975.68 207.989 975.68 208.364C975.68 208.739 975.538 209.06 975.254 209.327C974.975 209.594 974.64 209.727 974.248 209.727ZM987.593 214.841L985.786 215.352C985.673 215.051 985.505 214.759 985.284 214.474C985.068 214.185 984.772 213.946 984.397 213.759C984.022 213.571 983.542 213.477 982.957 213.477C982.156 213.477 981.488 213.662 980.954 214.031C980.426 214.395 980.161 214.858 980.161 215.42C980.161 215.92 980.343 216.315 980.707 216.605C981.071 216.895 981.639 217.136 982.411 217.33L984.355 217.807C985.525 218.091 986.397 218.526 986.971 219.111C987.545 219.69 987.832 220.437 987.832 221.352C987.832 222.102 987.616 222.773 987.184 223.364C986.758 223.955 986.161 224.42 985.394 224.761C984.627 225.102 983.735 225.273 982.718 225.273C981.383 225.273 980.278 224.983 979.403 224.403C978.528 223.824 977.974 222.977 977.741 221.864L979.65 221.386C979.832 222.091 980.176 222.619 980.681 222.972C981.193 223.324 981.86 223.5 982.684 223.5C983.622 223.5 984.366 223.301 984.917 222.903C985.474 222.5 985.752 222.017 985.752 221.455C985.752 221 985.593 220.619 985.275 220.312C984.957 220 984.468 219.767 983.809 219.614L981.627 219.102C980.429 218.818 979.548 218.378 978.985 217.781C978.429 217.179 978.15 216.426 978.15 215.523C978.15 214.784 978.358 214.131 978.772 213.562C979.193 212.994 979.764 212.548 980.485 212.224C981.213 211.901 982.036 211.739 982.957 211.739C984.252 211.739 985.269 212.023 986.008 212.591C986.752 213.159 987.281 213.909 987.593 214.841ZM998.421 217.125V225H996.41V207.545H998.421V213.955H998.591C998.898 213.278 999.359 212.741 999.972 212.344C1000.59 211.94 1001.42 211.739 1002.44 211.739C1003.34 211.739 1004.12 211.918 1004.79 212.276C1005.46 212.628 1005.98 213.17 1006.35 213.903C1006.72 214.631 1006.91 215.557 1006.91 216.682V225H1004.9V216.818C1004.9 215.778 1004.63 214.974 1004.09 214.406C1003.55 213.832 1002.81 213.545 1001.86 213.545C1001.21 213.545 1000.61 213.685 1000.09 213.963C999.574 214.241 999.165 214.648 998.864 215.182C998.569 215.716 998.421 216.364 998.421 217.125ZM1015.48 225.273C1014.22 225.273 1013.13 224.994 1012.21 224.438C1011.3 223.875 1010.6 223.091 1010.11 222.085C1009.62 221.074 1009.38 219.898 1009.38 218.557C1009.38 217.216 1009.62 216.034 1010.11 215.011C1010.6 213.983 1011.29 213.182 1012.17 212.608C1013.06 212.028 1014.09 211.739 1015.27 211.739C1015.96 211.739 1016.63 211.852 1017.29 212.08C1017.96 212.307 1018.56 212.676 1019.11 213.188C1019.65 213.693 1020.09 214.364 1020.41 215.199C1020.74 216.034 1020.9 217.062 1020.9 218.284V219.136H1010.81V217.398H1018.85C1018.85 216.659 1018.71 216 1018.41 215.42C1018.12 214.841 1017.71 214.384 1017.17 214.048C1016.63 213.713 1016 213.545 1015.27 213.545C1014.47 213.545 1013.78 213.744 1013.19 214.142C1012.61 214.534 1012.17 215.045 1011.86 215.676C1011.54 216.307 1011.39 216.983 1011.39 217.705V218.864C1011.39 219.852 1011.56 220.69 1011.9 221.378C1012.25 222.06 1012.73 222.58 1013.34 222.938C1013.95 223.29 1014.67 223.466 1015.48 223.466C1016.01 223.466 1016.48 223.392 1016.91 223.244C1017.34 223.091 1017.71 222.864 1018.03 222.562C1018.34 222.256 1018.58 221.875 1018.75 221.42L1020.69 221.966C1020.49 222.625 1020.15 223.205 1019.66 223.705C1019.18 224.199 1018.58 224.585 1017.87 224.864C1017.16 225.136 1016.36 225.273 1015.48 225.273ZM1023.36 225V211.909H1025.3V213.886H1025.44C1025.68 213.239 1026.11 212.713 1026.73 212.31C1027.36 211.906 1028.06 211.705 1028.85 211.705C1028.99 211.705 1029.18 211.707 1029.4 211.713C1029.62 211.719 1029.79 211.727 1029.9 211.739V213.784C1029.84 213.767 1029.68 213.741 1029.43 213.707C1029.2 213.668 1028.94 213.648 1028.68 213.648C1028.04 213.648 1027.47 213.781 1026.97 214.048C1026.48 214.31 1026.09 214.673 1025.8 215.139C1025.51 215.599 1025.37 216.125 1025.37 216.716V225H1023.36ZM1036.78 225.273C1035.52 225.273 1034.43 224.994 1033.51 224.438C1032.6 223.875 1031.9 223.091 1031.41 222.085C1030.92 221.074 1030.68 219.898 1030.68 218.557C1030.68 217.216 1030.92 216.034 1031.41 215.011C1031.9 213.983 1032.59 213.182 1033.47 212.608C1034.36 212.028 1035.39 211.739 1036.57 211.739C1037.26 211.739 1037.93 211.852 1038.59 212.08C1039.26 212.307 1039.86 212.676 1040.41 213.188C1040.95 213.693 1041.39 214.364 1041.71 215.199C1042.04 216.034 1042.2 217.062 1042.2 218.284V219.136H1032.11V217.398H1040.15C1040.15 216.659 1040.01 216 1039.71 215.42C1039.42 214.841 1039.01 214.384 1038.47 214.048C1037.93 213.713 1037.3 213.545 1036.57 213.545C1035.77 213.545 1035.08 213.744 1034.49 214.142C1033.91 214.534 1033.47 215.045 1033.16 215.676C1032.84 216.307 1032.69 216.983 1032.69 217.705V218.864C1032.69 219.852 1032.86 220.69 1033.2 221.378C1033.55 222.06 1034.03 222.58 1034.64 222.938C1035.25 223.29 1035.97 223.466 1036.78 223.466C1037.31 223.466 1037.78 223.392 1038.21 223.244C1038.64 223.091 1039.01 222.864 1039.33 222.562C1039.64 222.256 1039.88 221.875 1040.05 221.42L1041.99 221.966C1041.79 222.625 1041.45 223.205 1040.96 223.705C1040.48 224.199 1039.88 224.585 1039.17 224.864C1038.46 225.136 1037.66 225.273 1036.78 225.273ZM1047.66 222.614L1047.52 223.534C1047.43 224.182 1047.28 224.875 1047.08 225.614C1046.89 226.352 1046.68 227.048 1046.47 227.702C1046.26 228.355 1046.09 228.875 1045.95 229.261H1044.42C1044.49 228.898 1044.59 228.418 1044.71 227.821C1044.83 227.224 1044.95 226.557 1045.07 225.818C1045.19 225.085 1045.29 224.335 1045.37 223.568L1045.48 222.614H1047.66ZM673.693 254.307C672.864 254.307 672.111 254.151 671.435 253.838C670.759 253.52 670.222 253.062 669.824 252.466C669.426 251.864 669.227 251.136 669.227 250.284C669.227 249.534 669.375 248.926 669.67 248.46C669.966 247.989 670.361 247.619 670.855 247.352C671.349 247.085 671.895 246.886 672.491 246.756C673.094 246.619 673.699 246.511 674.307 246.432C675.102 246.33 675.747 246.253 676.241 246.202C676.741 246.145 677.105 246.051 677.332 245.92C677.565 245.79 677.682 245.562 677.682 245.239V245.17C677.682 244.33 677.452 243.676 676.991 243.21C676.537 242.744 675.847 242.511 674.92 242.511C673.96 242.511 673.207 242.722 672.662 243.142C672.116 243.562 671.733 244.011 671.511 244.489L669.602 243.807C669.943 243.011 670.398 242.392 670.966 241.949C671.54 241.5 672.165 241.187 672.841 241.011C673.523 240.83 674.193 240.739 674.852 240.739C675.273 240.739 675.756 240.79 676.301 240.892C676.852 240.989 677.384 241.19 677.895 241.497C678.412 241.804 678.841 242.267 679.182 242.886C679.523 243.506 679.693 244.335 679.693 245.375V254H677.682V252.227H677.58C677.443 252.511 677.216 252.815 676.898 253.139C676.58 253.463 676.156 253.739 675.628 253.966C675.099 254.193 674.455 254.307 673.693 254.307ZM674 252.5C674.795 252.5 675.466 252.344 676.011 252.031C676.563 251.719 676.977 251.315 677.256 250.821C677.54 250.327 677.682 249.807 677.682 249.261V247.42C677.597 247.523 677.409 247.616 677.119 247.702C676.835 247.781 676.506 247.852 676.131 247.915C675.761 247.972 675.401 248.023 675.048 248.068C674.702 248.108 674.42 248.142 674.205 248.17C673.682 248.239 673.193 248.349 672.739 248.503C672.29 248.651 671.926 248.875 671.648 249.176C671.375 249.472 671.239 249.875 671.239 250.386C671.239 251.085 671.497 251.614 672.014 251.972C672.537 252.324 673.199 252.5 674 252.5ZM684.776 246.125V254H682.764V240.909H684.708V242.955H684.878C685.185 242.29 685.651 241.756 686.276 241.352C686.901 240.943 687.708 240.739 688.696 240.739C689.583 240.739 690.358 240.92 691.023 241.284C691.688 241.642 692.205 242.188 692.574 242.92C692.943 243.648 693.128 244.568 693.128 245.682V254H691.117V245.818C691.117 244.79 690.85 243.989 690.315 243.415C689.781 242.835 689.048 242.545 688.117 242.545C687.475 242.545 686.901 242.685 686.395 242.963C685.895 243.241 685.5 243.648 685.21 244.182C684.921 244.716 684.776 245.364 684.776 246.125ZM701.147 254.273C700.056 254.273 699.093 253.997 698.257 253.446C697.422 252.889 696.769 252.105 696.297 251.094C695.826 250.077 695.59 248.875 695.59 247.489C695.59 246.114 695.826 244.92 696.297 243.909C696.769 242.898 697.425 242.116 698.266 241.565C699.107 241.014 700.078 240.739 701.181 240.739C702.033 240.739 702.706 240.881 703.201 241.165C703.701 241.443 704.081 241.761 704.343 242.119C704.61 242.472 704.817 242.761 704.965 242.989H705.135V236.545H707.147V254H705.203V251.989H704.965C704.817 252.227 704.607 252.528 704.334 252.892C704.061 253.25 703.672 253.571 703.166 253.855C702.661 254.134 701.987 254.273 701.147 254.273ZM701.419 252.466C702.226 252.466 702.908 252.256 703.465 251.835C704.022 251.409 704.445 250.821 704.735 250.071C705.024 249.315 705.169 248.443 705.169 247.455C705.169 246.477 705.027 245.622 704.743 244.889C704.459 244.151 704.039 243.577 703.482 243.168C702.925 242.753 702.237 242.545 701.419 242.545C700.567 242.545 699.857 242.764 699.289 243.202C698.726 243.634 698.303 244.222 698.019 244.966C697.74 245.705 697.601 246.534 697.601 247.455C697.601 248.386 697.743 249.233 698.027 249.994C698.317 250.75 698.743 251.352 699.306 251.801C699.874 252.244 700.578 252.466 701.419 252.466ZM716.66 254V240.909H718.671V254H716.66ZM717.682 238.727C717.29 238.727 716.952 238.594 716.668 238.327C716.39 238.06 716.251 237.739 716.251 237.364C716.251 236.989 716.39 236.668 716.668 236.401C716.952 236.134 717.29 236 717.682 236C718.074 236 718.41 236.134 718.688 236.401C718.972 236.668 719.114 236.989 719.114 237.364C719.114 237.739 718.972 238.06 718.688 238.327C718.41 238.594 718.074 238.727 717.682 238.727ZM727.448 240.909V242.614H720.664V240.909H727.448ZM722.641 237.773H724.653V250.25C724.653 250.818 724.735 251.244 724.9 251.528C725.07 251.807 725.286 251.994 725.548 252.091C725.815 252.182 726.096 252.227 726.391 252.227C726.613 252.227 726.795 252.216 726.937 252.193C727.079 252.165 727.192 252.142 727.278 252.125L727.687 253.932C727.55 253.983 727.36 254.034 727.116 254.085C726.871 254.142 726.562 254.17 726.187 254.17C725.619 254.17 725.062 254.048 724.516 253.804C723.977 253.56 723.528 253.188 723.17 252.688C722.817 252.188 722.641 251.557 722.641 250.795V237.773ZM731.612 236.545V242.545H729.737V236.545H731.612ZM743.867 243.841L742.06 244.352C741.946 244.051 741.779 243.759 741.557 243.474C741.341 243.185 741.046 242.946 740.671 242.759C740.296 242.571 739.816 242.477 739.23 242.477C738.429 242.477 737.762 242.662 737.228 243.031C736.699 243.395 736.435 243.858 736.435 244.42C736.435 244.92 736.617 245.315 736.98 245.605C737.344 245.895 737.912 246.136 738.685 246.33L740.628 246.807C741.799 247.091 742.671 247.526 743.245 248.111C743.818 248.69 744.105 249.437 744.105 250.352C744.105 251.102 743.889 251.773 743.458 252.364C743.032 252.955 742.435 253.42 741.668 253.761C740.901 254.102 740.009 254.273 738.992 254.273C737.657 254.273 736.551 253.983 735.676 253.403C734.801 252.824 734.247 251.977 734.014 250.864L735.924 250.386C736.105 251.091 736.449 251.619 736.955 251.972C737.466 252.324 738.134 252.5 738.958 252.5C739.895 252.5 740.639 252.301 741.191 251.903C741.747 251.5 742.026 251.017 742.026 250.455C742.026 250 741.867 249.619 741.549 249.312C741.23 249 740.742 248.767 740.083 248.614L737.901 248.102C736.702 247.818 735.821 247.378 735.259 246.781C734.702 246.179 734.424 245.426 734.424 244.523C734.424 243.784 734.631 243.131 735.046 242.562C735.466 241.994 736.037 241.548 736.759 241.224C737.486 240.901 738.31 240.739 739.23 240.739C740.526 240.739 741.543 241.023 742.282 241.591C743.026 242.159 743.554 242.909 743.867 243.841ZM755.649 254L751.66 240.909H753.774L756.604 250.932H756.74L759.535 240.909H761.683L764.444 250.898H764.581L767.41 240.909H769.524L765.535 254H763.558L760.694 243.943H760.49L757.626 254H755.649ZM775.435 254.307C774.606 254.307 773.853 254.151 773.177 253.838C772.501 253.52 771.964 253.062 771.566 252.466C771.168 251.864 770.969 251.136 770.969 250.284C770.969 249.534 771.117 248.926 771.413 248.46C771.708 247.989 772.103 247.619 772.597 247.352C773.092 247.085 773.637 246.886 774.234 246.756C774.836 246.619 775.441 246.511 776.049 246.432C776.844 246.33 777.489 246.253 777.984 246.202C778.484 246.145 778.847 246.051 779.075 245.92C779.308 245.79 779.424 245.562 779.424 245.239V245.17C779.424 244.33 779.194 243.676 778.734 243.21C778.279 242.744 777.589 242.511 776.663 242.511C775.702 242.511 774.95 242.722 774.404 243.142C773.859 243.562 773.475 244.011 773.254 244.489L771.344 243.807C771.685 243.011 772.14 242.392 772.708 241.949C773.282 241.5 773.907 241.187 774.583 241.011C775.265 240.83 775.935 240.739 776.594 240.739C777.015 240.739 777.498 240.79 778.043 240.892C778.594 240.989 779.126 241.19 779.637 241.497C780.154 241.804 780.583 242.267 780.924 242.886C781.265 243.506 781.435 244.335 781.435 245.375V254H779.424V252.227H779.322C779.185 252.511 778.958 252.815 778.64 253.139C778.322 253.463 777.898 253.739 777.37 253.966C776.842 254.193 776.197 254.307 775.435 254.307ZM775.742 252.5C776.538 252.5 777.208 252.344 777.754 252.031C778.305 251.719 778.719 251.315 778.998 250.821C779.282 250.327 779.424 249.807 779.424 249.261V247.42C779.339 247.523 779.151 247.616 778.862 247.702C778.577 247.781 778.248 247.852 777.873 247.915C777.504 247.972 777.143 248.023 776.79 248.068C776.444 248.108 776.163 248.142 775.947 248.17C775.424 248.239 774.935 248.349 774.481 248.503C774.032 248.651 773.668 248.875 773.39 249.176C773.117 249.472 772.981 249.875 772.981 250.386C772.981 251.085 773.239 251.614 773.756 251.972C774.279 252.324 774.941 252.5 775.742 252.5ZM784.507 254V240.909H786.518V254H784.507ZM785.529 238.727C785.137 238.727 784.799 238.594 784.515 238.327C784.237 238.06 784.097 237.739 784.097 237.364C784.097 236.989 784.237 236.668 784.515 236.401C784.799 236.134 785.137 236 785.529 236C785.921 236 786.257 236.134 786.535 236.401C786.819 236.668 786.961 236.989 786.961 237.364C786.961 237.739 786.819 238.06 786.535 238.327C786.257 238.594 785.921 238.727 785.529 238.727ZM795.295 240.909V242.614H788.511V240.909H795.295ZM790.488 237.773H792.5V250.25C792.5 250.818 792.582 251.244 792.747 251.528C792.917 251.807 793.133 251.994 793.394 252.091C793.662 252.182 793.943 252.227 794.238 252.227C794.46 252.227 794.642 252.216 794.784 252.193C794.926 252.165 795.039 252.142 795.125 252.125L795.534 253.932C795.397 253.983 795.207 254.034 794.963 254.085C794.718 254.142 794.409 254.17 794.034 254.17C793.465 254.17 792.909 254.048 792.363 253.804C791.823 253.56 791.375 253.188 791.017 252.688C790.664 252.188 790.488 251.557 790.488 250.795V237.773ZM797.721 254V240.909H799.732V254H797.721ZM798.743 238.727C798.351 238.727 798.013 238.594 797.729 238.327C797.451 238.06 797.312 237.739 797.312 237.364C797.312 236.989 797.451 236.668 797.729 236.401C798.013 236.134 798.351 236 798.743 236C799.135 236 799.471 236.134 799.749 236.401C800.033 236.668 800.175 236.989 800.175 237.364C800.175 237.739 800.033 238.06 799.749 238.327C799.471 238.594 799.135 238.727 798.743 238.727ZM804.827 246.125V254H802.816V240.909H804.759V242.955H804.93C805.236 242.29 805.702 241.756 806.327 241.352C806.952 240.943 807.759 240.739 808.748 240.739C809.634 240.739 810.41 240.92 811.074 241.284C811.739 241.642 812.256 242.188 812.626 242.92C812.995 243.648 813.18 244.568 813.18 245.682V254H811.168V245.818C811.168 244.79 810.901 243.989 810.367 243.415C809.833 242.835 809.1 242.545 808.168 242.545C807.526 242.545 806.952 242.685 806.447 242.963C805.947 243.241 805.552 243.648 805.262 244.182C804.972 244.716 804.827 245.364 804.827 246.125ZM821.539 259.182C820.567 259.182 819.732 259.057 819.033 258.807C818.335 258.562 817.752 258.239 817.286 257.835C816.826 257.438 816.46 257.011 816.187 256.557L817.789 255.432C817.971 255.67 818.201 255.943 818.479 256.25C818.758 256.562 819.138 256.832 819.621 257.06C820.11 257.293 820.749 257.409 821.539 257.409C822.596 257.409 823.468 257.153 824.156 256.642C824.843 256.131 825.187 255.33 825.187 254.239V251.58H825.016C824.869 251.818 824.658 252.114 824.386 252.466C824.119 252.812 823.732 253.122 823.227 253.395C822.727 253.662 822.05 253.795 821.198 253.795C820.141 253.795 819.192 253.545 818.352 253.045C817.516 252.545 816.854 251.818 816.366 250.864C815.883 249.909 815.641 248.75 815.641 247.386C815.641 246.045 815.877 244.878 816.349 243.884C816.82 242.884 817.477 242.111 818.317 241.565C819.158 241.014 820.13 240.739 821.232 240.739C822.085 240.739 822.761 240.881 823.261 241.165C823.766 241.443 824.153 241.761 824.42 242.119C824.692 242.472 824.903 242.761 825.05 242.989H825.255V240.909H827.198V254.375C827.198 255.5 826.942 256.415 826.431 257.119C825.925 257.83 825.244 258.349 824.386 258.679C823.533 259.014 822.585 259.182 821.539 259.182ZM821.471 251.989C822.278 251.989 822.96 251.804 823.516 251.435C824.073 251.065 824.496 250.534 824.786 249.841C825.076 249.148 825.221 248.318 825.221 247.352C825.221 246.409 825.079 245.577 824.795 244.855C824.511 244.134 824.09 243.568 823.533 243.159C822.977 242.75 822.289 242.545 821.471 242.545C820.619 242.545 819.908 242.761 819.34 243.193C818.778 243.625 818.354 244.205 818.07 244.932C817.792 245.659 817.653 246.466 817.653 247.352C817.653 248.261 817.795 249.065 818.079 249.764C818.369 250.457 818.795 251.003 819.357 251.401C819.925 251.793 820.63 251.989 821.471 251.989ZM842.26 240.909V242.614H835.203V240.909H842.26ZM837.316 254V239.102C837.316 238.352 837.492 237.727 837.845 237.227C838.197 236.727 838.654 236.352 839.217 236.102C839.779 235.852 840.373 235.727 840.998 235.727C841.492 235.727 841.896 235.767 842.208 235.847C842.521 235.926 842.754 236 842.907 236.068L842.328 237.807C842.225 237.773 842.083 237.73 841.902 237.679C841.725 237.628 841.492 237.602 841.203 237.602C840.538 237.602 840.058 237.77 839.762 238.105C839.473 238.44 839.328 238.932 839.328 239.58V254H837.316ZM849.258 254.273C848.076 254.273 847.039 253.991 846.147 253.429C845.26 252.866 844.567 252.08 844.067 251.068C843.573 250.057 843.326 248.875 843.326 247.523C843.326 246.159 843.573 244.969 844.067 243.952C844.567 242.935 845.26 242.145 846.147 241.582C847.039 241.02 848.076 240.739 849.258 240.739C850.439 240.739 851.473 241.02 852.36 241.582C853.252 242.145 853.945 242.935 854.439 243.952C854.939 244.969 855.189 246.159 855.189 247.523C855.189 248.875 854.939 250.057 854.439 251.068C853.945 252.08 853.252 252.866 852.36 253.429C851.473 253.991 850.439 254.273 849.258 254.273ZM849.258 252.466C850.155 252.466 850.894 252.236 851.473 251.776C852.053 251.315 852.482 250.71 852.76 249.96C853.039 249.21 853.178 248.398 853.178 247.523C853.178 246.648 853.039 245.832 852.76 245.077C852.482 244.321 852.053 243.71 851.473 243.244C850.894 242.778 850.155 242.545 849.258 242.545C848.36 242.545 847.621 242.778 847.042 243.244C846.462 243.71 846.033 244.321 845.755 245.077C845.476 245.832 845.337 246.648 845.337 247.523C845.337 248.398 845.476 249.21 845.755 249.96C846.033 250.71 846.462 251.315 847.042 251.776C847.621 252.236 848.36 252.466 849.258 252.466ZM857.66 254V240.909H859.603V242.886H859.739C859.978 242.239 860.41 241.713 861.035 241.31C861.66 240.906 862.364 240.705 863.148 240.705C863.296 240.705 863.481 240.707 863.702 240.713C863.924 240.719 864.091 240.727 864.205 240.739V242.784C864.137 242.767 863.981 242.741 863.736 242.707C863.498 242.668 863.245 242.648 862.978 242.648C862.341 242.648 861.773 242.781 861.273 243.048C860.779 243.31 860.387 243.673 860.097 244.139C859.813 244.599 859.671 245.125 859.671 245.716V254H857.66ZM873.435 258.909C873.094 258.909 872.79 258.881 872.523 258.824C872.256 258.773 872.071 258.722 871.969 258.67L872.48 256.898C872.969 257.023 873.401 257.068 873.776 257.034C874.151 257 874.483 256.832 874.773 256.531C875.068 256.236 875.338 255.756 875.583 255.091L875.958 254.068L871.117 240.909H873.298L876.912 251.341H877.048L880.662 240.909H882.844L877.287 255.909C877.037 256.585 876.727 257.145 876.358 257.588C875.989 258.037 875.56 258.369 875.071 258.585C874.588 258.801 874.043 258.909 873.435 258.909ZM889.748 254.273C888.566 254.273 887.529 253.991 886.637 253.429C885.751 252.866 885.058 252.08 884.558 251.068C884.063 250.057 883.816 248.875 883.816 247.523C883.816 246.159 884.063 244.969 884.558 243.952C885.058 242.935 885.751 242.145 886.637 241.582C887.529 241.02 888.566 240.739 889.748 240.739C890.93 240.739 891.964 241.02 892.85 241.582C893.742 242.145 894.436 242.935 894.93 243.952C895.43 244.969 895.68 246.159 895.68 247.523C895.68 248.875 895.43 250.057 894.93 251.068C894.436 252.08 893.742 252.866 892.85 253.429C891.964 253.991 890.93 254.273 889.748 254.273ZM889.748 252.466C890.646 252.466 891.385 252.236 891.964 251.776C892.544 251.315 892.973 250.71 893.251 249.96C893.529 249.21 893.669 248.398 893.669 247.523C893.669 246.648 893.529 245.832 893.251 245.077C892.973 244.321 892.544 243.71 891.964 243.244C891.385 242.778 890.646 242.545 889.748 242.545C888.85 242.545 888.112 242.778 887.532 243.244C886.953 243.71 886.524 244.321 886.245 245.077C885.967 245.832 885.828 246.648 885.828 247.523C885.828 248.398 885.967 249.21 886.245 249.96C886.524 250.71 886.953 251.315 887.532 251.776C888.112 252.236 888.85 252.466 889.748 252.466ZM906.4 248.648V240.909H908.412V254H906.4V251.784H906.264C905.957 252.449 905.48 253.014 904.832 253.48C904.184 253.94 903.366 254.17 902.378 254.17C901.559 254.17 900.832 253.991 900.196 253.634C899.559 253.27 899.059 252.724 898.696 251.997C898.332 251.264 898.15 250.341 898.15 249.227V240.909H900.162V249.091C900.162 250.045 900.429 250.807 900.963 251.375C901.503 251.943 902.19 252.227 903.025 252.227C903.525 252.227 904.034 252.099 904.551 251.844C905.074 251.588 905.511 251.196 905.863 250.668C906.221 250.139 906.4 249.466 906.4 248.648ZM923.339 240.909V242.614H916.555V240.909H923.339ZM918.532 237.773H920.543V250.25C920.543 250.818 920.626 251.244 920.79 251.528C920.961 251.807 921.177 251.994 921.438 252.091C921.705 252.182 921.987 252.227 922.282 252.227C922.504 252.227 922.685 252.216 922.827 252.193C922.969 252.165 923.083 252.142 923.168 252.125L923.577 253.932C923.441 253.983 923.251 254.034 923.006 254.085C922.762 254.142 922.452 254.17 922.077 254.17C921.509 254.17 920.952 254.048 920.407 253.804C919.867 253.56 919.418 253.188 919.06 252.688C918.708 252.188 918.532 251.557 918.532 250.795V237.773ZM930.942 254.273C929.76 254.273 928.723 253.991 927.831 253.429C926.945 252.866 926.252 252.08 925.752 251.068C925.257 250.057 925.01 248.875 925.01 247.523C925.01 246.159 925.257 244.969 925.752 243.952C926.252 242.935 926.945 242.145 927.831 241.582C928.723 241.02 929.76 240.739 930.942 240.739C932.124 240.739 933.158 241.02 934.044 241.582C934.936 242.145 935.629 242.935 936.124 243.952C936.624 244.969 936.874 246.159 936.874 247.523C936.874 248.875 936.624 250.057 936.124 251.068C935.629 252.08 934.936 252.866 934.044 253.429C933.158 253.991 932.124 254.273 930.942 254.273ZM930.942 252.466C931.84 252.466 932.578 252.236 933.158 251.776C933.737 251.315 934.166 250.71 934.445 249.96C934.723 249.21 934.862 248.398 934.862 247.523C934.862 246.648 934.723 245.832 934.445 245.077C934.166 244.321 933.737 243.71 933.158 243.244C932.578 242.778 931.84 242.545 930.942 242.545C930.044 242.545 929.306 242.778 928.726 243.244C928.146 243.71 927.717 244.321 927.439 245.077C927.161 245.832 927.021 246.648 927.021 247.523C927.021 248.398 927.161 249.21 927.439 249.96C927.717 250.71 928.146 251.315 928.726 251.776C929.306 252.236 930.044 252.466 930.942 252.466ZM945.767 254V236.545H947.778V242.989H947.949C948.096 242.761 948.301 242.472 948.562 242.119C948.829 241.761 949.21 241.443 949.704 241.165C950.204 240.881 950.88 240.739 951.733 240.739C952.835 240.739 953.807 241.014 954.647 241.565C955.488 242.116 956.145 242.898 956.616 243.909C957.088 244.92 957.324 246.114 957.324 247.489C957.324 248.875 957.088 250.077 956.616 251.094C956.145 252.105 955.491 252.889 954.656 253.446C953.821 253.997 952.858 254.273 951.767 254.273C950.926 254.273 950.253 254.134 949.747 253.855C949.241 253.571 948.852 253.25 948.579 252.892C948.307 252.528 948.096 252.227 947.949 251.989H947.71V254H945.767ZM947.744 247.455C947.744 248.443 947.889 249.315 948.179 250.071C948.468 250.821 948.892 251.409 949.449 251.835C950.005 252.256 950.687 252.466 951.494 252.466C952.335 252.466 953.037 252.244 953.599 251.801C954.167 251.352 954.593 250.75 954.878 249.994C955.167 249.233 955.312 248.386 955.312 247.455C955.312 246.534 955.17 245.705 954.886 244.966C954.608 244.222 954.184 243.634 953.616 243.202C953.054 242.764 952.346 242.545 951.494 242.545C950.676 242.545 949.988 242.753 949.432 243.168C948.875 243.577 948.454 244.151 948.17 244.889C947.886 245.622 947.744 246.477 947.744 247.455ZM965.289 254.273C964.028 254.273 962.939 253.994 962.025 253.438C961.116 252.875 960.414 252.091 959.92 251.085C959.431 250.074 959.187 248.898 959.187 247.557C959.187 246.216 959.431 245.034 959.92 244.011C960.414 242.983 961.101 242.182 961.982 241.608C962.868 241.028 963.903 240.739 965.084 240.739C965.766 240.739 966.439 240.852 967.104 241.08C967.769 241.307 968.374 241.676 968.92 242.188C969.465 242.693 969.9 243.364 970.224 244.199C970.547 245.034 970.709 246.062 970.709 247.284V248.136H960.618V246.398H968.664C968.664 245.659 968.516 245 968.221 244.42C967.931 243.841 967.516 243.384 966.976 243.048C966.442 242.713 965.812 242.545 965.084 242.545C964.283 242.545 963.59 242.744 963.005 243.142C962.425 243.534 961.979 244.045 961.667 244.676C961.354 245.307 961.198 245.983 961.198 246.705V247.864C961.198 248.852 961.368 249.69 961.709 250.378C962.056 251.06 962.536 251.58 963.15 251.938C963.763 252.29 964.476 252.466 965.289 252.466C965.817 252.466 966.295 252.392 966.721 252.244C967.153 252.091 967.525 251.864 967.837 251.562C968.15 251.256 968.391 250.875 968.562 250.42L970.505 250.966C970.3 251.625 969.957 252.205 969.474 252.705C968.991 253.199 968.394 253.585 967.684 253.864C966.974 254.136 966.175 254.273 965.289 254.273ZM983.171 254.307C982.342 254.307 981.589 254.151 980.913 253.838C980.237 253.52 979.7 253.062 979.302 252.466C978.904 251.864 978.705 251.136 978.705 250.284C978.705 249.534 978.853 248.926 979.149 248.46C979.444 247.989 979.839 247.619 980.333 247.352C980.828 247.085 981.373 246.886 981.97 246.756C982.572 246.619 983.177 246.511 983.785 246.432C984.58 246.33 985.225 246.253 985.72 246.202C986.22 246.145 986.583 246.051 986.811 245.92C987.043 245.79 987.16 245.562 987.16 245.239V245.17C987.16 244.33 986.93 243.676 986.47 243.21C986.015 242.744 985.325 242.511 984.399 242.511C983.438 242.511 982.686 242.722 982.14 243.142C981.595 243.562 981.211 244.011 980.989 244.489L979.08 243.807C979.421 243.011 979.876 242.392 980.444 241.949C981.018 241.5 981.643 241.187 982.319 241.011C983.001 240.83 983.671 240.739 984.33 240.739C984.751 240.739 985.234 240.79 985.779 240.892C986.33 240.989 986.862 241.19 987.373 241.497C987.89 241.804 988.319 242.267 988.66 242.886C989.001 243.506 989.171 244.335 989.171 245.375V254H987.16V252.227H987.058C986.921 252.511 986.694 252.815 986.376 253.139C986.058 253.463 985.634 253.739 985.106 253.966C984.578 254.193 983.933 254.307 983.171 254.307ZM983.478 252.5C984.274 252.5 984.944 252.344 985.489 252.031C986.041 251.719 986.455 251.315 986.734 250.821C987.018 250.327 987.16 249.807 987.16 249.261V247.42C987.075 247.523 986.887 247.616 986.597 247.702C986.313 247.781 985.984 247.852 985.609 247.915C985.239 247.972 984.879 248.023 984.526 248.068C984.18 248.108 983.899 248.142 983.683 248.17C983.16 248.239 982.671 248.349 982.217 248.503C981.768 248.651 981.404 248.875 981.126 249.176C980.853 249.472 980.717 249.875 980.717 250.386C980.717 251.085 980.975 251.614 981.492 251.972C982.015 252.324 982.677 252.5 983.478 252.5ZM998.392 258.909V240.909H1000.34V242.989H1000.57C1000.72 242.761 1000.93 242.472 1001.19 242.119C1001.45 241.761 1001.84 241.443 1002.33 241.165C1002.83 240.881 1003.51 240.739 1004.36 240.739C1005.46 240.739 1006.43 241.014 1007.27 241.565C1008.11 242.116 1008.77 242.898 1009.24 243.909C1009.71 244.92 1009.95 246.114 1009.95 247.489C1009.95 248.875 1009.71 250.077 1009.24 251.094C1008.77 252.105 1008.12 252.889 1007.28 253.446C1006.45 253.997 1005.48 254.273 1004.39 254.273C1003.55 254.273 1002.88 254.134 1002.37 253.855C1001.87 253.571 1001.48 253.25 1001.2 252.892C1000.93 252.528 1000.72 252.227 1000.57 251.989H1000.4V258.909H998.392ZM1000.37 247.455C1000.37 248.443 1000.51 249.315 1000.8 250.071C1001.09 250.821 1001.52 251.409 1002.07 251.835C1002.63 252.256 1003.31 252.466 1004.12 252.466C1004.96 252.466 1005.66 252.244 1006.22 251.801C1006.79 251.352 1007.22 250.75 1007.5 249.994C1007.79 249.233 1007.94 248.386 1007.94 247.455C1007.94 246.534 1007.8 245.705 1007.51 244.966C1007.23 244.222 1006.81 243.634 1006.24 243.202C1005.68 242.764 1004.97 242.545 1004.12 242.545C1003.3 242.545 1002.61 242.753 1002.06 243.168C1001.5 243.577 1001.08 244.151 1000.8 244.889C1000.51 245.622 1000.37 246.477 1000.37 247.455ZM1016.27 254.307C1015.44 254.307 1014.69 254.151 1014.01 253.838C1013.34 253.52 1012.8 253.062 1012.4 252.466C1012 251.864 1011.8 251.136 1011.8 250.284C1011.8 249.534 1011.95 248.926 1012.25 248.46C1012.54 247.989 1012.94 247.619 1013.43 247.352C1013.93 247.085 1014.47 246.886 1015.07 246.756C1015.67 246.619 1016.28 246.511 1016.88 246.432C1017.68 246.33 1018.32 246.253 1018.82 246.202C1019.32 246.145 1019.68 246.051 1019.91 245.92C1020.14 245.79 1020.26 245.562 1020.26 245.239V245.17C1020.26 244.33 1020.03 243.676 1019.57 243.21C1019.11 242.744 1018.42 242.511 1017.5 242.511C1016.54 242.511 1015.78 242.722 1015.24 243.142C1014.69 243.562 1014.31 244.011 1014.09 244.489L1012.18 243.807C1012.52 243.011 1012.97 242.392 1013.54 241.949C1014.12 241.5 1014.74 241.187 1015.42 241.011C1016.1 240.83 1016.77 240.739 1017.43 240.739C1017.85 240.739 1018.33 240.79 1018.88 240.892C1019.43 240.989 1019.96 241.19 1020.47 241.497C1020.99 241.804 1021.42 242.267 1021.76 242.886C1022.1 243.506 1022.27 244.335 1022.27 245.375V254H1020.26V252.227H1020.16C1020.02 252.511 1019.79 252.815 1019.47 253.139C1019.16 253.463 1018.73 253.739 1018.2 253.966C1017.68 254.193 1017.03 254.307 1016.27 254.307ZM1016.58 252.5C1017.37 252.5 1018.04 252.344 1018.59 252.031C1019.14 251.719 1019.55 251.315 1019.83 250.821C1020.12 250.327 1020.26 249.807 1020.26 249.261V247.42C1020.17 247.523 1019.99 247.616 1019.7 247.702C1019.41 247.781 1019.08 247.852 1018.71 247.915C1018.34 247.972 1017.98 248.023 1017.62 248.068C1017.28 248.108 1017 248.142 1016.78 248.17C1016.26 248.239 1015.77 248.349 1015.32 248.503C1014.87 248.651 1014.5 248.875 1014.22 249.176C1013.95 249.472 1013.82 249.875 1013.82 250.386C1013.82 251.085 1014.07 251.614 1014.59 251.972C1015.11 252.324 1015.78 252.5 1016.58 252.5ZM1025.34 254V240.909H1027.28V242.886H1027.42C1027.66 242.239 1028.09 241.713 1028.72 241.31C1029.34 240.906 1030.05 240.705 1030.83 240.705C1030.98 240.705 1031.16 240.707 1031.38 240.713C1031.61 240.719 1031.77 240.727 1031.89 240.739V242.784C1031.82 242.767 1031.66 242.741 1031.42 242.707C1031.18 242.668 1030.93 242.648 1030.66 242.648C1030.02 242.648 1029.45 242.781 1028.95 243.048C1028.46 243.31 1028.07 243.673 1027.78 244.139C1027.49 244.599 1027.35 245.125 1027.35 245.716V254H1025.34ZM1040.18 240.909V242.614H1033.4V240.909H1040.18ZM1035.38 237.773H1037.39V250.25C1037.39 250.818 1037.47 251.244 1037.64 251.528C1037.81 251.807 1038.02 251.994 1038.28 252.091C1038.55 252.182 1038.83 252.227 1039.13 252.227C1039.35 252.227 1039.53 252.216 1039.67 252.193C1039.81 252.165 1039.93 252.142 1040.01 252.125L1040.42 253.932C1040.29 253.983 1040.1 254.034 1039.85 254.085C1039.61 254.142 1039.3 254.17 1038.92 254.17C1038.35 254.17 1037.8 254.048 1037.25 253.804C1036.71 253.56 1036.26 253.188 1035.91 252.688C1035.55 252.188 1035.38 251.557 1035.38 250.795V237.773ZM1054.08 254.273C1052.9 254.273 1051.86 253.991 1050.97 253.429C1050.08 252.866 1049.39 252.08 1048.89 251.068C1048.39 250.057 1048.15 248.875 1048.15 247.523C1048.15 246.159 1048.39 244.969 1048.89 243.952C1049.39 242.935 1050.08 242.145 1050.97 241.582C1051.86 241.02 1052.9 240.739 1054.08 240.739C1055.26 240.739 1056.29 241.02 1057.18 241.582C1058.07 242.145 1058.77 242.935 1059.26 243.952C1059.76 244.969 1060.01 246.159 1060.01 247.523C1060.01 248.875 1059.76 250.057 1059.26 251.068C1058.77 252.08 1058.07 252.866 1057.18 253.429C1056.29 253.991 1055.26 254.273 1054.08 254.273ZM1054.08 252.466C1054.98 252.466 1055.71 252.236 1056.29 251.776C1056.87 251.315 1057.3 250.71 1057.58 249.96C1057.86 249.21 1058 248.398 1058 247.523C1058 246.648 1057.86 245.832 1057.58 245.077C1057.3 244.321 1056.87 243.71 1056.29 243.244C1055.71 242.778 1054.98 242.545 1054.08 242.545C1053.18 242.545 1052.44 242.778 1051.86 243.244C1051.28 243.71 1050.85 244.321 1050.58 245.077C1050.3 245.832 1050.16 246.648 1050.16 247.523C1050.16 248.398 1050.3 249.21 1050.58 249.96C1050.85 250.71 1051.28 251.315 1051.86 251.776C1052.44 252.236 1053.18 252.466 1054.08 252.466ZM1068.31 240.909V242.614H1061.25V240.909H1068.31ZM1063.37 254V239.102C1063.37 238.352 1063.54 237.727 1063.89 237.227C1064.25 236.727 1064.7 236.352 1065.27 236.102C1065.83 235.852 1066.42 235.727 1067.05 235.727C1067.54 235.727 1067.95 235.767 1068.26 235.847C1068.57 235.926 1068.8 236 1068.96 236.068L1068.38 237.807C1068.28 237.773 1068.13 237.73 1067.95 237.679C1067.78 237.628 1067.54 237.602 1067.25 237.602C1066.59 237.602 1066.11 237.77 1065.81 238.105C1065.52 238.44 1065.38 238.932 1065.38 239.58V254H1063.37ZM1076.68 254V240.909H1078.69V254H1076.68ZM1077.7 238.727C1077.31 238.727 1076.97 238.594 1076.69 238.327C1076.41 238.06 1076.27 237.739 1076.27 237.364C1076.27 236.989 1076.41 236.668 1076.69 236.401C1076.97 236.134 1077.31 236 1077.7 236C1078.09 236 1078.43 236.134 1078.71 236.401C1078.99 236.668 1079.13 236.989 1079.13 237.364C1079.13 237.739 1078.99 238.06 1078.71 238.327C1078.43 238.594 1078.09 238.727 1077.7 238.727ZM1087.47 240.909V242.614H1080.68V240.909H1087.47ZM1082.66 237.773H1084.67V250.25C1084.67 250.818 1084.75 251.244 1084.92 251.528C1085.09 251.807 1085.3 251.994 1085.57 252.091C1085.83 252.182 1086.11 252.227 1086.41 252.227C1086.63 252.227 1086.81 252.216 1086.96 252.193C1087.1 252.165 1087.21 252.142 1087.3 252.125L1087.71 253.932C1087.57 253.983 1087.38 254.034 1087.13 254.085C1086.89 254.142 1086.58 254.17 1086.21 254.17C1085.64 254.17 1085.08 254.048 1084.54 253.804C1084 253.56 1083.55 253.188 1083.19 252.688C1082.84 252.188 1082.66 251.557 1082.66 250.795V237.773Z" fill="white"/>
<defs>
<linearGradient id="paint0_linear_446_4302" x1="756" y1="3.99379e-06" x2="756" y2="461" gradientUnits="userSpaceOnUse">
<stop stop-color="#1B0738"/>
<stop offset="1"/>
</linearGradient>
<linearGradient id="paint1_linear_446_4302" x1="421" y1="230.5" x2="646" y2="230.5" gradientUnits="userSpaceOnUse">
<stop stop-color="#1DEAB2"/>
<stop offset="1" stop-color="#F2C03B"/>
</linearGradient>
</defs>
</svg>
