<svg width="1512" height="786" viewBox="0 0 1512 786" fill="none" xmlns="http://www.w3.org/2000/svg">
<g clip-path="url(#clip0_183_1532)">
<rect width="1512" height="786" fill="#0C2766"/>
<path d="M1409.53 126.734C1407.84 126.734 1406.41 126.402 1405.23 125.738C1404.05 125.055 1403.22 124.115 1402.71 122.92C1402.23 121.724 1402.15 120.367 1402.47 118.849C1402.8 117.312 1403.46 115.956 1404.44 114.779C1405.46 113.584 1406.69 112.654 1408.15 111.99C1409.62 111.307 1411.19 110.965 1412.88 110.965C1414.53 110.965 1415.89 111.307 1416.97 111.99C1418.05 112.654 1418.75 113.612 1419.06 114.864L1415.15 116.715C1414.89 115.994 1414.49 115.462 1413.95 115.121C1413.42 114.779 1412.79 114.608 1412.08 114.608C1411.3 114.608 1410.57 114.779 1409.87 115.121C1409.18 115.462 1408.58 115.946 1408.08 116.572C1407.6 117.199 1407.26 117.958 1407.07 118.849C1406.88 119.741 1406.89 120.5 1407.11 121.127C1407.35 121.753 1407.74 122.237 1408.29 122.578C1408.83 122.92 1409.5 123.091 1410.27 123.091C1410.99 123.091 1411.68 122.929 1412.35 122.607C1413.05 122.265 1413.68 121.724 1414.24 120.984L1417.36 122.863C1416.52 124.096 1415.41 125.055 1414.05 125.738C1412.68 126.402 1411.18 126.734 1409.53 126.734ZM1426.4 126.734C1424.74 126.734 1423.32 126.392 1422.17 125.709C1421.04 125.026 1420.21 124.096 1419.71 122.92C1419.22 121.724 1419.14 120.367 1419.47 118.849C1419.79 117.312 1420.45 115.956 1421.44 114.779C1422.45 113.584 1423.67 112.654 1425.09 111.99C1426.53 111.307 1428.09 110.965 1429.76 110.965C1431.41 110.965 1432.81 111.307 1433.96 111.99C1435.12 112.654 1435.94 113.574 1436.43 114.751C1436.92 115.927 1437 117.293 1436.67 118.849C1436.34 120.367 1435.69 121.724 1434.69 122.92C1433.71 124.096 1432.49 125.026 1431.05 125.709C1429.6 126.392 1428.05 126.734 1426.4 126.734ZM1427.18 123.091C1427.94 123.091 1428.65 122.92 1429.33 122.578C1430 122.237 1430.58 121.753 1431.06 121.127C1431.55 120.481 1431.88 119.722 1432.07 118.849C1432.26 117.958 1432.24 117.199 1432.03 116.572C1431.81 115.946 1431.44 115.462 1430.91 115.121C1430.38 114.779 1429.74 114.608 1428.98 114.608C1428.23 114.608 1427.51 114.779 1426.84 115.121C1426.16 115.462 1425.57 115.946 1425.07 116.572C1424.59 117.199 1424.25 117.958 1424.06 118.849C1423.88 119.722 1423.89 120.481 1424.1 121.127C1424.34 121.753 1424.72 122.237 1425.25 122.578C1425.78 122.92 1426.42 123.091 1427.18 123.091Z" fill="white"/>
<path d="M1365 83.9953H1399.3L1396.64 96.5402H1362.33L1365 83.9953ZM1360.13 112.669H1398.91L1396.16 125.613H1340.99L1355.8 55.9186H1409.65L1406.9 68.8618H1369.44L1360.13 112.669Z" fill="white"/>
<path d="M1439.9 56.3684C1439.9 56.3684 1443.98 76.1414 1434.21 90.3043C1424.43 104.467 1404.49 107.657 1404.49 107.657C1404.49 107.657 1400.41 87.8836 1410.18 73.7207C1419.96 59.5579 1439.9 56.3684 1439.9 56.3684Z" fill="#2BC20E"/>
<path d="M1453.42 74.2961C1453.42 74.2961 1450.22 93.2281 1436.67 102.407C1423.12 111.586 1404.35 107.537 1404.35 107.537C1404.35 107.537 1407.55 88.6048 1421.11 79.4257C1434.66 70.2465 1453.42 74.2961 1453.42 74.2961Z" fill="#39FF13"/>
<path d="M1419.07 102.415L1414.67 95.913L1417.62 93.9125C1418.33 93.4344 1419.04 93.1491 1419.76 93.0567C1420.48 92.9581 1421.16 93.0475 1421.79 93.325C1422.42 93.6025 1422.96 94.0725 1423.41 94.735C1423.85 95.3914 1424.09 96.0669 1424.12 96.7616C1424.14 97.45 1423.97 98.1129 1423.62 98.7502C1423.26 99.3814 1422.73 99.936 1422.02 100.414L1419.07 102.415ZM1419.74 100.16L1421.11 99.2291C1421.55 98.9355 1421.87 98.6013 1422.07 98.2264C1422.28 97.8412 1422.37 97.4381 1422.34 97.0173C1422.31 96.5922 1422.16 96.1754 1421.88 95.7667C1421.6 95.3519 1421.27 95.0566 1420.89 94.881C1420.51 94.6951 1420.11 94.6306 1419.68 94.6877C1419.25 94.7344 1418.82 94.9045 1418.38 95.1981L1417.01 96.1292L1419.74 100.16ZM1426.64 97.2865L1423.26 92.2895L1424.64 91.3522L1425.6 92.764L1425.13 92.4874C1425.04 92.0338 1425.09 91.6061 1425.3 91.2042C1425.5 90.7962 1425.84 90.4328 1426.31 90.1141L1427.21 91.4516C1427.15 91.4873 1427.09 91.522 1427.04 91.5555C1426.99 91.5829 1426.93 91.6154 1426.88 91.6532C1426.48 91.9216 1426.24 92.2542 1426.14 92.6511C1426.05 93.0375 1426.17 93.4692 1426.49 93.9459L1428.09 96.3051L1426.64 97.2865ZM1430.61 94.5957L1427.23 89.5987L1428.68 88.6174L1432.06 93.6143L1430.61 94.5957ZM1427.48 88.4114C1427.22 88.5918 1426.95 88.6612 1426.68 88.6196C1426.4 88.578 1426.19 88.4427 1426.03 88.2136C1425.88 87.9845 1425.83 87.7359 1425.9 87.4679C1425.96 87.1999 1426.12 86.9757 1426.39 86.7953C1426.65 86.615 1426.92 86.5425 1427.19 86.5779C1427.45 86.6071 1427.66 86.7362 1427.82 86.9653C1427.98 87.2068 1428.03 87.4647 1427.98 87.7389C1427.92 88.0027 1427.76 88.2269 1427.48 88.4114ZM1434.76 91.7851L1429.28 88.2098L1430.78 87.197L1435.43 90.3147L1434.69 90.818L1433.59 85.2909L1434.98 84.3473L1436.26 90.7722L1434.76 91.7851ZM1441.35 87.4306C1440.78 87.8164 1440.21 88.0447 1439.62 88.1153C1439.04 88.1818 1438.51 88.1028 1438.01 87.8782C1437.51 87.6475 1437.09 87.2844 1436.76 86.7891C1436.42 86.2875 1436.23 85.7672 1436.2 85.2281C1436.17 84.6787 1436.29 84.1593 1436.54 83.67C1436.8 83.1745 1437.17 82.7547 1437.68 82.4109C1438.17 82.0795 1438.68 81.887 1439.22 81.8333C1439.75 81.7693 1440.26 81.8547 1440.76 82.0896C1441.25 82.3184 1441.67 82.7021 1442.04 83.2408C1442.08 83.2965 1442.12 83.3636 1442.16 83.4421C1442.2 83.5144 1442.24 83.5836 1442.27 83.6497L1438.22 86.3988L1437.64 85.5536L1440.94 83.3204L1440.55 83.9486C1440.38 83.6885 1440.17 83.4982 1439.94 83.3775C1439.7 83.2569 1439.45 83.2068 1439.2 83.2274C1438.94 83.2417 1438.68 83.3328 1438.43 83.5005C1438.19 83.6683 1438 83.8729 1437.89 84.1144C1437.77 84.3455 1437.73 84.5957 1437.76 84.8652C1437.78 85.1284 1437.89 85.3932 1438.07 85.6594L1438.22 85.8823C1438.4 86.1548 1438.63 86.3564 1438.89 86.4873C1439.15 86.6077 1439.42 86.6503 1439.72 86.615C1440.01 86.5692 1440.31 86.4457 1440.6 86.2444C1440.87 86.0641 1441.08 85.8666 1441.22 85.6519C1441.37 85.433 1441.47 85.1864 1441.53 84.9122L1442.87 85.226C1442.81 85.6412 1442.66 86.0375 1442.41 86.4147C1442.16 86.7858 1441.81 87.1244 1441.35 87.4306Z" fill="#0C2766"/>
<path d="M554.272 262.872H586.624V274.968H554.272V262.872ZM555.424 290.52H592V303H539.968V235.8H590.752V248.28H555.424V290.52ZM627.997 303.768C622.429 303.768 617.469 302.648 613.117 300.408C608.765 298.104 605.341 294.936 602.845 290.904C600.413 286.872 599.197 282.296 599.197 277.176C599.197 271.992 600.413 267.416 602.845 263.448C605.341 259.416 608.765 256.28 613.117 254.04C617.469 251.736 622.429 250.584 627.997 250.584C633.437 250.584 638.173 251.736 642.205 254.04C646.237 256.28 649.213 259.512 651.133 263.736L639.517 269.976C638.173 267.544 636.477 265.752 634.429 264.6C632.445 263.448 630.269 262.872 627.901 262.872C625.341 262.872 623.037 263.448 620.989 264.6C618.941 265.752 617.309 267.384 616.093 269.496C614.941 271.608 614.365 274.168 614.365 277.176C614.365 280.184 614.941 282.744 616.093 284.856C617.309 286.968 618.941 288.6 620.989 289.752C623.037 290.904 625.341 291.48 627.901 291.48C630.269 291.48 632.445 290.936 634.429 289.848C636.477 288.696 638.173 286.872 639.517 284.376L651.133 290.712C649.213 294.872 646.237 298.104 642.205 300.408C638.173 302.648 633.437 303.768 627.997 303.768ZM683.676 303.768C678.172 303.768 673.276 302.616 668.988 300.312C664.764 298.008 661.404 294.872 658.908 290.904C656.476 286.872 655.26 282.296 655.26 277.176C655.26 271.992 656.476 267.416 658.908 263.448C661.404 259.416 664.764 256.28 668.988 254.04C673.276 251.736 678.172 250.584 683.676 250.584C689.116 250.584 693.98 251.736 698.268 254.04C702.556 256.28 705.916 259.384 708.348 263.352C710.78 267.32 711.996 271.928 711.996 277.176C711.996 282.296 710.78 286.872 708.348 290.904C705.916 294.872 702.556 298.008 698.268 300.312C693.98 302.616 689.116 303.768 683.676 303.768ZM683.676 291.48C686.172 291.48 688.412 290.904 690.396 289.752C692.38 288.6 693.948 286.968 695.1 284.856C696.252 282.68 696.828 280.12 696.828 277.176C696.828 274.168 696.252 271.608 695.1 269.496C693.948 267.384 692.38 265.752 690.396 264.6C688.412 263.448 686.172 262.872 683.676 262.872C681.18 262.872 678.94 263.448 676.956 264.6C674.972 265.752 673.372 267.384 672.156 269.496C671.004 271.608 670.428 274.168 670.428 277.176C670.428 280.12 671.004 282.68 672.156 284.856C673.372 286.968 674.972 288.6 676.956 289.752C678.94 290.904 681.18 291.48 683.676 291.48Z" fill="#39FF13"/>
<path d="M723.062 303V235.8H753.59C760.886 235.8 767.318 237.208 772.886 240.024C778.454 242.776 782.806 246.648 785.942 251.64C789.078 256.632 790.646 262.552 790.646 269.4C790.646 276.184 789.078 282.104 785.942 287.16C782.806 292.152 778.454 296.056 772.886 298.872C767.318 301.624 760.886 303 753.59 303H723.062ZM738.614 290.232H752.822C757.302 290.232 761.174 289.4 764.438 287.736C767.766 286.008 770.326 283.576 772.118 280.44C773.974 277.304 774.902 273.624 774.902 269.4C774.902 265.112 773.974 261.432 772.118 258.36C770.326 255.224 767.766 252.824 764.438 251.16C761.174 249.432 757.302 248.568 752.822 248.568H738.614V290.232ZM801.318 303V251.352H815.622V265.944L813.606 261.72C815.142 258.072 817.606 255.32 820.998 253.464C824.39 251.544 828.518 250.584 833.382 250.584V264.408C832.742 264.344 832.166 264.312 831.654 264.312C831.142 264.248 830.598 264.216 830.022 264.216C825.926 264.216 822.598 265.4 820.038 267.768C817.542 270.072 816.294 273.688 816.294 278.616V303H801.318ZM842.381 303V251.352H857.357V303H842.381ZM849.869 244.152C847.117 244.152 844.877 243.352 843.149 241.752C841.421 240.152 840.557 238.168 840.557 235.8C840.557 233.432 841.421 231.448 843.149 229.848C844.877 228.248 847.117 227.448 849.869 227.448C852.621 227.448 854.861 228.216 856.589 229.752C858.317 231.224 859.181 233.144 859.181 235.512C859.181 238.008 858.317 240.088 856.589 241.752C854.925 243.352 852.685 244.152 849.869 244.152ZM885.272 303L863.576 251.352H879.032L897.08 295.8H889.4L908.12 251.352H922.52L900.728 303H885.272ZM952.857 303.768C946.969 303.768 941.785 302.616 937.305 300.312C932.889 298.008 929.465 294.872 927.033 290.904C924.601 286.872 923.385 282.296 923.385 277.176C923.385 271.992 924.569 267.416 926.937 263.448C929.369 259.416 932.665 256.28 936.825 254.04C940.985 251.736 945.689 250.584 950.937 250.584C955.993 250.584 960.537 251.672 964.569 253.848C968.665 255.96 971.897 259.032 974.265 263.064C976.633 267.032 977.817 271.8 977.817 277.368C977.817 277.944 977.785 278.616 977.721 279.384C977.657 280.088 977.593 280.76 977.529 281.4H935.577V272.664H969.656L963.897 275.256C963.897 272.568 963.353 270.232 962.265 268.248C961.177 266.264 959.673 264.728 957.753 263.64C955.833 262.488 953.593 261.912 951.033 261.912C948.473 261.912 946.201 262.488 944.217 263.64C942.297 264.728 940.793 266.296 939.705 268.344C938.617 270.328 938.073 272.696 938.073 275.448V277.752C938.073 280.568 938.681 283.064 939.897 285.24C941.177 287.352 942.937 288.984 945.177 290.136C947.481 291.224 950.169 291.768 953.241 291.768C955.993 291.768 958.393 291.352 960.441 290.52C962.553 289.688 964.473 288.44 966.201 286.776L974.169 295.416C971.801 298.104 968.825 300.184 965.241 301.656C961.657 303.064 957.529 303.768 952.857 303.768Z" fill="white"/>
<path d="M606.984 545V511.4H621.528C624.536 511.4 627.128 511.896 629.304 512.888C631.48 513.848 633.16 515.24 634.344 517.064C635.528 518.888 636.12 521.064 636.12 523.592C636.12 526.088 635.528 528.248 634.344 530.072C633.16 531.896 631.48 533.304 629.304 534.296C627.128 535.256 624.536 535.736 621.528 535.736H611.304L614.76 532.232V545H606.984ZM614.76 533.096L611.304 529.4H621.096C623.496 529.4 625.288 528.888 626.472 527.864C627.656 526.84 628.248 525.416 628.248 523.592C628.248 521.736 627.656 520.296 626.472 519.272C625.288 518.248 623.496 517.736 621.096 517.736H611.304L614.76 514.04V533.096ZM641.097 545V519.176H648.249V526.472L647.241 524.36C648.009 522.536 649.241 521.16 650.937 520.232C652.633 519.272 654.697 518.792 657.129 518.792V525.704C656.809 525.672 656.521 525.656 656.265 525.656C656.009 525.624 655.737 525.608 655.449 525.608C653.401 525.608 651.737 526.2 650.457 527.384C649.209 528.536 648.585 530.344 648.585 532.808V545H641.097ZM673.682 545.384C670.93 545.384 668.482 544.808 666.338 543.656C664.226 542.504 662.546 540.936 661.298 538.952C660.082 536.936 659.474 534.648 659.474 532.088C659.474 529.496 660.082 527.208 661.298 525.224C662.546 523.208 664.226 521.64 666.338 520.52C668.482 519.368 670.93 518.792 673.682 518.792C676.402 518.792 678.834 519.368 680.978 520.52C683.122 521.64 684.802 523.192 686.018 525.176C687.234 527.16 687.842 529.464 687.842 532.088C687.842 534.648 687.234 536.936 686.018 538.952C684.802 540.936 683.122 542.504 680.978 543.656C678.834 544.808 676.402 545.384 673.682 545.384ZM673.682 539.24C674.93 539.24 676.05 538.952 677.042 538.376C678.034 537.8 678.818 536.984 679.394 535.928C679.97 534.84 680.258 533.56 680.258 532.088C680.258 530.584 679.97 529.304 679.394 528.248C678.818 527.192 678.034 526.376 677.042 525.8C676.05 525.224 674.93 524.936 673.682 524.936C672.434 524.936 671.314 525.224 670.322 525.8C669.33 526.376 668.53 527.192 667.922 528.248C667.346 529.304 667.058 530.584 667.058 532.088C667.058 533.56 667.346 534.84 667.922 535.928C668.53 536.984 669.33 537.8 670.322 538.376C671.314 538.952 672.434 539.24 673.682 539.24ZM690.927 554.696C689.775 554.696 688.671 554.568 687.615 554.312C686.559 554.088 685.663 553.736 684.927 553.256L686.943 547.832C687.807 548.44 688.863 548.744 690.111 548.744C691.039 548.744 691.775 548.424 692.319 547.784C692.895 547.176 693.183 546.248 693.183 545V519.176H700.671V544.952C700.671 547.928 699.823 550.296 698.127 552.056C696.431 553.816 694.031 554.696 690.927 554.696ZM696.927 515.576C695.551 515.576 694.431 515.176 693.567 514.376C692.703 513.576 692.271 512.584 692.271 511.4C692.271 510.216 692.703 509.224 693.567 508.424C694.431 507.624 695.551 507.224 696.927 507.224C698.303 507.224 699.423 507.608 700.287 508.376C701.151 509.112 701.583 510.072 701.583 511.256C701.583 512.504 701.151 513.544 700.287 514.376C699.455 515.176 698.335 515.576 696.927 515.576ZM720.381 545.384C717.437 545.384 714.845 544.808 712.605 543.656C710.397 542.504 708.685 540.936 707.469 538.952C706.253 536.936 705.645 534.648 705.645 532.088C705.645 529.496 706.237 527.208 707.421 525.224C708.637 523.208 710.285 521.64 712.365 520.52C714.445 519.368 716.797 518.792 719.421 518.792C721.949 518.792 724.221 519.336 726.237 520.424C728.285 521.48 729.901 523.016 731.085 525.032C732.269 527.016 732.861 529.4 732.861 532.184C732.861 532.472 732.845 532.808 732.813 533.192C732.781 533.544 732.749 533.88 732.717 534.2H711.741V529.832H728.781L725.901 531.128C725.901 529.784 725.629 528.616 725.085 527.624C724.541 526.632 723.789 525.864 722.829 525.32C721.869 524.744 720.749 524.456 719.469 524.456C718.189 524.456 717.053 524.744 716.061 525.32C715.101 525.864 714.349 526.648 713.805 527.672C713.261 528.664 712.989 529.848 712.989 531.224V532.376C712.989 533.784 713.293 535.032 713.901 536.12C714.541 537.176 715.421 537.992 716.541 538.568C717.693 539.112 719.037 539.384 720.573 539.384C721.949 539.384 723.149 539.176 724.173 538.76C725.229 538.344 726.189 537.72 727.053 536.888L731.037 541.208C729.853 542.552 728.365 543.592 726.573 544.328C724.781 545.032 722.717 545.384 720.381 545.384ZM750.327 545.384C747.543 545.384 745.063 544.824 742.887 543.704C740.711 542.552 738.999 540.968 737.751 538.952C736.535 536.936 735.927 534.648 735.927 532.088C735.927 529.496 736.535 527.208 737.751 525.224C738.999 523.208 740.711 521.64 742.887 520.52C745.063 519.368 747.543 518.792 750.327 518.792C753.047 518.792 755.415 519.368 757.431 520.52C759.447 521.64 760.935 523.256 761.895 525.368L756.087 528.488C755.415 527.272 754.567 526.376 753.543 525.8C752.551 525.224 751.463 524.936 750.279 524.936C748.999 524.936 747.847 525.224 746.823 525.8C745.799 526.376 744.983 527.192 744.375 528.248C743.799 529.304 743.511 530.584 743.511 532.088C743.511 533.592 743.799 534.872 744.375 535.928C744.983 536.984 745.799 537.8 746.823 538.376C747.847 538.952 748.999 539.24 750.279 539.24C751.463 539.24 752.551 538.968 753.543 538.424C754.567 537.848 755.415 536.936 756.087 535.688L761.895 538.856C760.935 540.936 759.447 542.552 757.431 543.704C755.415 544.824 753.047 545.384 750.327 545.384ZM777.141 545.384C774.101 545.384 771.733 544.616 770.037 543.08C768.341 541.512 767.493 539.192 767.493 536.12V513.464H774.981V536.024C774.981 537.112 775.269 537.96 775.845 538.568C776.421 539.144 777.205 539.432 778.197 539.432C779.381 539.432 780.389 539.112 781.221 538.472L783.237 543.752C782.469 544.296 781.541 544.712 780.453 545C779.397 545.256 778.293 545.384 777.141 545.384ZM763.509 525.512V519.752H781.413V525.512H763.509Z" fill="white"/>
<path d="M817.786 545.576C815.13 545.576 812.682 545.16 810.442 544.328C808.234 543.464 806.298 542.248 804.634 540.68C803.002 539.112 801.722 537.272 800.794 535.16C799.898 533.048 799.45 530.728 799.45 528.2C799.45 525.672 799.898 523.352 800.794 521.24C801.722 519.128 803.018 517.288 804.682 515.72C806.346 514.152 808.298 512.952 810.538 512.12C812.778 511.256 815.242 510.824 817.93 510.824C820.906 510.824 823.578 511.32 825.946 512.312C828.346 513.304 830.362 514.744 831.994 516.632L827.002 521.24C825.786 519.96 824.458 519.016 823.018 518.408C821.578 517.768 820.01 517.448 818.314 517.448C816.682 517.448 815.194 517.704 813.85 518.216C812.506 518.728 811.338 519.464 810.346 520.424C809.386 521.384 808.634 522.52 808.09 523.832C807.578 525.144 807.322 526.6 807.322 528.2C807.322 529.768 807.578 531.208 808.09 532.52C808.634 533.832 809.386 534.984 810.346 535.976C811.338 536.936 812.49 537.672 813.802 538.184C815.146 538.696 816.618 538.952 818.218 538.952C819.754 538.952 821.242 538.712 822.682 538.232C824.154 537.72 825.578 536.872 826.954 535.688L831.37 541.304C829.546 542.68 827.418 543.736 824.986 544.472C822.586 545.208 820.186 545.576 817.786 545.576ZM824.266 540.296V527.672H831.37V541.304L824.266 540.296ZM850.353 545.384C847.601 545.384 845.153 544.808 843.009 543.656C840.897 542.504 839.217 540.936 837.969 538.952C836.753 536.936 836.145 534.648 836.145 532.088C836.145 529.496 836.753 527.208 837.969 525.224C839.217 523.208 840.897 521.64 843.009 520.52C845.153 519.368 847.601 518.792 850.353 518.792C853.073 518.792 855.505 519.368 857.649 520.52C859.793 521.64 861.473 523.192 862.689 525.176C863.905 527.16 864.513 529.464 864.513 532.088C864.513 534.648 863.905 536.936 862.689 538.952C861.473 540.936 859.793 542.504 857.649 543.656C855.505 544.808 853.073 545.384 850.353 545.384ZM850.353 539.24C851.601 539.24 852.721 538.952 853.713 538.376C854.705 537.8 855.489 536.984 856.065 535.928C856.641 534.84 856.929 533.56 856.929 532.088C856.929 530.584 856.641 529.304 856.065 528.248C855.489 527.192 854.705 526.376 853.713 525.8C852.721 525.224 851.601 524.936 850.353 524.936C849.105 524.936 847.985 525.224 846.993 525.8C846.001 526.376 845.201 527.192 844.593 528.248C844.017 529.304 843.729 530.584 843.729 532.088C843.729 533.56 844.017 534.84 844.593 535.928C845.201 536.984 846.001 537.8 846.993 538.376C847.985 538.952 849.105 539.24 850.353 539.24ZM884.937 545V539.96L884.457 538.856V529.832C884.457 528.232 883.961 526.984 882.969 526.088C882.009 525.192 880.521 524.744 878.505 524.744C877.129 524.744 875.769 524.968 874.425 525.416C873.113 525.832 871.993 526.408 871.065 527.144L868.377 521.912C869.785 520.92 871.481 520.152 873.465 519.608C875.449 519.064 877.465 518.792 879.513 518.792C883.449 518.792 886.505 519.72 888.681 521.576C890.857 523.432 891.945 526.328 891.945 530.264V545H884.937ZM877.065 545.384C875.049 545.384 873.321 545.048 871.881 544.376C870.441 543.672 869.337 542.728 868.569 541.544C867.801 540.36 867.417 539.032 867.417 537.56C867.417 536.024 867.785 534.68 868.521 533.528C869.289 532.376 870.489 531.48 872.121 530.84C873.753 530.168 875.881 529.832 878.505 529.832H885.369V534.2H879.321C877.561 534.2 876.345 534.488 875.673 535.064C875.033 535.64 874.713 536.36 874.713 537.224C874.713 538.184 875.081 538.952 875.817 539.528C876.585 540.072 877.625 540.344 878.937 540.344C880.185 540.344 881.305 540.056 882.297 539.48C883.289 538.872 884.009 537.992 884.457 536.84L885.609 540.296C885.065 541.96 884.073 543.224 882.633 544.088C881.193 544.952 879.337 545.384 877.065 545.384ZM898.722 545V509.384H906.21V545H898.722Z" fill="#39FF13"/>
<path d="M510.854 774.509C510.854 774.509 507.653 755.577 494.103 746.398C480.553 737.219 461.784 741.268 461.784 741.268C461.784 741.268 464.985 760.2 478.535 769.38C492.085 778.559 510.854 774.509 510.854 774.509Z" fill="#39FF13"/>
<path d="M510.785 774.509C510.785 774.509 513.986 755.577 527.536 746.398C541.086 737.219 559.855 741.268 559.855 741.268C559.855 741.268 556.654 760.2 543.104 769.38C529.554 778.559 510.785 774.509 510.785 774.509Z" fill="#39FF13"/>
<path d="M608.854 774.509C608.854 774.509 605.653 755.577 592.103 746.398C578.553 737.219 559.784 741.268 559.784 741.268C559.784 741.268 562.985 760.2 576.535 769.38C590.085 778.559 608.854 774.509 608.854 774.509Z" fill="#39FF13"/>
<path d="M608.785 774.509C608.785 774.509 611.986 755.577 625.536 746.398C639.086 737.219 657.855 741.268 657.855 741.268C657.855 741.268 654.654 760.2 641.104 769.38C627.554 778.559 608.785 774.509 608.785 774.509Z" fill="#39FF13"/>
<path d="M706.854 774.509C706.854 774.509 703.653 755.577 690.103 746.398C676.553 737.219 657.784 741.268 657.784 741.268C657.784 741.268 660.985 760.2 674.535 769.38C688.085 778.559 706.854 774.509 706.854 774.509Z" fill="#39FF13"/>
<path d="M706.785 774.509C706.785 774.509 709.986 755.577 723.536 746.398C737.086 737.219 755.855 741.268 755.855 741.268C755.855 741.268 752.654 760.2 739.104 769.38C725.554 778.559 706.785 774.509 706.785 774.509Z" fill="#39FF13"/>
<path d="M804.854 774.509C804.854 774.509 801.653 755.577 788.103 746.398C774.553 737.219 755.784 741.268 755.784 741.268C755.784 741.268 758.985 760.2 772.535 769.38C786.085 778.559 804.854 774.509 804.854 774.509Z" fill="#39FF13"/>
<path d="M804.785 774.509C804.785 774.509 807.986 755.577 821.536 746.398C835.086 737.219 853.855 741.268 853.855 741.268C853.855 741.268 850.654 760.2 837.104 769.38C823.554 778.559 804.785 774.509 804.785 774.509Z" fill="#39FF13"/>
<path d="M902.854 774.509C902.854 774.509 899.653 755.577 886.103 746.398C872.553 737.219 853.784 741.268 853.784 741.268C853.784 741.268 856.985 760.2 870.535 769.38C884.085 778.559 902.854 774.509 902.854 774.509Z" fill="#39FF13"/>
<path d="M902.785 774.509C902.785 774.509 905.986 755.577 919.536 746.398C933.086 737.219 951.855 741.268 951.855 741.268C951.855 741.268 948.654 760.2 935.104 769.38C921.554 778.559 902.785 774.509 902.785 774.509Z" fill="#39FF13"/>
<path d="M1000.85 774.509C1000.85 774.509 997.653 755.577 984.103 746.398C970.553 737.219 951.784 741.268 951.784 741.268C951.784 741.268 954.985 760.2 968.535 769.38C982.085 778.559 1000.85 774.509 1000.85 774.509Z" fill="#39FF13"/>
<path d="M1000.79 774.509C1000.79 774.509 1003.99 755.577 1017.54 746.398C1031.09 737.219 1049.85 741.268 1049.85 741.268C1049.85 741.268 1046.65 760.2 1033.1 769.38C1019.55 778.559 1000.79 774.509 1000.79 774.509Z" fill="#39FF13"/>
<path d="M287.588 599.616H299.428V601.632H287.588V599.616ZM287.844 609.952H301.316V612H285.476V589.6H300.836V591.648H287.844V609.952ZM303.374 612L310.478 602.784L310.446 603.904L303.694 595.2H306.254L311.79 602.4L310.83 602.368L316.366 595.2H318.862L312.046 604L312.078 602.784L319.246 612H316.654L310.798 604.32L311.694 604.448L305.934 612H303.374ZM331.699 612.16C330.249 612.16 328.937 611.829 327.763 611.168C326.59 610.485 325.651 609.515 324.947 608.256C324.265 606.976 323.923 605.419 323.923 603.584C323.923 601.749 324.265 600.203 324.947 598.944C325.63 597.664 326.558 596.693 327.731 596.032C328.905 595.371 330.227 595.04 331.699 595.04C333.299 595.04 334.729 595.403 335.987 596.128C337.267 596.832 338.27 597.835 338.995 599.136C339.721 600.416 340.083 601.899 340.083 603.584C340.083 605.291 339.721 606.784 338.995 608.064C338.27 609.344 337.267 610.347 335.987 611.072C334.729 611.797 333.299 612.16 331.699 612.16ZM323.027 618.208V595.2H325.203V600.256L324.979 603.616L325.299 607.008V618.208H323.027ZM331.539 610.144C332.734 610.144 333.801 609.877 334.739 609.344C335.678 608.789 336.425 608.021 336.979 607.04C337.534 606.037 337.811 604.885 337.811 603.584C337.811 602.283 337.534 601.141 336.979 600.16C336.425 599.179 335.678 598.411 334.739 597.856C333.801 597.301 332.734 597.024 331.539 597.024C330.345 597.024 329.267 597.301 328.307 597.856C327.369 598.411 326.622 599.179 326.067 600.16C325.534 601.141 325.267 602.283 325.267 603.584C325.267 604.885 325.534 606.037 326.067 607.04C326.622 608.021 327.369 608.789 328.307 609.344C329.267 609.877 330.345 610.144 331.539 610.144ZM344.715 612V588.256H346.987V612H344.715ZM360.157 612.16C358.535 612.16 357.074 611.797 355.773 611.072C354.493 610.325 353.479 609.312 352.733 608.032C351.986 606.731 351.613 605.248 351.613 603.584C351.613 601.899 351.986 600.416 352.733 599.136C353.479 597.856 354.493 596.853 355.773 596.128C357.053 595.403 358.514 595.04 360.157 595.04C361.821 595.04 363.293 595.403 364.573 596.128C365.874 596.853 366.887 597.856 367.613 599.136C368.359 600.416 368.733 601.899 368.733 603.584C368.733 605.248 368.359 606.731 367.613 608.032C366.887 609.312 365.874 610.325 364.573 611.072C363.271 611.797 361.799 612.16 360.157 612.16ZM360.157 610.144C361.373 610.144 362.45 609.877 363.389 609.344C364.327 608.789 365.063 608.021 365.597 607.04C366.151 606.037 366.429 604.885 366.429 603.584C366.429 602.261 366.151 601.109 365.597 600.128C365.063 599.147 364.327 598.389 363.389 597.856C362.45 597.301 361.383 597.024 360.189 597.024C358.994 597.024 357.927 597.301 356.989 597.856C356.05 598.389 355.303 599.147 354.749 600.128C354.194 601.109 353.917 602.261 353.917 603.584C353.917 604.885 354.194 606.037 354.749 607.04C355.303 608.021 356.05 608.789 356.989 609.344C357.927 609.877 358.983 610.144 360.157 610.144ZM373.371 612V595.2H375.547V599.776L375.323 598.976C375.792 597.696 376.582 596.725 377.691 596.064C378.8 595.381 380.176 595.04 381.819 595.04V597.248C381.734 597.248 381.648 597.248 381.563 597.248C381.478 597.227 381.392 597.216 381.307 597.216C379.536 597.216 378.15 597.76 377.147 598.848C376.144 599.915 375.643 601.44 375.643 603.424V612H373.371ZM392.945 612.16C391.195 612.16 389.659 611.797 388.337 611.072C387.014 610.325 385.979 609.312 385.233 608.032C384.486 606.731 384.113 605.248 384.113 603.584C384.113 601.92 384.465 600.448 385.169 599.168C385.894 597.888 386.875 596.885 388.113 596.16C389.371 595.413 390.779 595.04 392.337 595.04C393.915 595.04 395.313 595.403 396.529 596.128C397.766 596.832 398.737 597.835 399.441 599.136C400.145 600.416 400.497 601.899 400.497 603.584C400.497 603.691 400.486 603.808 400.465 603.936C400.465 604.043 400.465 604.16 400.465 604.288H385.841V602.592H399.249L398.353 603.264C398.353 602.048 398.086 600.971 397.553 600.032C397.041 599.072 396.337 598.325 395.441 597.792C394.545 597.259 393.51 596.992 392.337 596.992C391.185 596.992 390.15 597.259 389.233 597.792C388.315 598.325 387.601 599.072 387.089 600.032C386.577 600.992 386.321 602.091 386.321 603.328V603.68C386.321 604.96 386.598 606.091 387.153 607.072C387.729 608.032 388.518 608.789 389.521 609.344C390.545 609.877 391.707 610.144 393.009 610.144C394.033 610.144 394.982 609.963 395.857 609.6C396.753 609.237 397.521 608.683 398.161 607.936L399.441 609.408C398.694 610.304 397.755 610.987 396.625 611.456C395.515 611.925 394.289 612.16 392.945 612.16ZM420.344 612.16C418.723 612.16 417.261 611.797 415.96 611.072C414.68 610.325 413.667 609.312 412.92 608.032C412.173 606.731 411.8 605.248 411.8 603.584C411.8 601.899 412.173 600.416 412.92 599.136C413.667 597.856 414.68 596.853 415.96 596.128C417.24 595.403 418.701 595.04 420.344 595.04C422.008 595.04 423.48 595.403 424.76 596.128C426.061 596.853 427.075 597.856 427.8 599.136C428.547 600.416 428.92 601.899 428.92 603.584C428.92 605.248 428.547 606.731 427.8 608.032C427.075 609.312 426.061 610.325 424.76 611.072C423.459 611.797 421.987 612.16 420.344 612.16ZM420.344 610.144C421.56 610.144 422.637 609.877 423.576 609.344C424.515 608.789 425.251 608.021 425.784 607.04C426.339 606.037 426.616 604.885 426.616 603.584C426.616 602.261 426.339 601.109 425.784 600.128C425.251 599.147 424.515 598.389 423.576 597.856C422.637 597.301 421.571 597.024 420.376 597.024C419.181 597.024 418.115 597.301 417.176 597.856C416.237 598.389 415.491 599.147 414.936 600.128C414.381 601.109 414.104 602.261 414.104 603.584C414.104 604.885 414.381 606.037 414.936 607.04C415.491 608.021 416.237 608.789 417.176 609.344C418.115 609.877 419.171 610.144 420.344 610.144ZM440.503 612.16C439.073 612.16 437.825 611.893 436.759 611.36C435.692 610.827 434.86 610.027 434.263 608.96C433.687 607.893 433.399 606.56 433.399 604.96V595.2H435.671V604.704C435.671 606.496 436.108 607.851 436.983 608.768C437.879 609.664 439.127 610.112 440.727 610.112C441.9 610.112 442.913 609.877 443.767 609.408C444.641 608.917 445.303 608.213 445.751 607.296C446.22 606.379 446.455 605.28 446.455 604V595.2H448.727V612H446.551V607.392L446.903 608.224C446.369 609.461 445.537 610.432 444.407 611.136C443.297 611.819 441.996 612.16 440.503 612.16ZM455.059 612V595.2H457.235V599.776L457.011 598.976C457.48 597.696 458.269 596.725 459.379 596.064C460.488 595.381 461.864 595.04 463.507 595.04V597.248C463.421 597.248 463.336 597.248 463.251 597.248C463.165 597.227 463.08 597.216 462.995 597.216C461.224 597.216 459.837 597.76 458.835 598.848C457.832 599.915 457.331 601.44 457.331 603.424V612H455.059ZM476.661 612V593.088C476.661 591.595 477.099 590.389 477.973 589.472C478.848 588.555 480.107 588.096 481.749 588.096C482.389 588.096 483.008 588.181 483.605 588.352C484.203 588.523 484.704 588.789 485.109 589.152L484.341 590.848C484.021 590.571 483.648 590.368 483.221 590.24C482.795 590.091 482.336 590.016 481.845 590.016C480.885 590.016 480.149 590.283 479.637 590.816C479.125 591.349 478.869 592.139 478.869 593.184V595.744L478.933 596.8V612H476.661ZM473.653 597.088V595.2H484.053V597.088H473.653ZM487.125 612V588.256H489.397V612H487.125ZM502.913 612.16C501.164 612.16 499.628 611.797 498.305 611.072C496.983 610.325 495.948 609.312 495.201 608.032C494.455 606.731 494.081 605.248 494.081 603.584C494.081 601.92 494.433 600.448 495.137 599.168C495.863 597.888 496.844 596.885 498.081 596.16C499.34 595.413 500.748 595.04 502.305 595.04C503.884 595.04 505.281 595.403 506.497 596.128C507.735 596.832 508.705 597.835 509.409 599.136C510.113 600.416 510.465 601.899 510.465 603.584C510.465 603.691 510.455 603.808 510.433 603.936C510.433 604.043 510.433 604.16 510.433 604.288H495.809V602.592H509.217L508.321 603.264C508.321 602.048 508.055 600.971 507.521 600.032C507.009 599.072 506.305 598.325 505.409 597.792C504.513 597.259 503.479 596.992 502.305 596.992C501.153 596.992 500.119 597.259 499.201 597.792C498.284 598.325 497.569 599.072 497.057 600.032C496.545 600.992 496.289 602.091 496.289 603.328V603.68C496.289 604.96 496.567 606.091 497.121 607.072C497.697 608.032 498.487 608.789 499.489 609.344C500.513 609.877 501.676 610.144 502.977 610.144C504.001 610.144 504.951 609.963 505.825 609.6C506.721 609.237 507.489 608.683 508.129 607.936L509.409 609.408C508.663 610.304 507.724 610.987 506.593 611.456C505.484 611.925 504.257 612.16 502.913 612.16ZM522.226 612.16C520.477 612.16 518.941 611.797 517.618 611.072C516.295 610.325 515.261 609.312 514.514 608.032C513.767 606.731 513.394 605.248 513.394 603.584C513.394 601.92 513.746 600.448 514.45 599.168C515.175 597.888 516.157 596.885 517.394 596.16C518.653 595.413 520.061 595.04 521.618 595.04C523.197 595.04 524.594 595.403 525.81 596.128C527.047 596.832 528.018 597.835 528.722 599.136C529.426 600.416 529.778 601.899 529.778 603.584C529.778 603.691 529.767 603.808 529.746 603.936C529.746 604.043 529.746 604.16 529.746 604.288H515.122V602.592H528.53L527.634 603.264C527.634 602.048 527.367 600.971 526.834 600.032C526.322 599.072 525.618 598.325 524.722 597.792C523.826 597.259 522.791 596.992 521.618 596.992C520.466 596.992 519.431 597.259 518.514 597.792C517.597 598.325 516.882 599.072 516.37 600.032C515.858 600.992 515.602 602.091 515.602 603.328V603.68C515.602 604.96 515.879 606.091 516.434 607.072C517.01 608.032 517.799 608.789 518.802 609.344C519.826 609.877 520.989 610.144 522.29 610.144C523.314 610.144 524.263 609.963 525.138 609.6C526.034 609.237 526.802 608.683 527.442 607.936L528.722 609.408C527.975 610.304 527.037 610.987 525.906 611.456C524.797 611.925 523.57 612.16 522.226 612.16ZM539.714 612.16C538.136 612.16 536.92 611.733 536.066 610.88C535.213 610.027 534.786 608.821 534.786 607.264V591.488H537.058V607.136C537.058 608.117 537.304 608.875 537.794 609.408C538.306 609.941 539.032 610.208 539.97 610.208C540.973 610.208 541.805 609.92 542.466 609.344L543.266 610.976C542.818 611.381 542.274 611.68 541.634 611.872C541.016 612.064 540.376 612.16 539.714 612.16ZM531.778 597.088V595.2H542.178V597.088H531.778ZM562.625 612.16C561.004 612.16 559.543 611.797 558.241 611.072C556.961 610.325 555.948 609.312 555.201 608.032C554.455 606.731 554.081 605.248 554.081 603.584C554.081 601.899 554.455 600.416 555.201 599.136C555.948 597.856 556.961 596.853 558.241 596.128C559.521 595.403 560.983 595.04 562.625 595.04C564.289 595.04 565.761 595.403 567.041 596.128C568.343 596.853 569.356 597.856 570.081 599.136C570.828 600.416 571.201 601.899 571.201 603.584C571.201 605.248 570.828 606.731 570.081 608.032C569.356 609.312 568.343 610.325 567.041 611.072C565.74 611.797 564.268 612.16 562.625 612.16ZM562.625 610.144C563.841 610.144 564.919 609.877 565.857 609.344C566.796 608.789 567.532 608.021 568.065 607.04C568.62 606.037 568.897 604.885 568.897 603.584C568.897 602.261 568.62 601.109 568.065 600.128C567.532 599.147 566.796 598.389 565.857 597.856C564.919 597.301 563.852 597.024 562.657 597.024C561.463 597.024 560.396 597.301 559.457 597.856C558.519 598.389 557.772 599.147 557.217 600.128C556.663 601.109 556.385 602.261 556.385 603.584C556.385 604.885 556.663 606.037 557.217 607.04C557.772 608.021 558.519 608.789 559.457 609.344C560.396 609.877 561.452 610.144 562.625 610.144ZM576.224 612V593.088C576.224 591.595 576.661 590.389 577.536 589.472C578.411 588.555 579.669 588.096 581.312 588.096C581.952 588.096 582.571 588.181 583.168 588.352C583.765 588.523 584.267 588.789 584.672 589.152L583.904 590.848C583.584 590.571 583.211 590.368 582.784 590.24C582.357 590.091 581.899 590.016 581.408 590.016C580.448 590.016 579.712 590.283 579.2 590.816C578.688 591.349 578.432 592.139 578.432 593.184V595.744L578.496 596.8V612H576.224ZM573.216 597.088V595.2H583.616V597.088H573.216ZM602.195 612.16C600.445 612.16 598.909 611.797 597.587 611.072C596.264 610.325 595.229 609.312 594.483 608.032C593.736 606.731 593.363 605.248 593.363 603.584C593.363 601.92 593.715 600.448 594.419 599.168C595.144 597.888 596.125 596.885 597.363 596.16C598.621 595.413 600.029 595.04 601.587 595.04C603.165 595.04 604.563 595.403 605.779 596.128C607.016 596.832 607.987 597.835 608.691 599.136C609.395 600.416 609.747 601.899 609.747 603.584C609.747 603.691 609.736 603.808 609.715 603.936C609.715 604.043 609.715 604.16 609.715 604.288H595.091V602.592H608.499L607.603 603.264C607.603 602.048 607.336 600.971 606.803 600.032C606.291 599.072 605.587 598.325 604.691 597.792C603.795 597.259 602.76 596.992 601.587 596.992C600.435 596.992 599.4 597.259 598.483 597.792C597.565 598.325 596.851 599.072 596.339 600.032C595.827 600.992 595.571 602.091 595.571 603.328V603.68C595.571 604.96 595.848 606.091 596.403 607.072C596.979 608.032 597.768 608.789 598.771 609.344C599.795 609.877 600.957 610.144 602.259 610.144C603.283 610.144 604.232 609.963 605.107 609.6C606.003 609.237 606.771 608.683 607.411 607.936L608.691 609.408C607.944 610.304 607.005 610.987 605.875 611.456C604.765 611.925 603.539 612.16 602.195 612.16ZM614.371 612V588.256H616.643V612H614.371ZM630.101 612.16C628.352 612.16 626.816 611.797 625.493 611.072C624.17 610.325 623.136 609.312 622.389 608.032C621.642 606.731 621.269 605.248 621.269 603.584C621.269 601.92 621.621 600.448 622.325 599.168C623.05 597.888 624.032 596.885 625.269 596.16C626.528 595.413 627.936 595.04 629.493 595.04C631.072 595.04 632.469 595.403 633.685 596.128C634.922 596.832 635.893 597.835 636.597 599.136C637.301 600.416 637.653 601.899 637.653 603.584C637.653 603.691 637.642 603.808 637.621 603.936C637.621 604.043 637.621 604.16 637.621 604.288H622.997V602.592H636.405L635.509 603.264C635.509 602.048 635.242 600.971 634.709 600.032C634.197 599.072 633.493 598.325 632.597 597.792C631.701 597.259 630.666 596.992 629.493 596.992C628.341 596.992 627.306 597.259 626.389 597.792C625.472 598.325 624.757 599.072 624.245 600.032C623.733 600.992 623.477 602.091 623.477 603.328V603.68C623.477 604.96 623.754 606.091 624.309 607.072C624.885 608.032 625.674 608.789 626.677 609.344C627.701 609.877 628.864 610.144 630.165 610.144C631.189 610.144 632.138 609.963 633.013 609.6C633.909 609.237 634.677 608.683 635.317 607.936L636.597 609.408C635.85 610.304 634.912 610.987 633.781 611.456C632.672 611.925 631.445 612.16 630.101 612.16ZM649.253 612.16C647.589 612.16 646.096 611.797 644.773 611.072C643.472 610.325 642.448 609.312 641.701 608.032C640.955 606.731 640.581 605.248 640.581 603.584C640.581 601.899 640.955 600.416 641.701 599.136C642.448 597.856 643.472 596.853 644.773 596.128C646.096 595.403 647.589 595.04 649.253 595.04C650.683 595.04 651.973 595.317 653.125 595.872C654.277 596.427 655.184 597.259 655.845 598.368L654.149 599.52C653.573 598.667 652.859 598.037 652.005 597.632C651.152 597.227 650.224 597.024 649.221 597.024C648.027 597.024 646.949 597.301 645.989 597.856C645.029 598.389 644.272 599.147 643.717 600.128C643.163 601.109 642.885 602.261 642.885 603.584C642.885 604.907 643.163 606.059 643.717 607.04C644.272 608.021 645.029 608.789 645.989 609.344C646.949 609.877 648.027 610.144 649.221 610.144C650.224 610.144 651.152 609.941 652.005 609.536C652.859 609.131 653.573 608.512 654.149 607.68L655.845 608.832C655.184 609.92 654.277 610.752 653.125 611.328C651.973 611.883 650.683 612.16 649.253 612.16ZM665.808 612.16C664.229 612.16 663.013 611.733 662.16 610.88C661.307 610.027 660.88 608.821 660.88 607.264V591.488H663.152V607.136C663.152 608.117 663.397 608.875 663.888 609.408C664.4 609.941 665.125 610.208 666.064 610.208C667.067 610.208 667.899 609.92 668.56 609.344L669.36 610.976C668.912 611.381 668.368 611.68 667.728 611.872C667.109 612.064 666.469 612.16 665.808 612.16ZM657.872 597.088V595.2H668.272V597.088H657.872ZM673.496 612V595.2H675.672V599.776L675.448 598.976C675.917 597.696 676.707 596.725 677.816 596.064C678.925 595.381 680.301 595.04 681.944 595.04V597.248C681.859 597.248 681.773 597.248 681.688 597.248C681.603 597.227 681.517 597.216 681.432 597.216C679.661 597.216 678.275 597.76 677.272 598.848C676.269 599.915 675.768 601.44 675.768 603.424V612H673.496ZM686.09 612V595.2H688.362V612H686.09ZM687.242 591.488C686.773 591.488 686.378 591.328 686.058 591.008C685.738 590.688 685.578 590.304 685.578 589.856C685.578 589.408 685.738 589.035 686.058 588.736C686.378 588.416 686.773 588.256 687.242 588.256C687.711 588.256 688.106 588.405 688.426 588.704C688.746 589.003 688.906 589.376 688.906 589.824C688.906 590.293 688.746 590.688 688.426 591.008C688.127 591.328 687.733 591.488 687.242 591.488ZM701.66 612.16C699.996 612.16 698.502 611.797 697.18 611.072C695.878 610.325 694.854 609.312 694.108 608.032C693.361 606.731 692.988 605.248 692.988 603.584C692.988 601.899 693.361 600.416 694.108 599.136C694.854 597.856 695.878 596.853 697.18 596.128C698.502 595.403 699.996 595.04 701.66 595.04C703.089 595.04 704.38 595.317 705.532 595.872C706.684 596.427 707.59 597.259 708.252 598.368L706.556 599.52C705.98 598.667 705.265 598.037 704.412 597.632C703.558 597.227 702.63 597.024 701.628 597.024C700.433 597.024 699.356 597.301 698.396 597.856C697.436 598.389 696.678 599.147 696.124 600.128C695.569 601.109 695.292 602.261 695.292 603.584C695.292 604.907 695.569 606.059 696.124 607.04C696.678 608.021 697.436 608.789 698.396 609.344C699.356 609.877 700.433 610.144 701.628 610.144C702.63 610.144 703.558 609.941 704.412 609.536C705.265 609.131 705.98 608.512 706.556 607.68L708.252 608.832C707.59 609.92 706.684 610.752 705.532 611.328C704.38 611.883 703.089 612.16 701.66 612.16ZM725.41 612L717.954 595.2H720.322L727.17 610.784H726.05L732.994 595.2H735.234L727.746 612H725.41ZM745.101 612.16C743.352 612.16 741.816 611.797 740.493 611.072C739.17 610.325 738.136 609.312 737.389 608.032C736.642 606.731 736.269 605.248 736.269 603.584C736.269 601.92 736.621 600.448 737.325 599.168C738.05 597.888 739.032 596.885 740.269 596.16C741.528 595.413 742.936 595.04 744.493 595.04C746.072 595.04 747.469 595.403 748.685 596.128C749.922 596.832 750.893 597.835 751.597 599.136C752.301 600.416 752.653 601.899 752.653 603.584C752.653 603.691 752.642 603.808 752.621 603.936C752.621 604.043 752.621 604.16 752.621 604.288H737.997V602.592H751.405L750.509 603.264C750.509 602.048 750.242 600.971 749.709 600.032C749.197 599.072 748.493 598.325 747.597 597.792C746.701 597.259 745.666 596.992 744.493 596.992C743.341 596.992 742.306 597.259 741.389 597.792C740.472 598.325 739.757 599.072 739.245 600.032C738.733 600.992 738.477 602.091 738.477 603.328V603.68C738.477 604.96 738.754 606.091 739.309 607.072C739.885 608.032 740.674 608.789 741.677 609.344C742.701 609.877 743.864 610.144 745.165 610.144C746.189 610.144 747.138 609.963 748.013 609.6C748.909 609.237 749.677 608.683 750.317 607.936L751.597 609.408C750.85 610.304 749.912 610.987 748.781 611.456C747.672 611.925 746.445 612.16 745.101 612.16ZM765.853 595.04C767.219 595.04 768.413 595.307 769.437 595.84C770.483 596.352 771.293 597.141 771.869 598.208C772.467 599.275 772.765 600.619 772.765 602.24V612H770.493V602.464C770.493 600.693 770.045 599.36 769.149 598.464C768.275 597.547 767.037 597.088 765.437 597.088C764.243 597.088 763.197 597.333 762.301 597.824C761.427 598.293 760.744 598.987 760.253 599.904C759.784 600.8 759.549 601.888 759.549 603.168V612H757.277V588.256H759.549V599.808L759.101 598.944C759.635 597.728 760.488 596.779 761.661 596.096C762.835 595.392 764.232 595.04 765.853 595.04ZM778.902 612V595.2H781.174V612H778.902ZM780.054 591.488C779.585 591.488 779.19 591.328 778.87 591.008C778.55 590.688 778.39 590.304 778.39 589.856C778.39 589.408 778.55 589.035 778.87 588.736C779.19 588.416 779.585 588.256 780.054 588.256C780.524 588.256 780.918 588.405 781.238 588.704C781.558 589.003 781.718 589.376 781.718 589.824C781.718 590.293 781.558 590.688 781.238 591.008C780.94 591.328 780.545 591.488 780.054 591.488ZM794.472 612.16C792.808 612.16 791.315 611.797 789.992 611.072C788.691 610.325 787.667 609.312 786.92 608.032C786.173 606.731 785.8 605.248 785.8 603.584C785.8 601.899 786.173 600.416 786.92 599.136C787.667 597.856 788.691 596.853 789.992 596.128C791.315 595.403 792.808 595.04 794.472 595.04C795.901 595.04 797.192 595.317 798.344 595.872C799.496 596.427 800.403 597.259 801.064 598.368L799.368 599.52C798.792 598.667 798.077 598.037 797.224 597.632C796.371 597.227 795.443 597.024 794.44 597.024C793.245 597.024 792.168 597.301 791.208 597.856C790.248 598.389 789.491 599.147 788.936 600.128C788.381 601.109 788.104 602.261 788.104 603.584C788.104 604.907 788.381 606.059 788.936 607.04C789.491 608.021 790.248 608.789 791.208 609.344C792.168 609.877 793.245 610.144 794.44 610.144C795.443 610.144 796.371 609.941 797.224 609.536C798.077 609.131 798.792 608.512 799.368 607.68L801.064 608.832C800.403 609.92 799.496 610.752 798.344 611.328C797.192 611.883 795.901 612.16 794.472 612.16ZM805.277 612V588.256H807.549V612H805.277ZM821.007 612.16C819.258 612.16 817.722 611.797 816.399 611.072C815.076 610.325 814.042 609.312 813.295 608.032C812.548 606.731 812.175 605.248 812.175 603.584C812.175 601.92 812.527 600.448 813.231 599.168C813.956 597.888 814.938 596.885 816.175 596.16C817.434 595.413 818.842 595.04 820.399 595.04C821.978 595.04 823.375 595.403 824.591 596.128C825.828 596.832 826.799 597.835 827.503 599.136C828.207 600.416 828.559 601.899 828.559 603.584C828.559 603.691 828.548 603.808 828.527 603.936C828.527 604.043 828.527 604.16 828.527 604.288H813.903V602.592H827.311L826.415 603.264C826.415 602.048 826.148 600.971 825.615 600.032C825.103 599.072 824.399 598.325 823.503 597.792C822.607 597.259 821.572 596.992 820.399 596.992C819.247 596.992 818.212 597.259 817.295 597.792C816.378 598.325 815.663 599.072 815.151 600.032C814.639 600.992 814.383 602.091 814.383 603.328V603.68C814.383 604.96 814.66 606.091 815.215 607.072C815.791 608.032 816.58 608.789 817.583 609.344C818.607 609.877 819.77 610.144 821.071 610.144C822.095 610.144 823.044 609.963 823.919 609.6C824.815 609.237 825.583 608.683 826.223 607.936L827.503 609.408C826.756 610.304 825.818 610.987 824.687 611.456C823.578 611.925 822.351 612.16 821.007 612.16ZM837.696 612.16C836.309 612.16 834.997 611.968 833.76 611.584C832.522 611.179 831.552 610.677 830.848 610.08L831.872 608.288C832.554 608.8 833.429 609.248 834.496 609.632C835.562 609.995 836.682 610.176 837.856 610.176C839.456 610.176 840.608 609.931 841.312 609.44C842.016 608.928 842.368 608.256 842.368 607.424C842.368 606.805 842.165 606.325 841.76 605.984C841.376 605.621 840.864 605.355 840.224 605.184C839.584 604.992 838.869 604.832 838.08 604.704C837.29 604.576 836.501 604.427 835.712 604.256C834.944 604.085 834.24 603.84 833.6 603.52C832.96 603.179 832.437 602.72 832.032 602.144C831.648 601.568 831.456 600.8 831.456 599.84C831.456 598.923 831.712 598.101 832.224 597.376C832.736 596.651 833.482 596.085 834.464 595.68C835.466 595.253 836.682 595.04 838.112 595.04C839.2 595.04 840.288 595.189 841.376 595.488C842.464 595.765 843.36 596.139 844.064 596.608L843.072 598.432C842.325 597.92 841.525 597.557 840.672 597.344C839.818 597.109 838.965 596.992 838.112 596.992C836.597 596.992 835.477 597.259 834.752 597.792C834.048 598.304 833.696 598.965 833.696 599.776C833.696 600.416 833.888 600.917 834.272 601.28C834.677 601.643 835.2 601.931 835.84 602.144C836.501 602.336 837.216 602.496 837.984 602.624C838.773 602.752 839.552 602.912 840.32 603.104C841.109 603.275 841.824 603.52 842.464 603.84C843.125 604.139 843.648 604.576 844.032 605.152C844.437 605.707 844.64 606.443 844.64 607.36C844.64 608.341 844.362 609.195 843.808 609.92C843.274 610.624 842.485 611.179 841.44 611.584C840.416 611.968 839.168 612.16 837.696 612.16ZM857.568 612V593.088C857.568 591.595 858.005 590.389 858.88 589.472C859.754 588.555 861.013 588.096 862.656 588.096C863.296 588.096 863.914 588.181 864.512 588.352C865.109 588.523 865.61 588.789 866.016 589.152L865.248 590.848C864.928 590.571 864.554 590.368 864.128 590.24C863.701 590.091 863.242 590.016 862.752 590.016C861.792 590.016 861.056 590.283 860.544 590.816C860.032 591.349 859.776 592.139 859.776 593.184V595.744L859.84 596.8V612H857.568ZM854.56 597.088V595.2H864.96V597.088H854.56ZM874.594 612.16C872.973 612.16 871.511 611.797 870.21 611.072C868.93 610.325 867.917 609.312 867.17 608.032C866.423 606.731 866.05 605.248 866.05 603.584C866.05 601.899 866.423 600.416 867.17 599.136C867.917 597.856 868.93 596.853 870.21 596.128C871.49 595.403 872.951 595.04 874.594 595.04C876.258 595.04 877.73 595.403 879.01 596.128C880.311 596.853 881.325 597.856 882.05 599.136C882.797 600.416 883.17 601.899 883.17 603.584C883.17 605.248 882.797 606.731 882.05 608.032C881.325 609.312 880.311 610.325 879.01 611.072C877.709 611.797 876.237 612.16 874.594 612.16ZM874.594 610.144C875.81 610.144 876.887 609.877 877.826 609.344C878.765 608.789 879.501 608.021 880.034 607.04C880.589 606.037 880.866 604.885 880.866 603.584C880.866 602.261 880.589 601.109 880.034 600.128C879.501 599.147 878.765 598.389 877.826 597.856C876.887 597.301 875.821 597.024 874.626 597.024C873.431 597.024 872.365 597.301 871.426 597.856C870.487 598.389 869.741 599.147 869.186 600.128C868.631 601.109 868.354 602.261 868.354 603.584C868.354 604.885 868.631 606.037 869.186 607.04C869.741 608.021 870.487 608.789 871.426 609.344C872.365 609.877 873.421 610.144 874.594 610.144ZM887.809 612V595.2H889.985V599.776L889.761 598.976C890.23 597.696 891.019 596.725 892.129 596.064C893.238 595.381 894.614 595.04 896.257 595.04V597.248C896.171 597.248 896.086 597.248 896.001 597.248C895.915 597.227 895.83 597.216 895.745 597.216C893.974 597.216 892.587 597.76 891.585 598.848C890.582 599.915 890.081 601.44 890.081 603.424V612H887.809ZM919.555 612V608.288L919.459 607.68V601.472C919.459 600.043 919.054 598.944 918.243 598.176C917.454 597.408 916.27 597.024 914.691 597.024C913.603 597.024 912.569 597.205 911.587 597.568C910.606 597.931 909.774 598.411 909.091 599.008L908.067 597.312C908.921 596.587 909.945 596.032 911.139 595.648C912.334 595.243 913.593 595.04 914.915 595.04C917.091 595.04 918.766 595.584 919.939 596.672C921.134 597.739 921.731 599.371 921.731 601.568V612H919.555ZM913.763 612.16C912.505 612.16 911.406 611.957 910.467 611.552C909.55 611.125 908.846 610.549 908.355 609.824C907.865 609.077 907.619 608.224 907.619 607.264C907.619 606.389 907.822 605.6 908.227 604.896C908.654 604.171 909.337 603.595 910.275 603.168C911.235 602.72 912.515 602.496 914.115 602.496H919.907V604.192H914.179C912.558 604.192 911.427 604.48 910.787 605.056C910.169 605.632 909.859 606.347 909.859 607.2C909.859 608.16 910.233 608.928 910.979 609.504C911.726 610.08 912.771 610.368 914.115 610.368C915.395 610.368 916.494 610.08 917.411 609.504C918.35 608.907 919.033 608.053 919.459 606.944L919.971 608.512C919.545 609.621 918.798 610.507 917.731 611.168C916.686 611.829 915.363 612.16 913.763 612.16ZM940.789 612.16C939.403 612.16 938.091 611.968 936.853 611.584C935.616 611.179 934.645 610.677 933.941 610.08L934.965 608.288C935.648 608.8 936.523 609.248 937.589 609.632C938.656 609.995 939.776 610.176 940.949 610.176C942.549 610.176 943.701 609.931 944.405 609.44C945.109 608.928 945.461 608.256 945.461 607.424C945.461 606.805 945.259 606.325 944.853 605.984C944.469 605.621 943.957 605.355 943.317 605.184C942.677 604.992 941.963 604.832 941.173 604.704C940.384 604.576 939.595 604.427 938.805 604.256C938.037 604.085 937.333 603.84 936.693 603.52C936.053 603.179 935.531 602.72 935.125 602.144C934.741 601.568 934.549 600.8 934.549 599.84C934.549 598.923 934.805 598.101 935.317 597.376C935.829 596.651 936.576 596.085 937.557 595.68C938.56 595.253 939.776 595.04 941.205 595.04C942.293 595.04 943.381 595.189 944.469 595.488C945.557 595.765 946.453 596.139 947.157 596.608L946.165 598.432C945.419 597.92 944.619 597.557 943.765 597.344C942.912 597.109 942.059 596.992 941.205 596.992C939.691 596.992 938.571 597.259 937.845 597.792C937.141 598.304 936.789 598.965 936.789 599.776C936.789 600.416 936.981 600.917 937.365 601.28C937.771 601.643 938.293 601.931 938.933 602.144C939.595 602.336 940.309 602.496 941.077 602.624C941.867 602.752 942.645 602.912 943.413 603.104C944.203 603.275 944.917 603.52 945.557 603.84C946.219 604.139 946.741 604.576 947.125 605.152C947.531 605.707 947.733 606.443 947.733 607.36C947.733 608.341 947.456 609.195 946.901 609.92C946.368 610.624 945.579 611.179 944.533 611.584C943.509 611.968 942.261 612.16 940.789 612.16ZM958.846 612.16C957.417 612.16 956.169 611.893 955.102 611.36C954.036 610.827 953.204 610.027 952.606 608.96C952.03 607.893 951.742 606.56 951.742 604.96V595.2H954.014V604.704C954.014 606.496 954.452 607.851 955.326 608.768C956.222 609.664 957.47 610.112 959.07 610.112C960.244 610.112 961.257 609.877 962.11 609.408C962.985 608.917 963.646 608.213 964.094 607.296C964.564 606.379 964.798 605.28 964.798 604V595.2H967.07V612H964.894V607.392L965.246 608.224C964.713 609.461 963.881 610.432 962.75 611.136C961.641 611.819 960.34 612.16 958.846 612.16ZM977.914 612.16C976.528 612.16 975.216 611.968 973.978 611.584C972.741 611.179 971.77 610.677 971.066 610.08L972.09 608.288C972.773 608.8 973.648 609.248 974.714 609.632C975.781 609.995 976.901 610.176 978.074 610.176C979.674 610.176 980.826 609.931 981.53 609.44C982.234 608.928 982.586 608.256 982.586 607.424C982.586 606.805 982.384 606.325 981.978 605.984C981.594 605.621 981.082 605.355 980.442 605.184C979.802 604.992 979.088 604.832 978.298 604.704C977.509 604.576 976.72 604.427 975.93 604.256C975.162 604.085 974.458 603.84 973.818 603.52C973.178 603.179 972.656 602.72 972.25 602.144C971.866 601.568 971.674 600.8 971.674 599.84C971.674 598.923 971.93 598.101 972.442 597.376C972.954 596.651 973.701 596.085 974.682 595.68C975.685 595.253 976.901 595.04 978.33 595.04C979.418 595.04 980.506 595.189 981.594 595.488C982.682 595.765 983.578 596.139 984.282 596.608L983.29 598.432C982.544 597.92 981.744 597.557 980.89 597.344C980.037 597.109 979.184 596.992 978.33 596.992C976.816 596.992 975.696 597.259 974.97 597.792C974.266 598.304 973.914 598.965 973.914 599.776C973.914 600.416 974.106 600.917 974.49 601.28C974.896 601.643 975.418 601.931 976.058 602.144C976.72 602.336 977.434 602.496 978.202 602.624C978.992 602.752 979.77 602.912 980.538 603.104C981.328 603.275 982.042 603.52 982.682 603.84C983.344 604.139 983.866 604.576 984.25 605.152C984.656 605.707 984.858 606.443 984.858 607.36C984.858 608.341 984.581 609.195 984.026 609.92C983.493 610.624 982.704 611.179 981.658 611.584C980.634 611.968 979.386 612.16 977.914 612.16ZM994.339 612.16C992.761 612.16 991.545 611.733 990.691 610.88C989.838 610.027 989.411 608.821 989.411 607.264V591.488H991.683V607.136C991.683 608.117 991.929 608.875 992.419 609.408C992.931 609.941 993.657 610.208 994.595 610.208C995.598 610.208 996.43 609.92 997.091 609.344L997.891 610.976C997.443 611.381 996.899 611.68 996.259 611.872C995.641 612.064 995.001 612.16 994.339 612.16ZM986.403 597.088V595.2H996.803V597.088H986.403ZM1012.56 612V608.288L1012.46 607.68V601.472C1012.46 600.043 1012.05 598.944 1011.24 598.176C1010.45 597.408 1009.27 597.024 1007.69 597.024C1006.6 597.024 1005.57 597.205 1004.59 597.568C1003.61 597.931 1002.77 598.411 1002.09 599.008L1001.07 597.312C1001.92 596.587 1002.94 596.032 1004.14 595.648C1005.33 595.243 1006.59 595.04 1007.92 595.04C1010.09 595.04 1011.77 595.584 1012.94 596.672C1014.13 597.739 1014.73 599.371 1014.73 601.568V612H1012.56ZM1006.76 612.16C1005.5 612.16 1004.41 611.957 1003.47 611.552C1002.55 611.125 1001.85 610.549 1001.36 609.824C1000.86 609.077 1000.62 608.224 1000.62 607.264C1000.62 606.389 1000.82 605.6 1001.23 604.896C1001.65 604.171 1002.34 603.595 1003.28 603.168C1004.24 602.72 1005.52 602.496 1007.12 602.496H1012.91V604.192H1007.18C1005.56 604.192 1004.43 604.48 1003.79 605.056C1003.17 605.632 1002.86 606.347 1002.86 607.2C1002.86 608.16 1003.23 608.928 1003.98 609.504C1004.73 610.08 1005.77 610.368 1007.12 610.368C1008.4 610.368 1009.49 610.08 1010.41 609.504C1011.35 608.907 1012.03 608.053 1012.46 606.944L1012.97 608.512C1012.54 609.621 1011.8 610.507 1010.73 611.168C1009.69 611.829 1008.36 612.16 1006.76 612.16ZM1020.9 612V595.2H1023.17V612H1020.9ZM1022.05 591.488C1021.59 591.488 1021.19 591.328 1020.87 591.008C1020.55 590.688 1020.39 590.304 1020.39 589.856C1020.39 589.408 1020.55 589.035 1020.87 588.736C1021.19 588.416 1021.59 588.256 1022.05 588.256C1022.52 588.256 1022.92 588.405 1023.24 588.704C1023.56 589.003 1023.72 589.376 1023.72 589.824C1023.72 590.293 1023.56 590.688 1023.24 591.008C1022.94 591.328 1022.55 591.488 1022.05 591.488ZM1038.07 595.04C1039.44 595.04 1040.63 595.307 1041.66 595.84C1042.7 596.352 1043.51 597.141 1044.09 598.208C1044.69 599.275 1044.98 600.619 1044.98 602.24V612H1042.71V602.464C1042.71 600.693 1042.26 599.36 1041.37 598.464C1040.49 597.547 1039.26 597.088 1037.66 597.088C1036.46 597.088 1035.42 597.333 1034.52 597.824C1033.65 598.293 1032.96 598.987 1032.47 599.904C1032 600.8 1031.77 601.888 1031.77 603.168V612H1029.5V595.2H1031.67V599.808L1031.32 598.944C1031.85 597.728 1032.71 596.779 1033.88 596.096C1035.05 595.392 1036.45 595.04 1038.07 595.04ZM1061.65 612V608.288L1061.55 607.68V601.472C1061.55 600.043 1061.15 598.944 1060.34 598.176C1059.55 597.408 1058.36 597.024 1056.79 597.024C1055.7 597.024 1054.66 597.205 1053.68 597.568C1052.7 597.931 1051.87 598.411 1051.19 599.008L1050.16 597.312C1051.01 596.587 1052.04 596.032 1053.23 595.648C1054.43 595.243 1055.69 595.04 1057.01 595.04C1059.19 595.04 1060.86 595.584 1062.03 596.672C1063.23 597.739 1063.83 599.371 1063.83 601.568V612H1061.65ZM1055.86 612.16C1054.6 612.16 1053.5 611.957 1052.56 611.552C1051.64 611.125 1050.94 610.549 1050.45 609.824C1049.96 609.077 1049.71 608.224 1049.71 607.264C1049.71 606.389 1049.92 605.6 1050.32 604.896C1050.75 604.171 1051.43 603.595 1052.37 603.168C1053.33 602.72 1054.61 602.496 1056.21 602.496H1062V604.192H1056.27C1054.65 604.192 1053.52 604.48 1052.88 605.056C1052.26 605.632 1051.95 606.347 1051.95 607.2C1051.95 608.16 1052.33 608.928 1053.07 609.504C1053.82 610.08 1054.87 610.368 1056.21 610.368C1057.49 610.368 1058.59 610.08 1059.51 609.504C1060.44 608.907 1061.13 608.053 1061.55 606.944L1062.07 608.512C1061.64 609.621 1060.89 610.507 1059.83 611.168C1058.78 611.829 1057.46 612.16 1055.86 612.16ZM1078.67 612.16C1077.2 612.16 1075.87 611.829 1074.7 611.168C1073.53 610.485 1072.6 609.504 1071.92 608.224C1071.23 606.944 1070.89 605.397 1070.89 603.584C1070.89 601.749 1071.23 600.203 1071.92 598.944C1072.62 597.664 1073.56 596.693 1074.73 596.032C1075.91 595.371 1077.22 595.04 1078.67 595.04C1080.27 595.04 1081.7 595.403 1082.96 596.128C1084.24 596.832 1085.24 597.824 1085.96 599.104C1086.69 600.384 1087.05 601.877 1087.05 603.584C1087.05 605.269 1086.69 606.763 1085.96 608.064C1085.24 609.344 1084.24 610.347 1082.96 611.072C1081.7 611.797 1080.27 612.16 1078.67 612.16ZM1070 612V588.256H1072.27V600.16L1071.95 603.552L1072.17 606.944V612H1070ZM1078.51 610.144C1079.7 610.144 1080.77 609.877 1081.71 609.344C1082.65 608.789 1083.39 608.021 1083.95 607.04C1084.5 606.037 1084.78 604.885 1084.78 603.584C1084.78 602.261 1084.5 601.109 1083.95 600.128C1083.39 599.147 1082.65 598.389 1081.71 597.856C1080.77 597.301 1079.7 597.024 1078.51 597.024C1077.31 597.024 1076.24 597.301 1075.28 597.856C1074.34 598.389 1073.59 599.147 1073.04 600.128C1072.5 601.109 1072.24 602.261 1072.24 603.584C1072.24 604.885 1072.5 606.037 1073.04 607.04C1073.59 608.021 1074.34 608.789 1075.28 609.344C1076.24 609.877 1077.31 610.144 1078.51 610.144ZM1091.68 612V588.256H1093.96V612H1091.68ZM1107.41 612.16C1105.66 612.16 1104.13 611.797 1102.81 611.072C1101.48 610.325 1100.45 609.312 1099.7 608.032C1098.95 606.731 1098.58 605.248 1098.58 603.584C1098.58 601.92 1098.93 600.448 1099.64 599.168C1100.36 597.888 1101.34 596.885 1102.58 596.16C1103.84 595.413 1105.25 595.04 1106.81 595.04C1108.38 595.04 1109.78 595.403 1111 596.128C1112.23 596.832 1113.21 597.835 1113.91 599.136C1114.61 600.416 1114.97 601.899 1114.97 603.584C1114.97 603.691 1114.95 603.808 1114.93 603.936C1114.93 604.043 1114.93 604.16 1114.93 604.288H1100.31V602.592H1113.72L1112.82 603.264C1112.82 602.048 1112.55 600.971 1112.02 600.032C1111.51 599.072 1110.81 598.325 1109.91 597.792C1109.01 597.259 1107.98 596.992 1106.81 596.992C1105.65 596.992 1104.62 597.259 1103.7 597.792C1102.78 598.325 1102.07 599.072 1101.56 600.032C1101.05 600.992 1100.79 602.091 1100.79 603.328V603.68C1100.79 604.96 1101.07 606.091 1101.62 607.072C1102.2 608.032 1102.99 608.789 1103.99 609.344C1105.01 609.877 1106.18 610.144 1107.48 610.144C1108.5 610.144 1109.45 609.963 1110.33 609.6C1111.22 609.237 1111.99 608.683 1112.63 607.936L1113.91 609.408C1113.16 610.304 1112.22 610.987 1111.09 611.456C1109.98 611.925 1108.76 612.16 1107.41 612.16ZM1128.35 612V593.088C1128.35 591.595 1128.79 590.389 1129.66 589.472C1130.54 588.555 1131.79 588.096 1133.44 588.096C1134.08 588.096 1134.7 588.181 1135.29 588.352C1135.89 588.523 1136.39 588.789 1136.8 589.152L1136.03 590.848C1135.71 590.571 1135.34 590.368 1134.91 590.24C1134.48 590.091 1134.02 590.016 1133.53 590.016C1132.57 590.016 1131.84 590.283 1131.32 590.816C1130.81 591.349 1130.56 592.139 1130.56 593.184V595.744L1130.62 596.8V612H1128.35ZM1125.34 597.088V595.2H1135.74V597.088H1125.34ZM1145.75 612.16C1144.32 612.16 1143.08 611.893 1142.01 611.36C1140.94 610.827 1140.11 610.027 1139.51 608.96C1138.94 607.893 1138.65 606.56 1138.65 604.96V595.2H1140.92V604.704C1140.92 606.496 1141.36 607.851 1142.23 608.768C1143.13 609.664 1144.38 610.112 1145.98 610.112C1147.15 610.112 1148.16 609.877 1149.02 609.408C1149.89 608.917 1150.55 608.213 1151 607.296C1151.47 606.379 1151.7 605.28 1151.7 604V595.2H1153.98V612H1151.8V607.392L1152.15 608.224C1151.62 609.461 1150.79 610.432 1149.66 611.136C1148.55 611.819 1147.25 612.16 1145.75 612.16ZM1165.62 612.16C1164.04 612.16 1162.83 611.733 1161.97 610.88C1161.12 610.027 1160.69 608.821 1160.69 607.264V591.488H1162.96V607.136C1162.96 608.117 1163.21 608.875 1163.7 609.408C1164.21 609.941 1164.94 610.208 1165.88 610.208C1166.88 610.208 1167.71 609.92 1168.37 609.344L1169.17 610.976C1168.72 611.381 1168.18 611.68 1167.54 611.872C1166.92 612.064 1166.28 612.16 1165.62 612.16ZM1157.68 597.088V595.2H1168.08V597.088H1157.68ZM1180.25 612.16C1178.82 612.16 1177.58 611.893 1176.51 611.36C1175.44 610.827 1174.61 610.027 1174.01 608.96C1173.44 607.893 1173.15 606.56 1173.15 604.96V595.2H1175.42V604.704C1175.42 606.496 1175.86 607.851 1176.73 608.768C1177.63 609.664 1178.88 610.112 1180.48 610.112C1181.65 610.112 1182.66 609.877 1183.52 609.408C1184.39 608.917 1185.05 608.213 1185.5 607.296C1185.97 606.379 1186.2 605.28 1186.2 604V595.2H1188.48V612H1186.3V607.392L1186.65 608.224C1186.12 609.461 1185.29 610.432 1184.16 611.136C1183.05 611.819 1181.75 612.16 1180.25 612.16ZM1194.81 612V595.2H1196.98V599.776L1196.76 598.976C1197.23 597.696 1198.02 596.725 1199.13 596.064C1200.24 595.381 1201.61 595.04 1203.26 595.04V597.248C1203.17 597.248 1203.09 597.248 1203 597.248C1202.92 597.227 1202.83 597.216 1202.74 597.216C1200.97 597.216 1199.59 597.76 1198.58 598.848C1197.58 599.915 1197.08 601.44 1197.08 603.424V612H1194.81ZM1214.38 612.16C1212.63 612.16 1211.1 611.797 1209.77 611.072C1208.45 610.325 1207.42 609.312 1206.67 608.032C1205.92 606.731 1205.55 605.248 1205.55 603.584C1205.55 601.92 1205.9 600.448 1206.61 599.168C1207.33 597.888 1208.31 596.885 1209.55 596.16C1210.81 595.413 1212.22 595.04 1213.77 595.04C1215.35 595.04 1216.75 595.403 1217.97 596.128C1219.2 596.832 1220.17 597.835 1220.88 599.136C1221.58 600.416 1221.93 601.899 1221.93 603.584C1221.93 603.691 1221.92 603.808 1221.9 603.936C1221.9 604.043 1221.9 604.16 1221.9 604.288H1207.28V602.592H1220.69L1219.79 603.264C1219.79 602.048 1219.52 600.971 1218.99 600.032C1218.48 599.072 1217.77 598.325 1216.88 597.792C1215.98 597.259 1214.95 596.992 1213.77 596.992C1212.62 596.992 1211.59 597.259 1210.67 597.792C1209.75 598.325 1209.04 599.072 1208.53 600.032C1208.01 600.992 1207.76 602.091 1207.76 603.328V603.68C1207.76 604.96 1208.04 606.091 1208.59 607.072C1209.17 608.032 1209.96 608.789 1210.96 609.344C1211.98 609.877 1213.14 610.144 1214.45 610.144C1215.47 610.144 1216.42 609.963 1217.29 609.6C1218.19 609.237 1218.96 608.683 1219.6 607.936L1220.88 609.408C1220.13 610.304 1219.19 610.987 1218.06 611.456C1216.95 611.925 1215.73 612.16 1214.38 612.16ZM1226.78 612.16C1226.31 612.16 1225.91 611.989 1225.57 611.648C1225.25 611.307 1225.09 610.891 1225.09 610.4C1225.09 609.888 1225.25 609.472 1225.57 609.152C1225.91 608.832 1226.31 608.672 1226.78 608.672C1227.25 608.672 1227.65 608.832 1227.97 609.152C1228.31 609.472 1228.48 609.888 1228.48 610.4C1228.48 610.891 1228.31 611.307 1227.97 611.648C1227.65 611.989 1227.25 612.16 1226.78 612.16Z" fill="white"/>
<rect x="430.5" y="340" width="651" height="73" rx="19" fill="black" fill-opacity="0.3"/>
<rect x="430.5" y="340" width="651" height="73" rx="19" stroke="white" stroke-width="2"/>
<path d="M471.574 388.192C469.91 388.192 468.31 387.925 466.774 387.392C465.259 386.837 464.086 386.133 463.254 385.28L464.182 383.456C464.971 384.224 466.027 384.875 467.35 385.408C468.694 385.92 470.102 386.176 471.574 386.176C472.982 386.176 474.123 386.005 474.998 385.664C475.894 385.301 476.545 384.821 476.95 384.224C477.377 383.627 477.59 382.965 477.59 382.24C477.59 381.365 477.334 380.661 476.822 380.128C476.331 379.595 475.681 379.179 474.87 378.88C474.059 378.56 473.163 378.283 472.182 378.048C471.201 377.813 470.219 377.568 469.238 377.312C468.257 377.035 467.35 376.672 466.518 376.224C465.707 375.776 465.046 375.189 464.534 374.464C464.043 373.717 463.798 372.747 463.798 371.552C463.798 370.443 464.086 369.429 464.662 368.512C465.259 367.573 466.166 366.827 467.382 366.272C468.598 365.696 470.155 365.408 472.054 365.408C473.313 365.408 474.561 365.589 475.798 365.952C477.035 366.293 478.102 366.773 478.998 367.392L478.198 369.28C477.238 368.64 476.214 368.171 475.126 367.872C474.059 367.573 473.025 367.424 472.022 367.424C470.678 367.424 469.569 367.605 468.694 367.968C467.819 368.331 467.169 368.821 466.742 369.44C466.337 370.037 466.134 370.72 466.134 371.488C466.134 372.363 466.379 373.067 466.87 373.6C467.382 374.133 468.043 374.549 468.854 374.848C469.686 375.147 470.593 375.413 471.574 375.648C472.555 375.883 473.526 376.139 474.486 376.416C475.467 376.693 476.363 377.056 477.174 377.504C478.006 377.931 478.667 378.507 479.158 379.232C479.67 379.957 479.926 380.907 479.926 382.08C479.926 383.168 479.627 384.181 479.03 385.12C478.433 386.037 477.515 386.784 476.278 387.36C475.062 387.915 473.494 388.192 471.574 388.192ZM491.55 388.16C490.12 388.16 488.872 387.893 487.806 387.36C486.739 386.827 485.907 386.027 485.31 384.96C484.734 383.893 484.446 382.56 484.446 380.96V371.2H486.718V380.704C486.718 382.496 487.155 383.851 488.03 384.768C488.926 385.664 490.174 386.112 491.774 386.112C492.947 386.112 493.96 385.877 494.814 385.408C495.688 384.917 496.35 384.213 496.798 383.296C497.267 382.379 497.502 381.28 497.502 380V371.2H499.774V388H497.597V383.392L497.95 384.224C497.416 385.461 496.584 386.432 495.454 387.136C494.344 387.819 493.043 388.16 491.55 388.16ZM510.618 388.16C509.231 388.16 507.919 387.968 506.682 387.584C505.444 387.179 504.474 386.677 503.77 386.08L504.794 384.288C505.476 384.8 506.351 385.248 507.418 385.632C508.484 385.995 509.604 386.176 510.778 386.176C512.378 386.176 513.53 385.931 514.234 385.44C514.938 384.928 515.29 384.256 515.29 383.424C515.29 382.805 515.087 382.325 514.682 381.984C514.298 381.621 513.786 381.355 513.146 381.184C512.506 380.992 511.791 380.832 511.002 380.704C510.212 380.576 509.423 380.427 508.634 380.256C507.866 380.085 507.162 379.84 506.522 379.52C505.882 379.179 505.359 378.72 504.954 378.144C504.57 377.568 504.378 376.8 504.378 375.84C504.378 374.923 504.634 374.101 505.146 373.376C505.658 372.651 506.404 372.085 507.386 371.68C508.388 371.253 509.604 371.04 511.034 371.04C512.122 371.04 513.21 371.189 514.298 371.488C515.386 371.765 516.282 372.139 516.986 372.608L515.994 374.432C515.247 373.92 514.447 373.557 513.594 373.344C512.74 373.109 511.887 372.992 511.034 372.992C509.519 372.992 508.399 373.259 507.674 373.792C506.97 374.304 506.618 374.965 506.618 375.776C506.618 376.416 506.81 376.917 507.194 377.28C507.599 377.643 508.122 377.931 508.762 378.144C509.423 378.336 510.138 378.496 510.906 378.624C511.695 378.752 512.474 378.912 513.242 379.104C514.031 379.275 514.746 379.52 515.386 379.84C516.047 380.139 516.57 380.576 516.954 381.152C517.359 381.707 517.562 382.443 517.562 383.36C517.562 384.341 517.284 385.195 516.73 385.92C516.196 386.624 515.407 387.179 514.362 387.584C513.338 387.968 512.09 388.16 510.618 388.16ZM527.043 388.16C525.464 388.16 524.248 387.733 523.395 386.88C522.541 386.027 522.115 384.821 522.115 383.264V367.488H524.387V383.136C524.387 384.117 524.632 384.875 525.123 385.408C525.635 385.941 526.36 386.208 527.299 386.208C528.301 386.208 529.133 385.92 529.795 385.344L530.595 386.976C530.147 387.381 529.603 387.68 528.963 387.872C528.344 388.064 527.704 388.16 527.043 388.16ZM519.107 373.088V371.2H529.507V373.088H519.107ZM545.259 388V384.288L545.163 383.68V377.472C545.163 376.043 544.757 374.944 543.947 374.176C543.157 373.408 541.973 373.024 540.395 373.024C539.307 373.024 538.272 373.205 537.291 373.568C536.309 373.931 535.477 374.411 534.795 375.008L533.771 373.312C534.624 372.587 535.648 372.032 536.843 371.648C538.037 371.243 539.296 371.04 540.619 371.04C542.795 371.04 544.469 371.584 545.643 372.672C546.837 373.739 547.435 375.371 547.435 377.568V388H545.259ZM539.467 388.16C538.208 388.16 537.109 387.957 536.171 387.552C535.253 387.125 534.549 386.549 534.059 385.824C533.568 385.077 533.323 384.224 533.323 383.264C533.323 382.389 533.525 381.6 533.931 380.896C534.357 380.171 535.04 379.595 535.979 379.168C536.939 378.72 538.219 378.496 539.819 378.496H545.611V380.192H539.883C538.261 380.192 537.131 380.48 536.491 381.056C535.872 381.632 535.562 382.347 535.562 383.2C535.562 384.16 535.936 384.928 536.683 385.504C537.429 386.08 538.475 386.368 539.819 386.368C541.099 386.368 542.197 386.08 543.115 385.504C544.053 384.907 544.736 384.053 545.163 382.944L545.675 384.512C545.248 385.621 544.501 386.507 543.435 387.168C542.389 387.829 541.067 388.16 539.467 388.16ZM553.606 388V371.2H555.878V388H553.606ZM554.758 367.488C554.288 367.488 553.894 367.328 553.574 367.008C553.254 366.688 553.094 366.304 553.094 365.856C553.094 365.408 553.254 365.035 553.574 364.736C553.894 364.416 554.288 364.256 554.758 364.256C555.227 364.256 555.622 364.405 555.942 364.704C556.262 365.003 556.422 365.376 556.422 365.824C556.422 366.293 556.262 366.688 555.942 367.008C555.643 367.328 555.248 367.488 554.758 367.488ZM570.775 371.04C572.141 371.04 573.335 371.307 574.359 371.84C575.405 372.352 576.215 373.141 576.791 374.208C577.389 375.275 577.687 376.619 577.687 378.24V388H575.415V378.464C575.415 376.693 574.967 375.36 574.071 374.464C573.197 373.547 571.959 373.088 570.359 373.088C569.165 373.088 568.119 373.333 567.223 373.824C566.349 374.293 565.666 374.987 565.175 375.904C564.706 376.8 564.471 377.888 564.471 379.168V388H562.199V371.2H564.375V375.808L564.023 374.944C564.557 373.728 565.41 372.779 566.583 372.096C567.757 371.392 569.154 371.04 570.775 371.04ZM594.352 388V384.288L594.256 383.68V377.472C594.256 376.043 593.851 374.944 593.04 374.176C592.251 373.408 591.067 373.024 589.488 373.024C588.4 373.024 587.366 373.205 586.384 373.568C585.403 373.931 584.571 374.411 583.888 375.008L582.864 373.312C583.718 372.587 584.742 372.032 585.936 371.648C587.131 371.243 588.39 371.04 589.712 371.04C591.888 371.04 593.563 371.584 594.736 372.672C595.931 373.739 596.528 375.371 596.528 377.568V388H594.352ZM588.56 388.16C587.302 388.16 586.203 387.957 585.264 387.552C584.347 387.125 583.643 386.549 583.152 385.824C582.662 385.077 582.416 384.224 582.416 383.264C582.416 382.389 582.619 381.6 583.024 380.896C583.451 380.171 584.134 379.595 585.072 379.168C586.032 378.72 587.312 378.496 588.912 378.496H594.704V380.192H588.976C587.355 380.192 586.224 380.48 585.584 381.056C584.966 381.632 584.656 382.347 584.656 383.2C584.656 384.16 585.03 384.928 585.776 385.504C586.523 386.08 587.568 386.368 588.912 386.368C590.192 386.368 591.291 386.08 592.208 385.504C593.147 384.907 593.83 384.053 594.256 382.944L594.768 384.512C594.342 385.621 593.595 386.507 592.528 387.168C591.483 387.829 590.16 388.16 588.56 388.16ZM611.371 388.16C609.899 388.16 608.577 387.829 607.403 387.168C606.23 386.485 605.302 385.504 604.619 384.224C603.937 382.944 603.595 381.397 603.595 379.584C603.595 377.749 603.937 376.203 604.619 374.944C605.323 373.664 606.262 372.693 607.435 372.032C608.609 371.371 609.921 371.04 611.371 371.04C612.971 371.04 614.401 371.403 615.659 372.128C616.939 372.832 617.942 373.824 618.667 375.104C619.393 376.384 619.755 377.877 619.755 379.584C619.755 381.269 619.393 382.763 618.667 384.064C617.942 385.344 616.939 386.347 615.659 387.072C614.401 387.797 612.971 388.16 611.371 388.16ZM602.699 388V364.256H604.971V376.16L604.651 379.552L604.875 382.944V388H602.699ZM611.211 386.144C612.406 386.144 613.473 385.877 614.411 385.344C615.35 384.789 616.097 384.021 616.651 383.04C617.206 382.037 617.483 380.885 617.483 379.584C617.483 378.261 617.206 377.109 616.651 376.128C616.097 375.147 615.35 374.389 614.411 373.856C613.473 373.301 612.406 373.024 611.211 373.024C610.017 373.024 608.939 373.301 607.979 373.856C607.041 374.389 606.294 375.147 605.739 376.128C605.206 377.109 604.939 378.261 604.939 379.584C604.939 380.885 605.206 382.037 605.739 383.04C606.294 384.021 607.041 384.789 607.979 385.344C608.939 385.877 610.017 386.144 611.211 386.144ZM624.387 388V364.256H626.659V388H624.387ZM640.117 388.16C638.367 388.16 636.831 387.797 635.509 387.072C634.186 386.325 633.151 385.312 632.405 384.032C631.658 382.731 631.285 381.248 631.285 379.584C631.285 377.92 631.637 376.448 632.341 375.168C633.066 373.888 634.047 372.885 635.285 372.16C636.543 371.413 637.951 371.04 639.509 371.04C641.087 371.04 642.485 371.403 643.701 372.128C644.938 372.832 645.909 373.835 646.613 375.136C647.317 376.416 647.669 377.899 647.669 379.584C647.669 379.691 647.658 379.808 647.637 379.936C647.637 380.043 647.637 380.16 647.637 380.288H633.013V378.592H646.421L645.525 379.264C645.525 378.048 645.258 376.971 644.725 376.032C644.213 375.072 643.509 374.325 642.613 373.792C641.717 373.259 640.682 372.992 639.509 372.992C638.357 372.992 637.322 373.259 636.405 373.792C635.487 374.325 634.773 375.072 634.261 376.032C633.749 376.992 633.493 378.091 633.493 379.328V379.68C633.493 380.96 633.77 382.091 634.325 383.072C634.901 384.032 635.69 384.789 636.693 385.344C637.717 385.877 638.879 386.144 640.181 386.144C641.205 386.144 642.154 385.963 643.029 385.6C643.925 385.237 644.693 384.683 645.333 383.936L646.613 385.408C645.866 386.304 644.927 386.987 643.797 387.456C642.687 387.925 641.461 388.16 640.117 388.16ZM665.5 388V367.648H657.628V365.6H675.74V367.648H667.868V388H665.5ZM678.606 388V371.2H680.782V375.776L680.558 374.976C681.027 373.696 681.816 372.725 682.926 372.064C684.035 371.381 685.411 371.04 687.054 371.04V373.248C686.968 373.248 686.883 373.248 686.798 373.248C686.712 373.227 686.627 373.216 686.542 373.216C684.771 373.216 683.384 373.76 682.382 374.848C681.379 375.915 680.878 377.44 680.878 379.424V388H678.606ZM700.477 388V384.288L700.381 383.68V377.472C700.381 376.043 699.976 374.944 699.165 374.176C698.376 373.408 697.192 373.024 695.613 373.024C694.525 373.024 693.491 373.205 692.509 373.568C691.528 373.931 690.696 374.411 690.013 375.008L688.989 373.312C689.843 372.587 690.867 372.032 692.061 371.648C693.256 371.243 694.515 371.04 695.837 371.04C698.013 371.04 699.688 371.584 700.861 372.672C702.056 373.739 702.653 375.371 702.653 377.568V388H700.477ZM694.685 388.16C693.427 388.16 692.328 387.957 691.389 387.552C690.472 387.125 689.768 386.549 689.277 385.824C688.787 385.077 688.541 384.224 688.541 383.264C688.541 382.389 688.744 381.6 689.149 380.896C689.576 380.171 690.259 379.595 691.197 379.168C692.157 378.72 693.437 378.496 695.037 378.496H700.829V380.192H695.101C693.48 380.192 692.349 380.48 691.709 381.056C691.091 381.632 690.781 382.347 690.781 383.2C690.781 384.16 691.155 384.928 691.901 385.504C692.648 386.08 693.693 386.368 695.037 386.368C696.317 386.368 697.416 386.08 698.333 385.504C699.272 384.907 699.955 384.053 700.381 382.944L700.893 384.512C700.467 385.621 699.72 386.507 698.653 387.168C697.608 387.829 696.285 388.16 694.685 388.16ZM717.4 371.04C718.766 371.04 719.96 371.307 720.984 371.84C722.03 372.352 722.84 373.141 723.416 374.208C724.014 375.275 724.312 376.619 724.312 378.24V388H722.04V378.464C722.04 376.693 721.592 375.36 720.696 374.464C719.822 373.547 718.584 373.088 716.984 373.088C715.79 373.088 714.744 373.333 713.848 373.824C712.974 374.293 712.291 374.987 711.8 375.904C711.331 376.8 711.096 377.888 711.096 379.168V388H708.824V371.2H711V375.808L710.648 374.944C711.182 373.728 712.035 372.779 713.208 372.096C714.382 371.392 715.779 371.04 717.4 371.04ZM734.961 388.16C733.575 388.16 732.263 387.968 731.025 387.584C729.788 387.179 728.817 386.677 728.113 386.08L729.137 384.288C729.82 384.8 730.695 385.248 731.761 385.632C732.828 385.995 733.948 386.176 735.121 386.176C736.721 386.176 737.873 385.931 738.577 385.44C739.281 384.928 739.633 384.256 739.633 383.424C739.633 382.805 739.431 382.325 739.025 381.984C738.641 381.621 738.129 381.355 737.489 381.184C736.849 380.992 736.135 380.832 735.345 380.704C734.556 380.576 733.767 380.427 732.977 380.256C732.209 380.085 731.505 379.84 730.865 379.52C730.225 379.179 729.703 378.72 729.297 378.144C728.913 377.568 728.721 376.8 728.721 375.84C728.721 374.923 728.977 374.101 729.489 373.376C730.001 372.651 730.748 372.085 731.729 371.68C732.732 371.253 733.948 371.04 735.377 371.04C736.465 371.04 737.553 371.189 738.641 371.488C739.729 371.765 740.625 372.139 741.329 372.608L740.337 374.432C739.591 373.92 738.791 373.557 737.937 373.344C737.084 373.109 736.231 372.992 735.377 372.992C733.863 372.992 732.743 373.259 732.017 373.792C731.313 374.304 730.961 374.965 730.961 375.776C730.961 376.416 731.153 376.917 731.537 377.28C731.943 377.643 732.465 377.931 733.105 378.144C733.767 378.336 734.481 378.496 735.249 378.624C736.039 378.752 736.817 378.912 737.585 379.104C738.375 379.275 739.089 379.52 739.729 379.84C740.391 380.139 740.913 380.576 741.297 381.152C741.703 381.707 741.905 382.443 741.905 383.36C741.905 384.341 741.628 385.195 741.073 385.92C740.54 386.624 739.751 387.179 738.705 387.584C737.681 387.968 736.433 388.16 734.961 388.16ZM754.746 388.16C753.296 388.16 751.984 387.829 750.81 387.168C749.637 386.485 748.698 385.515 747.994 384.256C747.312 382.976 746.97 381.419 746.97 379.584C746.97 377.749 747.312 376.203 747.994 374.944C748.677 373.664 749.605 372.693 750.778 372.032C751.952 371.371 753.274 371.04 754.746 371.04C756.346 371.04 757.776 371.403 759.034 372.128C760.314 372.832 761.317 373.835 762.042 375.136C762.768 376.416 763.13 377.899 763.13 379.584C763.13 381.291 762.768 382.784 762.042 384.064C761.317 385.344 760.314 386.347 759.034 387.072C757.776 387.797 756.346 388.16 754.746 388.16ZM746.074 394.208V371.2H748.25V376.256L748.026 379.616L748.346 383.008V394.208H746.074ZM754.586 386.144C755.781 386.144 756.848 385.877 757.786 385.344C758.725 384.789 759.472 384.021 760.026 383.04C760.581 382.037 760.858 380.885 760.858 379.584C760.858 378.283 760.581 377.141 760.026 376.16C759.472 375.179 758.725 374.411 757.786 373.856C756.848 373.301 755.781 373.024 754.586 373.024C753.392 373.024 752.314 373.301 751.354 373.856C750.416 374.411 749.669 375.179 749.114 376.16C748.581 377.141 748.314 378.283 748.314 379.584C748.314 380.885 748.581 382.037 749.114 383.04C749.669 384.021 750.416 384.789 751.354 385.344C752.314 385.877 753.392 386.144 754.586 386.144ZM774.61 388.16C772.988 388.16 771.527 387.797 770.226 387.072C768.946 386.325 767.932 385.312 767.186 384.032C766.439 382.731 766.066 381.248 766.066 379.584C766.066 377.899 766.439 376.416 767.186 375.136C767.932 373.856 768.946 372.853 770.226 372.128C771.506 371.403 772.967 371.04 774.61 371.04C776.274 371.04 777.746 371.403 779.026 372.128C780.327 372.853 781.34 373.856 782.066 375.136C782.812 376.416 783.186 377.899 783.186 379.584C783.186 381.248 782.812 382.731 782.066 384.032C781.34 385.312 780.327 386.325 779.026 387.072C777.724 387.797 776.252 388.16 774.61 388.16ZM774.61 386.144C775.826 386.144 776.903 385.877 777.842 385.344C778.78 384.789 779.516 384.021 780.05 383.04C780.604 382.037 780.882 380.885 780.882 379.584C780.882 378.261 780.604 377.109 780.05 376.128C779.516 375.147 778.78 374.389 777.842 373.856C776.903 373.301 775.836 373.024 774.642 373.024C773.447 373.024 772.38 373.301 771.442 373.856C770.503 374.389 769.756 375.147 769.202 376.128C768.647 377.109 768.37 378.261 768.37 379.584C768.37 380.885 768.647 382.037 769.202 383.04C769.756 384.021 770.503 384.789 771.442 385.344C772.38 385.877 773.436 386.144 774.61 386.144ZM787.824 388V371.2H790V375.776L789.776 374.976C790.246 373.696 791.035 372.725 792.144 372.064C793.254 371.381 794.63 371.04 796.272 371.04V373.248C796.187 373.248 796.102 373.248 796.016 373.248C795.931 373.227 795.846 373.216 795.76 373.216C793.99 373.216 792.603 373.76 791.6 374.848C790.598 375.915 790.096 377.44 790.096 379.424V388H787.824ZM806.449 388.16C804.87 388.16 803.654 387.733 802.801 386.88C801.947 386.027 801.521 384.821 801.521 383.264V367.488H803.793V383.136C803.793 384.117 804.038 384.875 804.529 385.408C805.041 385.941 805.766 386.208 806.705 386.208C807.707 386.208 808.539 385.92 809.201 385.344L810.001 386.976C809.553 387.381 809.009 387.68 808.369 387.872C807.75 388.064 807.11 388.16 806.449 388.16ZM798.513 373.088V371.2H808.913V373.088H798.513ZM824.665 388V384.288L824.569 383.68V377.472C824.569 376.043 824.163 374.944 823.353 374.176C822.563 373.408 821.379 373.024 819.801 373.024C818.713 373.024 817.678 373.205 816.697 373.568C815.715 373.931 814.883 374.411 814.201 375.008L813.177 373.312C814.03 372.587 815.054 372.032 816.249 371.648C817.443 371.243 818.702 371.04 820.025 371.04C822.201 371.04 823.875 371.584 825.049 372.672C826.243 373.739 826.841 375.371 826.841 377.568V388H824.665ZM818.873 388.16C817.614 388.16 816.515 387.957 815.577 387.552C814.659 387.125 813.955 386.549 813.465 385.824C812.974 385.077 812.729 384.224 812.729 383.264C812.729 382.389 812.931 381.6 813.337 380.896C813.763 380.171 814.446 379.595 815.385 379.168C816.345 378.72 817.625 378.496 819.225 378.496H825.017V380.192H819.289C817.667 380.192 816.537 380.48 815.897 381.056C815.278 381.632 814.969 382.347 814.969 383.2C814.969 384.16 815.342 384.928 816.089 385.504C816.835 386.08 817.881 386.368 819.225 386.368C820.505 386.368 821.603 386.08 822.521 385.504C823.459 384.907 824.142 384.053 824.569 382.944L825.081 384.512C824.654 385.621 823.907 386.507 822.841 387.168C821.795 387.829 820.473 388.16 818.873 388.16ZM838.324 388.16C836.745 388.16 835.529 387.733 834.676 386.88C833.822 386.027 833.396 384.821 833.396 383.264V367.488H835.668V383.136C835.668 384.117 835.913 384.875 836.404 385.408C836.916 385.941 837.641 386.208 838.58 386.208C839.582 386.208 840.414 385.92 841.076 385.344L841.876 386.976C841.428 387.381 840.884 387.68 840.244 387.872C839.625 388.064 838.985 388.16 838.324 388.16ZM830.388 373.088V371.2H840.788V373.088H830.388ZM846.012 388V371.2H848.284V388H846.012ZM847.164 367.488C846.694 367.488 846.3 367.328 845.98 367.008C845.66 366.688 845.5 366.304 845.5 365.856C845.5 365.408 845.66 365.035 845.98 364.736C846.3 364.416 846.694 364.256 847.164 364.256C847.633 364.256 848.028 364.405 848.348 364.704C848.668 365.003 848.828 365.376 848.828 365.824C848.828 366.293 848.668 366.688 848.348 367.008C848.049 367.328 847.654 367.488 847.164 367.488ZM861.454 388.16C859.832 388.16 858.371 387.797 857.07 387.072C855.79 386.325 854.776 385.312 854.03 384.032C853.283 382.731 852.91 381.248 852.91 379.584C852.91 377.899 853.283 376.416 854.03 375.136C854.776 373.856 855.79 372.853 857.07 372.128C858.35 371.403 859.811 371.04 861.454 371.04C863.118 371.04 864.59 371.403 865.87 372.128C867.171 372.853 868.184 373.856 868.91 375.136C869.656 376.416 870.03 377.899 870.03 379.584C870.03 381.248 869.656 382.731 868.91 384.032C868.184 385.312 867.171 386.325 865.87 387.072C864.568 387.797 863.096 388.16 861.454 388.16ZM861.454 386.144C862.67 386.144 863.747 385.877 864.686 385.344C865.624 384.789 866.36 384.021 866.894 383.04C867.448 382.037 867.726 380.885 867.726 379.584C867.726 378.261 867.448 377.109 866.894 376.128C866.36 375.147 865.624 374.389 864.686 373.856C863.747 373.301 862.68 373.024 861.486 373.024C860.291 373.024 859.224 373.301 858.286 373.856C857.347 374.389 856.6 375.147 856.046 376.128C855.491 377.109 855.214 378.261 855.214 379.584C855.214 380.885 855.491 382.037 856.046 383.04C856.6 384.021 857.347 384.789 858.286 385.344C859.224 385.877 860.28 386.144 861.454 386.144ZM883.244 371.04C884.609 371.04 885.804 371.307 886.828 371.84C887.873 372.352 888.684 373.141 889.26 374.208C889.857 375.275 890.156 376.619 890.156 378.24V388H887.884V378.464C887.884 376.693 887.436 375.36 886.54 374.464C885.665 373.547 884.428 373.088 882.828 373.088C881.633 373.088 880.588 373.333 879.692 373.824C878.817 374.293 878.135 374.987 877.644 375.904C877.175 376.8 876.94 377.888 876.94 379.168V388H874.668V371.2H876.844V375.808L876.492 374.944C877.025 373.728 877.879 372.779 879.052 372.096C880.225 371.392 881.623 371.04 883.244 371.04ZM911.324 388.192C909.66 388.192 908.06 387.925 906.524 387.392C905.009 386.837 903.836 386.133 903.004 385.28L903.932 383.456C904.721 384.224 905.777 384.875 907.1 385.408C908.444 385.92 909.852 386.176 911.324 386.176C912.732 386.176 913.873 386.005 914.748 385.664C915.644 385.301 916.295 384.821 916.7 384.224C917.127 383.627 917.34 382.965 917.34 382.24C917.34 381.365 917.084 380.661 916.572 380.128C916.081 379.595 915.431 379.179 914.62 378.88C913.809 378.56 912.913 378.283 911.932 378.048C910.951 377.813 909.969 377.568 908.988 377.312C908.007 377.035 907.1 376.672 906.268 376.224C905.457 375.776 904.796 375.189 904.284 374.464C903.793 373.717 903.548 372.747 903.548 371.552C903.548 370.443 903.836 369.429 904.412 368.512C905.009 367.573 905.916 366.827 907.132 366.272C908.348 365.696 909.905 365.408 911.804 365.408C913.063 365.408 914.311 365.589 915.548 365.952C916.785 366.293 917.852 366.773 918.748 367.392L917.948 369.28C916.988 368.64 915.964 368.171 914.876 367.872C913.809 367.573 912.775 367.424 911.772 367.424C910.428 367.424 909.319 367.605 908.444 367.968C907.569 368.331 906.919 368.821 906.492 369.44C906.087 370.037 905.884 370.72 905.884 371.488C905.884 372.363 906.129 373.067 906.62 373.6C907.132 374.133 907.793 374.549 908.604 374.848C909.436 375.147 910.343 375.413 911.324 375.648C912.305 375.883 913.276 376.139 914.236 376.416C915.217 376.693 916.113 377.056 916.924 377.504C917.756 377.931 918.417 378.507 918.908 379.232C919.42 379.957 919.676 380.907 919.676 382.08C919.676 383.168 919.377 384.181 918.78 385.12C918.183 386.037 917.265 386.784 916.028 387.36C914.812 387.915 913.244 388.192 911.324 388.192ZM931.204 388.16C929.582 388.16 928.121 387.797 926.82 387.072C925.54 386.325 924.526 385.312 923.78 384.032C923.033 382.731 922.66 381.248 922.66 379.584C922.66 377.899 923.033 376.416 923.78 375.136C924.526 373.856 925.54 372.853 926.82 372.128C928.1 371.403 929.561 371.04 931.204 371.04C932.868 371.04 934.34 371.403 935.62 372.128C936.921 372.853 937.934 373.856 938.66 375.136C939.406 376.416 939.78 377.899 939.78 379.584C939.78 381.248 939.406 382.731 938.66 384.032C937.934 385.312 936.921 386.325 935.62 387.072C934.318 387.797 932.846 388.16 931.204 388.16ZM931.204 386.144C932.42 386.144 933.497 385.877 934.436 385.344C935.374 384.789 936.11 384.021 936.644 383.04C937.198 382.037 937.476 380.885 937.476 379.584C937.476 378.261 937.198 377.109 936.644 376.128C936.11 375.147 935.374 374.389 934.436 373.856C933.497 373.301 932.43 373.024 931.236 373.024C930.041 373.024 928.974 373.301 928.036 373.856C927.097 374.389 926.35 375.147 925.796 376.128C925.241 377.109 924.964 378.261 924.964 379.584C924.964 380.885 925.241 382.037 925.796 383.04C926.35 384.021 927.097 384.789 928.036 385.344C928.974 385.877 930.03 386.144 931.204 386.144ZM944.418 388V364.256H946.69V388H944.418ZM959.956 388.16C958.526 388.16 957.278 387.893 956.212 387.36C955.145 386.827 954.313 386.027 953.716 384.96C953.14 383.893 952.852 382.56 952.852 380.96V371.2H955.124V380.704C955.124 382.496 955.561 383.851 956.436 384.768C957.332 385.664 958.58 386.112 960.18 386.112C961.353 386.112 962.366 385.877 963.22 385.408C964.094 384.917 964.756 384.213 965.204 383.296C965.673 382.379 965.908 381.28 965.908 380V371.2H968.18V388H966.004V383.392L966.356 384.224C965.822 385.461 964.99 386.432 963.86 387.136C962.75 387.819 961.449 388.16 959.956 388.16ZM979.824 388.16C978.245 388.16 977.029 387.733 976.176 386.88C975.322 386.027 974.896 384.821 974.896 383.264V367.488H977.168V383.136C977.168 384.117 977.413 384.875 977.904 385.408C978.416 385.941 979.141 386.208 980.08 386.208C981.082 386.208 981.914 385.92 982.576 385.344L983.376 386.976C982.928 387.381 982.384 387.68 981.744 387.872C981.125 388.064 980.485 388.16 979.824 388.16ZM971.888 373.088V371.2H982.288V373.088H971.888ZM987.512 388V371.2H989.784V388H987.512ZM988.664 367.488C988.194 367.488 987.8 367.328 987.48 367.008C987.16 366.688 987 366.304 987 365.856C987 365.408 987.16 365.035 987.48 364.736C987.8 364.416 988.194 364.256 988.664 364.256C989.133 364.256 989.528 364.405 989.848 364.704C990.168 365.003 990.328 365.376 990.328 365.824C990.328 366.293 990.168 366.688 989.848 367.008C989.549 367.328 989.154 367.488 988.664 367.488ZM1002.95 388.16C1001.33 388.16 999.871 387.797 998.57 387.072C997.29 386.325 996.276 385.312 995.53 384.032C994.783 382.731 994.41 381.248 994.41 379.584C994.41 377.899 994.783 376.416 995.53 375.136C996.276 373.856 997.29 372.853 998.57 372.128C999.85 371.403 1001.31 371.04 1002.95 371.04C1004.62 371.04 1006.09 371.403 1007.37 372.128C1008.67 372.853 1009.68 373.856 1010.41 375.136C1011.16 376.416 1011.53 377.899 1011.53 379.584C1011.53 381.248 1011.16 382.731 1010.41 384.032C1009.68 385.312 1008.67 386.325 1007.37 387.072C1006.07 387.797 1004.6 388.16 1002.95 388.16ZM1002.95 386.144C1004.17 386.144 1005.25 385.877 1006.19 385.344C1007.12 384.789 1007.86 384.021 1008.39 383.04C1008.95 382.037 1009.23 380.885 1009.23 379.584C1009.23 378.261 1008.95 377.109 1008.39 376.128C1007.86 375.147 1007.12 374.389 1006.19 373.856C1005.25 373.301 1004.18 373.024 1002.99 373.024C1001.79 373.024 1000.72 373.301 999.786 373.856C998.847 374.389 998.1 375.147 997.546 376.128C996.991 377.109 996.714 378.261 996.714 379.584C996.714 380.885 996.991 382.037 997.546 383.04C998.1 384.021 998.847 384.789 999.786 385.344C1000.72 385.877 1001.78 386.144 1002.95 386.144ZM1024.74 371.04C1026.11 371.04 1027.3 371.307 1028.33 371.84C1029.37 372.352 1030.18 373.141 1030.76 374.208C1031.36 375.275 1031.66 376.619 1031.66 378.24V388H1029.38V378.464C1029.38 376.693 1028.94 375.36 1028.04 374.464C1027.17 373.547 1025.93 373.088 1024.33 373.088C1023.13 373.088 1022.09 373.333 1021.19 373.824C1020.32 374.293 1019.63 374.987 1019.14 375.904C1018.67 376.8 1018.44 377.888 1018.44 379.168V388H1016.17V371.2H1018.34V375.808L1017.99 374.944C1018.53 373.728 1019.38 372.779 1020.55 372.096C1021.73 371.392 1023.12 371.04 1024.74 371.04ZM1042.31 388.16C1040.92 388.16 1039.61 387.968 1038.37 387.584C1037.13 387.179 1036.16 386.677 1035.46 386.08L1036.48 384.288C1037.16 384.8 1038.04 385.248 1039.11 385.632C1040.17 385.995 1041.29 386.176 1042.47 386.176C1044.07 386.176 1045.22 385.931 1045.92 385.44C1046.63 384.928 1046.98 384.256 1046.98 383.424C1046.98 382.805 1046.77 382.325 1046.37 381.984C1045.99 381.621 1045.47 381.355 1044.83 381.184C1044.19 380.992 1043.48 380.832 1042.69 380.704C1041.9 380.576 1041.11 380.427 1040.32 380.256C1039.55 380.085 1038.85 379.84 1038.21 379.52C1037.57 379.179 1037.05 378.72 1036.64 378.144C1036.26 377.568 1036.07 376.8 1036.07 375.84C1036.07 374.923 1036.32 374.101 1036.83 373.376C1037.35 372.651 1038.09 372.085 1039.07 371.68C1040.08 371.253 1041.29 371.04 1042.72 371.04C1043.81 371.04 1044.9 371.189 1045.99 371.488C1047.07 371.765 1047.97 372.139 1048.67 372.608L1047.68 374.432C1046.93 373.92 1046.13 373.557 1045.28 373.344C1044.43 373.109 1043.57 372.992 1042.72 372.992C1041.21 372.992 1040.09 373.259 1039.36 373.792C1038.66 374.304 1038.31 374.965 1038.31 375.776C1038.31 376.416 1038.5 376.917 1038.88 377.28C1039.29 377.643 1039.81 377.931 1040.45 378.144C1041.11 378.336 1041.83 378.496 1042.59 378.624C1043.38 378.752 1044.16 378.912 1044.93 379.104C1045.72 379.275 1046.43 379.52 1047.07 379.84C1047.73 380.139 1048.26 380.576 1048.64 381.152C1049.05 381.707 1049.25 382.443 1049.25 383.36C1049.25 384.341 1048.97 385.195 1048.42 385.92C1047.88 386.624 1047.09 387.179 1046.05 387.584C1045.03 387.968 1043.78 388.16 1042.31 388.16Z" fill="white"/>
<path d="M656 181.932L659.802 199.402L663.324 185.406L733.421 173.897C733.421 173.897 744.953 159.578 756 154.635C767.047 149.692 798.038 162.139 818.863 176.338L852.221 167.135L835.603 182.692L844.593 196.364C843.991 190.997 843.256 188.053 839.27 182.692L856 165.222L820.259 169.02C805.673 159.825 787.069 154.054 776.913 152.309C766.756 150.564 761.233 150.563 755.62 152.309C750.007 154.055 740.224 160.625 729.004 169.02L656 181.932Z" fill="white"/>
<path d="M760.275 169.712L729.536 169.167L727.145 174.943L760.275 169.712Z" fill="white"/>
<path d="M832.812 182.812L802.073 182.267L799.682 188.043L832.812 182.812Z" fill="white"/>
<path d="M711.386 199.402C710.799 182.15 695.895 177.742 687.393 179.887L689.718 177.89C695.245 174.756 714.455 176.864 717.728 194.124L778.672 199.402H711.386Z" fill="white"/>
<g clip-path="url(#clip1_183_1532)">
<circle cx="802.472" cy="199.704" r="17.4372" fill="white"/>
</g>
</g>
<defs>
<clipPath id="clip0_183_1532">
<rect width="1512" height="786" fill="white"/>
</clipPath>
<clipPath id="clip1_183_1532">
<rect width="34.8744" height="17.4372" fill="white" transform="translate(785.035 182.267)"/>
</clipPath>
</defs>
</svg>
