<svg width="1512" height="827" viewBox="0 0 1512 827" fill="none" xmlns="http://www.w3.org/2000/svg">
<rect width="1512" height="827" fill="url(#paint0_radial_230_4481)"/>
<rect x="157" y="135" width="599" height="277" rx="25" fill="white" fill-opacity="0.4"/>
<path d="M350.455 330.762C347.739 330.762 345.434 330.228 343.538 329.159C341.649 328.06 340.3 326.548 339.492 324.625C338.715 322.701 338.586 320.518 339.105 318.076C339.63 315.602 340.688 313.419 342.276 311.526C343.902 309.603 345.89 308.106 348.24 307.038C350.596 305.939 353.132 305.389 355.848 305.389C358.501 305.389 360.695 305.939 362.427 307.038C364.167 308.106 365.291 309.648 365.799 311.664L359.5 314.641C359.091 313.48 358.446 312.625 357.564 312.076C356.713 311.526 355.71 311.251 354.555 311.251C353.307 311.251 352.124 311.526 351.009 312.076C349.893 312.625 348.932 313.404 348.124 314.412C347.348 315.419 346.808 316.64 346.503 318.076C346.198 319.511 346.219 320.732 346.567 321.739C346.946 322.747 347.576 323.526 348.458 324.075C349.34 324.625 350.406 324.9 351.654 324.9C352.809 324.9 353.926 324.64 355.004 324.121C356.119 323.571 357.132 322.701 358.04 321.51L363.063 324.533C361.705 326.518 359.926 328.06 357.725 329.159C355.532 330.228 353.108 330.762 350.455 330.762ZM377.611 330.762C374.927 330.762 372.656 330.212 370.798 329.113C368.971 328.014 367.651 326.518 366.836 324.625C366.058 322.701 365.929 320.518 366.448 318.076C366.974 315.602 368.031 313.419 369.62 311.526C371.246 309.603 373.203 308.106 375.49 307.038C377.815 305.939 380.32 305.389 383.005 305.389C385.658 305.389 387.913 305.939 389.771 307.038C391.635 308.106 392.959 309.587 393.743 311.48C394.527 313.373 394.653 315.572 394.121 318.076C393.601 320.518 392.544 322.701 390.949 324.625C389.361 326.518 387.404 328.014 385.079 329.113C382.754 330.212 380.265 330.762 377.611 330.762ZM378.857 324.9C380.075 324.9 381.226 324.625 382.31 324.075C383.395 323.526 384.325 322.747 385.101 321.739C385.884 320.701 386.424 319.48 386.723 318.076C387.028 316.64 387.006 315.419 386.659 314.412C386.311 313.404 385.712 312.625 384.861 312.076C384.01 311.526 382.976 311.251 381.758 311.251C380.541 311.251 379.39 311.526 378.306 312.076C377.221 312.625 376.275 313.404 375.468 314.412C374.692 315.419 374.151 316.64 373.846 318.076C373.548 319.48 373.569 320.701 373.91 321.739C374.289 322.747 374.904 323.526 375.755 324.075C376.606 324.625 377.64 324.9 378.857 324.9Z" fill="white"/>
<path d="M278.518 263.33H333.712L329.422 283.516H274.228L278.518 263.33ZM270.677 309.468H333.077L328.65 330.295H239.881L263.718 218.154H350.357L345.931 238.98H285.66L270.677 309.468Z" fill="white"/>
<path d="M399.311 217.593C399.311 217.593 405.882 249.408 390.149 272.197C374.416 294.986 342.337 300.118 342.337 300.118C342.337 300.118 335.766 268.302 351.499 245.513C367.232 222.725 399.311 217.593 399.311 217.593Z" fill="#2BC20E"/>
<path d="M421.072 246.439C421.072 246.439 415.922 276.901 394.119 291.671C372.316 306.441 342.117 299.925 342.117 299.925C342.117 299.925 347.266 269.462 369.069 254.693C390.872 239.923 421.072 246.439 421.072 246.439Z" fill="#39FF13"/>
<path d="M365.405 291.104L358.319 280.643L363.072 277.424C364.207 276.654 365.357 276.195 366.521 276.047C367.678 275.888 368.764 276.032 369.778 276.478C370.793 276.925 371.661 277.681 372.383 278.747C373.098 279.803 373.478 280.89 373.523 282.008C373.561 283.116 373.296 284.182 372.726 285.208C372.149 286.223 371.293 287.116 370.157 287.885L365.405 291.104ZM366.479 287.476L368.691 285.978C369.389 285.506 369.904 284.968 370.236 284.365C370.572 283.745 370.714 283.097 370.663 282.419C370.621 281.736 370.377 281.065 369.932 280.407C369.48 279.74 368.947 279.265 368.335 278.982C367.725 278.683 367.073 278.579 366.38 278.671C365.689 278.746 364.996 279.02 364.298 279.492L362.086 280.99L366.479 287.476ZM377.587 282.853L372.141 274.812L374.368 273.304L375.907 275.576L375.148 275.131C375.002 274.401 375.095 273.713 375.428 273.066C375.753 272.409 376.295 271.825 377.052 271.312L378.51 273.464C378.403 273.521 378.31 273.577 378.23 273.631C378.144 273.675 378.056 273.728 377.966 273.788C377.329 274.22 376.935 274.755 376.787 275.394C376.641 276.016 376.828 276.71 377.348 277.478L379.919 281.273L377.587 282.853ZM383.98 278.523L378.534 270.483L380.865 268.904L386.311 276.944L383.98 278.523ZM378.94 268.572C378.512 268.862 378.079 268.974 377.641 268.907C377.203 268.84 376.86 268.623 376.61 268.254C376.36 267.885 376.286 267.485 376.386 267.054C376.486 266.623 376.751 266.262 377.179 265.972C377.608 265.682 378.037 265.565 378.468 265.622C378.892 265.669 379.229 265.877 379.479 266.245C379.742 266.634 379.827 267.049 379.733 267.49C379.643 267.915 379.379 268.275 378.94 268.572ZM390.657 274.001L381.833 268.248L384.239 266.618L391.736 271.635L390.54 272.444L388.768 263.551L391.009 262.033L393.063 272.371L390.657 274.001ZM401.259 266.994C400.342 267.615 399.414 267.982 398.473 268.096C397.543 268.203 396.679 268.076 395.882 267.714C395.079 267.343 394.407 266.759 393.867 265.962C393.32 265.155 393.022 264.318 392.972 263.45C392.926 262.566 393.108 261.73 393.52 260.943C393.924 260.146 394.535 259.47 395.352 258.917C396.139 258.384 396.961 258.074 397.819 257.988C398.679 257.885 399.506 258.022 400.3 258.4C401.087 258.768 401.774 259.386 402.361 260.252C402.422 260.342 402.487 260.45 402.558 260.576C402.623 260.693 402.684 260.804 402.741 260.91L396.21 265.334L395.289 263.974L400.595 260.381L399.971 261.391C399.688 260.973 399.357 260.667 398.978 260.472C398.6 260.278 398.204 260.198 397.79 260.231C397.37 260.254 396.96 260.4 396.562 260.67C396.163 260.94 395.87 261.27 395.683 261.658C395.499 262.03 395.43 262.433 395.476 262.866C395.516 263.29 395.681 263.716 395.971 264.144L396.214 264.503C396.511 264.941 396.869 265.266 397.288 265.476C397.71 265.67 398.156 265.738 398.626 265.682C399.099 265.608 399.575 265.409 400.053 265.085C400.482 264.795 400.811 264.477 401.043 264.132C401.284 263.78 401.451 263.383 401.545 262.942L403.696 263.447C403.611 264.115 403.367 264.752 402.964 265.359C402.555 265.957 401.986 266.501 401.259 266.994Z" fill="#0C2766"/>
<path d="M603.455 330.762C600.739 330.762 598.434 330.228 596.538 329.159C594.649 328.06 593.3 326.548 592.492 324.625C591.715 322.701 591.586 320.518 592.105 318.076C592.63 315.602 593.688 313.419 595.276 311.526C596.902 309.603 598.89 308.106 601.24 307.038C603.596 305.939 606.132 305.389 608.848 305.389C611.501 305.389 613.695 305.939 615.427 307.038C617.167 308.106 618.291 309.648 618.799 311.664L612.5 314.641C612.091 313.48 611.446 312.625 610.564 312.076C609.713 311.526 608.71 311.251 607.555 311.251C606.307 311.251 605.124 311.526 604.009 312.076C602.893 312.625 601.932 313.404 601.124 314.412C600.348 315.419 599.808 316.64 599.503 318.076C599.198 319.511 599.219 320.732 599.567 321.739C599.946 322.747 600.576 323.526 601.458 324.075C602.34 324.625 603.406 324.9 604.654 324.9C605.809 324.9 606.926 324.64 608.004 324.121C609.119 323.571 610.132 322.701 611.04 321.51L616.063 324.533C614.705 326.518 612.926 328.06 610.725 329.159C608.532 330.228 606.108 330.762 603.455 330.762ZM630.611 330.762C627.927 330.762 625.656 330.212 623.798 329.113C621.971 328.014 620.651 326.518 619.836 324.625C619.058 322.701 618.929 320.518 619.448 318.076C619.974 315.602 621.031 313.419 622.62 311.526C624.246 309.603 626.203 308.106 628.49 307.038C630.815 305.939 633.32 305.389 636.005 305.389C638.658 305.389 640.913 305.939 642.771 307.038C644.635 308.106 645.959 309.587 646.743 311.48C647.527 313.373 647.653 315.572 647.121 318.076C646.601 320.518 645.544 322.701 643.949 324.625C642.361 326.518 640.404 328.014 638.079 329.113C635.754 330.212 633.265 330.762 630.611 330.762ZM631.857 324.9C633.075 324.9 634.226 324.625 635.31 324.075C636.395 323.526 637.325 322.747 638.101 321.739C638.884 320.701 639.424 319.48 639.723 318.076C640.028 316.64 640.006 315.419 639.659 314.412C639.311 313.404 638.712 312.625 637.861 312.076C637.01 311.526 635.976 311.251 634.758 311.251C633.541 311.251 632.39 311.526 631.306 312.076C630.221 312.625 629.275 313.404 628.468 314.412C627.692 315.419 627.151 316.64 626.846 318.076C626.548 319.48 626.569 320.701 626.91 321.739C627.289 322.747 627.904 323.526 628.755 324.075C629.606 324.625 630.64 324.9 631.857 324.9Z" fill="#0C2766"/>
<path d="M531.518 263.33H586.712L582.422 283.516H527.228L531.518 263.33ZM523.677 309.468H586.077L581.65 330.295H492.881L516.718 218.154H603.357L598.931 238.98H538.66L523.677 309.468Z" fill="#0C2766"/>
<path d="M652.311 217.593C652.311 217.593 658.882 249.408 643.149 272.197C627.416 294.986 595.337 300.118 595.337 300.118C595.337 300.118 588.766 268.302 604.499 245.513C620.232 222.725 652.311 217.593 652.311 217.593Z" fill="#2BC20E"/>
<path d="M674.072 246.439C674.072 246.439 668.922 276.901 647.119 291.671C625.316 306.441 595.117 299.925 595.117 299.925C595.117 299.925 600.266 269.462 622.069 254.693C643.872 239.923 674.072 246.439 674.072 246.439Z" fill="#39FF13"/>
<path d="M618.405 291.104L611.319 280.643L616.072 277.424C617.207 276.654 618.357 276.195 619.521 276.047C620.678 275.888 621.764 276.032 622.778 276.478C623.793 276.925 624.661 277.681 625.383 278.747C626.098 279.803 626.478 280.89 626.523 282.008C626.561 283.116 626.296 284.182 625.726 285.208C625.149 286.223 624.293 287.116 623.157 287.885L618.405 291.104ZM619.479 287.476L621.691 285.978C622.389 285.506 622.904 284.968 623.236 284.365C623.572 283.745 623.714 283.097 623.663 282.419C623.621 281.736 623.377 281.065 622.932 280.407C622.48 279.74 621.947 279.265 621.335 278.982C620.725 278.683 620.073 278.579 619.38 278.671C618.689 278.746 617.996 279.02 617.298 279.492L615.086 280.99L619.479 287.476ZM630.587 282.853L625.141 274.812L627.368 273.304L628.907 275.576L628.148 275.131C628.002 274.401 628.095 273.713 628.428 273.066C628.753 272.409 629.295 271.825 630.052 271.312L631.51 273.464C631.403 273.521 631.31 273.577 631.23 273.631C631.144 273.675 631.056 273.728 630.966 273.788C630.329 274.22 629.935 274.755 629.787 275.394C629.641 276.016 629.828 276.71 630.348 277.478L632.919 281.273L630.587 282.853ZM636.98 278.523L631.534 270.483L633.865 268.904L639.311 276.944L636.98 278.523ZM631.94 268.572C631.512 268.862 631.079 268.974 630.641 268.907C630.203 268.84 629.86 268.623 629.61 268.254C629.36 267.885 629.286 267.485 629.386 267.054C629.486 266.623 629.751 266.262 630.179 265.972C630.608 265.682 631.037 265.565 631.468 265.622C631.892 265.669 632.229 265.877 632.479 266.245C632.742 266.634 632.827 267.049 632.733 267.49C632.643 267.915 632.379 268.275 631.94 268.572ZM643.657 274.001L634.833 268.248L637.239 266.618L644.736 271.635L643.54 272.444L641.768 263.551L644.009 262.033L646.063 272.371L643.657 274.001ZM654.259 266.994C653.342 267.615 652.414 267.982 651.473 268.096C650.543 268.203 649.679 268.076 648.882 267.714C648.079 267.343 647.407 266.759 646.867 265.962C646.32 265.155 646.022 264.318 645.972 263.45C645.926 262.566 646.108 261.73 646.52 260.943C646.924 260.146 647.535 259.47 648.352 258.917C649.139 258.384 649.961 258.074 650.819 257.988C651.679 257.885 652.506 258.022 653.3 258.4C654.087 258.768 654.774 259.386 655.361 260.252C655.422 260.342 655.487 260.45 655.558 260.576C655.623 260.693 655.684 260.804 655.741 260.91L649.21 265.334L648.289 263.974L653.595 260.381L652.971 261.391C652.688 260.973 652.357 260.667 651.978 260.472C651.6 260.278 651.204 260.198 650.79 260.231C650.37 260.254 649.96 260.4 649.562 260.67C649.163 260.94 648.87 261.27 648.683 261.658C648.499 262.03 648.43 262.433 648.476 262.866C648.516 263.29 648.681 263.716 648.971 264.144L649.214 264.503C649.511 264.941 649.869 265.266 650.288 265.476C650.71 265.67 651.156 265.738 651.626 265.682C652.099 265.608 652.575 265.409 653.053 265.085C653.482 264.795 653.811 264.477 654.043 264.132C654.284 263.78 654.451 263.383 654.545 262.942L656.696 263.447C656.611 264.115 656.367 264.752 655.964 265.359C655.555 265.957 654.986 266.501 654.259 266.994Z" fill="#0C2766"/>
<rect x="481" y="436" width="872" height="277" rx="25" fill="black"/>
<path d="M577 597.324L589.947 656.809L601.937 609.152L840.619 569.965C840.619 569.965 879.887 521.206 917.5 504.376C955.113 487.546 1060.64 529.93 1131.55 578.277L1245.13 546.939L1188.55 599.91L1219.16 646.464C1217.11 628.19 1214.61 618.167 1201.03 599.91L1258 540.425L1136.3 553.357C1086.64 522.048 1023.29 502.4 988.707 496.458C954.124 490.515 935.317 490.513 916.205 496.458C897.094 502.403 863.783 524.773 825.578 553.357L577 597.324Z" fill="white"/>
<path d="M932.058 555.716L827.392 553.86L819.248 573.528L932.058 555.716Z" fill="white"/>
<path d="M1179.05 600.32L1074.38 598.465L1066.24 618.132L1179.05 600.32Z" fill="white"/>
<path d="M765.59 656.808C763.592 598.068 712.845 583.057 683.893 590.362L691.811 583.561C710.63 572.89 776.039 580.066 787.184 638.839L994.698 656.808H765.59Z" fill="white"/>
<g clip-path="url(#clip0_230_4481)">
<circle cx="1075.74" cy="657.839" r="59.3736" fill="white"/>
</g>
<g clip-path="url(#clip1_230_4481)">
<rect x="157" y="436" width="300" height="277" rx="25" fill="white"/>
<path d="M239.64 713L291.055 597.645H317.422L369.002 713H340.987L298.8 611.158H309.347L266.995 713H239.64ZM265.347 688.281L272.433 668.012H331.759L339.01 688.281H265.347ZM433.539 713V695.697L431.891 691.907V660.926C431.891 655.432 430.188 651.148 426.782 648.072C423.486 644.996 418.378 643.458 411.456 643.458C406.732 643.458 402.063 644.227 397.449 645.765C392.945 647.193 389.1 649.17 385.914 651.697L376.685 633.735C381.519 630.329 387.342 627.692 394.153 625.825C400.965 623.957 407.886 623.023 414.917 623.023C428.43 623.023 438.922 626.209 446.393 632.581C453.863 638.953 457.598 648.896 457.598 662.409V713H433.539ZM406.513 714.318C399.591 714.318 393.659 713.165 388.715 710.858C383.771 708.441 379.981 705.2 377.344 701.135C374.708 697.07 373.389 692.511 373.389 687.457C373.389 682.184 374.653 677.57 377.18 673.615C379.816 669.66 383.936 666.583 389.539 664.386C395.142 662.079 402.448 660.926 411.456 660.926H435.022V675.922H414.258C408.216 675.922 404.041 676.91 401.734 678.888C399.536 680.865 398.438 683.337 398.438 686.304C398.438 689.599 399.701 692.236 402.228 694.214C404.865 696.081 408.435 697.015 412.94 697.015C417.224 697.015 421.069 696.026 424.475 694.049C427.881 691.961 430.353 688.94 431.891 684.985L435.846 696.85C433.978 702.563 430.572 706.903 425.629 709.869C420.685 712.835 414.313 714.318 406.513 714.318Z" fill="black"/>
<path d="M178.656 483V460.6H182.944L192.48 476.408H190.208L199.584 460.6H203.84L203.904 483H199.04L199.008 468.056H199.904L192.416 480.632H190.08L182.432 468.056H183.52V483H178.656ZM217.059 483.256C215.224 483.256 213.592 482.872 212.163 482.104C210.755 481.336 209.635 480.291 208.803 478.968C207.992 477.624 207.587 476.099 207.587 474.392C207.587 472.664 207.992 471.139 208.803 469.816C209.635 468.472 210.755 467.427 212.163 466.68C213.592 465.912 215.224 465.528 217.059 465.528C218.872 465.528 220.493 465.912 221.923 466.68C223.352 467.427 224.472 468.461 225.283 469.784C226.093 471.107 226.499 472.643 226.499 474.392C226.499 476.099 226.093 477.624 225.283 478.968C224.472 480.291 223.352 481.336 221.923 482.104C220.493 482.872 218.872 483.256 217.059 483.256ZM217.059 479.16C217.891 479.16 218.637 478.968 219.299 478.584C219.96 478.2 220.483 477.656 220.867 476.952C221.251 476.227 221.443 475.373 221.443 474.392C221.443 473.389 221.251 472.536 220.867 471.832C220.483 471.128 219.96 470.584 219.299 470.2C218.637 469.816 217.891 469.624 217.059 469.624C216.227 469.624 215.48 469.816 214.819 470.2C214.157 470.584 213.624 471.128 213.219 471.832C212.835 472.536 212.643 473.389 212.643 474.392C212.643 475.373 212.835 476.227 213.219 476.952C213.624 477.656 214.157 478.2 214.819 478.584C215.48 478.968 216.227 479.16 217.059 479.16ZM240.299 465.528C241.665 465.528 242.881 465.805 243.947 466.36C245.035 466.893 245.889 467.725 246.507 468.856C247.126 469.965 247.435 471.395 247.435 473.144V483H242.443V473.912C242.443 472.525 242.134 471.501 241.515 470.84C240.918 470.179 240.065 469.848 238.955 469.848C238.166 469.848 237.451 470.019 236.811 470.36C236.193 470.68 235.702 471.181 235.339 471.864C234.998 472.547 234.827 473.421 234.827 474.488V483H229.835V465.784H234.603V470.552L233.707 469.112C234.326 467.96 235.211 467.075 236.363 466.456C237.515 465.837 238.827 465.528 240.299 465.528ZM259 483.256C256.974 483.256 255.395 482.744 254.264 481.72C253.134 480.675 252.568 479.128 252.568 477.08V461.976H257.56V477.016C257.56 477.741 257.752 478.307 258.136 478.712C258.52 479.096 259.043 479.288 259.704 479.288C260.494 479.288 261.166 479.075 261.72 478.648L263.064 482.168C262.552 482.531 261.934 482.808 261.208 483C260.504 483.171 259.768 483.256 259 483.256ZM249.912 470.008V466.168H261.848V470.008H249.912ZM271.659 483.256C270.187 483.256 268.768 483.085 267.403 482.744C266.059 482.381 264.992 481.933 264.203 481.4L265.867 477.816C266.656 478.307 267.584 478.712 268.651 479.032C269.739 479.331 270.805 479.48 271.851 479.48C273.003 479.48 273.813 479.341 274.283 479.064C274.773 478.787 275.019 478.403 275.019 477.912C275.019 477.507 274.827 477.208 274.443 477.016C274.08 476.803 273.589 476.643 272.97 476.536C272.352 476.429 271.669 476.323 270.923 476.216C270.197 476.109 269.461 475.971 268.715 475.8C267.968 475.608 267.285 475.331 266.667 474.968C266.048 474.605 265.547 474.115 265.163 473.496C264.8 472.877 264.618 472.077 264.618 471.096C264.618 470.008 264.928 469.048 265.547 468.216C266.187 467.384 267.104 466.733 268.299 466.264C269.493 465.773 270.923 465.528 272.587 465.528C273.76 465.528 274.955 465.656 276.171 465.912C277.387 466.168 278.4 466.541 279.211 467.032L277.547 470.584C276.715 470.093 275.872 469.763 275.019 469.592C274.187 469.4 273.376 469.304 272.587 469.304C271.477 469.304 270.667 469.453 270.155 469.752C269.643 470.051 269.387 470.435 269.387 470.904C269.387 471.331 269.568 471.651 269.931 471.864C270.315 472.077 270.816 472.248 271.435 472.376C272.053 472.504 272.725 472.621 273.451 472.728C274.197 472.813 274.944 472.952 275.691 473.144C276.437 473.336 277.109 473.613 277.707 473.976C278.325 474.317 278.827 474.797 279.211 475.416C279.595 476.013 279.787 476.803 279.787 477.784C279.787 478.851 279.467 479.8 278.827 480.632C278.187 481.443 277.259 482.083 276.043 482.552C274.848 483.021 273.387 483.256 271.659 483.256ZM291.411 483.256C289.448 483.256 287.72 482.872 286.227 482.104C284.755 481.336 283.613 480.291 282.803 478.968C281.992 477.624 281.587 476.099 281.587 474.392C281.587 472.664 281.981 471.139 282.771 469.816C283.581 468.472 284.68 467.427 286.067 466.68C287.453 465.912 289.021 465.528 290.771 465.528C292.456 465.528 293.971 465.891 295.315 466.616C296.68 467.32 297.757 468.344 298.547 469.688C299.336 471.011 299.731 472.6 299.731 474.456C299.731 474.648 299.72 474.872 299.699 475.128C299.677 475.363 299.656 475.587 299.635 475.8H285.651V472.888H297.01L295.091 473.752C295.091 472.856 294.909 472.077 294.547 471.416C294.184 470.755 293.683 470.243 293.043 469.88C292.403 469.496 291.656 469.304 290.803 469.304C289.949 469.304 289.192 469.496 288.531 469.88C287.891 470.243 287.389 470.765 287.027 471.448C286.664 472.109 286.483 472.899 286.483 473.816V474.584C286.483 475.523 286.685 476.355 287.091 477.08C287.517 477.784 288.104 478.328 288.851 478.712C289.619 479.075 290.515 479.256 291.539 479.256C292.456 479.256 293.256 479.117 293.939 478.84C294.643 478.563 295.283 478.147 295.859 477.592L298.515 480.472C297.725 481.368 296.733 482.061 295.539 482.552C294.344 483.021 292.968 483.256 291.411 483.256ZM303.054 483V465.784H307.822V470.648L307.15 469.24C307.662 468.024 308.483 467.107 309.614 466.488C310.745 465.848 312.121 465.528 313.742 465.528V470.136C313.529 470.115 313.337 470.104 313.166 470.104C312.995 470.083 312.814 470.072 312.622 470.072C311.257 470.072 310.147 470.467 309.294 471.256C308.462 472.024 308.046 473.229 308.046 474.872V483H303.054ZM316.742 483V465.784H321.51V470.648L320.838 469.24C321.35 468.024 322.171 467.107 323.302 466.488C324.432 465.848 325.808 465.528 327.43 465.528V470.136C327.216 470.115 327.024 470.104 326.854 470.104C326.683 470.083 326.502 470.072 326.31 470.072C324.944 470.072 323.835 470.467 322.982 471.256C322.15 472.024 321.734 473.229 321.734 474.872V483H316.742ZM339.833 483V479.64L339.513 478.904V472.888C339.513 471.821 339.182 470.989 338.521 470.392C337.881 469.795 336.889 469.496 335.545 469.496C334.627 469.496 333.721 469.645 332.825 469.944C331.95 470.221 331.203 470.605 330.585 471.096L328.793 467.608C329.731 466.947 330.862 466.435 332.185 466.072C333.507 465.709 334.851 465.528 336.217 465.528C338.841 465.528 340.878 466.147 342.329 467.384C343.779 468.621 344.505 470.552 344.505 473.176V483H339.833ZM334.585 483.256C333.241 483.256 332.089 483.032 331.129 482.584C330.169 482.115 329.433 481.485 328.921 480.696C328.409 479.907 328.153 479.021 328.153 478.04C328.153 477.016 328.398 476.12 328.889 475.352C329.401 474.584 330.201 473.987 331.289 473.56C332.377 473.112 333.795 472.888 335.545 472.888H340.121V475.8H336.089C334.915 475.8 334.105 475.992 333.657 476.376C333.23 476.76 333.017 477.24 333.017 477.816C333.017 478.456 333.262 478.968 333.753 479.352C334.265 479.715 334.958 479.896 335.833 479.896C336.665 479.896 337.411 479.704 338.073 479.32C338.734 478.915 339.214 478.328 339.513 477.56L340.281 479.864C339.918 480.973 339.257 481.816 338.297 482.392C337.337 482.968 336.099 483.256 334.585 483.256ZM356.063 483.256C354.036 483.256 352.457 482.744 351.327 481.72C350.196 480.675 349.631 479.128 349.631 477.08V461.976H354.623V477.016C354.623 477.741 354.815 478.307 355.199 478.712C355.583 479.096 356.105 479.288 356.767 479.288C357.556 479.288 358.228 479.075 358.783 478.648L360.127 482.168C359.615 482.531 358.996 482.808 358.271 483C357.567 483.171 356.831 483.256 356.063 483.256ZM346.975 470.008V466.168H358.911V470.008H346.975Z" fill="black"/>
<path d="M176.024 503L179.864 494.6H180.74L184.58 503H183.644L180.116 495.116H180.476L176.948 503H176.024ZM177.536 500.756L177.8 500.036H182.684L182.948 500.756H177.536ZM185.97 503V494.6H189.594C190.53 494.6 191.254 494.788 191.766 495.164C192.286 495.54 192.546 496.072 192.546 496.76C192.546 497.216 192.438 497.6 192.222 497.912C192.014 498.224 191.726 498.46 191.358 498.62C190.998 498.78 190.602 498.86 190.17 498.86L190.374 498.572C190.91 498.572 191.37 498.656 191.754 498.824C192.146 498.984 192.45 499.228 192.666 499.556C192.882 499.876 192.99 500.276 192.99 500.756C192.99 501.468 192.726 502.02 192.198 502.412C191.678 502.804 190.89 503 189.834 503H185.97ZM186.858 502.268H189.822C190.558 502.268 191.122 502.144 191.514 501.896C191.906 501.64 192.102 501.236 192.102 500.684C192.102 500.14 191.906 499.744 191.514 499.496C191.122 499.24 190.558 499.112 189.822 499.112H186.762V498.38H189.534C190.206 498.38 190.726 498.252 191.094 497.996C191.47 497.74 191.658 497.36 191.658 496.856C191.658 496.344 191.47 495.964 191.094 495.716C190.726 495.46 190.206 495.332 189.534 495.332H186.858V502.268ZM198.664 503.072C198.032 503.072 197.448 502.968 196.912 502.76C196.376 502.544 195.912 502.244 195.52 501.86C195.128 501.476 194.82 501.024 194.596 500.504C194.38 499.984 194.272 499.416 194.272 498.8C194.272 498.184 194.38 497.616 194.596 497.096C194.82 496.576 195.128 496.124 195.52 495.74C195.92 495.356 196.388 495.06 196.924 494.852C197.46 494.636 198.044 494.528 198.676 494.528C199.284 494.528 199.856 494.632 200.392 494.84C200.928 495.04 201.38 495.344 201.748 495.752L201.184 496.316C200.84 495.964 200.46 495.712 200.044 495.56C199.628 495.4 199.18 495.32 198.7 495.32C198.196 495.32 197.728 495.408 197.296 495.584C196.864 495.752 196.488 495.996 196.168 496.316C195.848 496.628 195.596 496.996 195.412 497.42C195.236 497.836 195.148 498.296 195.148 498.8C195.148 499.304 195.236 499.768 195.412 500.192C195.596 500.608 195.848 500.976 196.168 501.296C196.488 501.608 196.864 501.852 197.296 502.028C197.728 502.196 198.196 502.28 198.7 502.28C199.18 502.28 199.628 502.2 200.044 502.04C200.46 501.88 200.84 501.624 201.184 501.272L201.748 501.836C201.38 502.244 200.928 502.552 200.392 502.76C199.856 502.968 199.28 503.072 198.664 503.072ZM203.641 503V494.6H207.061C207.957 494.6 208.741 494.78 209.413 495.14C210.093 495.492 210.621 495.984 210.997 496.616C211.373 497.248 211.561 497.976 211.561 498.8C211.561 499.624 211.373 500.352 210.997 500.984C210.621 501.616 210.093 502.112 209.413 502.472C208.741 502.824 207.957 503 207.061 503H203.641ZM204.529 502.232H207.013C207.757 502.232 208.401 502.088 208.945 501.8C209.497 501.504 209.925 501.1 210.229 500.588C210.533 500.068 210.685 499.472 210.685 498.8C210.685 498.12 210.533 497.524 210.229 497.012C209.925 496.5 209.497 496.1 208.945 495.812C208.401 495.516 207.757 495.368 207.013 495.368H204.529V502.232ZM214.348 498.356H218.788V499.112H214.348V498.356ZM214.444 502.232H219.496V503H213.556V494.6H219.316V495.368H214.444V502.232ZM222.375 498.668H226.815V499.436H222.375V498.668ZM222.471 503H221.583V494.6H227.343V495.368H222.471V503ZM232.755 503.072C232.115 503.072 231.523 502.968 230.979 502.76C230.443 502.544 229.975 502.244 229.575 501.86C229.183 501.476 228.875 501.024 228.651 500.504C228.435 499.984 228.327 499.416 228.327 498.8C228.327 498.184 228.435 497.616 228.651 497.096C228.875 496.576 229.187 496.124 229.587 495.74C229.987 495.356 230.455 495.06 230.991 494.852C231.535 494.636 232.127 494.528 232.767 494.528C233.407 494.528 233.991 494.628 234.519 494.828C235.055 495.028 235.511 495.332 235.887 495.74L235.335 496.304C234.983 495.952 234.595 495.7 234.171 495.548C233.747 495.396 233.291 495.32 232.803 495.32C232.283 495.32 231.803 495.408 231.363 495.584C230.931 495.752 230.551 495.996 230.223 496.316C229.903 496.628 229.651 496.996 229.467 497.42C229.291 497.836 229.203 498.296 229.203 498.8C229.203 499.296 229.291 499.756 229.467 500.18C229.651 500.604 229.903 500.976 230.223 501.296C230.551 501.608 230.931 501.852 231.363 502.028C231.803 502.196 232.279 502.28 232.791 502.28C233.271 502.28 233.723 502.208 234.147 502.064C234.579 501.92 234.975 501.676 235.335 501.332L235.839 502.004C235.439 502.356 234.971 502.624 234.435 502.808C233.899 502.984 233.339 503.072 232.755 503.072ZM234.987 501.896V498.8H235.839V502.004L234.987 501.896ZM244.496 494.6H245.372V503H244.496V494.6ZM239.24 503H238.352V494.6H239.24V503ZM244.58 499.124H239.144V498.344H244.58V499.124ZM248.114 503V494.6H249.002V503H248.114ZM252.635 503.072C252.163 503.072 251.719 502.968 251.303 502.76C250.895 502.552 250.567 502.256 250.319 501.872L250.835 501.272C251.067 501.608 251.335 501.864 251.639 502.04C251.943 502.216 252.279 502.304 252.647 502.304C253.687 502.304 254.207 501.688 254.207 500.456V495.368H251.135V494.6H255.083V500.42C255.083 501.308 254.875 501.972 254.459 502.412C254.051 502.852 253.443 503.072 252.635 503.072ZM258.515 500.912L258.479 499.832L263.567 494.6H264.587L260.879 498.488L260.375 499.028L258.515 500.912ZM257.747 503V494.6H258.635V503H257.747ZM263.783 503L260.159 498.824L260.759 498.176L264.839 503H263.783ZM266.278 503V494.6H267.166V502.232H271.87V503H266.278ZM273.345 503V494.6H274.077L277.917 501.152H277.533L281.337 494.6H282.069V503H281.217V495.932H281.421L277.917 501.932H277.497L273.969 495.932H274.197V503H273.345ZM284.806 503V494.6H285.538L291.334 501.896H290.95V494.6H291.826V503H291.094L285.31 495.704H285.694V503H284.806ZM298.239 503.072C297.607 503.072 297.019 502.968 296.475 502.76C295.939 502.544 295.471 502.244 295.071 501.86C294.679 501.468 294.371 501.016 294.147 500.504C293.931 499.984 293.823 499.416 293.823 498.8C293.823 498.184 293.931 497.62 294.147 497.108C294.371 496.588 294.679 496.136 295.071 495.752C295.471 495.36 295.939 495.06 296.475 494.852C297.011 494.636 297.599 494.528 298.239 494.528C298.871 494.528 299.455 494.636 299.991 494.852C300.527 495.06 300.991 495.356 301.383 495.74C301.783 496.124 302.091 496.576 302.307 497.096C302.531 497.616 302.643 498.184 302.643 498.8C302.643 499.416 302.531 499.984 302.307 500.504C302.091 501.024 301.783 501.476 301.383 501.86C300.991 502.244 300.527 502.544 299.991 502.76C299.455 502.968 298.871 503.072 298.239 503.072ZM298.239 502.28C298.743 502.28 299.207 502.196 299.631 502.028C300.063 501.852 300.435 501.608 300.747 501.296C301.067 500.976 301.315 500.608 301.491 500.192C301.667 499.768 301.755 499.304 301.755 498.8C301.755 498.296 301.667 497.836 301.491 497.42C301.315 496.996 301.067 496.628 300.747 496.316C300.435 495.996 300.063 495.752 299.631 495.584C299.207 495.408 298.743 495.32 298.239 495.32C297.735 495.32 297.267 495.408 296.835 495.584C296.403 495.752 296.027 495.996 295.707 496.316C295.395 496.628 295.147 496.996 294.963 497.42C294.787 497.836 294.699 498.296 294.699 498.8C294.699 499.296 294.787 499.756 294.963 500.18C295.147 500.604 295.395 500.976 295.707 501.296C296.027 501.608 296.403 501.852 296.835 502.028C297.267 502.196 297.735 502.28 298.239 502.28ZM304.634 503V494.6H307.778C308.49 494.6 309.102 494.716 309.614 494.948C310.126 495.172 310.518 495.5 310.79 495.932C311.07 496.356 311.21 496.872 311.21 497.48C311.21 498.072 311.07 498.584 310.79 499.016C310.518 499.44 310.126 499.768 309.614 500C309.102 500.232 308.49 500.348 307.778 500.348H305.126L305.522 499.928V503H304.634ZM305.522 500L305.126 499.568H307.754C308.594 499.568 309.23 499.388 309.662 499.028C310.102 498.66 310.322 498.144 310.322 497.48C310.322 496.808 310.102 496.288 309.662 495.92C309.23 495.552 308.594 495.368 307.754 495.368H305.126L305.522 494.948V500ZM316.919 503.072C316.287 503.072 315.699 502.968 315.155 502.76C314.619 502.544 314.151 502.244 313.751 501.86C313.359 501.468 313.051 501.016 312.827 500.504C312.611 499.984 312.503 499.416 312.503 498.8C312.503 498.184 312.611 497.62 312.827 497.108C313.051 496.588 313.359 496.136 313.751 495.752C314.151 495.36 314.619 495.06 315.155 494.852C315.691 494.636 316.279 494.528 316.919 494.528C317.551 494.528 318.135 494.636 318.671 494.852C319.207 495.06 319.671 495.356 320.063 495.74C320.463 496.124 320.771 496.576 320.987 497.096C321.211 497.616 321.323 498.184 321.323 498.8C321.323 499.416 321.211 499.984 320.987 500.504C320.771 501.024 320.463 501.476 320.063 501.86C319.671 502.244 319.207 502.544 318.671 502.76C318.135 502.968 317.551 503.072 316.919 503.072ZM319.667 504.668C319.411 504.668 319.163 504.636 318.923 504.572C318.683 504.508 318.439 504.404 318.191 504.26C317.951 504.124 317.703 503.944 317.447 503.72C317.191 503.496 316.911 503.224 316.607 502.904L317.579 502.664C317.827 502.96 318.067 503.204 318.299 503.396C318.539 503.588 318.771 503.728 318.995 503.816C319.227 503.912 319.455 503.96 319.679 503.96C320.303 503.96 320.835 503.704 321.275 503.192L321.707 503.708C321.179 504.348 320.499 504.668 319.667 504.668ZM316.919 502.28C317.423 502.28 317.887 502.196 318.311 502.028C318.743 501.852 319.115 501.604 319.427 501.284C319.747 500.964 319.995 500.596 320.171 500.18C320.347 499.756 320.435 499.296 320.435 498.8C320.435 498.296 320.347 497.836 320.171 497.42C319.995 496.996 319.747 496.628 319.427 496.316C319.115 495.996 318.743 495.752 318.311 495.584C317.887 495.408 317.423 495.32 316.919 495.32C316.415 495.32 315.947 495.408 315.515 495.584C315.083 495.752 314.707 495.996 314.387 496.316C314.075 496.628 313.827 496.996 313.643 497.42C313.467 497.836 313.379 498.296 313.379 498.8C313.379 499.296 313.467 499.756 313.643 500.18C313.827 500.596 314.075 500.964 314.387 501.284C314.707 501.604 315.083 501.852 315.515 502.028C315.947 502.196 316.415 502.28 316.919 502.28ZM323.313 503V494.6H326.457C327.169 494.6 327.781 494.716 328.293 494.948C328.805 495.172 329.197 495.5 329.469 495.932C329.749 496.356 329.889 496.872 329.889 497.48C329.889 498.072 329.749 498.584 329.469 499.016C329.197 499.44 328.805 499.768 328.293 500C327.781 500.224 327.169 500.336 326.457 500.336H323.805L324.201 499.928V503H323.313ZM329.049 503L326.889 499.952H327.849L330.021 503H329.049ZM324.201 500L323.805 499.58H326.433C327.273 499.58 327.909 499.396 328.341 499.028C328.781 498.66 329.001 498.144 329.001 497.48C329.001 496.808 328.781 496.288 328.341 495.92C327.909 495.552 327.273 495.368 326.433 495.368H323.805L324.201 494.948V500ZM334.301 503.072C333.677 503.072 333.077 502.972 332.501 502.772C331.933 502.564 331.493 502.3 331.181 501.98L331.529 501.296C331.825 501.584 332.221 501.828 332.717 502.028C333.221 502.22 333.749 502.316 334.301 502.316C334.829 502.316 335.257 502.252 335.585 502.124C335.921 501.988 336.165 501.808 336.317 501.584C336.477 501.36 336.557 501.112 336.557 500.84C336.557 500.512 336.461 500.248 336.269 500.048C336.085 499.848 335.841 499.692 335.537 499.58C335.233 499.46 334.897 499.356 334.529 499.268C334.161 499.18 333.793 499.088 333.425 498.992C333.057 498.888 332.717 498.752 332.405 498.584C332.101 498.416 331.853 498.196 331.661 497.924C331.477 497.644 331.385 497.28 331.385 496.832C331.385 496.416 331.493 496.036 331.709 495.692C331.933 495.34 332.273 495.06 332.729 494.852C333.185 494.636 333.769 494.528 334.481 494.528C334.953 494.528 335.421 494.596 335.885 494.732C336.349 494.86 336.749 495.04 337.085 495.272L336.785 495.98C336.425 495.74 336.041 495.564 335.633 495.452C335.233 495.34 334.845 495.284 334.469 495.284C333.965 495.284 333.549 495.352 333.221 495.488C332.893 495.624 332.649 495.808 332.489 496.04C332.337 496.264 332.261 496.52 332.261 496.808C332.261 497.136 332.353 497.4 332.537 497.6C332.729 497.8 332.977 497.956 333.281 498.068C333.593 498.18 333.933 498.28 334.301 498.368C334.669 498.456 335.033 498.552 335.393 498.656C335.761 498.76 336.097 498.896 336.401 499.064C336.713 499.224 336.961 499.44 337.145 499.712C337.337 499.984 337.433 500.34 337.433 500.78C337.433 501.188 337.321 501.568 337.097 501.92C336.873 502.264 336.529 502.544 336.065 502.76C335.609 502.968 335.021 503.072 334.301 503.072ZM340.883 503V495.368H337.931V494.6H344.723V495.368H341.771V503H340.883ZM349.361 503.072C348.289 503.072 347.445 502.764 346.829 502.148C346.213 501.532 345.905 500.62 345.905 499.412V494.6H346.793V499.376C346.793 500.368 347.017 501.1 347.465 501.572C347.913 502.044 348.545 502.28 349.361 502.28C350.185 502.28 350.821 502.044 351.269 501.572C351.717 501.1 351.941 500.368 351.941 499.376V494.6H352.805V499.412C352.805 500.62 352.497 501.532 351.881 502.148C351.273 502.764 350.433 503.072 349.361 503.072ZM179.756 518L176.036 509.6H176.996L180.476 517.508H179.948L183.452 509.6H184.352L180.632 518H179.756ZM187.655 518L184.823 509.6H185.735L188.387 517.508H187.931L190.667 509.6H191.483L194.183 517.508H193.751L196.427 509.6H197.279L194.447 518H193.511L190.931 510.5H191.171L188.579 518H187.655ZM197.661 518L201.105 513.344V514.028L197.865 509.6H198.885L201.609 513.296L201.213 513.308L203.937 509.6H204.897L201.693 513.968V513.344L205.125 518H204.093L201.189 514.052H201.561L198.681 518H197.661ZM208.341 518V514.88L208.545 515.432L204.981 509.6H205.929L209.061 514.724H208.557L211.689 509.6H212.577L209.013 515.432L209.217 514.88V518H208.341ZM213.126 518V517.388L218.958 510.032L219.054 510.368H213.21V509.6H219.87V510.212L214.05 517.568L213.942 517.232H220.014V518H213.126ZM225.538 518V516.608L225.502 516.38V514.052C225.502 513.516 225.35 513.104 225.046 512.816C224.75 512.528 224.306 512.384 223.714 512.384C223.306 512.384 222.918 512.452 222.55 512.588C222.182 512.724 221.87 512.904 221.614 513.128L221.23 512.492C221.55 512.22 221.934 512.012 222.382 511.868C222.83 511.716 223.302 511.64 223.798 511.64C224.614 511.64 225.242 511.844 225.682 512.252C226.13 512.652 226.354 513.264 226.354 514.088V518H225.538ZM223.366 518.06C222.894 518.06 222.482 517.984 222.13 517.832C221.786 517.672 221.522 517.456 221.338 517.184C221.154 516.904 221.062 516.584 221.062 516.224C221.062 515.896 221.138 515.6 221.29 515.336C221.45 515.064 221.706 514.848 222.058 514.688C222.418 514.52 222.898 514.436 223.498 514.436H225.67V515.072H223.522C222.914 515.072 222.49 515.18 222.25 515.396C222.018 515.612 221.902 515.88 221.902 516.2C221.902 516.56 222.042 516.848 222.322 517.064C222.602 517.28 222.994 517.388 223.498 517.388C223.978 517.388 224.39 517.28 224.734 517.064C225.086 516.84 225.342 516.52 225.502 516.104L225.694 516.692C225.534 517.108 225.254 517.44 224.854 517.688C224.462 517.936 223.966 518.06 223.366 518.06ZM231.92 518.06C231.368 518.06 230.872 517.936 230.432 517.688C229.992 517.432 229.644 517.064 229.388 516.584C229.132 516.104 229.004 515.524 229.004 514.844C229.004 514.156 229.132 513.576 229.388 513.104C229.652 512.624 230.004 512.26 230.444 512.012C230.884 511.764 231.376 511.64 231.92 511.64C232.52 511.64 233.056 511.776 233.528 512.048C234.008 512.312 234.384 512.684 234.656 513.164C234.928 513.644 235.064 514.204 235.064 514.844C235.064 515.476 234.928 516.036 234.656 516.524C234.384 517.004 234.008 517.38 233.528 517.652C233.056 517.924 232.52 518.06 231.92 518.06ZM228.668 518V509.096H229.52V513.56L229.4 514.832L229.484 516.104V518H228.668ZM231.86 517.304C232.308 517.304 232.708 517.204 233.06 517.004C233.412 516.796 233.692 516.508 233.9 516.14C234.108 515.764 234.212 515.332 234.212 514.844C234.212 514.348 234.108 513.916 233.9 513.548C233.692 513.18 233.412 512.896 233.06 512.696C232.708 512.488 232.308 512.384 231.86 512.384C231.412 512.384 231.008 512.488 230.648 512.696C230.296 512.896 230.016 513.18 229.808 513.548C229.608 513.916 229.508 514.348 229.508 514.844C229.508 515.332 229.608 515.764 229.808 516.14C230.016 516.508 230.296 516.796 230.648 517.004C231.008 517.204 231.412 517.304 231.86 517.304ZM239.417 518.06C238.793 518.06 238.233 517.924 237.737 517.652C237.249 517.372 236.865 516.992 236.585 516.512C236.305 516.024 236.165 515.468 236.165 514.844C236.165 514.212 236.305 513.656 236.585 513.176C236.865 512.696 237.249 512.32 237.737 512.048C238.233 511.776 238.793 511.64 239.417 511.64C239.953 511.64 240.437 511.744 240.869 511.952C241.301 512.16 241.641 512.472 241.889 512.888L241.253 513.32C241.037 513 240.769 512.764 240.449 512.612C240.129 512.46 239.781 512.384 239.405 512.384C238.957 512.384 238.553 512.488 238.193 512.696C237.833 512.896 237.549 513.18 237.341 513.548C237.133 513.916 237.029 514.348 237.029 514.844C237.029 515.34 237.133 515.772 237.341 516.14C237.549 516.508 237.833 516.796 238.193 517.004C238.553 517.204 238.957 517.304 239.405 517.304C239.781 517.304 240.129 517.228 240.449 517.076C240.769 516.924 241.037 516.692 241.253 516.38L241.889 516.812C241.641 517.22 241.301 517.532 240.869 517.748C240.437 517.956 239.953 518.06 239.417 518.06ZM245.966 518.06C245.366 518.06 244.826 517.924 244.346 517.652C243.874 517.38 243.502 517.004 243.23 516.524C242.958 516.036 242.822 515.476 242.822 514.844C242.822 514.204 242.958 513.644 243.23 513.164C243.502 512.684 243.874 512.312 244.346 512.048C244.826 511.776 245.366 511.64 245.966 511.64C246.518 511.64 247.01 511.764 247.442 512.012C247.882 512.26 248.23 512.624 248.486 513.104C248.75 513.576 248.882 514.156 248.882 514.844C248.882 515.524 248.754 516.104 248.498 516.584C248.242 517.064 247.894 517.432 247.454 517.688C247.022 517.936 246.526 518.06 245.966 518.06ZM246.026 517.304C246.474 517.304 246.874 517.204 247.226 517.004C247.586 516.796 247.866 516.508 248.066 516.14C248.274 515.764 248.378 515.332 248.378 514.844C248.378 514.348 248.274 513.916 248.066 513.548C247.866 513.18 247.586 512.896 247.226 512.696C246.874 512.488 246.474 512.384 246.026 512.384C245.586 512.384 245.19 512.488 244.838 512.696C244.486 512.896 244.206 513.18 243.998 513.548C243.79 513.916 243.686 514.348 243.686 514.844C243.686 515.332 243.79 515.764 243.998 516.14C244.206 516.508 244.486 516.796 244.838 517.004C245.19 517.204 245.586 517.304 246.026 517.304ZM248.402 518V516.104L248.486 514.832L248.366 513.56V509.096H249.218V518H248.402ZM254.266 518.06C253.61 518.06 253.034 517.924 252.538 517.652C252.042 517.372 251.654 516.992 251.374 516.512C251.094 516.024 250.954 515.468 250.954 514.844C250.954 514.22 251.086 513.668 251.35 513.188C251.622 512.708 251.99 512.332 252.454 512.06C252.926 511.78 253.454 511.64 254.038 511.64C254.63 511.64 255.154 511.776 255.61 512.048C256.074 512.312 256.438 512.688 256.702 513.176C256.966 513.656 257.098 514.212 257.098 514.844C257.098 514.884 257.094 514.928 257.086 514.976C257.086 515.016 257.086 515.06 257.086 515.108H251.602V514.472H256.63L256.294 514.724C256.294 514.268 256.194 513.864 255.994 513.512C255.802 513.152 255.538 512.872 255.202 512.672C254.866 512.472 254.478 512.372 254.038 512.372C253.606 512.372 253.218 512.472 252.874 512.672C252.53 512.872 252.262 513.152 252.07 513.512C251.878 513.872 251.782 514.284 251.782 514.748V514.88C251.782 515.36 251.886 515.784 252.094 516.152C252.31 516.512 252.606 516.796 252.982 517.004C253.366 517.204 253.802 517.304 254.29 517.304C254.674 517.304 255.03 517.236 255.358 517.1C255.694 516.964 255.982 516.756 256.222 516.476L256.702 517.028C256.422 517.364 256.07 517.62 255.646 517.796C255.23 517.972 254.77 518.06 254.266 518.06ZM258.977 518V510.908C258.977 510.348 259.141 509.896 259.469 509.552C259.797 509.208 260.269 509.036 260.885 509.036C261.125 509.036 261.357 509.068 261.581 509.132C261.805 509.196 261.993 509.296 262.145 509.432L261.857 510.068C261.737 509.964 261.597 509.888 261.437 509.84C261.277 509.784 261.105 509.756 260.921 509.756C260.561 509.756 260.285 509.856 260.093 510.056C259.901 510.256 259.805 510.552 259.805 510.944V511.904L259.829 512.3V518H258.977ZM257.849 512.408V511.7H261.749V512.408H257.849ZM265.481 520.388C264.905 520.388 264.353 520.304 263.825 520.136C263.297 519.968 262.869 519.728 262.541 519.416L262.973 518.768C263.269 519.032 263.633 519.24 264.065 519.392C264.505 519.552 264.969 519.632 265.457 519.632C266.257 519.632 266.845 519.444 267.221 519.068C267.597 518.7 267.785 518.124 267.785 517.34V515.768L267.905 514.688L267.821 513.608V511.7H268.637V517.232C268.637 518.32 268.369 519.116 267.833 519.62C267.305 520.132 266.521 520.388 265.481 520.388ZM265.325 517.76C264.725 517.76 264.185 517.632 263.705 517.376C263.225 517.112 262.845 516.748 262.565 516.284C262.293 515.82 262.157 515.288 262.157 514.688C262.157 514.088 262.293 513.56 262.565 513.104C262.845 512.64 263.225 512.28 263.705 512.024C264.185 511.768 264.725 511.64 265.325 511.64C265.885 511.64 266.389 511.756 266.837 511.988C267.285 512.22 267.641 512.564 267.905 513.02C268.169 513.476 268.301 514.032 268.301 514.688C268.301 515.344 268.169 515.9 267.905 516.356C267.641 516.812 267.285 517.16 266.837 517.4C266.389 517.64 265.885 517.76 265.325 517.76ZM265.409 517.004C265.873 517.004 266.285 516.908 266.645 516.716C267.005 516.516 267.289 516.244 267.497 515.9C267.705 515.548 267.809 515.144 267.809 514.688C267.809 514.232 267.705 513.832 267.497 513.488C267.289 513.144 267.005 512.876 266.645 512.684C266.285 512.484 265.873 512.384 265.409 512.384C264.953 512.384 264.541 512.484 264.173 512.684C263.813 512.876 263.529 513.144 263.321 513.488C263.121 513.832 263.021 514.232 263.021 514.688C263.021 515.144 263.121 515.548 263.321 515.9C263.529 516.244 263.813 516.516 264.173 516.716C264.541 516.908 264.953 517.004 265.409 517.004ZM274.224 511.64C274.736 511.64 275.184 511.74 275.568 511.94C275.96 512.132 276.264 512.428 276.48 512.828C276.704 513.228 276.816 513.732 276.816 514.34V518H275.964V514.424C275.964 513.76 275.796 513.26 275.46 512.924C275.132 512.58 274.668 512.408 274.068 512.408C273.62 512.408 273.228 512.5 272.892 512.684C272.564 512.86 272.308 513.12 272.124 513.464C271.948 513.8 271.86 514.208 271.86 514.688V518H271.008V509.096H271.86V513.428L271.692 513.104C271.892 512.648 272.212 512.292 272.652 512.036C273.092 511.772 273.616 511.64 274.224 511.64ZM279.118 518V511.7H279.97V518H279.118ZM279.55 510.308C279.374 510.308 279.226 510.248 279.106 510.128C278.986 510.008 278.926 509.864 278.926 509.696C278.926 509.528 278.986 509.388 279.106 509.276C279.226 509.156 279.374 509.096 279.55 509.096C279.726 509.096 279.874 509.152 279.994 509.264C280.114 509.376 280.174 509.516 280.174 509.684C280.174 509.86 280.114 510.008 279.994 510.128C279.882 510.248 279.734 510.308 279.55 510.308ZM281.404 520.388C281.148 520.388 280.904 520.352 280.672 520.28C280.432 520.216 280.232 520.116 280.072 519.98L280.372 519.332C280.628 519.548 280.956 519.656 281.356 519.656C281.692 519.656 281.948 519.556 282.124 519.356C282.308 519.156 282.4 518.86 282.4 518.468V511.7H283.252V518.468C283.252 519.052 283.092 519.516 282.772 519.86C282.46 520.212 282.004 520.388 281.404 520.388ZM282.832 510.308C282.656 510.308 282.508 510.248 282.388 510.128C282.268 510.008 282.208 509.864 282.208 509.696C282.208 509.528 282.268 509.388 282.388 509.276C282.508 509.156 282.656 509.096 282.832 509.096C283.008 509.096 283.156 509.152 283.276 509.264C283.396 509.376 283.456 509.516 283.456 509.684C283.456 509.86 283.396 510.008 283.276 510.128C283.164 510.248 283.016 510.308 282.832 510.308ZM286.305 516.368L286.329 515.276L290.253 511.7H291.297L288.525 514.352L288.045 514.76L286.305 516.368ZM285.633 518V509.096H286.485V518H285.633ZM290.517 518L287.889 514.724L288.441 514.064L291.561 518H290.517ZM292.84 518V509.096H293.692V518H292.84ZM303.935 511.64C304.447 511.64 304.891 511.74 305.267 511.94C305.651 512.132 305.947 512.428 306.155 512.828C306.371 513.228 306.479 513.732 306.479 514.34V518H305.627V514.424C305.627 513.76 305.467 513.26 305.147 512.924C304.835 512.58 304.391 512.408 303.815 512.408C303.383 512.408 303.007 512.5 302.687 512.684C302.375 512.86 302.131 513.12 301.955 513.464C301.787 513.8 301.703 514.208 301.703 514.688V518H300.851V514.424C300.851 513.76 300.691 513.26 300.371 512.924C300.051 512.58 299.603 512.408 299.027 512.408C298.603 512.408 298.231 512.5 297.911 512.684C297.591 512.86 297.343 513.12 297.167 513.464C296.999 513.8 296.915 514.208 296.915 514.688V518H296.063V511.7H296.879V513.404L296.747 513.104C296.939 512.648 297.247 512.292 297.671 512.036C298.103 511.772 298.611 511.64 299.195 511.64C299.811 511.64 300.335 511.796 300.767 512.108C301.199 512.412 301.479 512.872 301.607 513.488L301.271 513.356C301.455 512.844 301.779 512.432 302.243 512.12C302.715 511.8 303.279 511.64 303.935 511.64ZM312.006 511.64C312.518 511.64 312.966 511.74 313.35 511.94C313.742 512.132 314.046 512.428 314.262 512.828C314.486 513.228 314.598 513.732 314.598 514.34V518H313.746V514.424C313.746 513.76 313.578 513.26 313.242 512.924C312.914 512.58 312.45 512.408 311.85 512.408C311.402 512.408 311.01 512.5 310.674 512.684C310.346 512.86 310.09 513.12 309.906 513.464C309.73 513.8 309.642 514.208 309.642 514.688V518H308.79V511.7H309.606V513.428L309.474 513.104C309.674 512.648 309.994 512.292 310.434 512.036C310.874 511.772 311.398 511.64 312.006 511.64ZM319.467 518.06C318.859 518.06 318.311 517.924 317.823 517.652C317.343 517.372 316.963 516.992 316.683 516.512C316.403 516.024 316.263 515.468 316.263 514.844C316.263 514.212 316.403 513.656 316.683 513.176C316.963 512.696 317.343 512.32 317.823 512.048C318.303 511.776 318.851 511.64 319.467 511.64C320.091 511.64 320.643 511.776 321.123 512.048C321.611 512.32 321.991 512.696 322.263 513.176C322.543 513.656 322.683 514.212 322.683 514.844C322.683 515.468 322.543 516.024 322.263 516.512C321.991 516.992 321.611 517.372 321.123 517.652C320.635 517.924 320.083 518.06 319.467 518.06ZM319.467 517.304C319.923 517.304 320.327 517.204 320.679 517.004C321.031 516.796 321.307 516.508 321.507 516.14C321.715 515.764 321.819 515.332 321.819 514.844C321.819 514.348 321.715 513.916 321.507 513.548C321.307 513.18 321.031 512.896 320.679 512.696C320.327 512.488 319.927 512.384 319.479 512.384C319.031 512.384 318.631 512.488 318.279 512.696C317.927 512.896 317.647 513.18 317.439 513.548C317.231 513.916 317.127 514.348 317.127 514.844C317.127 515.332 317.231 515.764 317.439 516.14C317.647 516.508 317.927 516.796 318.279 517.004C318.631 517.204 319.027 517.304 319.467 517.304ZM327.674 518.06C327.13 518.06 326.638 517.936 326.198 517.688C325.758 517.432 325.406 517.068 325.142 516.596C324.886 516.116 324.758 515.532 324.758 514.844C324.758 514.156 324.886 513.576 325.142 513.104C325.398 512.624 325.746 512.26 326.186 512.012C326.626 511.764 327.122 511.64 327.674 511.64C328.274 511.64 328.81 511.776 329.282 512.048C329.762 512.312 330.138 512.688 330.41 513.176C330.682 513.656 330.818 514.212 330.818 514.844C330.818 515.484 330.682 516.044 330.41 516.524C330.138 517.004 329.762 517.38 329.282 517.652C328.81 517.924 328.274 518.06 327.674 518.06ZM324.422 520.328V511.7H325.238V513.596L325.154 514.856L325.274 516.128V520.328H324.422ZM327.614 517.304C328.062 517.304 328.462 517.204 328.814 517.004C329.166 516.796 329.446 516.508 329.654 516.14C329.862 515.764 329.966 515.332 329.966 514.844C329.966 514.356 329.862 513.928 329.654 513.56C329.446 513.192 329.166 512.904 328.814 512.696C328.462 512.488 328.062 512.384 327.614 512.384C327.166 512.384 326.762 512.488 326.402 512.696C326.05 512.904 325.77 513.192 325.562 513.56C325.362 513.928 325.262 514.356 325.262 514.844C325.262 515.332 325.362 515.764 325.562 516.14C325.77 516.508 326.05 516.796 326.402 517.004C326.762 517.204 327.166 517.304 327.614 517.304ZM335.063 518.06C334.463 518.06 333.923 517.924 333.443 517.652C332.971 517.38 332.599 517.004 332.327 516.524C332.055 516.044 331.919 515.484 331.919 514.844C331.919 514.212 332.055 513.656 332.327 513.176C332.599 512.688 332.971 512.312 333.443 512.048C333.923 511.776 334.463 511.64 335.063 511.64C335.623 511.64 336.119 511.764 336.551 512.012C336.991 512.26 337.339 512.624 337.595 513.104C337.851 513.576 337.979 514.156 337.979 514.844C337.979 515.532 337.847 516.116 337.583 516.596C337.327 517.068 336.979 517.432 336.539 517.688C336.107 517.936 335.615 518.06 335.063 518.06ZM335.123 517.304C335.571 517.304 335.971 517.204 336.323 517.004C336.683 516.796 336.963 516.508 337.163 516.14C337.371 515.764 337.475 515.332 337.475 514.844C337.475 514.356 337.371 513.928 337.163 513.56C336.963 513.192 336.683 512.904 336.323 512.696C335.971 512.488 335.571 512.384 335.123 512.384C334.683 512.384 334.287 512.488 333.935 512.696C333.583 512.904 333.303 513.192 333.095 513.56C332.887 513.928 332.783 514.356 332.783 514.844C332.783 515.332 332.887 515.764 333.095 516.14C333.303 516.508 333.583 516.796 333.935 517.004C334.287 517.204 334.683 517.304 335.123 517.304ZM337.463 520.328V516.128L337.583 514.856L337.499 513.596V511.7H338.315V520.328H337.463ZM340.688 518V511.7H341.504V513.416L341.42 513.116C341.596 512.636 341.892 512.272 342.308 512.024C342.724 511.768 343.24 511.64 343.856 511.64V512.468C343.824 512.468 343.792 512.468 343.76 512.468C343.728 512.46 343.696 512.456 343.664 512.456C343 512.456 342.48 512.66 342.104 513.068C341.728 513.468 341.54 514.04 341.54 514.784V518H340.688ZM347.173 518.06C346.653 518.06 346.161 517.988 345.697 517.844C345.233 517.692 344.869 517.504 344.605 517.28L344.989 516.608C345.245 516.8 345.573 516.968 345.973 517.112C346.373 517.248 346.793 517.316 347.233 517.316C347.833 517.316 348.265 517.224 348.529 517.04C348.793 516.848 348.925 516.596 348.925 516.284C348.925 516.052 348.849 515.872 348.697 515.744C348.553 515.608 348.361 515.508 348.121 515.444C347.881 515.372 347.613 515.312 347.317 515.264C347.021 515.216 346.725 515.16 346.429 515.096C346.141 515.032 345.877 514.94 345.637 514.82C345.397 514.692 345.201 514.52 345.049 514.304C344.905 514.088 344.833 513.8 344.833 513.44C344.833 513.096 344.929 512.788 345.121 512.516C345.313 512.244 345.593 512.032 345.961 511.88C346.337 511.72 346.793 511.64 347.329 511.64C347.737 511.64 348.145 511.696 348.553 511.808C348.961 511.912 349.297 512.052 349.561 512.228L349.189 512.912C348.909 512.72 348.609 512.584 348.289 512.504C347.969 512.416 347.649 512.372 347.329 512.372C346.761 512.372 346.341 512.472 346.069 512.672C345.805 512.864 345.673 513.112 345.673 513.416C345.673 513.656 345.745 513.844 345.889 513.98C346.041 514.116 346.237 514.224 346.477 514.304C346.725 514.376 346.993 514.436 347.281 514.484C347.577 514.532 347.869 514.592 348.157 514.664C348.453 514.728 348.721 514.82 348.961 514.94C349.209 515.052 349.405 515.216 349.549 515.432C349.701 515.64 349.777 515.916 349.777 516.26C349.777 516.628 349.673 516.948 349.465 517.22C349.265 517.484 348.969 517.692 348.577 517.844C348.193 517.988 347.725 518.06 347.173 518.06ZM353.332 518.06C352.74 518.06 352.284 517.9 351.964 517.58C351.644 517.26 351.484 516.808 351.484 516.224V510.308H352.336V516.176C352.336 516.544 352.428 516.828 352.612 517.028C352.804 517.228 353.076 517.328 353.428 517.328C353.804 517.328 354.116 517.22 354.364 517.004L354.664 517.616C354.496 517.768 354.292 517.88 354.052 517.952C353.82 518.024 353.58 518.06 353.332 518.06ZM350.356 512.408V511.7H354.256V512.408H350.356ZM179.792 533.06C179.256 533.06 178.788 532.96 178.388 532.76C177.988 532.56 177.676 532.26 177.452 531.86C177.236 531.46 177.128 530.96 177.128 530.36V526.7H177.98V530.264C177.98 530.936 178.144 531.444 178.472 531.788C178.808 532.124 179.276 532.292 179.876 532.292C180.316 532.292 180.696 532.204 181.016 532.028C181.344 531.844 181.592 531.58 181.76 531.236C181.936 530.892 182.024 530.48 182.024 530V526.7H182.876V533H182.06V531.272L182.192 531.584C181.992 532.048 181.68 532.412 181.256 532.676C180.84 532.932 180.352 533.06 179.792 533.06ZM186.871 533L184.075 526.7H184.963L187.531 532.544H187.111L189.715 526.7H190.555L187.747 533H186.871ZM192.98 533L190.604 526.7H191.42L193.58 532.544H193.208L195.428 526.7H196.16L198.356 532.544H197.984L200.18 526.7H200.96L198.572 533H197.768L195.656 527.504H195.908L193.784 533H192.98ZM200.919 533L203.583 529.544L203.571 529.964L201.039 526.7H201.999L204.075 529.4L203.715 529.388L205.791 526.7H206.727L204.171 530L204.183 529.544L206.871 533H205.899L203.703 530.12L204.039 530.168L201.879 533H200.919ZM207.974 535.388C207.678 535.388 207.394 535.34 207.122 535.244C206.858 535.148 206.63 535.004 206.438 534.812L206.834 534.176C206.994 534.328 207.166 534.444 207.35 534.524C207.542 534.612 207.754 534.656 207.986 534.656C208.266 534.656 208.506 534.576 208.706 534.416C208.914 534.264 209.11 533.992 209.294 533.6L209.702 532.676L209.798 532.544L212.39 526.7H213.23L210.074 533.756C209.898 534.164 209.702 534.488 209.486 534.728C209.278 534.968 209.05 535.136 208.802 535.232C208.554 535.336 208.278 535.388 207.974 535.388ZM209.654 533.18L206.75 526.7H207.638L210.206 532.484L209.654 533.18ZM213.629 533V532.436L217.829 527.12L218.009 527.408H213.701V526.7H218.681V527.252L214.493 532.58L214.277 532.292H218.765V533H213.629ZM221.166 533V524.96L221.55 525.368H219.186V524.6H222.03V533H221.166ZM223.882 533V532.388L227.374 528.968C227.694 528.656 227.934 528.384 228.094 528.152C228.254 527.912 228.362 527.688 228.418 527.48C228.474 527.272 228.502 527.076 228.502 526.892C228.502 526.404 228.334 526.02 227.998 525.74C227.67 525.46 227.182 525.32 226.534 525.32C226.038 525.32 225.598 525.396 225.214 525.548C224.838 525.7 224.514 525.936 224.242 526.256L223.63 525.728C223.958 525.344 224.378 525.048 224.89 524.84C225.402 524.632 225.974 524.528 226.606 524.528C227.174 524.528 227.666 524.62 228.082 524.804C228.498 524.98 228.818 525.24 229.042 525.584C229.274 525.928 229.39 526.332 229.39 526.796C229.39 527.068 229.35 527.336 229.27 527.6C229.198 527.864 229.062 528.144 228.862 528.44C228.67 528.728 228.386 529.056 228.01 529.424L224.806 532.568L224.566 532.232H229.774V533H223.882ZM233.366 533.072C232.758 533.072 232.182 532.976 231.638 532.784C231.102 532.584 230.67 532.32 230.342 531.992L230.762 531.308C231.034 531.588 231.398 531.82 231.854 532.004C232.318 532.188 232.822 532.28 233.366 532.28C234.062 532.28 234.594 532.128 234.962 531.824C235.338 531.52 235.526 531.112 235.526 530.6C235.526 530.088 235.342 529.68 234.974 529.376C234.614 529.072 234.042 528.92 233.258 528.92H232.658V528.284L235.25 525.032L235.37 525.368H230.69V524.6H236.09V525.212L233.498 528.464L233.078 528.188H233.402C234.41 528.188 235.162 528.412 235.658 528.86C236.162 529.308 236.414 529.884 236.414 530.588C236.414 531.06 236.302 531.484 236.078 531.86C235.854 532.236 235.514 532.532 235.058 532.748C234.61 532.964 234.046 533.072 233.366 533.072ZM237.488 530.792V530.168L241.94 524.6H242.9L238.484 530.168L238.016 530.024H244.772V530.792H237.488ZM242.228 533V530.792L242.252 530.024V528.08H243.092V533H242.228ZM248.194 533.072C247.594 533.072 247.022 532.976 246.478 532.784C245.934 532.584 245.502 532.32 245.182 531.992L245.602 531.308C245.866 531.588 246.226 531.82 246.682 532.004C247.146 532.188 247.646 532.28 248.182 532.28C248.894 532.28 249.434 532.124 249.802 531.812C250.178 531.492 250.366 531.076 250.366 530.564C250.366 530.204 250.278 529.896 250.102 529.64C249.934 529.376 249.646 529.172 249.238 529.028C248.83 528.884 248.27 528.812 247.558 528.812H245.77L246.202 524.6H250.798V525.368H246.55L246.994 524.948L246.622 528.476L246.178 528.044H247.75C248.598 528.044 249.278 528.148 249.79 528.356C250.302 528.564 250.67 528.856 250.894 529.232C251.126 529.6 251.242 530.032 251.242 530.528C251.242 531 251.13 531.432 250.906 531.824C250.682 532.208 250.346 532.512 249.898 532.736C249.45 532.96 248.882 533.072 248.194 533.072ZM255.783 533.072C255.039 533.072 254.411 532.908 253.899 532.58C253.387 532.244 252.999 531.764 252.735 531.14C252.471 530.508 252.339 529.752 252.339 528.872C252.339 527.92 252.499 527.124 252.819 526.484C253.147 525.836 253.599 525.348 254.175 525.02C254.751 524.692 255.419 524.528 256.179 524.528C256.555 524.528 256.915 524.564 257.259 524.636C257.603 524.708 257.907 524.824 258.171 524.984L257.823 525.68C257.607 525.536 257.359 525.436 257.079 525.38C256.799 525.316 256.503 525.284 256.191 525.284C255.287 525.284 254.563 525.572 254.019 526.148C253.483 526.724 253.215 527.584 253.215 528.728C253.215 528.904 253.223 529.124 253.239 529.388C253.263 529.644 253.311 529.9 253.383 530.156L253.083 529.928C253.171 529.512 253.343 529.16 253.599 528.872C253.855 528.576 254.175 528.352 254.559 528.2C254.943 528.048 255.363 527.972 255.819 527.972C256.379 527.972 256.871 528.076 257.295 528.284C257.719 528.492 258.051 528.784 258.291 529.16C258.531 529.536 258.651 529.98 258.651 530.492C258.651 531.012 258.527 531.468 258.279 531.86C258.031 532.244 257.687 532.544 257.247 532.76C256.815 532.968 256.327 533.072 255.783 533.072ZM255.747 532.34C256.147 532.34 256.499 532.268 256.803 532.124C257.115 531.972 257.359 531.76 257.535 531.488C257.711 531.208 257.799 530.884 257.799 530.516C257.799 529.964 257.607 529.524 257.223 529.196C256.847 528.868 256.335 528.704 255.687 528.704C255.255 528.704 254.879 528.784 254.559 528.944C254.239 529.104 253.987 529.324 253.803 529.604C253.619 529.876 253.527 530.188 253.527 530.54C253.527 530.844 253.611 531.136 253.779 531.416C253.947 531.688 254.195 531.912 254.523 532.088C254.859 532.256 255.267 532.34 255.747 532.34ZM261.034 533L264.658 524.984L264.922 525.368H259.726L260.17 524.948V526.94H259.318V524.6H265.486V525.212L261.97 533H261.034ZM269.593 533.072C268.921 533.072 268.341 532.976 267.853 532.784C267.373 532.592 267.001 532.316 266.737 531.956C266.481 531.588 266.353 531.156 266.353 530.66C266.353 530.18 266.477 529.772 266.725 529.436C266.981 529.092 267.349 528.828 267.829 528.644C268.317 528.46 268.905 528.368 269.593 528.368C270.273 528.368 270.857 528.46 271.345 528.644C271.833 528.828 272.205 529.092 272.461 529.436C272.725 529.772 272.857 530.18 272.857 530.66C272.857 531.156 272.725 531.588 272.461 531.956C272.197 532.316 271.821 532.592 271.333 532.784C270.845 532.976 270.265 533.072 269.593 533.072ZM269.593 532.34C270.337 532.34 270.917 532.188 271.333 531.884C271.757 531.58 271.969 531.168 271.969 530.648C271.969 530.128 271.757 529.72 271.333 529.424C270.917 529.12 270.337 528.968 269.593 528.968C268.849 528.968 268.269 529.12 267.853 529.424C267.437 529.72 267.229 530.128 267.229 530.648C267.229 531.168 267.437 531.58 267.853 531.884C268.269 532.188 268.849 532.34 269.593 532.34ZM269.593 528.86C268.969 528.86 268.437 528.776 267.997 528.608C267.565 528.44 267.233 528.2 267.001 527.888C266.769 527.568 266.653 527.188 266.653 526.748C266.653 526.284 266.773 525.888 267.013 525.56C267.261 525.224 267.605 524.968 268.045 524.792C268.485 524.616 269.001 524.528 269.593 524.528C270.185 524.528 270.701 524.616 271.141 524.792C271.589 524.968 271.937 525.224 272.185 525.56C272.433 525.888 272.557 526.284 272.557 526.748C272.557 527.188 272.441 527.568 272.209 527.888C271.977 528.2 271.637 528.44 271.189 528.608C270.749 528.776 270.217 528.86 269.593 528.86ZM269.593 528.284C270.249 528.284 270.761 528.148 271.129 527.876C271.497 527.604 271.681 527.24 271.681 526.784C271.681 526.304 271.489 525.932 271.105 525.668C270.729 525.396 270.225 525.26 269.593 525.26C268.961 525.26 268.457 525.396 268.081 525.668C267.705 525.932 267.517 526.3 267.517 526.772C267.517 527.236 267.697 527.604 268.057 527.876C268.425 528.148 268.937 528.284 269.593 528.284ZM276.67 524.528C277.414 524.528 278.042 524.696 278.554 525.032C279.066 525.36 279.454 525.836 279.718 526.46C279.982 527.084 280.114 527.84 280.114 528.728C280.114 529.672 279.95 530.468 279.622 531.116C279.302 531.764 278.854 532.252 278.278 532.58C277.702 532.908 277.034 533.072 276.274 533.072C275.898 533.072 275.538 533.036 275.194 532.964C274.858 532.892 274.554 532.776 274.282 532.616L274.63 531.92C274.846 532.064 275.094 532.168 275.374 532.232C275.662 532.288 275.958 532.316 276.262 532.316C277.166 532.316 277.886 532.028 278.422 531.452C278.966 530.876 279.238 530.016 279.238 528.872C279.238 528.688 279.226 528.468 279.202 528.212C279.186 527.956 279.142 527.7 279.07 527.444L279.37 527.672C279.29 528.088 279.118 528.444 278.854 528.74C278.598 529.028 278.278 529.248 277.894 529.4C277.518 529.552 277.098 529.628 276.634 529.628C276.082 529.628 275.59 529.524 275.158 529.316C274.734 529.108 274.402 528.816 274.162 528.44C273.922 528.064 273.802 527.62 273.802 527.108C273.802 526.58 273.926 526.124 274.174 525.74C274.422 525.356 274.762 525.06 275.194 524.852C275.634 524.636 276.126 524.528 276.67 524.528ZM276.706 525.26C276.306 525.26 275.95 525.336 275.638 525.488C275.334 525.632 275.094 525.84 274.918 526.112C274.742 526.384 274.654 526.708 274.654 527.084C274.654 527.636 274.842 528.076 275.218 528.404C275.602 528.732 276.118 528.896 276.766 528.896C277.198 528.896 277.574 528.816 277.894 528.656C278.222 528.496 278.474 528.276 278.65 527.996C278.834 527.716 278.926 527.404 278.926 527.06C278.926 526.748 278.842 526.456 278.674 526.184C278.506 525.912 278.258 525.692 277.93 525.524C277.602 525.348 277.194 525.26 276.706 525.26ZM284.714 533.072C284.066 533.072 283.49 532.904 282.986 532.568C282.482 532.224 282.086 531.736 281.798 531.104C281.51 530.464 281.366 529.696 281.366 528.8C281.366 527.904 281.51 527.14 281.798 526.508C282.086 525.868 282.482 525.38 282.986 525.044C283.49 524.7 284.066 524.528 284.714 524.528C285.362 524.528 285.938 524.7 286.442 525.044C286.946 525.38 287.342 525.868 287.63 526.508C287.926 527.14 288.074 527.904 288.074 528.8C288.074 529.696 287.926 530.464 287.63 531.104C287.342 531.736 286.946 532.224 286.442 532.568C285.938 532.904 285.362 533.072 284.714 533.072ZM284.714 532.28C285.21 532.28 285.642 532.148 286.01 531.884C286.378 531.612 286.666 531.22 286.874 530.708C287.082 530.188 287.186 529.552 287.186 528.8C287.186 528.048 287.082 527.416 286.874 526.904C286.666 526.384 286.378 525.992 286.01 525.728C285.642 525.456 285.21 525.32 284.714 525.32C284.234 525.32 283.806 525.456 283.43 525.728C283.054 525.992 282.762 526.384 282.554 526.904C282.346 527.416 282.242 528.048 282.242 528.8C282.242 529.552 282.346 530.188 282.554 530.708C282.762 531.22 283.054 531.612 283.43 531.884C283.806 532.148 284.234 532.28 284.714 532.28Z" fill="black"/>
</g>
<rect x="807" y="273" width="102" height="139" rx="12.5451" fill="#0C2766"/>
<path d="M834.392 295.879L835.517 286.718H836.224L835.099 295.879H834.392ZM829.432 293.392V292.673H837.35V293.392H829.432ZM830.989 295.879L832.115 286.718H832.835L831.696 295.879H830.989ZM829.851 289.924V289.204H837.768V289.924H829.851ZM842.497 295.957C841.79 295.957 841.162 295.774 840.612 295.408C840.062 295.033 839.631 294.5 839.317 293.811C839.002 293.113 838.845 292.276 838.845 291.298C838.845 290.321 839.002 289.488 839.317 288.799C839.631 288.101 840.062 287.569 840.612 287.202C841.162 286.827 841.79 286.639 842.497 286.639C843.203 286.639 843.832 286.827 844.381 287.202C844.931 287.569 845.363 288.101 845.677 288.799C846 289.488 846.161 290.321 846.161 291.298C846.161 292.276 846 293.113 845.677 293.811C845.363 294.5 844.931 295.033 844.381 295.408C843.832 295.774 843.203 295.957 842.497 295.957ZM842.497 295.094C843.038 295.094 843.509 294.95 843.91 294.662C844.311 294.365 844.626 293.938 844.852 293.379C845.079 292.812 845.193 292.119 845.193 291.298C845.193 290.478 845.079 289.789 844.852 289.231C844.626 288.664 844.311 288.236 843.91 287.948C843.509 287.651 843.038 287.503 842.497 287.503C841.973 287.503 841.506 287.651 841.096 287.948C840.686 288.236 840.368 288.664 840.141 289.231C839.914 289.789 839.801 290.478 839.801 291.298C839.801 292.119 839.914 292.812 840.141 293.379C840.368 293.938 840.686 294.365 841.096 294.662C841.506 294.95 841.973 295.094 842.497 295.094ZM852.3 295.957C851.611 295.957 850.974 295.844 850.39 295.617C849.805 295.382 849.299 295.054 848.872 294.636C848.444 294.217 848.108 293.724 847.864 293.157C847.628 292.59 847.51 291.97 847.51 291.298C847.51 290.627 847.628 290.007 847.864 289.44C848.108 288.873 848.444 288.38 848.872 287.961C849.308 287.542 849.818 287.22 850.403 286.993C850.987 286.757 851.624 286.639 852.313 286.639C852.977 286.639 853.6 286.753 854.185 286.98C854.769 287.198 855.262 287.529 855.664 287.974L855.049 288.589C854.673 288.206 854.259 287.931 853.805 287.765C853.352 287.59 852.863 287.503 852.34 287.503C851.79 287.503 851.28 287.599 850.808 287.791C850.337 287.974 849.927 288.24 849.578 288.589C849.229 288.93 848.954 289.331 848.754 289.793C848.562 290.247 848.466 290.749 848.466 291.298C848.466 291.848 848.562 292.354 848.754 292.817C848.954 293.27 849.229 293.672 849.578 294.021C849.927 294.361 850.337 294.627 850.808 294.819C851.28 295.002 851.79 295.094 852.34 295.094C852.863 295.094 853.352 295.006 853.805 294.832C854.259 294.657 854.673 294.378 855.049 293.994L855.664 294.609C855.262 295.054 854.769 295.39 854.185 295.617C853.6 295.844 852.972 295.957 852.3 295.957ZM856.644 295.879V295.211L860.453 291.482C860.802 291.141 861.064 290.845 861.238 290.592C861.413 290.33 861.53 290.086 861.591 289.859C861.652 289.632 861.683 289.418 861.683 289.218C861.683 288.685 861.5 288.267 861.133 287.961C860.776 287.656 860.243 287.503 859.537 287.503C858.996 287.503 858.516 287.586 858.097 287.752C857.687 287.918 857.334 288.175 857.037 288.524L856.37 287.948C856.727 287.529 857.185 287.207 857.744 286.98C858.302 286.753 858.926 286.639 859.615 286.639C860.235 286.639 860.771 286.74 861.225 286.94C861.679 287.132 862.028 287.416 862.272 287.791C862.525 288.166 862.651 288.607 862.651 289.113C862.651 289.41 862.608 289.702 862.521 289.99C862.442 290.278 862.294 290.583 862.076 290.906C861.866 291.22 861.556 291.578 861.146 291.979L857.652 295.408L857.39 295.041H863.07V295.879H856.644ZM865.837 295.879L869.789 287.137L870.077 287.556H864.41L864.895 287.097V289.27H863.965V286.718H870.692V287.385L866.858 295.879H865.837ZM875.434 295.957C874.623 295.957 873.938 295.779 873.379 295.421C872.821 295.054 872.398 294.531 872.11 293.85C871.822 293.161 871.678 292.337 871.678 291.377C871.678 290.339 871.853 289.471 872.202 288.773C872.559 288.066 873.052 287.534 873.68 287.176C874.309 286.818 875.037 286.639 875.866 286.639C876.276 286.639 876.669 286.679 877.044 286.757C877.419 286.836 877.751 286.962 878.039 287.137L877.659 287.896C877.423 287.739 877.153 287.63 876.848 287.569C876.542 287.499 876.219 287.464 875.879 287.464C874.893 287.464 874.104 287.778 873.51 288.406C872.926 289.034 872.634 289.972 872.634 291.22C872.634 291.412 872.642 291.652 872.66 291.94C872.686 292.219 872.738 292.498 872.817 292.777L872.49 292.529C872.586 292.075 872.773 291.691 873.052 291.377C873.332 291.054 873.68 290.81 874.099 290.644C874.518 290.478 874.976 290.395 875.473 290.395C876.084 290.395 876.621 290.509 877.083 290.736C877.546 290.963 877.908 291.281 878.169 291.691C878.431 292.101 878.562 292.585 878.562 293.144C878.562 293.711 878.427 294.208 878.156 294.636C877.886 295.054 877.511 295.382 877.031 295.617C876.56 295.844 876.027 295.957 875.434 295.957ZM875.395 295.159C875.831 295.159 876.215 295.081 876.547 294.924C876.887 294.758 877.153 294.527 877.345 294.23C877.537 293.925 877.633 293.571 877.633 293.17C877.633 292.568 877.423 292.088 877.005 291.73C876.595 291.373 876.036 291.194 875.329 291.194C874.858 291.194 874.448 291.281 874.099 291.455C873.75 291.63 873.475 291.87 873.275 292.175C873.074 292.472 872.974 292.812 872.974 293.196C872.974 293.528 873.065 293.846 873.249 294.151C873.432 294.448 873.702 294.692 874.06 294.884C874.426 295.068 874.871 295.159 875.395 295.159ZM883.409 295.957C882.598 295.957 881.913 295.779 881.354 295.421C880.796 295.054 880.373 294.531 880.085 293.85C879.797 293.161 879.653 292.337 879.653 291.377C879.653 290.339 879.828 289.471 880.177 288.773C880.534 288.066 881.027 287.534 881.655 287.176C882.284 286.818 883.012 286.639 883.841 286.639C884.251 286.639 884.644 286.679 885.019 286.757C885.394 286.836 885.726 286.962 886.013 287.137L885.634 287.896C885.398 287.739 885.128 287.63 884.823 287.569C884.517 287.499 884.194 287.464 883.854 287.464C882.868 287.464 882.079 287.778 881.485 288.406C880.901 289.034 880.608 289.972 880.608 291.22C880.608 291.412 880.617 291.652 880.635 291.94C880.661 292.219 880.713 292.498 880.792 292.777L880.465 292.529C880.56 292.075 880.748 291.691 881.027 291.377C881.306 291.054 881.655 290.81 882.074 290.644C882.493 290.478 882.951 290.395 883.448 290.395C884.059 290.395 884.596 290.509 885.058 290.736C885.521 290.963 885.883 291.281 886.144 291.691C886.406 292.101 886.537 292.585 886.537 293.144C886.537 293.711 886.402 294.208 886.131 294.636C885.861 295.054 885.486 295.382 885.006 295.617C884.535 295.844 884.002 295.957 883.409 295.957ZM883.37 295.159C883.806 295.159 884.19 295.081 884.522 294.924C884.862 294.758 885.128 294.527 885.32 294.23C885.512 293.925 885.608 293.571 885.608 293.17C885.608 292.568 885.398 292.088 884.98 291.73C884.57 291.373 884.011 291.194 883.304 291.194C882.833 291.194 882.423 291.281 882.074 291.455C881.725 291.63 881.45 291.87 881.25 292.175C881.049 292.472 880.949 292.812 880.949 293.196C880.949 293.528 881.04 293.846 881.224 294.151C881.407 294.448 881.677 294.692 882.035 294.884C882.401 295.068 882.846 295.159 883.37 295.159Z" fill="white"/>
<rect x="918" y="273" width="103" height="139" rx="12.5451" fill="#39FF13"/>
<path d="M948.667 295.879L949.792 286.718H950.499L949.374 295.879H948.667ZM943.707 293.392V292.673H951.625V293.392H943.707ZM945.264 295.879L946.39 286.718H947.11L945.971 295.879H945.264ZM944.126 289.924V289.204H952.043V289.924H944.126ZM955.855 295.957C955.192 295.957 954.564 295.853 953.971 295.643C953.386 295.425 952.915 295.137 952.558 294.78L953.016 294.034C953.312 294.339 953.709 294.592 954.207 294.793C954.713 294.993 955.262 295.094 955.855 295.094C956.615 295.094 957.195 294.928 957.596 294.596C958.006 294.265 958.211 293.82 958.211 293.261C958.211 292.703 958.011 292.258 957.609 291.927C957.217 291.595 956.593 291.429 955.738 291.429H955.083V290.736L957.91 287.189L958.041 287.556H952.937V286.718H958.826V287.385L955.999 290.932L955.541 290.631H955.895C956.994 290.631 957.814 290.875 958.355 291.364C958.905 291.852 959.18 292.481 959.18 293.248C959.18 293.763 959.057 294.226 958.813 294.636C958.569 295.046 958.198 295.369 957.701 295.604C957.212 295.84 956.597 295.957 955.855 295.957ZM963.36 286.639C964.172 286.639 964.857 286.823 965.415 287.189C965.973 287.547 966.397 288.066 966.684 288.746C966.972 289.427 967.116 290.251 967.116 291.22C967.116 292.249 966.937 293.118 966.58 293.824C966.231 294.531 965.742 295.063 965.114 295.421C964.486 295.779 963.757 295.957 962.928 295.957C962.518 295.957 962.126 295.918 961.751 295.84C961.384 295.761 961.053 295.635 960.756 295.46L961.136 294.701C961.371 294.858 961.642 294.972 961.947 295.041C962.261 295.102 962.584 295.133 962.915 295.133C963.901 295.133 964.686 294.819 965.271 294.191C965.864 293.562 966.161 292.625 966.161 291.377C966.161 291.176 966.148 290.936 966.122 290.657C966.104 290.378 966.056 290.099 965.978 289.82L966.305 290.068C966.218 290.522 966.03 290.91 965.742 291.233C965.463 291.547 965.114 291.787 964.695 291.953C964.285 292.119 963.827 292.201 963.321 292.201C962.719 292.201 962.182 292.088 961.711 291.861C961.249 291.634 960.887 291.316 960.625 290.906C960.363 290.496 960.233 290.012 960.233 289.453C960.233 288.877 960.368 288.38 960.638 287.961C960.909 287.542 961.279 287.22 961.751 286.993C962.23 286.757 962.767 286.639 963.36 286.639ZM963.4 287.438C962.963 287.438 962.575 287.521 962.235 287.686C961.903 287.843 961.642 288.07 961.45 288.367C961.258 288.664 961.162 289.017 961.162 289.427C961.162 290.029 961.367 290.509 961.777 290.867C962.196 291.224 962.758 291.403 963.465 291.403C963.936 291.403 964.346 291.316 964.695 291.141C965.053 290.967 965.328 290.727 965.52 290.422C965.72 290.116 965.821 289.776 965.821 289.401C965.821 289.061 965.729 288.742 965.546 288.445C965.363 288.149 965.092 287.909 964.734 287.726C964.377 287.534 963.932 287.438 963.4 287.438ZM970.157 291.154H975V291.992H970.157V291.154ZM970.262 295.879H969.294V286.718H975.576V287.556H970.262V295.879ZM978.439 291.154H983.281V291.992H978.439V291.154ZM978.544 295.879H977.575V286.718H983.857V287.556H978.544V295.879ZM986.834 295.879V287.111L987.253 287.556H984.675V286.718H987.776V295.879H986.834ZM992.701 295.957C992.038 295.957 991.41 295.853 990.817 295.643C990.232 295.425 989.761 295.137 989.403 294.78L989.861 294.034C990.158 294.339 990.555 294.592 991.052 294.793C991.558 294.993 992.108 295.094 992.701 295.094C993.46 295.094 994.041 294.928 994.442 294.596C994.852 294.265 995.057 293.82 995.057 293.261C995.057 292.703 994.856 292.258 994.455 291.927C994.062 291.595 993.439 291.429 992.584 291.429H991.929V290.736L994.756 287.189L994.887 287.556H989.783V286.718H995.672V287.385L992.845 290.932L992.387 290.631H992.741C993.84 290.631 994.66 290.875 995.201 291.364C995.751 291.852 996.025 292.481 996.025 293.248C996.025 293.763 995.903 294.226 995.659 294.636C995.415 295.046 995.044 295.369 994.547 295.604C994.058 295.84 993.443 295.957 992.701 295.957Z" fill="black"/>
<rect x="1030" y="273" width="101" height="139" rx="12.5451" fill="white"/>
<path d="M1057.44 295.879L1058.56 286.718H1059.27L1058.14 295.879H1057.44ZM1052.48 293.392V292.673H1060.4V293.392H1052.48ZM1054.04 295.879L1055.16 286.718H1055.88L1054.74 295.879H1054.04ZM1052.9 289.924V289.204H1060.81V289.924H1052.9ZM1063.57 291.154H1068.41V291.992H1063.57V291.154ZM1063.67 295.879H1062.7V286.718H1068.98V287.556H1063.67V295.879ZM1071.85 291.154H1076.69V291.992H1071.85V291.154ZM1071.95 295.879H1070.98V286.718H1077.27V287.556H1071.95V295.879ZM1080.13 291.154H1084.97V291.992H1080.13V291.154ZM1080.23 295.879H1079.27V286.718H1085.55V287.556H1080.23V295.879ZM1088.41 291.154H1093.25V291.992H1088.41V291.154ZM1088.52 295.879H1087.55V286.718H1093.83V287.556H1088.52V295.879ZM1096.69 291.154H1101.54V291.992H1096.69V291.154ZM1096.8 295.879H1095.83V286.718H1102.11V287.556H1096.8V295.879ZM1104.98 291.154H1109.82V291.992H1104.98V291.154ZM1105.08 295.879H1104.11V286.718H1110.39V287.556H1105.08V295.879Z" fill="black"/>
<rect x="1140" y="273" width="102" height="139" rx="12.5451" fill="black"/>
<path d="M1165.79 295.879L1166.91 286.718H1167.62L1166.49 295.879H1165.79ZM1160.83 293.392V292.673H1168.75V293.392H1160.83ZM1162.39 295.879L1163.51 286.718H1164.23L1163.09 295.879H1162.39ZM1161.25 289.924V289.204H1169.16V289.924H1161.25ZM1173.89 295.957C1173.19 295.957 1172.56 295.774 1172.01 295.408C1171.46 295.033 1171.03 294.5 1170.71 293.811C1170.4 293.113 1170.24 292.276 1170.24 291.298C1170.24 290.321 1170.4 289.488 1170.71 288.799C1171.03 288.101 1171.46 287.569 1172.01 287.202C1172.56 286.827 1173.19 286.639 1173.89 286.639C1174.6 286.639 1175.23 286.827 1175.78 287.202C1176.33 287.569 1176.76 288.101 1177.07 288.799C1177.4 289.488 1177.56 290.321 1177.56 291.298C1177.56 292.276 1177.4 293.113 1177.07 293.811C1176.76 294.5 1176.33 295.033 1175.78 295.408C1175.23 295.774 1174.6 295.957 1173.89 295.957ZM1173.89 295.094C1174.43 295.094 1174.9 294.95 1175.31 294.662C1175.71 294.365 1176.02 293.938 1176.25 293.379C1176.48 292.812 1176.59 292.119 1176.59 291.298C1176.59 290.478 1176.48 289.789 1176.25 289.231C1176.02 288.664 1175.71 288.236 1175.31 287.948C1174.9 287.651 1174.43 287.503 1173.89 287.503C1173.37 287.503 1172.9 287.651 1172.49 287.948C1172.08 288.236 1171.76 288.664 1171.54 289.231C1171.31 289.789 1171.2 290.478 1171.2 291.298C1171.2 292.119 1171.31 292.812 1171.54 293.379C1171.76 293.938 1172.08 294.365 1172.49 294.662C1172.9 294.95 1173.37 295.094 1173.89 295.094ZM1182.56 295.957C1181.85 295.957 1181.22 295.774 1180.67 295.408C1180.12 295.033 1179.69 294.5 1179.38 293.811C1179.06 293.113 1178.91 292.276 1178.91 291.298C1178.91 290.321 1179.06 289.488 1179.38 288.799C1179.69 288.101 1180.12 287.569 1180.67 287.202C1181.22 286.827 1181.85 286.639 1182.56 286.639C1183.26 286.639 1183.89 286.827 1184.44 287.202C1184.99 287.569 1185.42 288.101 1185.74 288.799C1186.06 289.488 1186.22 290.321 1186.22 291.298C1186.22 292.276 1186.06 293.113 1185.74 293.811C1185.42 294.5 1184.99 295.033 1184.44 295.408C1183.89 295.774 1183.26 295.957 1182.56 295.957ZM1182.56 295.094C1183.1 295.094 1183.57 294.95 1183.97 294.662C1184.37 294.365 1184.69 293.938 1184.91 293.379C1185.14 292.812 1185.25 292.119 1185.25 291.298C1185.25 290.478 1185.14 289.789 1184.91 289.231C1184.69 288.664 1184.37 288.236 1183.97 287.948C1183.57 287.651 1183.1 287.503 1182.56 287.503C1182.03 287.503 1181.57 287.651 1181.16 287.948C1180.75 288.236 1180.43 288.664 1180.2 289.231C1179.98 289.789 1179.86 290.478 1179.86 291.298C1179.86 292.119 1179.98 292.812 1180.2 293.379C1180.43 293.938 1180.75 294.365 1181.16 294.662C1181.57 294.95 1182.03 295.094 1182.56 295.094ZM1191.22 295.957C1190.52 295.957 1189.89 295.774 1189.34 295.408C1188.79 295.033 1188.36 294.5 1188.04 293.811C1187.73 293.113 1187.57 292.276 1187.57 291.298C1187.57 290.321 1187.73 289.488 1188.04 288.799C1188.36 288.101 1188.79 287.569 1189.34 287.202C1189.89 286.827 1190.52 286.639 1191.22 286.639C1191.93 286.639 1192.56 286.827 1193.11 287.202C1193.66 287.569 1194.09 288.101 1194.4 288.799C1194.73 289.488 1194.89 290.321 1194.89 291.298C1194.89 292.276 1194.73 293.113 1194.4 293.811C1194.09 294.5 1193.66 295.033 1193.11 295.408C1192.56 295.774 1191.93 295.957 1191.22 295.957ZM1191.22 295.094C1191.76 295.094 1192.24 294.95 1192.64 294.662C1193.04 294.365 1193.35 293.938 1193.58 293.379C1193.81 292.812 1193.92 292.119 1193.92 291.298C1193.92 290.478 1193.81 289.789 1193.58 289.231C1193.35 288.664 1193.04 288.236 1192.64 287.948C1192.24 287.651 1191.76 287.503 1191.22 287.503C1190.7 287.503 1190.23 287.651 1189.82 287.948C1189.41 288.236 1189.09 288.664 1188.87 289.231C1188.64 289.789 1188.53 290.478 1188.53 291.298C1188.53 292.119 1188.64 292.812 1188.87 293.379C1189.09 293.938 1189.41 294.365 1189.82 294.662C1190.23 294.95 1190.7 295.094 1191.22 295.094ZM1199.89 295.957C1199.18 295.957 1198.55 295.774 1198 295.408C1197.45 295.033 1197.02 294.5 1196.71 293.811C1196.39 293.113 1196.24 292.276 1196.24 291.298C1196.24 290.321 1196.39 289.488 1196.71 288.799C1197.02 288.101 1197.45 287.569 1198 287.202C1198.55 286.827 1199.18 286.639 1199.89 286.639C1200.59 286.639 1201.22 286.827 1201.77 287.202C1202.32 287.569 1202.75 288.101 1203.07 288.799C1203.39 289.488 1203.55 290.321 1203.55 291.298C1203.55 292.276 1203.39 293.113 1203.07 293.811C1202.75 294.5 1202.32 295.033 1201.77 295.408C1201.22 295.774 1200.59 295.957 1199.89 295.957ZM1199.89 295.094C1200.43 295.094 1200.9 294.95 1201.3 294.662C1201.7 294.365 1202.02 293.938 1202.24 293.379C1202.47 292.812 1202.58 292.119 1202.58 291.298C1202.58 290.478 1202.47 289.789 1202.24 289.231C1202.02 288.664 1201.7 288.236 1201.3 287.948C1200.9 287.651 1200.43 287.503 1199.89 287.503C1199.36 287.503 1198.9 287.651 1198.49 287.948C1198.08 288.236 1197.76 288.664 1197.53 289.231C1197.31 289.789 1197.19 290.478 1197.19 291.298C1197.19 292.119 1197.31 292.812 1197.53 293.379C1197.76 293.938 1198.08 294.365 1198.49 294.662C1198.9 294.95 1199.36 295.094 1199.89 295.094ZM1208.55 295.957C1207.85 295.957 1207.22 295.774 1206.67 295.408C1206.12 295.033 1205.69 294.5 1205.37 293.811C1205.06 293.113 1204.9 292.276 1204.9 291.298C1204.9 290.321 1205.06 289.488 1205.37 288.799C1205.69 288.101 1206.12 287.569 1206.67 287.202C1207.22 286.827 1207.85 286.639 1208.55 286.639C1209.26 286.639 1209.89 286.827 1210.44 287.202C1210.99 287.569 1211.42 288.101 1211.73 288.799C1212.06 289.488 1212.22 290.321 1212.22 291.298C1212.22 292.276 1212.06 293.113 1211.73 293.811C1211.42 294.5 1210.99 295.033 1210.44 295.408C1209.89 295.774 1209.26 295.957 1208.55 295.957ZM1208.55 295.094C1209.09 295.094 1209.57 294.95 1209.97 294.662C1210.37 294.365 1210.68 293.938 1210.91 293.379C1211.14 292.812 1211.25 292.119 1211.25 291.298C1211.25 290.478 1211.14 289.789 1210.91 289.231C1210.68 288.664 1210.37 288.236 1209.97 287.948C1209.57 287.651 1209.09 287.503 1208.55 287.503C1208.03 287.503 1207.56 287.651 1207.15 287.948C1206.74 288.236 1206.42 288.664 1206.2 289.231C1205.97 289.789 1205.86 290.478 1205.86 291.298C1205.86 292.119 1205.97 292.812 1206.2 293.379C1206.42 293.938 1206.74 294.365 1207.15 294.662C1207.56 294.95 1208.03 295.094 1208.55 295.094ZM1217.22 295.957C1216.51 295.957 1215.88 295.774 1215.33 295.408C1214.78 295.033 1214.35 294.5 1214.04 293.811C1213.72 293.113 1213.57 292.276 1213.57 291.298C1213.57 290.321 1213.72 289.488 1214.04 288.799C1214.35 288.101 1214.78 287.569 1215.33 287.202C1215.88 286.827 1216.51 286.639 1217.22 286.639C1217.92 286.639 1218.55 286.827 1219.1 287.202C1219.65 287.569 1220.08 288.101 1220.4 288.799C1220.72 289.488 1220.88 290.321 1220.88 291.298C1220.88 292.276 1220.72 293.113 1220.4 293.811C1220.08 294.5 1219.65 295.033 1219.1 295.408C1218.55 295.774 1217.92 295.957 1217.22 295.957ZM1217.22 295.094C1217.76 295.094 1218.23 294.95 1218.63 294.662C1219.03 294.365 1219.35 293.938 1219.57 293.379C1219.8 292.812 1219.91 292.119 1219.91 291.298C1219.91 290.478 1219.8 289.789 1219.57 289.231C1219.35 288.664 1219.03 288.236 1218.63 287.948C1218.23 287.651 1217.76 287.503 1217.22 287.503C1216.69 287.503 1216.23 287.651 1215.82 287.948C1215.41 288.236 1215.09 288.664 1214.86 289.231C1214.64 289.789 1214.52 290.478 1214.52 291.298C1214.52 292.119 1214.64 292.812 1214.86 293.379C1215.09 293.938 1215.41 294.365 1215.82 294.662C1216.23 294.95 1216.69 295.094 1217.22 295.094Z" fill="white"/>
<rect x="1251" y="273" width="102" height="139" rx="12.5451" fill="#2BC20E"/>
<path d="M1277.56 295.879L1278.69 286.718H1279.4L1278.27 295.879H1277.56ZM1272.6 293.392V292.673H1280.52V293.392H1272.6ZM1274.16 295.879L1275.29 286.718H1276.01L1274.87 295.879H1274.16ZM1273.02 289.924V289.204H1280.94V289.924H1273.02ZM1281.85 295.879V295.211L1285.65 291.482C1286 291.141 1286.27 290.845 1286.44 290.592C1286.61 290.33 1286.73 290.086 1286.79 289.859C1286.85 289.632 1286.88 289.418 1286.88 289.218C1286.88 288.685 1286.7 288.267 1286.33 287.961C1285.98 287.656 1285.45 287.503 1284.74 287.503C1284.2 287.503 1283.72 287.586 1283.3 287.752C1282.89 287.918 1282.54 288.175 1282.24 288.524L1281.57 287.948C1281.93 287.529 1282.39 287.207 1282.95 286.98C1283.5 286.753 1284.13 286.639 1284.82 286.639C1285.44 286.639 1285.97 286.74 1286.43 286.94C1286.88 287.132 1287.23 287.416 1287.47 287.791C1287.73 288.166 1287.85 288.607 1287.85 289.113C1287.85 289.41 1287.81 289.702 1287.72 289.99C1287.64 290.278 1287.5 290.583 1287.28 290.906C1287.07 291.22 1286.76 291.578 1286.35 291.979L1282.85 295.408L1282.59 295.041H1288.27V295.879H1281.85ZM1290.27 295.879V286.718H1294.22C1295.24 286.718 1296.03 286.923 1296.59 287.333C1297.15 287.743 1297.44 288.323 1297.44 289.074C1297.44 289.571 1297.32 289.99 1297.08 290.33C1296.86 290.67 1296.54 290.928 1296.14 291.102C1295.75 291.277 1295.32 291.364 1294.85 291.364L1295.07 291.05C1295.65 291.05 1296.16 291.141 1296.57 291.325C1297 291.499 1297.33 291.765 1297.57 292.123C1297.8 292.472 1297.92 292.908 1297.92 293.432C1297.92 294.208 1297.63 294.81 1297.06 295.238C1296.49 295.665 1295.63 295.879 1294.48 295.879H1290.27ZM1291.23 295.081H1294.47C1295.27 295.081 1295.88 294.945 1296.31 294.675C1296.74 294.396 1296.95 293.955 1296.95 293.353C1296.95 292.76 1296.74 292.328 1296.31 292.057C1295.88 291.778 1295.27 291.639 1294.47 291.639H1291.13V290.84H1294.15C1294.89 290.84 1295.45 290.701 1295.85 290.422C1296.26 290.142 1296.47 289.728 1296.47 289.178C1296.47 288.62 1296.26 288.206 1295.85 287.935C1295.45 287.656 1294.89 287.516 1294.15 287.516H1291.23V295.081ZM1304.11 295.957C1303.42 295.957 1302.78 295.844 1302.2 295.617C1301.62 295.382 1301.11 295.054 1300.68 294.636C1300.25 294.217 1299.92 293.724 1299.67 293.157C1299.44 292.59 1299.32 291.97 1299.32 291.298C1299.32 290.627 1299.44 290.007 1299.67 289.44C1299.92 288.873 1300.25 288.38 1300.68 287.961C1301.12 287.542 1301.63 287.22 1302.21 286.993C1302.8 286.757 1303.43 286.639 1304.12 286.639C1304.79 286.639 1305.41 286.753 1306 286.98C1306.58 287.198 1307.07 287.529 1307.47 287.974L1306.86 288.589C1306.48 288.206 1306.07 287.931 1305.62 287.765C1305.16 287.59 1304.67 287.503 1304.15 287.503C1303.6 287.503 1303.09 287.599 1302.62 287.791C1302.15 287.974 1301.74 288.24 1301.39 288.589C1301.04 288.93 1300.76 289.331 1300.56 289.793C1300.37 290.247 1300.28 290.749 1300.28 291.298C1300.28 291.848 1300.37 292.354 1300.56 292.817C1300.76 293.27 1301.04 293.672 1301.39 294.021C1301.74 294.361 1302.15 294.627 1302.62 294.819C1303.09 295.002 1303.6 295.094 1304.15 295.094C1304.67 295.094 1305.16 295.006 1305.62 294.832C1306.07 294.657 1306.48 294.378 1306.86 293.994L1307.47 294.609C1307.07 295.054 1306.58 295.39 1306 295.617C1305.41 295.844 1304.78 295.957 1304.11 295.957ZM1308.45 295.879V295.211L1312.26 291.482C1312.61 291.141 1312.87 290.845 1313.05 290.592C1313.22 290.33 1313.34 290.086 1313.4 289.859C1313.46 289.632 1313.49 289.418 1313.49 289.218C1313.49 288.685 1313.31 288.267 1312.94 287.961C1312.59 287.656 1312.05 287.503 1311.35 287.503C1310.81 287.503 1310.33 287.586 1309.91 287.752C1309.5 287.918 1309.14 288.175 1308.85 288.524L1308.18 287.948C1308.54 287.529 1309 287.207 1309.55 286.98C1310.11 286.753 1310.74 286.639 1311.43 286.639C1312.05 286.639 1312.58 286.74 1313.04 286.94C1313.49 287.132 1313.84 287.416 1314.08 287.791C1314.34 288.166 1314.46 288.607 1314.46 289.113C1314.46 289.41 1314.42 289.702 1314.33 289.99C1314.25 290.278 1314.1 290.583 1313.89 290.906C1313.68 291.22 1313.37 291.578 1312.96 291.979L1309.46 295.408L1309.2 295.041H1314.88V295.879H1308.45ZM1319.69 295.957C1318.98 295.957 1318.35 295.774 1317.8 295.408C1317.25 295.033 1316.82 294.5 1316.51 293.811C1316.19 293.113 1316.04 292.276 1316.04 291.298C1316.04 290.321 1316.19 289.488 1316.51 288.799C1316.82 288.101 1317.25 287.569 1317.8 287.202C1318.35 286.827 1318.98 286.639 1319.69 286.639C1320.4 286.639 1321.02 286.827 1321.57 287.202C1322.12 287.569 1322.55 288.101 1322.87 288.799C1323.19 289.488 1323.35 290.321 1323.35 291.298C1323.35 292.276 1323.19 293.113 1322.87 293.811C1322.55 294.5 1322.12 295.033 1321.57 295.408C1321.02 295.774 1320.4 295.957 1319.69 295.957ZM1319.69 295.094C1320.23 295.094 1320.7 294.95 1321.1 294.662C1321.5 294.365 1321.82 293.938 1322.04 293.379C1322.27 292.812 1322.38 292.119 1322.38 291.298C1322.38 290.478 1322.27 289.789 1322.04 289.231C1321.82 288.664 1321.5 288.236 1321.1 287.948C1320.7 287.651 1320.23 287.503 1319.69 287.503C1319.17 287.503 1318.7 287.651 1318.29 287.948C1317.88 288.236 1317.56 288.664 1317.33 289.231C1317.11 289.789 1316.99 290.478 1316.99 291.298C1316.99 292.119 1317.11 292.812 1317.33 293.379C1317.56 293.938 1317.88 294.365 1318.29 294.662C1318.7 294.95 1319.17 295.094 1319.69 295.094ZM1326.38 290.814H1331.22V291.639H1326.38V290.814ZM1326.48 295.041H1331.99V295.879H1325.51V286.718H1331.8V287.556H1326.48V295.041Z" fill="black"/>
<path d="M833.761 200.906L806.531 137.791H822.31L846.113 193.693H836.826L860.991 137.791H875.507L848.187 200.906H833.761ZM880.578 200.906V152.397H894.643V200.906H880.578ZM887.611 145.635C885.026 145.635 882.922 144.884 881.299 143.381C879.676 141.878 878.864 140.015 878.864 137.791C878.864 135.567 879.676 133.703 881.299 132.2C882.922 130.698 885.026 129.946 887.611 129.946C890.195 129.946 892.299 130.668 893.922 132.11C895.545 133.493 896.357 135.296 896.357 137.52C896.357 139.864 895.545 141.818 893.922 143.381C892.359 144.884 890.255 145.635 887.611 145.635ZM924.018 201.628C919.87 201.628 915.873 201.147 912.026 200.185C908.239 199.163 905.233 197.901 903.009 196.398L907.698 186.299C909.922 187.682 912.536 188.824 915.542 189.726C918.608 190.567 921.613 190.988 924.558 190.988C927.804 190.988 930.089 190.597 931.411 189.816C932.794 189.035 933.485 187.953 933.485 186.57C933.485 185.428 932.944 184.586 931.862 184.045C930.84 183.444 929.457 182.993 927.714 182.693C925.971 182.392 924.048 182.092 921.944 181.791C919.9 181.491 917.826 181.1 915.722 180.619C913.618 180.078 911.695 179.297 909.952 178.275C908.209 177.253 906.796 175.87 905.714 174.127C904.692 172.384 904.181 170.13 904.181 167.365C904.181 164.299 905.053 161.594 906.796 159.25C908.599 156.906 911.184 155.072 914.55 153.75C917.916 152.367 921.944 151.676 926.632 151.676C929.938 151.676 933.305 152.037 936.731 152.758C940.157 153.479 943.012 154.531 945.296 155.914L940.608 165.922C938.264 164.54 935.889 163.608 933.485 163.127C931.141 162.586 928.856 162.316 926.632 162.316C923.507 162.316 921.222 162.736 919.78 163.578C918.337 164.419 917.616 165.501 917.616 166.824C917.616 168.026 918.127 168.928 919.149 169.529C920.231 170.13 921.643 170.611 923.386 170.971C925.13 171.332 927.023 171.663 929.067 171.963C931.171 172.204 933.274 172.594 935.378 173.135C937.482 173.676 939.376 174.458 941.059 175.48C942.802 176.441 944.214 177.794 945.296 179.537C946.378 181.22 946.919 183.444 946.919 186.209C946.919 189.215 946.018 191.89 944.214 194.234C942.411 196.518 939.796 198.322 936.37 199.644C933.004 200.966 928.886 201.628 924.018 201.628ZM976.065 201.628C972.038 201.628 968.431 200.846 965.246 199.283C962.12 197.72 959.685 195.346 957.942 192.16C956.199 188.914 955.327 184.797 955.327 179.808V152.397H969.393V177.734C969.393 181.761 970.235 184.737 971.918 186.66C973.661 188.524 976.095 189.455 979.221 189.455C981.385 189.455 983.309 189.004 984.992 188.103C986.675 187.141 987.997 185.698 988.959 183.775C989.921 181.791 990.402 179.327 990.402 176.381V152.397H1004.47V200.906H991.123V187.562L993.557 191.439C991.934 194.805 989.53 197.36 986.344 199.103C983.218 200.786 979.792 201.628 976.065 201.628ZM1047.25 200.906V191.439L1046.35 189.365V172.414C1046.35 169.409 1045.42 167.064 1043.56 165.381C1041.75 163.698 1038.96 162.857 1035.17 162.857C1032.59 162.857 1030.03 163.277 1027.51 164.119C1025.04 164.9 1022.94 165.982 1021.2 167.365L1016.15 157.537C1018.79 155.673 1021.98 154.231 1025.7 153.209C1029.43 152.187 1033.22 151.676 1037.06 151.676C1044.46 151.676 1050.2 153.419 1054.29 156.906C1058.37 160.392 1060.42 165.832 1060.42 173.226V200.906H1047.25ZM1032.47 201.628C1028.68 201.628 1025.43 200.996 1022.73 199.734C1020.02 198.412 1017.95 196.638 1016.51 194.414C1015.06 192.19 1014.34 189.696 1014.34 186.931C1014.34 184.045 1015.03 181.521 1016.42 179.357C1017.86 177.193 1020.11 175.51 1023.18 174.308C1026.24 173.045 1030.24 172.414 1035.17 172.414H1048.06V180.619H1036.7C1033.4 180.619 1031.11 181.16 1029.85 182.242C1028.65 183.324 1028.05 184.677 1028.05 186.299C1028.05 188.103 1028.74 189.545 1030.12 190.627C1031.56 191.649 1033.52 192.16 1035.98 192.16C1038.33 192.16 1040.43 191.619 1042.29 190.537C1044.16 189.395 1045.51 187.742 1046.35 185.578L1048.52 192.07C1047.49 195.196 1045.63 197.57 1042.92 199.193C1040.22 200.816 1036.73 201.628 1032.47 201.628ZM1073.15 200.906V134.004H1087.21V200.906H1073.15Z" fill="white"/>
<path d="M1147.53 201.988C1142.48 201.988 1137.64 201.327 1133.02 200.005C1128.39 198.622 1124.66 196.849 1121.83 194.685L1126.79 183.685C1129.5 185.608 1132.68 187.201 1136.35 188.463C1140.08 189.666 1143.84 190.267 1147.62 190.267C1150.51 190.267 1152.82 189.996 1154.56 189.455C1156.37 188.854 1157.69 188.043 1158.53 187.021C1159.37 185.999 1159.79 184.827 1159.79 183.504C1159.79 181.821 1159.13 180.499 1157.81 179.537C1156.49 178.515 1154.75 177.704 1152.58 177.103C1150.42 176.441 1148.01 175.84 1145.37 175.299C1142.78 174.698 1140.17 173.977 1137.52 173.135C1134.94 172.294 1132.56 171.212 1130.4 169.889C1128.24 168.567 1126.46 166.824 1125.08 164.66C1123.76 162.496 1123.1 159.731 1123.1 156.365C1123.1 152.758 1124.06 149.482 1125.98 146.537C1127.97 143.531 1130.91 141.157 1134.82 139.414C1138.79 137.61 1143.75 136.709 1149.7 136.709C1153.66 136.709 1157.57 137.19 1161.42 138.151C1165.26 139.053 1168.66 140.435 1171.61 142.299L1167.1 153.389C1164.15 151.706 1161.21 150.474 1158.26 149.692C1155.32 148.851 1152.43 148.43 1149.61 148.43C1146.78 148.43 1144.47 148.761 1142.66 149.422C1140.86 150.083 1139.57 150.955 1138.79 152.037C1138 153.059 1137.61 154.261 1137.61 155.643C1137.61 157.266 1138.28 158.589 1139.6 159.611C1140.92 160.572 1142.66 161.354 1144.83 161.955C1146.99 162.556 1149.37 163.157 1151.95 163.758C1154.59 164.359 1157.21 165.051 1159.79 165.832C1162.44 166.613 1164.84 167.665 1167.01 168.988C1169.17 170.31 1170.91 172.053 1172.24 174.217C1173.62 176.381 1174.31 179.116 1174.31 182.422C1174.31 185.969 1173.32 189.215 1171.34 192.16C1169.35 195.106 1166.38 197.48 1162.41 199.283C1158.5 201.087 1153.54 201.988 1147.53 201.988ZM1203.14 201.628C1197.43 201.628 1192.98 200.185 1189.79 197.3C1186.61 194.354 1185.01 189.996 1185.01 184.226V141.668H1199.08V184.045C1199.08 186.089 1199.62 187.682 1200.7 188.824C1201.78 189.906 1203.26 190.447 1205.12 190.447C1207.34 190.447 1209.24 189.846 1210.8 188.644L1214.59 198.562C1213.14 199.584 1211.4 200.365 1209.36 200.906C1207.37 201.387 1205.3 201.628 1203.14 201.628ZM1177.53 164.299V153.479H1211.16V164.299H1177.53ZM1227.73 219.12C1225.21 219.12 1222.71 218.729 1220.25 217.947C1217.79 217.166 1215.77 216.084 1214.21 214.702L1219.35 204.693C1220.43 205.655 1221.66 206.406 1223.05 206.947C1224.49 207.488 1225.9 207.759 1227.28 207.759C1229.27 207.759 1230.83 207.278 1231.97 206.316C1233.17 205.415 1234.26 203.882 1235.22 201.718L1237.74 195.767L1238.82 194.234L1256.23 152.397H1269.75L1247.84 203.882C1246.28 207.789 1244.47 210.854 1242.43 213.079C1240.45 215.303 1238.22 216.865 1235.76 217.767C1233.35 218.669 1230.68 219.12 1227.73 219.12ZM1236.03 202.8L1214.39 152.397H1228.91L1245.68 192.972L1236.03 202.8ZM1275.49 200.906V134.004H1289.56V200.906H1275.49ZM1326.68 201.628C1321.15 201.628 1316.29 200.546 1312.08 198.382C1307.93 196.218 1304.71 193.272 1302.43 189.545C1300.15 185.759 1299 181.461 1299 176.652C1299 171.783 1300.12 167.485 1302.34 163.758C1304.62 159.971 1307.72 157.026 1311.63 154.922C1315.53 152.758 1319.95 151.676 1324.88 151.676C1329.63 151.676 1333.9 152.698 1337.68 154.742C1341.53 156.725 1344.57 159.611 1346.79 163.398C1349.02 167.124 1350.13 171.603 1350.13 176.832C1350.13 177.373 1350.1 178.004 1350.04 178.726C1349.98 179.387 1349.92 180.018 1349.86 180.619H1310.45V172.414H1342.46L1337.05 174.849C1337.05 172.324 1336.54 170.13 1335.52 168.266C1334.5 166.403 1333.09 164.96 1331.28 163.939C1329.48 162.857 1327.38 162.316 1324.97 162.316C1322.57 162.316 1320.43 162.857 1318.57 163.939C1316.77 164.96 1315.35 166.433 1314.33 168.357C1313.31 170.22 1312.8 172.444 1312.8 175.029V177.193C1312.8 179.838 1313.37 182.182 1314.51 184.226C1315.71 186.209 1317.37 187.742 1319.47 188.824C1321.64 189.846 1324.16 190.357 1327.05 190.357C1329.63 190.357 1331.88 189.966 1333.81 189.185C1335.79 188.403 1337.59 187.231 1339.22 185.668L1346.7 193.783C1344.48 196.308 1341.68 198.261 1338.32 199.644C1334.95 200.966 1331.07 201.628 1326.68 201.628Z" fill="#39FF13"/>
<defs>
<radialGradient id="paint0_radial_230_4481" cx="0" cy="0" r="1" gradientUnits="userSpaceOnUse" gradientTransform="translate(341.5 988.128) rotate(-82.2702) scale(903.336 1501.64)">
<stop stop-color="#184ECC"/>
<stop offset="0.925" stop-color="#0C2766"/>
</radialGradient>
<clipPath id="clip0_230_4481">
<rect width="118.747" height="59.3736" fill="white" transform="translate(1016.37 598.465)"/>
</clipPath>
<clipPath id="clip1_230_4481">
<rect x="157" y="436" width="300" height="277" rx="25" fill="white"/>
</clipPath>
</defs>
</svg>
