<svg width="1512" height="50" viewBox="0 0 1512 50" fill="none" xmlns="http://www.w3.org/2000/svg">
<rect width="1512" height="50" fill="black"/>
<path d="M133.052 23.0966H141.842V26.3833H133.052V23.0966ZM133.365 30.609H143.303V34H129.165V15.7408H142.964V19.1318H133.365V30.609ZM153.084 34.2087C151.571 34.2087 150.223 33.9044 149.041 33.2957C147.858 32.6697 146.928 31.8089 146.25 30.7133C145.589 29.6178 145.258 28.3744 145.258 26.9832C145.258 25.5747 145.589 24.3313 146.25 23.2531C146.928 22.1576 147.858 21.3055 149.041 20.6968C150.223 20.0708 151.571 19.7578 153.084 19.7578C154.562 19.7578 155.849 20.0708 156.944 20.6968C158.04 21.3055 158.849 22.1837 159.37 23.3314L156.214 25.0269C155.849 24.3661 155.388 23.8792 154.831 23.5661C154.292 23.2531 153.701 23.0966 153.058 23.0966C152.362 23.0966 151.736 23.2531 151.18 23.5661C150.623 23.8792 150.18 24.3226 149.849 24.8965C149.536 25.4703 149.38 26.1659 149.38 26.9832C149.38 27.8006 149.536 28.4961 149.849 29.07C150.18 29.6439 150.623 30.0873 151.18 30.4003C151.736 30.7133 152.362 30.8698 153.058 30.8698C153.701 30.8698 154.292 30.722 154.831 30.4264C155.388 30.1134 155.849 29.6178 156.214 28.9396L159.37 30.6612C158.849 31.7915 158.04 32.6697 156.944 33.2957C155.849 33.9044 154.562 34.2087 153.084 34.2087ZM168.212 34.2087C166.717 34.2087 165.387 33.8957 164.222 33.2696C163.074 32.6436 162.161 31.7915 161.483 30.7133C160.822 29.6178 160.491 28.3744 160.491 26.9832C160.491 25.5747 160.822 24.3313 161.483 23.2531C162.161 22.1576 163.074 21.3055 164.222 20.6968C165.387 20.0708 166.717 19.7578 168.212 19.7578C169.691 19.7578 171.012 20.0708 172.177 20.6968C173.342 21.3055 174.255 22.1489 174.916 23.227C175.577 24.3052 175.907 25.5573 175.907 26.9832C175.907 28.3744 175.577 29.6178 174.916 30.7133C174.255 31.7915 173.342 32.6436 172.177 33.2696C171.012 33.8957 169.691 34.2087 168.212 34.2087ZM168.212 30.8698C168.891 30.8698 169.499 30.7133 170.038 30.4003C170.578 30.0873 171.004 29.6439 171.317 29.07C171.63 28.4788 171.786 27.7832 171.786 26.9832C171.786 26.1659 171.63 25.4703 171.317 24.8965C171.004 24.3226 170.578 23.8792 170.038 23.5661C169.499 23.2531 168.891 23.0966 168.212 23.0966C167.534 23.0966 166.926 23.2531 166.387 23.5661C165.847 23.8792 165.413 24.3226 165.082 24.8965C164.769 25.4703 164.613 26.1659 164.613 26.9832C164.613 27.7832 164.769 28.4788 165.082 29.07C165.413 29.6439 165.847 30.0873 166.387 30.4003C166.926 30.7133 167.534 30.8698 168.212 30.8698Z" fill="#39FF13"/>
<path d="M178.914 34V15.7408H187.209C189.192 15.7408 190.939 16.1233 192.452 16.8885C193.965 17.6362 195.148 18.6883 196 20.0447C196.852 21.4011 197.278 23.0097 197.278 24.8704C197.278 26.7137 196.852 28.3222 196 29.696C195.148 31.0524 193.965 32.1132 192.452 32.8784C190.939 33.6261 189.192 34 187.209 34H178.914ZM183.14 30.5307H187.001C188.218 30.5307 189.27 30.3047 190.157 29.8525C191.061 29.383 191.757 28.7222 192.244 27.8701C192.748 27.018 193 26.0181 193 24.8704C193 23.7053 192.748 22.7054 192.244 21.8706C191.757 21.0185 191.061 20.3664 190.157 19.9143C189.27 19.4448 188.218 19.21 187.001 19.21H183.14V30.5307ZM200.178 34V19.9665H204.064V23.9313L203.517 22.7836C203.934 21.7924 204.603 21.0446 205.525 20.5403C206.447 20.0186 207.568 19.7578 208.89 19.7578V23.514C208.716 23.4966 208.56 23.4879 208.421 23.4879C208.281 23.4705 208.134 23.4618 207.977 23.4618C206.864 23.4618 205.96 23.7835 205.264 24.4269C204.586 25.053 204.247 26.0355 204.247 27.3745V34H200.178ZM211.335 34V19.9665H215.404V34H211.335ZM213.37 18.0101C212.622 18.0101 212.013 17.7927 211.544 17.358C211.074 16.9233 210.839 16.3842 210.839 15.7408C210.839 15.0973 211.074 14.5583 211.544 14.1235C212.013 13.6888 212.622 13.4714 213.37 13.4714C214.117 13.4714 214.726 13.6801 215.196 14.0974C215.665 14.4974 215.9 15.0191 215.9 15.6625C215.9 16.3407 215.665 16.9059 215.196 17.358C214.743 17.7927 214.135 18.0101 213.37 18.0101ZM222.989 34L217.094 19.9665H221.294L226.198 32.0437H224.111L229.197 19.9665H233.11L227.189 34H222.989ZM241.353 34.2087C239.753 34.2087 238.345 33.8957 237.127 33.2696C235.927 32.6436 234.997 31.7915 234.336 30.7133C233.675 29.6178 233.345 28.3744 233.345 26.9832C233.345 25.5747 233.667 24.3313 234.31 23.2531C234.971 22.1576 235.867 21.3055 236.997 20.6968C238.127 20.0708 239.405 19.7578 240.831 19.7578C242.205 19.7578 243.44 20.0534 244.535 20.6447C245.648 21.2185 246.526 22.0532 247.17 23.1488C247.813 24.227 248.135 25.5225 248.135 27.0354C248.135 27.1919 248.126 27.3745 248.109 27.5832C248.092 27.7745 248.074 27.9571 248.057 28.131H236.658V25.7573H245.918L244.353 26.4615C244.353 25.7312 244.205 25.0964 243.909 24.5574C243.614 24.0183 243.205 23.6009 242.683 23.3053C242.162 22.9923 241.553 22.8358 240.857 22.8358C240.162 22.8358 239.544 22.9923 239.005 23.3053C238.484 23.6009 238.075 24.027 237.779 24.5834C237.484 25.1225 237.336 25.766 237.336 26.5137V27.1397C237.336 27.9049 237.501 28.5831 237.832 29.1743C238.179 29.7482 238.658 30.1916 239.266 30.5047C239.892 30.8003 240.623 30.9481 241.457 30.9481C242.205 30.9481 242.857 30.8351 243.414 30.609C243.988 30.3829 244.509 30.0438 244.979 29.5917L247.144 31.9393C246.5 32.6697 245.692 33.2349 244.718 33.6348C243.744 34.0174 242.622 34.2087 241.353 34.2087Z" fill="white"/>
<path d="M381.052 23.0966H389.842V26.3833H381.052V23.0966ZM381.365 30.609H391.303V34H377.165V15.7408H390.964V19.1318H381.365V30.609ZM401.084 34.2087C399.571 34.2087 398.223 33.9044 397.041 33.2957C395.858 32.6697 394.928 31.8089 394.25 30.7133C393.589 29.6178 393.258 28.3744 393.258 26.9832C393.258 25.5747 393.589 24.3313 394.25 23.2531C394.928 22.1576 395.858 21.3055 397.041 20.6968C398.223 20.0708 399.571 19.7578 401.084 19.7578C402.562 19.7578 403.849 20.0708 404.944 20.6968C406.04 21.3055 406.849 22.1837 407.37 23.3314L404.214 25.0269C403.849 24.3661 403.388 23.8792 402.831 23.5661C402.292 23.2531 401.701 23.0966 401.058 23.0966C400.362 23.0966 399.736 23.2531 399.18 23.5661C398.623 23.8792 398.18 24.3226 397.849 24.8965C397.536 25.4703 397.38 26.1659 397.38 26.9832C397.38 27.8006 397.536 28.4961 397.849 29.07C398.18 29.6439 398.623 30.0873 399.18 30.4003C399.736 30.7133 400.362 30.8698 401.058 30.8698C401.701 30.8698 402.292 30.722 402.831 30.4264C403.388 30.1134 403.849 29.6178 404.214 28.9396L407.37 30.6612C406.849 31.7915 406.04 32.6697 404.944 33.2957C403.849 33.9044 402.562 34.2087 401.084 34.2087ZM416.212 34.2087C414.717 34.2087 413.387 33.8957 412.222 33.2696C411.074 32.6436 410.161 31.7915 409.483 30.7133C408.822 29.6178 408.491 28.3744 408.491 26.9832C408.491 25.5747 408.822 24.3313 409.483 23.2531C410.161 22.1576 411.074 21.3055 412.222 20.6968C413.387 20.0708 414.717 19.7578 416.212 19.7578C417.691 19.7578 419.012 20.0708 420.177 20.6968C421.342 21.3055 422.255 22.1489 422.916 23.227C423.577 24.3052 423.907 25.5573 423.907 26.9832C423.907 28.3744 423.577 29.6178 422.916 30.7133C422.255 31.7915 421.342 32.6436 420.177 33.2696C419.012 33.8957 417.691 34.2087 416.212 34.2087ZM416.212 30.8698C416.891 30.8698 417.499 30.7133 418.038 30.4003C418.578 30.0873 419.004 29.6439 419.317 29.07C419.63 28.4788 419.786 27.7832 419.786 26.9832C419.786 26.1659 419.63 25.4703 419.317 24.8965C419.004 24.3226 418.578 23.8792 418.038 23.5661C417.499 23.2531 416.891 23.0966 416.212 23.0966C415.534 23.0966 414.926 23.2531 414.387 23.5661C413.847 23.8792 413.413 24.3226 413.082 24.8965C412.769 25.4703 412.613 26.1659 412.613 26.9832C412.613 27.7832 412.769 28.4788 413.082 29.07C413.413 29.6439 413.847 30.0873 414.387 30.4003C414.926 30.7133 415.534 30.8698 416.212 30.8698Z" fill="#39FF13"/>
<path d="M426.914 34V15.7408H435.209C437.192 15.7408 438.939 16.1233 440.452 16.8885C441.965 17.6362 443.148 18.6883 444 20.0447C444.852 21.4011 445.278 23.0097 445.278 24.8704C445.278 26.7137 444.852 28.3222 444 29.696C443.148 31.0524 441.965 32.1132 440.452 32.8784C438.939 33.6261 437.192 34 435.209 34H426.914ZM431.14 30.5307H435.001C436.218 30.5307 437.27 30.3047 438.157 29.8525C439.061 29.383 439.757 28.7222 440.244 27.8701C440.748 27.018 441 26.0181 441 24.8704C441 23.7053 440.748 22.7054 440.244 21.8706C439.757 21.0185 439.061 20.3664 438.157 19.9143C437.27 19.4448 436.218 19.21 435.001 19.21H431.14V30.5307ZM448.178 34V19.9665H452.064V23.9313L451.517 22.7836C451.934 21.7924 452.603 21.0446 453.525 20.5403C454.447 20.0186 455.568 19.7578 456.89 19.7578V23.514C456.716 23.4966 456.56 23.4879 456.421 23.4879C456.281 23.4705 456.134 23.4618 455.977 23.4618C454.864 23.4618 453.96 23.7835 453.264 24.4269C452.586 25.053 452.247 26.0355 452.247 27.3745V34H448.178ZM459.335 34V19.9665H463.404V34H459.335ZM461.37 18.0101C460.622 18.0101 460.013 17.7927 459.544 17.358C459.074 16.9233 458.839 16.3842 458.839 15.7408C458.839 15.0973 459.074 14.5583 459.544 14.1235C460.013 13.6888 460.622 13.4714 461.37 13.4714C462.117 13.4714 462.726 13.6801 463.196 14.0974C463.665 14.4974 463.9 15.0191 463.9 15.6625C463.9 16.3407 463.665 16.9059 463.196 17.358C462.743 17.7927 462.135 18.0101 461.37 18.0101ZM470.989 34L465.094 19.9665H469.294L474.198 32.0437H472.111L477.197 19.9665H481.11L475.189 34H470.989ZM489.353 34.2087C487.753 34.2087 486.345 33.8957 485.127 33.2696C483.927 32.6436 482.997 31.7915 482.336 30.7133C481.675 29.6178 481.345 28.3744 481.345 26.9832C481.345 25.5747 481.667 24.3313 482.31 23.2531C482.971 22.1576 483.867 21.3055 484.997 20.6968C486.127 20.0708 487.405 19.7578 488.831 19.7578C490.205 19.7578 491.44 20.0534 492.535 20.6447C493.648 21.2185 494.526 22.0532 495.17 23.1488C495.813 24.227 496.135 25.5225 496.135 27.0354C496.135 27.1919 496.126 27.3745 496.109 27.5832C496.092 27.7745 496.074 27.9571 496.057 28.131H484.658V25.7573H493.918L492.353 26.4615C492.353 25.7312 492.205 25.0964 491.909 24.5574C491.614 24.0183 491.205 23.6009 490.683 23.3053C490.162 22.9923 489.553 22.8358 488.857 22.8358C488.162 22.8358 487.544 22.9923 487.005 23.3053C486.484 23.6009 486.075 24.027 485.779 24.5834C485.484 25.1225 485.336 25.766 485.336 26.5137V27.1397C485.336 27.9049 485.501 28.5831 485.832 29.1743C486.179 29.7482 486.658 30.1916 487.266 30.5047C487.892 30.8003 488.623 30.9481 489.457 30.9481C490.205 30.9481 490.857 30.8351 491.414 30.609C491.988 30.3829 492.509 30.0438 492.979 29.5917L495.144 31.9393C494.5 32.6697 493.692 33.2349 492.718 33.6348C491.744 34.0174 490.622 34.2087 489.353 34.2087Z" fill="white"/>
<path d="M272 27.3729L273.521 34.3608L274.929 28.7623L302.968 24.1589C302.968 24.1589 307.581 18.431 312 16.4539C316.419 14.4768 328.815 19.4558 337.145 25.1354L350.488 21.4539L343.841 27.6767L347.437 33.1455C347.196 30.9988 346.903 29.8213 345.308 27.6767L352 20.6887L337.703 22.2078C331.869 18.5298 324.428 16.2217 320.365 15.5237C316.302 14.8256 314.093 14.8253 311.848 15.5237C309.603 16.222 305.69 18.85 301.202 22.2078L272 27.3729Z" fill="white"/>
<path d="M313.709 22.4849L301.414 22.267L300.457 24.5774L313.709 22.4849Z" fill="white"/>
<path d="M342.725 27.7248L330.429 27.5068L329.473 29.8173L342.725 27.7248Z" fill="white"/>
<path d="M294.154 34.3607C293.919 27.4602 287.958 25.6968 284.557 26.5549L285.487 25.756C287.698 24.5024 295.382 25.3454 296.691 32.2497L321.068 34.3607H294.154Z" fill="white"/>
<g clip-path="url(#clip0_199_3386)">
<circle cx="341.052" cy="44.944" r="17.4372" fill="white"/>
</g>
<path d="M24 27.3729L25.5209 34.3608L26.9294 28.7623L54.9685 24.1589C54.9685 24.1589 59.5814 18.431 64 16.4539C68.4186 14.4768 80.8151 19.4558 89.1453 25.1354L102.488 21.4539L95.8412 27.6767L99.4373 33.1455C99.1962 30.9988 98.9026 29.8213 97.308 27.6767L104 20.6887L89.7034 22.2078C83.8692 18.5298 76.4277 16.2217 72.365 15.5237C68.3023 14.8256 66.093 14.8253 63.8479 15.5237C61.6028 16.222 57.6896 18.85 53.2015 22.2078L24 27.3729Z" fill="white"/>
<path d="M65.7093 22.4849L53.4137 22.267L52.457 24.5774L65.7093 22.4849Z" fill="white"/>
<path d="M94.7249 27.7248L82.4293 27.5068L81.4727 29.8173L94.7249 27.7248Z" fill="white"/>
<path d="M46.154 34.3607C45.9192 27.4602 39.9578 25.6968 36.5566 26.5549L37.4869 25.756C39.6977 24.5024 47.3815 25.3454 48.6907 32.2497L73.0683 34.3607H46.154Z" fill="white"/>
<g clip-path="url(#clip1_199_3386)">
<circle cx="93.0524" cy="44.944" r="17.4372" fill="white"/>
</g>
<path d="M520 27.3729L521.521 34.3608L522.929 28.7623L550.968 24.1589C550.968 24.1589 555.581 18.431 560 16.4539C564.419 14.4768 576.815 19.4558 585.145 25.1354L598.488 21.4539L591.841 27.6767L595.437 33.1455C595.196 30.9988 594.903 29.8213 593.308 27.6767L600 20.6887L585.703 22.2078C579.869 18.5298 572.428 16.2217 568.365 15.5237C564.302 14.8256 562.093 14.8253 559.848 15.5237C557.603 16.222 553.69 18.85 549.202 22.2078L520 27.3729Z" fill="white"/>
<path d="M561.709 22.4849L549.414 22.267L548.457 24.5774L561.709 22.4849Z" fill="white"/>
<path d="M590.725 27.7248L578.429 27.5068L577.473 29.8173L590.725 27.7248Z" fill="white"/>
<path d="M542.154 34.3607C541.919 27.4602 535.958 25.6968 532.557 26.5549L533.487 25.756C535.698 24.5024 543.382 25.3454 544.691 32.2497L569.068 34.3607H542.154Z" fill="white"/>
<g clip-path="url(#clip2_199_3386)">
<circle cx="589.052" cy="44.944" r="17.4372" fill="white"/>
</g>
<path d="M629.052 23.0966H637.842V26.3833H629.052V23.0966ZM629.365 30.609H639.303V34H625.165V15.7408H638.964V19.1318H629.365V30.609ZM649.084 34.2087C647.571 34.2087 646.223 33.9044 645.041 33.2957C643.858 32.6697 642.928 31.8089 642.25 30.7133C641.589 29.6178 641.258 28.3744 641.258 26.9832C641.258 25.5747 641.589 24.3313 642.25 23.2531C642.928 22.1576 643.858 21.3055 645.041 20.6968C646.223 20.0708 647.571 19.7578 649.084 19.7578C650.562 19.7578 651.849 20.0708 652.944 20.6968C654.04 21.3055 654.849 22.1837 655.37 23.3314L652.214 25.0269C651.849 24.3661 651.388 23.8792 650.831 23.5661C650.292 23.2531 649.701 23.0966 649.058 23.0966C648.362 23.0966 647.736 23.2531 647.18 23.5661C646.623 23.8792 646.18 24.3226 645.849 24.8965C645.536 25.4703 645.38 26.1659 645.38 26.9832C645.38 27.8006 645.536 28.4961 645.849 29.07C646.18 29.6439 646.623 30.0873 647.18 30.4003C647.736 30.7133 648.362 30.8698 649.058 30.8698C649.701 30.8698 650.292 30.722 650.831 30.4264C651.388 30.1134 651.849 29.6178 652.214 28.9396L655.37 30.6612C654.849 31.7915 654.04 32.6697 652.944 33.2957C651.849 33.9044 650.562 34.2087 649.084 34.2087ZM664.212 34.2087C662.717 34.2087 661.387 33.8957 660.222 33.2696C659.074 32.6436 658.161 31.7915 657.483 30.7133C656.822 29.6178 656.491 28.3744 656.491 26.9832C656.491 25.5747 656.822 24.3313 657.483 23.2531C658.161 22.1576 659.074 21.3055 660.222 20.6968C661.387 20.0708 662.717 19.7578 664.212 19.7578C665.691 19.7578 667.012 20.0708 668.177 20.6968C669.342 21.3055 670.255 22.1489 670.916 23.227C671.577 24.3052 671.907 25.5573 671.907 26.9832C671.907 28.3744 671.577 29.6178 670.916 30.7133C670.255 31.7915 669.342 32.6436 668.177 33.2696C667.012 33.8957 665.691 34.2087 664.212 34.2087ZM664.212 30.8698C664.891 30.8698 665.499 30.7133 666.038 30.4003C666.578 30.0873 667.004 29.6439 667.317 29.07C667.63 28.4788 667.786 27.7832 667.786 26.9832C667.786 26.1659 667.63 25.4703 667.317 24.8965C667.004 24.3226 666.578 23.8792 666.038 23.5661C665.499 23.2531 664.891 23.0966 664.212 23.0966C663.534 23.0966 662.926 23.2531 662.387 23.5661C661.847 23.8792 661.413 24.3226 661.082 24.8965C660.769 25.4703 660.613 26.1659 660.613 26.9832C660.613 27.7832 660.769 28.4788 661.082 29.07C661.413 29.6439 661.847 30.0873 662.387 30.4003C662.926 30.7133 663.534 30.8698 664.212 30.8698Z" fill="#39FF13"/>
<path d="M674.914 34V15.7408H683.209C685.192 15.7408 686.939 16.1233 688.452 16.8885C689.965 17.6362 691.148 18.6883 692 20.0447C692.852 21.4011 693.278 23.0097 693.278 24.8704C693.278 26.7137 692.852 28.3222 692 29.696C691.148 31.0524 689.965 32.1132 688.452 32.8784C686.939 33.6261 685.192 34 683.209 34H674.914ZM679.14 30.5307H683.001C684.218 30.5307 685.27 30.3047 686.157 29.8525C687.061 29.383 687.757 28.7222 688.244 27.8701C688.748 27.018 689 26.0181 689 24.8704C689 23.7053 688.748 22.7054 688.244 21.8706C687.757 21.0185 687.061 20.3664 686.157 19.9143C685.27 19.4448 684.218 19.21 683.001 19.21H679.14V30.5307ZM696.178 34V19.9665H700.064V23.9313L699.517 22.7836C699.934 21.7924 700.603 21.0446 701.525 20.5403C702.447 20.0186 703.568 19.7578 704.89 19.7578V23.514C704.716 23.4966 704.56 23.4879 704.421 23.4879C704.281 23.4705 704.134 23.4618 703.977 23.4618C702.864 23.4618 701.96 23.7835 701.264 24.4269C700.586 25.053 700.247 26.0355 700.247 27.3745V34H696.178ZM707.335 34V19.9665H711.404V34H707.335ZM709.37 18.0101C708.622 18.0101 708.013 17.7927 707.544 17.358C707.074 16.9233 706.839 16.3842 706.839 15.7408C706.839 15.0973 707.074 14.5583 707.544 14.1235C708.013 13.6888 708.622 13.4714 709.37 13.4714C710.117 13.4714 710.726 13.6801 711.196 14.0974C711.665 14.4974 711.9 15.0191 711.9 15.6625C711.9 16.3407 711.665 16.9059 711.196 17.358C710.743 17.7927 710.135 18.0101 709.37 18.0101ZM718.989 34L713.094 19.9665H717.294L722.198 32.0437H720.111L725.197 19.9665H729.11L723.189 34H718.989ZM737.353 34.2087C735.753 34.2087 734.345 33.8957 733.127 33.2696C731.927 32.6436 730.997 31.7915 730.336 30.7133C729.675 29.6178 729.345 28.3744 729.345 26.9832C729.345 25.5747 729.667 24.3313 730.31 23.2531C730.971 22.1576 731.867 21.3055 732.997 20.6968C734.127 20.0708 735.405 19.7578 736.831 19.7578C738.205 19.7578 739.44 20.0534 740.535 20.6447C741.648 21.2185 742.526 22.0532 743.17 23.1488C743.813 24.227 744.135 25.5225 744.135 27.0354C744.135 27.1919 744.126 27.3745 744.109 27.5832C744.092 27.7745 744.074 27.9571 744.057 28.131H732.658V25.7573H741.918L740.353 26.4615C740.353 25.7312 740.205 25.0964 739.909 24.5574C739.614 24.0183 739.205 23.6009 738.683 23.3053C738.162 22.9923 737.553 22.8358 736.857 22.8358C736.162 22.8358 735.544 22.9923 735.005 23.3053C734.484 23.6009 734.075 24.027 733.779 24.5834C733.484 25.1225 733.336 25.766 733.336 26.5137V27.1397C733.336 27.9049 733.501 28.5831 733.832 29.1743C734.179 29.7482 734.658 30.1916 735.266 30.5047C735.892 30.8003 736.623 30.9481 737.457 30.9481C738.205 30.9481 738.857 30.8351 739.414 30.609C739.988 30.3829 740.509 30.0438 740.979 29.5917L743.144 31.9393C742.5 32.6697 741.692 33.2349 740.718 33.6348C739.744 34.0174 738.622 34.2087 737.353 34.2087Z" fill="white"/>
<path d="M768 27.3729L769.521 34.3608L770.929 28.7623L798.968 24.1589C798.968 24.1589 803.581 18.431 808 16.4539C812.419 14.4768 824.815 19.4558 833.145 25.1354L846.488 21.4539L839.841 27.6767L843.437 33.1455C843.196 30.9988 842.903 29.8213 841.308 27.6767L848 20.6887L833.703 22.2078C827.869 18.5298 820.428 16.2217 816.365 15.5237C812.302 14.8256 810.093 14.8253 807.848 15.5237C805.603 16.222 801.69 18.85 797.202 22.2078L768 27.3729Z" fill="white"/>
<path d="M809.709 22.4849L797.414 22.267L796.457 24.5774L809.709 22.4849Z" fill="white"/>
<path d="M838.725 27.7248L826.429 27.5068L825.473 29.8173L838.725 27.7248Z" fill="white"/>
<path d="M790.154 34.3607C789.919 27.4602 783.958 25.6968 780.557 26.5549L781.487 25.756C783.698 24.5024 791.382 25.3454 792.691 32.2497L817.068 34.3607H790.154Z" fill="white"/>
<g clip-path="url(#clip3_199_3386)">
<circle cx="837.052" cy="44.944" r="17.4372" fill="white"/>
</g>
<path d="M877.052 23.0966H885.842V26.3833H877.052V23.0966ZM877.365 30.609H887.303V34H873.165V15.7408H886.964V19.1318H877.365V30.609ZM897.084 34.2087C895.571 34.2087 894.223 33.9044 893.041 33.2957C891.858 32.6697 890.928 31.8089 890.25 30.7133C889.589 29.6178 889.258 28.3744 889.258 26.9832C889.258 25.5747 889.589 24.3313 890.25 23.2531C890.928 22.1576 891.858 21.3055 893.041 20.6968C894.223 20.0708 895.571 19.7578 897.084 19.7578C898.562 19.7578 899.849 20.0708 900.944 20.6968C902.04 21.3055 902.849 22.1837 903.37 23.3314L900.214 25.0269C899.849 24.3661 899.388 23.8792 898.831 23.5661C898.292 23.2531 897.701 23.0966 897.058 23.0966C896.362 23.0966 895.736 23.2531 895.18 23.5661C894.623 23.8792 894.18 24.3226 893.849 24.8965C893.536 25.4703 893.38 26.1659 893.38 26.9832C893.38 27.8006 893.536 28.4961 893.849 29.07C894.18 29.6439 894.623 30.0873 895.18 30.4003C895.736 30.7133 896.362 30.8698 897.058 30.8698C897.701 30.8698 898.292 30.722 898.831 30.4264C899.388 30.1134 899.849 29.6178 900.214 28.9396L903.37 30.6612C902.849 31.7915 902.04 32.6697 900.944 33.2957C899.849 33.9044 898.562 34.2087 897.084 34.2087ZM912.212 34.2087C910.717 34.2087 909.387 33.8957 908.222 33.2696C907.074 32.6436 906.161 31.7915 905.483 30.7133C904.822 29.6178 904.491 28.3744 904.491 26.9832C904.491 25.5747 904.822 24.3313 905.483 23.2531C906.161 22.1576 907.074 21.3055 908.222 20.6968C909.387 20.0708 910.717 19.7578 912.212 19.7578C913.691 19.7578 915.012 20.0708 916.177 20.6968C917.342 21.3055 918.255 22.1489 918.916 23.227C919.577 24.3052 919.907 25.5573 919.907 26.9832C919.907 28.3744 919.577 29.6178 918.916 30.7133C918.255 31.7915 917.342 32.6436 916.177 33.2696C915.012 33.8957 913.691 34.2087 912.212 34.2087ZM912.212 30.8698C912.891 30.8698 913.499 30.7133 914.038 30.4003C914.578 30.0873 915.004 29.6439 915.317 29.07C915.63 28.4788 915.786 27.7832 915.786 26.9832C915.786 26.1659 915.63 25.4703 915.317 24.8965C915.004 24.3226 914.578 23.8792 914.038 23.5661C913.499 23.2531 912.891 23.0966 912.212 23.0966C911.534 23.0966 910.926 23.2531 910.387 23.5661C909.847 23.8792 909.413 24.3226 909.082 24.8965C908.769 25.4703 908.613 26.1659 908.613 26.9832C908.613 27.7832 908.769 28.4788 909.082 29.07C909.413 29.6439 909.847 30.0873 910.387 30.4003C910.926 30.7133 911.534 30.8698 912.212 30.8698Z" fill="#39FF13"/>
<path d="M922.914 34V15.7408H931.209C933.192 15.7408 934.939 16.1233 936.452 16.8885C937.965 17.6362 939.148 18.6883 940 20.0447C940.852 21.4011 941.278 23.0097 941.278 24.8704C941.278 26.7137 940.852 28.3222 940 29.696C939.148 31.0524 937.965 32.1132 936.452 32.8784C934.939 33.6261 933.192 34 931.209 34H922.914ZM927.14 30.5307H931.001C932.218 30.5307 933.27 30.3047 934.157 29.8525C935.061 29.383 935.757 28.7222 936.244 27.8701C936.748 27.018 937 26.0181 937 24.8704C937 23.7053 936.748 22.7054 936.244 21.8706C935.757 21.0185 935.061 20.3664 934.157 19.9143C933.27 19.4448 932.218 19.21 931.001 19.21H927.14V30.5307ZM944.178 34V19.9665H948.064V23.9313L947.517 22.7836C947.934 21.7924 948.603 21.0446 949.525 20.5403C950.447 20.0186 951.568 19.7578 952.89 19.7578V23.514C952.716 23.4966 952.56 23.4879 952.421 23.4879C952.281 23.4705 952.134 23.4618 951.977 23.4618C950.864 23.4618 949.96 23.7835 949.264 24.4269C948.586 25.053 948.247 26.0355 948.247 27.3745V34H944.178ZM955.335 34V19.9665H959.404V34H955.335ZM957.37 18.0101C956.622 18.0101 956.013 17.7927 955.544 17.358C955.074 16.9233 954.839 16.3842 954.839 15.7408C954.839 15.0973 955.074 14.5583 955.544 14.1235C956.013 13.6888 956.622 13.4714 957.37 13.4714C958.117 13.4714 958.726 13.6801 959.196 14.0974C959.665 14.4974 959.9 15.0191 959.9 15.6625C959.9 16.3407 959.665 16.9059 959.196 17.358C958.743 17.7927 958.135 18.0101 957.37 18.0101ZM966.989 34L961.094 19.9665H965.294L970.198 32.0437H968.111L973.197 19.9665H977.11L971.189 34H966.989ZM985.353 34.2087C983.753 34.2087 982.345 33.8957 981.127 33.2696C979.927 32.6436 978.997 31.7915 978.336 30.7133C977.675 29.6178 977.345 28.3744 977.345 26.9832C977.345 25.5747 977.667 24.3313 978.31 23.2531C978.971 22.1576 979.867 21.3055 980.997 20.6968C982.127 20.0708 983.405 19.7578 984.831 19.7578C986.205 19.7578 987.44 20.0534 988.535 20.6447C989.648 21.2185 990.526 22.0532 991.17 23.1488C991.813 24.227 992.135 25.5225 992.135 27.0354C992.135 27.1919 992.126 27.3745 992.109 27.5832C992.092 27.7745 992.074 27.9571 992.057 28.131H980.658V25.7573H989.918L988.353 26.4615C988.353 25.7312 988.205 25.0964 987.909 24.5574C987.614 24.0183 987.205 23.6009 986.683 23.3053C986.162 22.9923 985.553 22.8358 984.857 22.8358C984.162 22.8358 983.544 22.9923 983.005 23.3053C982.484 23.6009 982.075 24.027 981.779 24.5834C981.484 25.1225 981.336 25.766 981.336 26.5137V27.1397C981.336 27.9049 981.501 28.5831 981.832 29.1743C982.179 29.7482 982.658 30.1916 983.266 30.5047C983.892 30.8003 984.623 30.9481 985.457 30.9481C986.205 30.9481 986.857 30.8351 987.414 30.609C987.988 30.3829 988.509 30.0438 988.979 29.5917L991.144 31.9393C990.5 32.6697 989.692 33.2349 988.718 33.6348C987.744 34.0174 986.622 34.2087 985.353 34.2087Z" fill="white"/>
<path d="M1016 27.3729L1017.52 34.3608L1018.93 28.7623L1046.97 24.1589C1046.97 24.1589 1051.58 18.431 1056 16.4539C1060.42 14.4768 1072.82 19.4558 1081.15 25.1354L1094.49 21.4539L1087.84 27.6767L1091.44 33.1455C1091.2 30.9988 1090.9 29.8213 1089.31 27.6767L1096 20.6887L1081.7 22.2078C1075.87 18.5298 1068.43 16.2217 1064.37 15.5237C1060.3 14.8256 1058.09 14.8253 1055.85 15.5237C1053.6 16.222 1049.69 18.85 1045.2 22.2078L1016 27.3729Z" fill="white"/>
<path d="M1057.71 22.4849L1045.41 22.267L1044.46 24.5774L1057.71 22.4849Z" fill="white"/>
<path d="M1086.72 27.7248L1074.43 27.5068L1073.47 29.8173L1086.72 27.7248Z" fill="white"/>
<path d="M1038.15 34.3607C1037.92 27.4602 1031.96 25.6968 1028.56 26.5549L1029.49 25.756C1031.7 24.5024 1039.38 25.3454 1040.69 32.2497L1065.07 34.3607H1038.15Z" fill="white"/>
<g clip-path="url(#clip4_199_3386)">
<circle cx="1085.05" cy="44.944" r="17.4372" fill="white"/>
</g>
<path d="M1125.05 23.0966H1133.84V26.3833H1125.05V23.0966ZM1125.36 30.609H1135.3V34H1121.17V15.7408H1134.96V19.1318H1125.36V30.609ZM1145.08 34.2087C1143.57 34.2087 1142.22 33.9044 1141.04 33.2957C1139.86 32.6697 1138.93 31.8089 1138.25 30.7133C1137.59 29.6178 1137.26 28.3744 1137.26 26.9832C1137.26 25.5747 1137.59 24.3313 1138.25 23.2531C1138.93 22.1576 1139.86 21.3055 1141.04 20.6968C1142.22 20.0708 1143.57 19.7578 1145.08 19.7578C1146.56 19.7578 1147.85 20.0708 1148.94 20.6968C1150.04 21.3055 1150.85 22.1837 1151.37 23.3314L1148.21 25.0269C1147.85 24.3661 1147.39 23.8792 1146.83 23.5661C1146.29 23.2531 1145.7 23.0966 1145.06 23.0966C1144.36 23.0966 1143.74 23.2531 1143.18 23.5661C1142.62 23.8792 1142.18 24.3226 1141.85 24.8965C1141.54 25.4703 1141.38 26.1659 1141.38 26.9832C1141.38 27.8006 1141.54 28.4961 1141.85 29.07C1142.18 29.6439 1142.62 30.0873 1143.18 30.4003C1143.74 30.7133 1144.36 30.8698 1145.06 30.8698C1145.7 30.8698 1146.29 30.722 1146.83 30.4264C1147.39 30.1134 1147.85 29.6178 1148.21 28.9396L1151.37 30.6612C1150.85 31.7915 1150.04 32.6697 1148.94 33.2957C1147.85 33.9044 1146.56 34.2087 1145.08 34.2087ZM1160.21 34.2087C1158.72 34.2087 1157.39 33.8957 1156.22 33.2696C1155.07 32.6436 1154.16 31.7915 1153.48 30.7133C1152.82 29.6178 1152.49 28.3744 1152.49 26.9832C1152.49 25.5747 1152.82 24.3313 1153.48 23.2531C1154.16 22.1576 1155.07 21.3055 1156.22 20.6968C1157.39 20.0708 1158.72 19.7578 1160.21 19.7578C1161.69 19.7578 1163.01 20.0708 1164.18 20.6968C1165.34 21.3055 1166.26 22.1489 1166.92 23.227C1167.58 24.3052 1167.91 25.5573 1167.91 26.9832C1167.91 28.3744 1167.58 29.6178 1166.92 30.7133C1166.26 31.7915 1165.34 32.6436 1164.18 33.2696C1163.01 33.8957 1161.69 34.2087 1160.21 34.2087ZM1160.21 30.8698C1160.89 30.8698 1161.5 30.7133 1162.04 30.4003C1162.58 30.0873 1163 29.6439 1163.32 29.07C1163.63 28.4788 1163.79 27.7832 1163.79 26.9832C1163.79 26.1659 1163.63 25.4703 1163.32 24.8965C1163 24.3226 1162.58 23.8792 1162.04 23.5661C1161.5 23.2531 1160.89 23.0966 1160.21 23.0966C1159.53 23.0966 1158.93 23.2531 1158.39 23.5661C1157.85 23.8792 1157.41 24.3226 1157.08 24.8965C1156.77 25.4703 1156.61 26.1659 1156.61 26.9832C1156.61 27.7832 1156.77 28.4788 1157.08 29.07C1157.41 29.6439 1157.85 30.0873 1158.39 30.4003C1158.93 30.7133 1159.53 30.8698 1160.21 30.8698Z" fill="#39FF13"/>
<path d="M1170.91 34V15.7408H1179.21C1181.19 15.7408 1182.94 16.1233 1184.45 16.8885C1185.97 17.6362 1187.15 18.6883 1188 20.0447C1188.85 21.4011 1189.28 23.0097 1189.28 24.8704C1189.28 26.7137 1188.85 28.3222 1188 29.696C1187.15 31.0524 1185.97 32.1132 1184.45 32.8784C1182.94 33.6261 1181.19 34 1179.21 34H1170.91ZM1175.14 30.5307H1179C1180.22 30.5307 1181.27 30.3047 1182.16 29.8525C1183.06 29.383 1183.76 28.7222 1184.24 27.8701C1184.75 27.018 1185 26.0181 1185 24.8704C1185 23.7053 1184.75 22.7054 1184.24 21.8706C1183.76 21.0185 1183.06 20.3664 1182.16 19.9143C1181.27 19.4448 1180.22 19.21 1179 19.21H1175.14V30.5307ZM1192.18 34V19.9665H1196.06V23.9313L1195.52 22.7836C1195.93 21.7924 1196.6 21.0446 1197.53 20.5403C1198.45 20.0186 1199.57 19.7578 1200.89 19.7578V23.514C1200.72 23.4966 1200.56 23.4879 1200.42 23.4879C1200.28 23.4705 1200.13 23.4618 1199.98 23.4618C1198.86 23.4618 1197.96 23.7835 1197.26 24.4269C1196.59 25.053 1196.25 26.0355 1196.25 27.3745V34H1192.18ZM1203.34 34V19.9665H1207.4V34H1203.34ZM1205.37 18.0101C1204.62 18.0101 1204.01 17.7927 1203.54 17.358C1203.07 16.9233 1202.84 16.3842 1202.84 15.7408C1202.84 15.0973 1203.07 14.5583 1203.54 14.1235C1204.01 13.6888 1204.62 13.4714 1205.37 13.4714C1206.12 13.4714 1206.73 13.6801 1207.2 14.0974C1207.67 14.4974 1207.9 15.0191 1207.9 15.6625C1207.9 16.3407 1207.67 16.9059 1207.2 17.358C1206.74 17.7927 1206.13 18.0101 1205.37 18.0101ZM1214.99 34L1209.09 19.9665H1213.29L1218.2 32.0437H1216.11L1221.2 19.9665H1225.11L1219.19 34H1214.99ZM1233.35 34.2087C1231.75 34.2087 1230.34 33.8957 1229.13 33.2696C1227.93 32.6436 1227 31.7915 1226.34 30.7133C1225.68 29.6178 1225.35 28.3744 1225.35 26.9832C1225.35 25.5747 1225.67 24.3313 1226.31 23.2531C1226.97 22.1576 1227.87 21.3055 1229 20.6968C1230.13 20.0708 1231.41 19.7578 1232.83 19.7578C1234.21 19.7578 1235.44 20.0534 1236.54 20.6447C1237.65 21.2185 1238.53 22.0532 1239.17 23.1488C1239.81 24.227 1240.13 25.5225 1240.13 27.0354C1240.13 27.1919 1240.13 27.3745 1240.11 27.5832C1240.09 27.7745 1240.07 27.9571 1240.06 28.131H1228.66V25.7573H1237.92L1236.35 26.4615C1236.35 25.7312 1236.2 25.0964 1235.91 24.5574C1235.61 24.0183 1235.2 23.6009 1234.68 23.3053C1234.16 22.9923 1233.55 22.8358 1232.86 22.8358C1232.16 22.8358 1231.54 22.9923 1231.01 23.3053C1230.48 23.6009 1230.08 24.027 1229.78 24.5834C1229.48 25.1225 1229.34 25.766 1229.34 26.5137V27.1397C1229.34 27.9049 1229.5 28.5831 1229.83 29.1743C1230.18 29.7482 1230.66 30.1916 1231.27 30.5047C1231.89 30.8003 1232.62 30.9481 1233.46 30.9481C1234.21 30.9481 1234.86 30.8351 1235.41 30.609C1235.99 30.3829 1236.51 30.0438 1236.98 29.5917L1239.14 31.9393C1238.5 32.6697 1237.69 33.2349 1236.72 33.6348C1235.74 34.0174 1234.62 34.2087 1233.35 34.2087Z" fill="white"/>
<path d="M1264 27.3729L1265.52 34.3608L1266.93 28.7623L1294.97 24.1589C1294.97 24.1589 1299.58 18.431 1304 16.4539C1308.42 14.4768 1320.82 19.4558 1329.15 25.1354L1342.49 21.4539L1335.84 27.6767L1339.44 33.1455C1339.2 30.9988 1338.9 29.8213 1337.31 27.6767L1344 20.6887L1329.7 22.2078C1323.87 18.5298 1316.43 16.2217 1312.37 15.5237C1308.3 14.8256 1306.09 14.8253 1303.85 15.5237C1301.6 16.222 1297.69 18.85 1293.2 22.2078L1264 27.3729Z" fill="white"/>
<path d="M1305.71 22.4849L1293.41 22.267L1292.46 24.5774L1305.71 22.4849Z" fill="white"/>
<path d="M1334.72 27.7248L1322.43 27.5068L1321.47 29.8173L1334.72 27.7248Z" fill="white"/>
<path d="M1286.15 34.3607C1285.92 27.4602 1279.96 25.6968 1276.56 26.5549L1277.49 25.756C1279.7 24.5024 1287.38 25.3454 1288.69 32.2497L1313.07 34.3607H1286.15Z" fill="white"/>
<g clip-path="url(#clip5_199_3386)">
<circle cx="1333.05" cy="44.944" r="17.4372" fill="white"/>
</g>
<path d="M1373.05 23.0966H1381.84V26.3833H1373.05V23.0966ZM1373.36 30.609H1383.3V34H1369.17V15.7408H1382.96V19.1318H1373.36V30.609ZM1393.08 34.2087C1391.57 34.2087 1390.22 33.9044 1389.04 33.2957C1387.86 32.6697 1386.93 31.8089 1386.25 30.7133C1385.59 29.6178 1385.26 28.3744 1385.26 26.9832C1385.26 25.5747 1385.59 24.3313 1386.25 23.2531C1386.93 22.1576 1387.86 21.3055 1389.04 20.6968C1390.22 20.0708 1391.57 19.7578 1393.08 19.7578C1394.56 19.7578 1395.85 20.0708 1396.94 20.6968C1398.04 21.3055 1398.85 22.1837 1399.37 23.3314L1396.21 25.0269C1395.85 24.3661 1395.39 23.8792 1394.83 23.5661C1394.29 23.2531 1393.7 23.0966 1393.06 23.0966C1392.36 23.0966 1391.74 23.2531 1391.18 23.5661C1390.62 23.8792 1390.18 24.3226 1389.85 24.8965C1389.54 25.4703 1389.38 26.1659 1389.38 26.9832C1389.38 27.8006 1389.54 28.4961 1389.85 29.07C1390.18 29.6439 1390.62 30.0873 1391.18 30.4003C1391.74 30.7133 1392.36 30.8698 1393.06 30.8698C1393.7 30.8698 1394.29 30.722 1394.83 30.4264C1395.39 30.1134 1395.85 29.6178 1396.21 28.9396L1399.37 30.6612C1398.85 31.7915 1398.04 32.6697 1396.94 33.2957C1395.85 33.9044 1394.56 34.2087 1393.08 34.2087ZM1408.21 34.2087C1406.72 34.2087 1405.39 33.8957 1404.22 33.2696C1403.07 32.6436 1402.16 31.7915 1401.48 30.7133C1400.82 29.6178 1400.49 28.3744 1400.49 26.9832C1400.49 25.5747 1400.82 24.3313 1401.48 23.2531C1402.16 22.1576 1403.07 21.3055 1404.22 20.6968C1405.39 20.0708 1406.72 19.7578 1408.21 19.7578C1409.69 19.7578 1411.01 20.0708 1412.18 20.6968C1413.34 21.3055 1414.26 22.1489 1414.92 23.227C1415.58 24.3052 1415.91 25.5573 1415.91 26.9832C1415.91 28.3744 1415.58 29.6178 1414.92 30.7133C1414.26 31.7915 1413.34 32.6436 1412.18 33.2696C1411.01 33.8957 1409.69 34.2087 1408.21 34.2087ZM1408.21 30.8698C1408.89 30.8698 1409.5 30.7133 1410.04 30.4003C1410.58 30.0873 1411 29.6439 1411.32 29.07C1411.63 28.4788 1411.79 27.7832 1411.79 26.9832C1411.79 26.1659 1411.63 25.4703 1411.32 24.8965C1411 24.3226 1410.58 23.8792 1410.04 23.5661C1409.5 23.2531 1408.89 23.0966 1408.21 23.0966C1407.53 23.0966 1406.93 23.2531 1406.39 23.5661C1405.85 23.8792 1405.41 24.3226 1405.08 24.8965C1404.77 25.4703 1404.61 26.1659 1404.61 26.9832C1404.61 27.7832 1404.77 28.4788 1405.08 29.07C1405.41 29.6439 1405.85 30.0873 1406.39 30.4003C1406.93 30.7133 1407.53 30.8698 1408.21 30.8698Z" fill="#39FF13"/>
<path d="M1418.91 34V15.7408H1427.21C1429.19 15.7408 1430.94 16.1233 1432.45 16.8885C1433.97 17.6362 1435.15 18.6883 1436 20.0447C1436.85 21.4011 1437.28 23.0097 1437.28 24.8704C1437.28 26.7137 1436.85 28.3222 1436 29.696C1435.15 31.0524 1433.97 32.1132 1432.45 32.8784C1430.94 33.6261 1429.19 34 1427.21 34H1418.91ZM1423.14 30.5307H1427C1428.22 30.5307 1429.27 30.3047 1430.16 29.8525C1431.06 29.383 1431.76 28.7222 1432.24 27.8701C1432.75 27.018 1433 26.0181 1433 24.8704C1433 23.7053 1432.75 22.7054 1432.24 21.8706C1431.76 21.0185 1431.06 20.3664 1430.16 19.9143C1429.27 19.4448 1428.22 19.21 1427 19.21H1423.14V30.5307ZM1440.18 34V19.9665H1444.06V23.9313L1443.52 22.7836C1443.93 21.7924 1444.6 21.0446 1445.53 20.5403C1446.45 20.0186 1447.57 19.7578 1448.89 19.7578V23.514C1448.72 23.4966 1448.56 23.4879 1448.42 23.4879C1448.28 23.4705 1448.13 23.4618 1447.98 23.4618C1446.86 23.4618 1445.96 23.7835 1445.26 24.4269C1444.59 25.053 1444.25 26.0355 1444.25 27.3745V34H1440.18ZM1451.34 34V19.9665H1455.4V34H1451.34ZM1453.37 18.0101C1452.62 18.0101 1452.01 17.7927 1451.54 17.358C1451.07 16.9233 1450.84 16.3842 1450.84 15.7408C1450.84 15.0973 1451.07 14.5583 1451.54 14.1235C1452.01 13.6888 1452.62 13.4714 1453.37 13.4714C1454.12 13.4714 1454.73 13.6801 1455.2 14.0974C1455.67 14.4974 1455.9 15.0191 1455.9 15.6625C1455.9 16.3407 1455.67 16.9059 1455.2 17.358C1454.74 17.7927 1454.13 18.0101 1453.37 18.0101ZM1462.99 34L1457.09 19.9665H1461.29L1466.2 32.0437H1464.11L1469.2 19.9665H1473.11L1467.19 34H1462.99ZM1481.35 34.2087C1479.75 34.2087 1478.34 33.8957 1477.13 33.2696C1475.93 32.6436 1475 31.7915 1474.34 30.7133C1473.68 29.6178 1473.35 28.3744 1473.35 26.9832C1473.35 25.5747 1473.67 24.3313 1474.31 23.2531C1474.97 22.1576 1475.87 21.3055 1477 20.6968C1478.13 20.0708 1479.41 19.7578 1480.83 19.7578C1482.21 19.7578 1483.44 20.0534 1484.54 20.6447C1485.65 21.2185 1486.53 22.0532 1487.17 23.1488C1487.81 24.227 1488.13 25.5225 1488.13 27.0354C1488.13 27.1919 1488.13 27.3745 1488.11 27.5832C1488.09 27.7745 1488.07 27.9571 1488.06 28.131H1476.66V25.7573H1485.92L1484.35 26.4615C1484.35 25.7312 1484.2 25.0964 1483.91 24.5574C1483.61 24.0183 1483.2 23.6009 1482.68 23.3053C1482.16 22.9923 1481.55 22.8358 1480.86 22.8358C1480.16 22.8358 1479.54 22.9923 1479.01 23.3053C1478.48 23.6009 1478.08 24.027 1477.78 24.5834C1477.48 25.1225 1477.34 25.766 1477.34 26.5137V27.1397C1477.34 27.9049 1477.5 28.5831 1477.83 29.1743C1478.18 29.7482 1478.66 30.1916 1479.27 30.5047C1479.89 30.8003 1480.62 30.9481 1481.46 30.9481C1482.21 30.9481 1482.86 30.8351 1483.41 30.609C1483.99 30.3829 1484.51 30.0438 1484.98 29.5917L1487.14 31.9393C1486.5 32.6697 1485.69 33.2349 1484.72 33.6348C1483.74 34.0174 1482.62 34.2087 1481.35 34.2087Z" fill="white"/>
<defs>
<clipPath id="clip0_199_3386">
<rect width="13.9498" height="6.97488" fill="white" transform="translate(323.615 27.5068)"/>
</clipPath>
<clipPath id="clip1_199_3386">
<rect width="13.9498" height="6.97488" fill="white" transform="translate(75.6152 27.5068)"/>
</clipPath>
<clipPath id="clip2_199_3386">
<rect width="13.9498" height="6.97488" fill="white" transform="translate(571.615 27.5068)"/>
</clipPath>
<clipPath id="clip3_199_3386">
<rect width="13.9498" height="6.97488" fill="white" transform="translate(819.615 27.5068)"/>
</clipPath>
<clipPath id="clip4_199_3386">
<rect width="13.9498" height="6.97488" fill="white" transform="translate(1067.62 27.5068)"/>
</clipPath>
<clipPath id="clip5_199_3386">
<rect width="13.9498" height="6.97488" fill="white" transform="translate(1315.62 27.5068)"/>
</clipPath>
</defs>
</svg>
