<svg width="1512" height="724" viewBox="0 0 1512 724" fill="none" xmlns="http://www.w3.org/2000/svg">
<rect width="1512" height="724" fill="black"/>
<path d="M241.294 352V297.472H219.79V284.8H278.35V297.472H256.846V352H241.294ZM317.054 299.584C321.15 299.584 324.798 300.416 327.998 302.08C331.262 303.68 333.822 306.176 335.678 309.568C337.534 312.896 338.462 317.184 338.462 322.432V352H323.486V324.736C323.486 320.576 322.558 317.504 320.702 315.52C318.91 313.536 316.35 312.544 313.022 312.544C310.654 312.544 308.51 313.056 306.59 314.08C304.734 315.04 303.262 316.544 302.174 318.592C301.15 320.64 300.638 323.264 300.638 326.464V352H285.662V280.768H300.638V314.656L297.278 310.336C299.134 306.88 301.79 304.224 305.246 302.368C308.702 300.512 312.638 299.584 317.054 299.584ZM383.717 352V341.92L382.757 339.712V321.664C382.757 318.464 381.765 315.968 379.781 314.176C377.861 312.384 374.885 311.488 370.853 311.488C368.101 311.488 365.381 311.936 362.693 312.832C360.069 313.664 357.829 314.816 355.973 316.288L350.597 305.824C353.413 303.84 356.805 302.304 360.773 301.216C364.741 300.128 368.773 299.584 372.869 299.584C380.741 299.584 386.853 301.44 391.205 305.152C395.557 308.864 397.733 314.656 397.733 322.528V352H383.717ZM367.973 352.768C363.941 352.768 360.485 352.096 357.605 350.752C354.725 349.344 352.517 347.456 350.981 345.088C349.445 342.72 348.677 340.064 348.677 337.12C348.677 334.048 349.413 331.36 350.885 329.056C352.421 326.752 354.821 324.96 358.085 323.68C361.349 322.336 365.605 321.664 370.853 321.664H384.581V330.4H372.485C368.965 330.4 366.533 330.976 365.189 332.128C363.909 333.28 363.269 334.72 363.269 336.448C363.269 338.368 364.005 339.904 365.477 341.056C367.013 342.144 369.093 342.688 371.717 342.688C374.213 342.688 376.453 342.112 378.437 340.96C380.421 339.744 381.861 337.984 382.757 335.68L385.061 342.592C383.973 345.92 381.989 348.448 379.109 350.176C376.229 351.904 372.517 352.768 367.973 352.768ZM442.679 299.584C446.775 299.584 450.423 300.416 453.623 302.08C456.887 303.68 459.447 306.176 461.303 309.568C463.159 312.896 464.087 317.184 464.087 322.432V352H449.111V324.736C449.111 320.576 448.183 317.504 446.327 315.52C444.535 313.536 441.975 312.544 438.647 312.544C436.279 312.544 434.135 313.056 432.215 314.08C430.359 315.04 428.887 316.544 427.799 318.592C426.775 320.64 426.263 323.264 426.263 326.464V352H411.287V300.352H425.591V314.656L422.903 310.336C424.759 306.88 427.415 304.224 430.871 302.368C434.327 300.512 438.263 299.584 442.679 299.584ZM490.046 341.44L490.43 323.2L514.526 300.352H532.382L509.246 323.872L501.47 330.208L490.046 341.44ZM477.662 352V280.768H492.638V352H477.662ZM516.158 352L498.686 330.304L508.094 318.688L534.302 352H516.158ZM556.726 352.768C552.31 352.768 548.054 352.256 543.958 351.232C539.926 350.144 536.726 348.8 534.358 347.2L539.35 336.448C541.718 337.92 544.502 339.136 547.702 340.096C550.966 340.992 554.166 341.44 557.302 341.44C560.758 341.44 563.19 341.024 564.598 340.192C566.07 339.36 566.806 338.208 566.806 336.736C566.806 335.52 566.23 334.624 565.078 334.048C563.99 333.408 562.518 332.928 560.661 332.608C558.806 332.288 556.758 331.968 554.518 331.648C552.342 331.328 550.134 330.912 547.894 330.4C545.654 329.824 543.606 328.992 541.75 327.904C539.894 326.816 538.39 325.344 537.238 323.488C536.15 321.632 535.605 319.232 535.605 316.288C535.605 313.024 536.534 310.144 538.39 307.648C540.31 305.152 543.062 303.2 546.646 301.792C550.23 300.32 554.518 299.584 559.51 299.584C563.03 299.584 566.614 299.968 570.262 300.736C573.91 301.504 576.95 302.624 579.382 304.096L574.39 314.752C571.894 313.28 569.366 312.288 566.806 311.776C564.31 311.2 561.878 310.912 559.51 310.912C556.182 310.912 553.75 311.36 552.214 312.256C550.678 313.152 549.91 314.304 549.91 315.712C549.91 316.992 550.454 317.952 551.542 318.592C552.694 319.232 554.198 319.744 556.054 320.128C557.91 320.512 559.926 320.864 562.102 321.184C564.342 321.44 566.582 321.856 568.822 322.432C571.062 323.008 573.078 323.84 574.87 324.928C576.726 325.952 578.23 327.392 579.382 329.248C580.534 331.04 581.11 333.408 581.11 336.352C581.11 339.552 580.15 342.4 578.23 344.896C576.31 347.328 573.526 349.248 569.878 350.656C566.294 352.064 561.91 352.768 556.726 352.768Z" fill="#39FF13"/>
<path d="M632.993 315.04H665.249V327.52H632.993V315.04ZM634.145 352H618.593V284.8H669.377V297.28H634.145V352ZM702.207 352.768C696.703 352.768 691.807 351.616 687.519 349.312C683.295 347.008 679.935 343.872 677.439 339.904C675.007 335.872 673.791 331.296 673.791 326.176C673.791 320.992 675.007 316.416 677.439 312.448C679.935 308.416 683.295 305.28 687.519 303.04C691.807 300.736 696.703 299.584 702.207 299.584C707.647 299.584 712.511 300.736 716.799 303.04C721.087 305.28 724.447 308.384 726.879 312.352C729.311 316.32 730.527 320.928 730.527 326.176C730.527 331.296 729.311 335.872 726.879 339.904C724.447 343.872 721.087 347.008 716.799 349.312C712.511 351.616 707.647 352.768 702.207 352.768ZM702.207 340.48C704.703 340.48 706.943 339.904 708.927 338.752C710.911 337.6 712.479 335.968 713.631 333.856C714.783 331.68 715.359 329.12 715.359 326.176C715.359 323.168 714.783 320.608 713.631 318.496C712.479 316.384 710.911 314.752 708.927 313.6C706.943 312.448 704.703 311.872 702.207 311.872C699.711 311.872 697.471 312.448 695.487 313.6C693.503 314.752 691.903 316.384 690.687 318.496C689.535 320.608 688.959 323.168 688.959 326.176C688.959 329.12 689.535 331.68 690.687 333.856C691.903 335.968 693.503 337.6 695.487 338.752C697.471 339.904 699.711 340.48 702.207 340.48ZM740.537 352V300.352H754.841V314.944L752.825 310.72C754.361 307.072 756.825 304.32 760.217 302.464C763.609 300.544 767.737 299.584 772.601 299.584V313.408C771.961 313.344 771.385 313.312 770.873 313.312C770.361 313.248 769.817 313.216 769.241 313.216C765.145 313.216 761.817 314.4 759.257 316.768C756.761 319.072 755.513 322.688 755.513 327.616V352H740.537ZM826.252 352L804.268 284.8H820.396L839.5 344.32H831.436L851.404 284.8H865.804L885.004 344.32H877.228L896.812 284.8H911.692L889.708 352H873.004L856.012 299.776H860.428L842.956 352H826.252ZM947.155 352V341.92L946.195 339.712V321.664C946.195 318.464 945.203 315.968 943.219 314.176C941.299 312.384 938.323 311.488 934.291 311.488C931.539 311.488 928.819 311.936 926.131 312.832C923.507 313.664 921.267 314.816 919.411 316.288L914.035 305.824C916.851 303.84 920.243 302.304 924.211 301.216C928.179 300.128 932.211 299.584 936.307 299.584C944.179 299.584 950.291 301.44 954.643 305.152C958.995 308.864 961.171 314.656 961.171 322.528V352H947.155ZM931.411 352.768C927.379 352.768 923.923 352.096 921.043 350.752C918.163 349.344 915.955 347.456 914.419 345.088C912.883 342.72 912.115 340.064 912.115 337.12C912.115 334.048 912.851 331.36 914.323 329.056C915.859 326.752 918.259 324.96 921.523 323.68C924.787 322.336 929.043 321.664 934.291 321.664H948.019V330.4H935.923C932.403 330.4 929.971 330.976 928.627 332.128C927.347 333.28 926.707 334.72 926.707 336.448C926.707 338.368 927.443 339.904 928.915 341.056C930.451 342.144 932.531 342.688 935.155 342.688C937.651 342.688 939.891 342.112 941.875 340.96C943.859 339.744 945.299 337.984 946.195 335.68L948.499 342.592C947.411 345.92 945.427 348.448 942.547 350.176C939.667 351.904 935.955 352.768 931.411 352.768ZM995.845 352.768C989.765 352.768 985.029 351.232 981.637 348.16C978.245 345.024 976.549 340.384 976.549 334.24V288.928H991.525V334.048C991.525 336.224 992.101 337.92 993.253 339.136C994.405 340.288 995.973 340.864 997.957 340.864C1000.32 340.864 1002.34 340.224 1004 338.944L1008.04 349.504C1006.5 350.592 1004.64 351.424 1002.47 352C1000.36 352.512 998.149 352.768 995.845 352.768ZM968.581 313.024V301.504H1004.39V313.024H968.581ZM1039.81 352.768C1034.24 352.768 1029.28 351.648 1024.93 349.408C1020.58 347.104 1017.15 343.936 1014.66 339.904C1012.23 335.872 1011.01 331.296 1011.01 326.176C1011.01 320.992 1012.23 316.416 1014.66 312.448C1017.15 308.416 1020.58 305.28 1024.93 303.04C1029.28 300.736 1034.24 299.584 1039.81 299.584C1045.25 299.584 1049.99 300.736 1054.02 303.04C1058.05 305.28 1061.03 308.512 1062.95 312.736L1051.33 318.976C1049.99 316.544 1048.29 314.752 1046.24 313.6C1044.26 312.448 1042.08 311.872 1039.71 311.872C1037.15 311.872 1034.85 312.448 1032.8 313.6C1030.75 314.752 1029.12 316.384 1027.91 318.496C1026.75 320.608 1026.18 323.168 1026.18 326.176C1026.18 329.184 1026.75 331.744 1027.91 333.856C1029.12 335.968 1030.75 337.6 1032.8 338.752C1034.85 339.904 1037.15 340.48 1039.71 340.48C1042.08 340.48 1044.26 339.936 1046.24 338.848C1048.29 337.696 1049.99 335.872 1051.33 333.376L1062.95 339.712C1061.03 343.872 1058.05 347.104 1054.02 349.408C1049.99 351.648 1045.25 352.768 1039.81 352.768ZM1102.68 299.584C1106.78 299.584 1110.42 300.416 1113.62 302.08C1116.89 303.68 1119.45 306.176 1121.3 309.568C1123.16 312.896 1124.09 317.184 1124.09 322.432V352H1109.11V324.736C1109.11 320.576 1108.18 317.504 1106.33 315.52C1104.54 313.536 1101.98 312.544 1098.65 312.544C1096.28 312.544 1094.14 313.056 1092.22 314.08C1090.36 315.04 1088.89 316.544 1087.8 318.592C1086.78 320.64 1086.26 323.264 1086.26 326.464V352H1071.29V280.768H1086.26V314.656L1082.9 310.336C1084.76 306.88 1087.42 304.224 1090.87 302.368C1094.33 300.512 1098.26 299.584 1102.68 299.584ZM1137.66 352V300.352H1152.64V352H1137.66ZM1145.15 293.152C1142.4 293.152 1140.16 292.352 1138.43 290.752C1136.7 289.152 1135.84 287.168 1135.84 284.8C1135.84 282.432 1136.7 280.448 1138.43 278.848C1140.16 277.248 1142.4 276.448 1145.15 276.448C1147.9 276.448 1150.14 277.216 1151.87 278.752C1153.6 280.224 1154.46 282.144 1154.46 284.512C1154.46 287.008 1153.6 289.088 1151.87 290.752C1150.21 292.352 1147.97 293.152 1145.15 293.152ZM1197.93 299.584C1202.03 299.584 1205.67 300.416 1208.87 302.08C1212.14 303.68 1214.7 306.176 1216.55 309.568C1218.41 312.896 1219.34 317.184 1219.34 322.432V352H1204.36V324.736C1204.36 320.576 1203.43 317.504 1201.58 315.52C1199.79 313.536 1197.23 312.544 1193.9 312.544C1191.53 312.544 1189.39 313.056 1187.47 314.08C1185.61 315.04 1184.14 316.544 1183.05 318.592C1182.03 320.64 1181.51 323.264 1181.51 326.464V352H1166.54V300.352H1180.84V314.656L1178.15 310.336C1180.01 306.88 1182.67 304.224 1186.12 302.368C1189.58 300.512 1193.51 299.584 1197.93 299.584ZM1257.58 371.392C1252.71 371.392 1248.01 370.784 1243.46 369.568C1238.98 368.416 1235.24 366.656 1232.23 364.288L1238.18 353.536C1240.36 355.328 1243.11 356.736 1246.44 357.76C1249.83 358.848 1253.16 359.392 1256.42 359.392C1261.74 359.392 1265.58 358.208 1267.94 355.84C1270.38 353.472 1271.59 349.952 1271.59 345.28V337.504L1272.55 324.544L1272.36 311.488V300.352H1286.57V343.36C1286.57 352.96 1284.07 360.032 1279.08 364.576C1274.09 369.12 1266.92 371.392 1257.58 371.392ZM1255.27 349.504C1250.47 349.504 1246.12 348.48 1242.22 346.432C1238.38 344.32 1235.27 341.408 1232.9 337.696C1230.6 333.92 1229.45 329.536 1229.45 324.544C1229.45 319.488 1230.6 315.104 1232.9 311.392C1235.27 307.616 1238.38 304.704 1242.22 302.656C1246.12 300.608 1250.47 299.584 1255.27 299.584C1259.62 299.584 1263.46 300.48 1266.79 302.272C1270.12 304 1272.71 306.72 1274.57 310.432C1276.42 314.08 1277.35 318.784 1277.35 324.544C1277.35 330.24 1276.42 334.944 1274.57 338.656C1272.71 342.304 1270.12 345.024 1266.79 346.816C1263.46 348.608 1259.62 349.504 1255.27 349.504ZM1258.25 337.216C1260.87 337.216 1263.21 336.704 1265.26 335.68C1267.3 334.592 1268.9 333.088 1270.06 331.168C1271.21 329.248 1271.78 327.04 1271.78 324.544C1271.78 321.984 1271.21 319.776 1270.06 317.92C1268.9 316 1267.3 314.528 1265.26 313.504C1263.21 312.416 1260.87 311.872 1258.25 311.872C1255.62 311.872 1253.29 312.416 1251.24 313.504C1249.19 314.528 1247.56 316 1246.34 317.92C1245.19 319.776 1244.62 321.984 1244.62 324.544C1244.62 327.04 1245.19 329.248 1246.34 331.168C1247.56 333.088 1249.19 334.592 1251.24 335.68C1253.29 336.704 1255.62 337.216 1258.25 337.216Z" fill="white"/>
<rect x="430.5" y="389" width="651" height="73" rx="19" fill="black" fill-opacity="0.3"/>
<rect x="430.5" y="389" width="651" height="73" rx="19" stroke="white" stroke-width="2"/>
<path d="M471.574 437.192C469.91 437.192 468.31 436.925 466.774 436.392C465.259 435.837 464.086 435.133 463.254 434.28L464.182 432.456C464.971 433.224 466.027 433.875 467.35 434.408C468.694 434.92 470.102 435.176 471.574 435.176C472.982 435.176 474.123 435.005 474.998 434.664C475.894 434.301 476.545 433.821 476.95 433.224C477.377 432.627 477.59 431.965 477.59 431.24C477.59 430.365 477.334 429.661 476.822 429.128C476.331 428.595 475.681 428.179 474.87 427.88C474.059 427.56 473.163 427.283 472.182 427.048C471.201 426.813 470.219 426.568 469.238 426.312C468.257 426.035 467.35 425.672 466.518 425.224C465.707 424.776 465.046 424.189 464.534 423.464C464.043 422.717 463.798 421.747 463.798 420.552C463.798 419.443 464.086 418.429 464.662 417.512C465.259 416.573 466.166 415.827 467.382 415.272C468.598 414.696 470.155 414.408 472.054 414.408C473.313 414.408 474.561 414.589 475.798 414.952C477.035 415.293 478.102 415.773 478.998 416.392L478.198 418.28C477.238 417.64 476.214 417.171 475.126 416.872C474.059 416.573 473.025 416.424 472.022 416.424C470.678 416.424 469.569 416.605 468.694 416.968C467.819 417.331 467.169 417.821 466.742 418.44C466.337 419.037 466.134 419.72 466.134 420.488C466.134 421.363 466.379 422.067 466.87 422.6C467.382 423.133 468.043 423.549 468.854 423.848C469.686 424.147 470.593 424.413 471.574 424.648C472.555 424.883 473.526 425.139 474.486 425.416C475.467 425.693 476.363 426.056 477.174 426.504C478.006 426.931 478.667 427.507 479.158 428.232C479.67 428.957 479.926 429.907 479.926 431.08C479.926 432.168 479.627 433.181 479.03 434.12C478.433 435.037 477.515 435.784 476.278 436.36C475.062 436.915 473.494 437.192 471.574 437.192ZM491.55 437.16C490.12 437.16 488.872 436.893 487.806 436.36C486.739 435.827 485.907 435.027 485.31 433.96C484.734 432.893 484.446 431.56 484.446 429.96V420.2H486.718V429.704C486.718 431.496 487.155 432.851 488.03 433.768C488.926 434.664 490.174 435.112 491.774 435.112C492.947 435.112 493.96 434.877 494.814 434.408C495.688 433.917 496.35 433.213 496.798 432.296C497.267 431.379 497.502 430.28 497.502 429V420.2H499.774V437H497.597V432.392L497.95 433.224C497.416 434.461 496.584 435.432 495.454 436.136C494.344 436.819 493.043 437.16 491.55 437.16ZM510.618 437.16C509.231 437.16 507.919 436.968 506.682 436.584C505.444 436.179 504.474 435.677 503.77 435.08L504.794 433.288C505.476 433.8 506.351 434.248 507.418 434.632C508.484 434.995 509.604 435.176 510.778 435.176C512.378 435.176 513.53 434.931 514.234 434.44C514.938 433.928 515.29 433.256 515.29 432.424C515.29 431.805 515.087 431.325 514.682 430.984C514.298 430.621 513.786 430.355 513.146 430.184C512.506 429.992 511.791 429.832 511.002 429.704C510.212 429.576 509.423 429.427 508.634 429.256C507.866 429.085 507.162 428.84 506.522 428.52C505.882 428.179 505.359 427.72 504.954 427.144C504.57 426.568 504.378 425.8 504.378 424.84C504.378 423.923 504.634 423.101 505.146 422.376C505.658 421.651 506.404 421.085 507.386 420.68C508.388 420.253 509.604 420.04 511.034 420.04C512.122 420.04 513.21 420.189 514.298 420.488C515.386 420.765 516.282 421.139 516.986 421.608L515.994 423.432C515.247 422.92 514.447 422.557 513.594 422.344C512.74 422.109 511.887 421.992 511.034 421.992C509.519 421.992 508.399 422.259 507.674 422.792C506.97 423.304 506.618 423.965 506.618 424.776C506.618 425.416 506.81 425.917 507.194 426.28C507.599 426.643 508.122 426.931 508.762 427.144C509.423 427.336 510.138 427.496 510.906 427.624C511.695 427.752 512.474 427.912 513.242 428.104C514.031 428.275 514.746 428.52 515.386 428.84C516.047 429.139 516.57 429.576 516.954 430.152C517.359 430.707 517.562 431.443 517.562 432.36C517.562 433.341 517.284 434.195 516.73 434.92C516.196 435.624 515.407 436.179 514.362 436.584C513.338 436.968 512.09 437.16 510.618 437.16ZM527.043 437.16C525.464 437.16 524.248 436.733 523.395 435.88C522.541 435.027 522.115 433.821 522.115 432.264V416.488H524.387V432.136C524.387 433.117 524.632 433.875 525.123 434.408C525.635 434.941 526.36 435.208 527.299 435.208C528.301 435.208 529.133 434.92 529.795 434.344L530.595 435.976C530.147 436.381 529.603 436.68 528.963 436.872C528.344 437.064 527.704 437.16 527.043 437.16ZM519.107 422.088V420.2H529.507V422.088H519.107ZM545.259 437V433.288L545.163 432.68V426.472C545.163 425.043 544.757 423.944 543.947 423.176C543.157 422.408 541.973 422.024 540.395 422.024C539.307 422.024 538.272 422.205 537.291 422.568C536.309 422.931 535.477 423.411 534.795 424.008L533.771 422.312C534.624 421.587 535.648 421.032 536.843 420.648C538.037 420.243 539.296 420.04 540.619 420.04C542.795 420.04 544.469 420.584 545.643 421.672C546.837 422.739 547.435 424.371 547.435 426.568V437H545.259ZM539.467 437.16C538.208 437.16 537.109 436.957 536.171 436.552C535.253 436.125 534.549 435.549 534.059 434.824C533.568 434.077 533.323 433.224 533.323 432.264C533.323 431.389 533.525 430.6 533.931 429.896C534.357 429.171 535.04 428.595 535.979 428.168C536.939 427.72 538.219 427.496 539.819 427.496H545.611V429.192H539.883C538.261 429.192 537.131 429.48 536.491 430.056C535.872 430.632 535.562 431.347 535.562 432.2C535.562 433.16 535.936 433.928 536.683 434.504C537.429 435.08 538.475 435.368 539.819 435.368C541.099 435.368 542.197 435.08 543.115 434.504C544.053 433.907 544.736 433.053 545.163 431.944L545.675 433.512C545.248 434.621 544.501 435.507 543.435 436.168C542.389 436.829 541.067 437.16 539.467 437.16ZM553.606 437V420.2H555.878V437H553.606ZM554.758 416.488C554.288 416.488 553.894 416.328 553.574 416.008C553.254 415.688 553.094 415.304 553.094 414.856C553.094 414.408 553.254 414.035 553.574 413.736C553.894 413.416 554.288 413.256 554.758 413.256C555.227 413.256 555.622 413.405 555.942 413.704C556.262 414.003 556.422 414.376 556.422 414.824C556.422 415.293 556.262 415.688 555.942 416.008C555.643 416.328 555.248 416.488 554.758 416.488ZM570.775 420.04C572.141 420.04 573.335 420.307 574.359 420.84C575.405 421.352 576.215 422.141 576.791 423.208C577.389 424.275 577.687 425.619 577.687 427.24V437H575.415V427.464C575.415 425.693 574.967 424.36 574.071 423.464C573.197 422.547 571.959 422.088 570.359 422.088C569.165 422.088 568.119 422.333 567.223 422.824C566.349 423.293 565.666 423.987 565.175 424.904C564.706 425.8 564.471 426.888 564.471 428.168V437H562.199V420.2H564.375V424.808L564.023 423.944C564.557 422.728 565.41 421.779 566.583 421.096C567.757 420.392 569.154 420.04 570.775 420.04ZM594.352 437V433.288L594.256 432.68V426.472C594.256 425.043 593.851 423.944 593.04 423.176C592.251 422.408 591.067 422.024 589.488 422.024C588.4 422.024 587.366 422.205 586.384 422.568C585.403 422.931 584.571 423.411 583.888 424.008L582.864 422.312C583.718 421.587 584.742 421.032 585.936 420.648C587.131 420.243 588.39 420.04 589.712 420.04C591.888 420.04 593.563 420.584 594.736 421.672C595.931 422.739 596.528 424.371 596.528 426.568V437H594.352ZM588.56 437.16C587.302 437.16 586.203 436.957 585.264 436.552C584.347 436.125 583.643 435.549 583.152 434.824C582.662 434.077 582.416 433.224 582.416 432.264C582.416 431.389 582.619 430.6 583.024 429.896C583.451 429.171 584.134 428.595 585.072 428.168C586.032 427.72 587.312 427.496 588.912 427.496H594.704V429.192H588.976C587.355 429.192 586.224 429.48 585.584 430.056C584.966 430.632 584.656 431.347 584.656 432.2C584.656 433.16 585.03 433.928 585.776 434.504C586.523 435.08 587.568 435.368 588.912 435.368C590.192 435.368 591.291 435.08 592.208 434.504C593.147 433.907 593.83 433.053 594.256 431.944L594.768 433.512C594.342 434.621 593.595 435.507 592.528 436.168C591.483 436.829 590.16 437.16 588.56 437.16ZM611.371 437.16C609.899 437.16 608.577 436.829 607.403 436.168C606.23 435.485 605.302 434.504 604.619 433.224C603.937 431.944 603.595 430.397 603.595 428.584C603.595 426.749 603.937 425.203 604.619 423.944C605.323 422.664 606.262 421.693 607.435 421.032C608.609 420.371 609.921 420.04 611.371 420.04C612.971 420.04 614.401 420.403 615.659 421.128C616.939 421.832 617.942 422.824 618.667 424.104C619.393 425.384 619.755 426.877 619.755 428.584C619.755 430.269 619.393 431.763 618.667 433.064C617.942 434.344 616.939 435.347 615.659 436.072C614.401 436.797 612.971 437.16 611.371 437.16ZM602.699 437V413.256H604.971V425.16L604.651 428.552L604.875 431.944V437H602.699ZM611.211 435.144C612.406 435.144 613.473 434.877 614.411 434.344C615.35 433.789 616.097 433.021 616.651 432.04C617.206 431.037 617.483 429.885 617.483 428.584C617.483 427.261 617.206 426.109 616.651 425.128C616.097 424.147 615.35 423.389 614.411 422.856C613.473 422.301 612.406 422.024 611.211 422.024C610.017 422.024 608.939 422.301 607.979 422.856C607.041 423.389 606.294 424.147 605.739 425.128C605.206 426.109 604.939 427.261 604.939 428.584C604.939 429.885 605.206 431.037 605.739 432.04C606.294 433.021 607.041 433.789 607.979 434.344C608.939 434.877 610.017 435.144 611.211 435.144ZM624.387 437V413.256H626.659V437H624.387ZM640.117 437.16C638.367 437.16 636.831 436.797 635.509 436.072C634.186 435.325 633.151 434.312 632.405 433.032C631.658 431.731 631.285 430.248 631.285 428.584C631.285 426.92 631.637 425.448 632.341 424.168C633.066 422.888 634.047 421.885 635.285 421.16C636.543 420.413 637.951 420.04 639.509 420.04C641.087 420.04 642.485 420.403 643.701 421.128C644.938 421.832 645.909 422.835 646.613 424.136C647.317 425.416 647.669 426.899 647.669 428.584C647.669 428.691 647.658 428.808 647.637 428.936C647.637 429.043 647.637 429.16 647.637 429.288H633.013V427.592H646.421L645.525 428.264C645.525 427.048 645.258 425.971 644.725 425.032C644.213 424.072 643.509 423.325 642.613 422.792C641.717 422.259 640.682 421.992 639.509 421.992C638.357 421.992 637.322 422.259 636.405 422.792C635.487 423.325 634.773 424.072 634.261 425.032C633.749 425.992 633.493 427.091 633.493 428.328V428.68C633.493 429.96 633.77 431.091 634.325 432.072C634.901 433.032 635.69 433.789 636.693 434.344C637.717 434.877 638.879 435.144 640.181 435.144C641.205 435.144 642.154 434.963 643.029 434.6C643.925 434.237 644.693 433.683 645.333 432.936L646.613 434.408C645.866 435.304 644.927 435.987 643.797 436.456C642.687 436.925 641.461 437.16 640.117 437.16ZM665.5 437V416.648H657.628V414.6H675.74V416.648H667.868V437H665.5ZM678.606 437V420.2H680.782V424.776L680.558 423.976C681.027 422.696 681.816 421.725 682.926 421.064C684.035 420.381 685.411 420.04 687.054 420.04V422.248C686.968 422.248 686.883 422.248 686.798 422.248C686.712 422.227 686.627 422.216 686.542 422.216C684.771 422.216 683.384 422.76 682.382 423.848C681.379 424.915 680.878 426.44 680.878 428.424V437H678.606ZM700.477 437V433.288L700.381 432.68V426.472C700.381 425.043 699.976 423.944 699.165 423.176C698.376 422.408 697.192 422.024 695.613 422.024C694.525 422.024 693.491 422.205 692.509 422.568C691.528 422.931 690.696 423.411 690.013 424.008L688.989 422.312C689.843 421.587 690.867 421.032 692.061 420.648C693.256 420.243 694.515 420.04 695.837 420.04C698.013 420.04 699.688 420.584 700.861 421.672C702.056 422.739 702.653 424.371 702.653 426.568V437H700.477ZM694.685 437.16C693.427 437.16 692.328 436.957 691.389 436.552C690.472 436.125 689.768 435.549 689.277 434.824C688.787 434.077 688.541 433.224 688.541 432.264C688.541 431.389 688.744 430.6 689.149 429.896C689.576 429.171 690.259 428.595 691.197 428.168C692.157 427.72 693.437 427.496 695.037 427.496H700.829V429.192H695.101C693.48 429.192 692.349 429.48 691.709 430.056C691.091 430.632 690.781 431.347 690.781 432.2C690.781 433.16 691.155 433.928 691.901 434.504C692.648 435.08 693.693 435.368 695.037 435.368C696.317 435.368 697.416 435.08 698.333 434.504C699.272 433.907 699.955 433.053 700.381 431.944L700.893 433.512C700.467 434.621 699.72 435.507 698.653 436.168C697.608 436.829 696.285 437.16 694.685 437.16ZM717.4 420.04C718.766 420.04 719.96 420.307 720.984 420.84C722.03 421.352 722.84 422.141 723.416 423.208C724.014 424.275 724.312 425.619 724.312 427.24V437H722.04V427.464C722.04 425.693 721.592 424.36 720.696 423.464C719.822 422.547 718.584 422.088 716.984 422.088C715.79 422.088 714.744 422.333 713.848 422.824C712.974 423.293 712.291 423.987 711.8 424.904C711.331 425.8 711.096 426.888 711.096 428.168V437H708.824V420.2H711V424.808L710.648 423.944C711.182 422.728 712.035 421.779 713.208 421.096C714.382 420.392 715.779 420.04 717.4 420.04ZM734.961 437.16C733.575 437.16 732.263 436.968 731.025 436.584C729.788 436.179 728.817 435.677 728.113 435.08L729.137 433.288C729.82 433.8 730.695 434.248 731.761 434.632C732.828 434.995 733.948 435.176 735.121 435.176C736.721 435.176 737.873 434.931 738.577 434.44C739.281 433.928 739.633 433.256 739.633 432.424C739.633 431.805 739.431 431.325 739.025 430.984C738.641 430.621 738.129 430.355 737.489 430.184C736.849 429.992 736.135 429.832 735.345 429.704C734.556 429.576 733.767 429.427 732.977 429.256C732.209 429.085 731.505 428.84 730.865 428.52C730.225 428.179 729.703 427.72 729.297 427.144C728.913 426.568 728.721 425.8 728.721 424.84C728.721 423.923 728.977 423.101 729.489 422.376C730.001 421.651 730.748 421.085 731.729 420.68C732.732 420.253 733.948 420.04 735.377 420.04C736.465 420.04 737.553 420.189 738.641 420.488C739.729 420.765 740.625 421.139 741.329 421.608L740.337 423.432C739.591 422.92 738.791 422.557 737.937 422.344C737.084 422.109 736.231 421.992 735.377 421.992C733.863 421.992 732.743 422.259 732.017 422.792C731.313 423.304 730.961 423.965 730.961 424.776C730.961 425.416 731.153 425.917 731.537 426.28C731.943 426.643 732.465 426.931 733.105 427.144C733.767 427.336 734.481 427.496 735.249 427.624C736.039 427.752 736.817 427.912 737.585 428.104C738.375 428.275 739.089 428.52 739.729 428.84C740.391 429.139 740.913 429.576 741.297 430.152C741.703 430.707 741.905 431.443 741.905 432.36C741.905 433.341 741.628 434.195 741.073 434.92C740.54 435.624 739.751 436.179 738.705 436.584C737.681 436.968 736.433 437.16 734.961 437.16ZM754.746 437.16C753.296 437.16 751.984 436.829 750.81 436.168C749.637 435.485 748.698 434.515 747.994 433.256C747.312 431.976 746.97 430.419 746.97 428.584C746.97 426.749 747.312 425.203 747.994 423.944C748.677 422.664 749.605 421.693 750.778 421.032C751.952 420.371 753.274 420.04 754.746 420.04C756.346 420.04 757.776 420.403 759.034 421.128C760.314 421.832 761.317 422.835 762.042 424.136C762.768 425.416 763.13 426.899 763.13 428.584C763.13 430.291 762.768 431.784 762.042 433.064C761.317 434.344 760.314 435.347 759.034 436.072C757.776 436.797 756.346 437.16 754.746 437.16ZM746.074 443.208V420.2H748.25V425.256L748.026 428.616L748.346 432.008V443.208H746.074ZM754.586 435.144C755.781 435.144 756.848 434.877 757.786 434.344C758.725 433.789 759.472 433.021 760.026 432.04C760.581 431.037 760.858 429.885 760.858 428.584C760.858 427.283 760.581 426.141 760.026 425.16C759.472 424.179 758.725 423.411 757.786 422.856C756.848 422.301 755.781 422.024 754.586 422.024C753.392 422.024 752.314 422.301 751.354 422.856C750.416 423.411 749.669 424.179 749.114 425.16C748.581 426.141 748.314 427.283 748.314 428.584C748.314 429.885 748.581 431.037 749.114 432.04C749.669 433.021 750.416 433.789 751.354 434.344C752.314 434.877 753.392 435.144 754.586 435.144ZM774.61 437.16C772.988 437.16 771.527 436.797 770.226 436.072C768.946 435.325 767.932 434.312 767.186 433.032C766.439 431.731 766.066 430.248 766.066 428.584C766.066 426.899 766.439 425.416 767.186 424.136C767.932 422.856 768.946 421.853 770.226 421.128C771.506 420.403 772.967 420.04 774.61 420.04C776.274 420.04 777.746 420.403 779.026 421.128C780.327 421.853 781.34 422.856 782.066 424.136C782.812 425.416 783.186 426.899 783.186 428.584C783.186 430.248 782.812 431.731 782.066 433.032C781.34 434.312 780.327 435.325 779.026 436.072C777.724 436.797 776.252 437.16 774.61 437.16ZM774.61 435.144C775.826 435.144 776.903 434.877 777.842 434.344C778.78 433.789 779.516 433.021 780.05 432.04C780.604 431.037 780.882 429.885 780.882 428.584C780.882 427.261 780.604 426.109 780.05 425.128C779.516 424.147 778.78 423.389 777.842 422.856C776.903 422.301 775.836 422.024 774.642 422.024C773.447 422.024 772.38 422.301 771.442 422.856C770.503 423.389 769.756 424.147 769.202 425.128C768.647 426.109 768.37 427.261 768.37 428.584C768.37 429.885 768.647 431.037 769.202 432.04C769.756 433.021 770.503 433.789 771.442 434.344C772.38 434.877 773.436 435.144 774.61 435.144ZM787.824 437V420.2H790V424.776L789.776 423.976C790.246 422.696 791.035 421.725 792.144 421.064C793.254 420.381 794.63 420.04 796.272 420.04V422.248C796.187 422.248 796.102 422.248 796.016 422.248C795.931 422.227 795.846 422.216 795.76 422.216C793.99 422.216 792.603 422.76 791.6 423.848C790.598 424.915 790.096 426.44 790.096 428.424V437H787.824ZM806.449 437.16C804.87 437.16 803.654 436.733 802.801 435.88C801.947 435.027 801.521 433.821 801.521 432.264V416.488H803.793V432.136C803.793 433.117 804.038 433.875 804.529 434.408C805.041 434.941 805.766 435.208 806.705 435.208C807.707 435.208 808.539 434.92 809.201 434.344L810.001 435.976C809.553 436.381 809.009 436.68 808.369 436.872C807.75 437.064 807.11 437.16 806.449 437.16ZM798.513 422.088V420.2H808.913V422.088H798.513ZM824.665 437V433.288L824.569 432.68V426.472C824.569 425.043 824.163 423.944 823.353 423.176C822.563 422.408 821.379 422.024 819.801 422.024C818.713 422.024 817.678 422.205 816.697 422.568C815.715 422.931 814.883 423.411 814.201 424.008L813.177 422.312C814.03 421.587 815.054 421.032 816.249 420.648C817.443 420.243 818.702 420.04 820.025 420.04C822.201 420.04 823.875 420.584 825.049 421.672C826.243 422.739 826.841 424.371 826.841 426.568V437H824.665ZM818.873 437.16C817.614 437.16 816.515 436.957 815.577 436.552C814.659 436.125 813.955 435.549 813.465 434.824C812.974 434.077 812.729 433.224 812.729 432.264C812.729 431.389 812.931 430.6 813.337 429.896C813.763 429.171 814.446 428.595 815.385 428.168C816.345 427.72 817.625 427.496 819.225 427.496H825.017V429.192H819.289C817.667 429.192 816.537 429.48 815.897 430.056C815.278 430.632 814.969 431.347 814.969 432.2C814.969 433.16 815.342 433.928 816.089 434.504C816.835 435.08 817.881 435.368 819.225 435.368C820.505 435.368 821.603 435.08 822.521 434.504C823.459 433.907 824.142 433.053 824.569 431.944L825.081 433.512C824.654 434.621 823.907 435.507 822.841 436.168C821.795 436.829 820.473 437.16 818.873 437.16ZM838.324 437.16C836.745 437.16 835.529 436.733 834.676 435.88C833.822 435.027 833.396 433.821 833.396 432.264V416.488H835.668V432.136C835.668 433.117 835.913 433.875 836.404 434.408C836.916 434.941 837.641 435.208 838.58 435.208C839.582 435.208 840.414 434.92 841.076 434.344L841.876 435.976C841.428 436.381 840.884 436.68 840.244 436.872C839.625 437.064 838.985 437.16 838.324 437.16ZM830.388 422.088V420.2H840.788V422.088H830.388ZM846.012 437V420.2H848.284V437H846.012ZM847.164 416.488C846.694 416.488 846.3 416.328 845.98 416.008C845.66 415.688 845.5 415.304 845.5 414.856C845.5 414.408 845.66 414.035 845.98 413.736C846.3 413.416 846.694 413.256 847.164 413.256C847.633 413.256 848.028 413.405 848.348 413.704C848.668 414.003 848.828 414.376 848.828 414.824C848.828 415.293 848.668 415.688 848.348 416.008C848.049 416.328 847.654 416.488 847.164 416.488ZM861.454 437.16C859.832 437.16 858.371 436.797 857.07 436.072C855.79 435.325 854.776 434.312 854.03 433.032C853.283 431.731 852.91 430.248 852.91 428.584C852.91 426.899 853.283 425.416 854.03 424.136C854.776 422.856 855.79 421.853 857.07 421.128C858.35 420.403 859.811 420.04 861.454 420.04C863.118 420.04 864.59 420.403 865.87 421.128C867.171 421.853 868.184 422.856 868.91 424.136C869.656 425.416 870.03 426.899 870.03 428.584C870.03 430.248 869.656 431.731 868.91 433.032C868.184 434.312 867.171 435.325 865.87 436.072C864.568 436.797 863.096 437.16 861.454 437.16ZM861.454 435.144C862.67 435.144 863.747 434.877 864.686 434.344C865.624 433.789 866.36 433.021 866.894 432.04C867.448 431.037 867.726 429.885 867.726 428.584C867.726 427.261 867.448 426.109 866.894 425.128C866.36 424.147 865.624 423.389 864.686 422.856C863.747 422.301 862.68 422.024 861.486 422.024C860.291 422.024 859.224 422.301 858.286 422.856C857.347 423.389 856.6 424.147 856.046 425.128C855.491 426.109 855.214 427.261 855.214 428.584C855.214 429.885 855.491 431.037 856.046 432.04C856.6 433.021 857.347 433.789 858.286 434.344C859.224 434.877 860.28 435.144 861.454 435.144ZM883.244 420.04C884.609 420.04 885.804 420.307 886.828 420.84C887.873 421.352 888.684 422.141 889.26 423.208C889.857 424.275 890.156 425.619 890.156 427.24V437H887.884V427.464C887.884 425.693 887.436 424.36 886.54 423.464C885.665 422.547 884.428 422.088 882.828 422.088C881.633 422.088 880.588 422.333 879.692 422.824C878.817 423.293 878.135 423.987 877.644 424.904C877.175 425.8 876.94 426.888 876.94 428.168V437H874.668V420.2H876.844V424.808L876.492 423.944C877.025 422.728 877.879 421.779 879.052 421.096C880.225 420.392 881.623 420.04 883.244 420.04ZM911.324 437.192C909.66 437.192 908.06 436.925 906.524 436.392C905.009 435.837 903.836 435.133 903.004 434.28L903.932 432.456C904.721 433.224 905.777 433.875 907.1 434.408C908.444 434.92 909.852 435.176 911.324 435.176C912.732 435.176 913.873 435.005 914.748 434.664C915.644 434.301 916.295 433.821 916.7 433.224C917.127 432.627 917.34 431.965 917.34 431.24C917.34 430.365 917.084 429.661 916.572 429.128C916.081 428.595 915.431 428.179 914.62 427.88C913.809 427.56 912.913 427.283 911.932 427.048C910.951 426.813 909.969 426.568 908.988 426.312C908.007 426.035 907.1 425.672 906.268 425.224C905.457 424.776 904.796 424.189 904.284 423.464C903.793 422.717 903.548 421.747 903.548 420.552C903.548 419.443 903.836 418.429 904.412 417.512C905.009 416.573 905.916 415.827 907.132 415.272C908.348 414.696 909.905 414.408 911.804 414.408C913.063 414.408 914.311 414.589 915.548 414.952C916.785 415.293 917.852 415.773 918.748 416.392L917.948 418.28C916.988 417.64 915.964 417.171 914.876 416.872C913.809 416.573 912.775 416.424 911.772 416.424C910.428 416.424 909.319 416.605 908.444 416.968C907.569 417.331 906.919 417.821 906.492 418.44C906.087 419.037 905.884 419.72 905.884 420.488C905.884 421.363 906.129 422.067 906.62 422.6C907.132 423.133 907.793 423.549 908.604 423.848C909.436 424.147 910.343 424.413 911.324 424.648C912.305 424.883 913.276 425.139 914.236 425.416C915.217 425.693 916.113 426.056 916.924 426.504C917.756 426.931 918.417 427.507 918.908 428.232C919.42 428.957 919.676 429.907 919.676 431.08C919.676 432.168 919.377 433.181 918.78 434.12C918.183 435.037 917.265 435.784 916.028 436.36C914.812 436.915 913.244 437.192 911.324 437.192ZM931.204 437.16C929.582 437.16 928.121 436.797 926.82 436.072C925.54 435.325 924.526 434.312 923.78 433.032C923.033 431.731 922.66 430.248 922.66 428.584C922.66 426.899 923.033 425.416 923.78 424.136C924.526 422.856 925.54 421.853 926.82 421.128C928.1 420.403 929.561 420.04 931.204 420.04C932.868 420.04 934.34 420.403 935.62 421.128C936.921 421.853 937.934 422.856 938.66 424.136C939.406 425.416 939.78 426.899 939.78 428.584C939.78 430.248 939.406 431.731 938.66 433.032C937.934 434.312 936.921 435.325 935.62 436.072C934.318 436.797 932.846 437.16 931.204 437.16ZM931.204 435.144C932.42 435.144 933.497 434.877 934.436 434.344C935.374 433.789 936.11 433.021 936.644 432.04C937.198 431.037 937.476 429.885 937.476 428.584C937.476 427.261 937.198 426.109 936.644 425.128C936.11 424.147 935.374 423.389 934.436 422.856C933.497 422.301 932.43 422.024 931.236 422.024C930.041 422.024 928.974 422.301 928.036 422.856C927.097 423.389 926.35 424.147 925.796 425.128C925.241 426.109 924.964 427.261 924.964 428.584C924.964 429.885 925.241 431.037 925.796 432.04C926.35 433.021 927.097 433.789 928.036 434.344C928.974 434.877 930.03 435.144 931.204 435.144ZM944.418 437V413.256H946.69V437H944.418ZM959.956 437.16C958.526 437.16 957.278 436.893 956.212 436.36C955.145 435.827 954.313 435.027 953.716 433.96C953.14 432.893 952.852 431.56 952.852 429.96V420.2H955.124V429.704C955.124 431.496 955.561 432.851 956.436 433.768C957.332 434.664 958.58 435.112 960.18 435.112C961.353 435.112 962.366 434.877 963.22 434.408C964.094 433.917 964.756 433.213 965.204 432.296C965.673 431.379 965.908 430.28 965.908 429V420.2H968.18V437H966.004V432.392L966.356 433.224C965.822 434.461 964.99 435.432 963.86 436.136C962.75 436.819 961.449 437.16 959.956 437.16ZM979.824 437.16C978.245 437.16 977.029 436.733 976.176 435.88C975.322 435.027 974.896 433.821 974.896 432.264V416.488H977.168V432.136C977.168 433.117 977.413 433.875 977.904 434.408C978.416 434.941 979.141 435.208 980.08 435.208C981.082 435.208 981.914 434.92 982.576 434.344L983.376 435.976C982.928 436.381 982.384 436.68 981.744 436.872C981.125 437.064 980.485 437.16 979.824 437.16ZM971.888 422.088V420.2H982.288V422.088H971.888ZM987.512 437V420.2H989.784V437H987.512ZM988.664 416.488C988.194 416.488 987.8 416.328 987.48 416.008C987.16 415.688 987 415.304 987 414.856C987 414.408 987.16 414.035 987.48 413.736C987.8 413.416 988.194 413.256 988.664 413.256C989.133 413.256 989.528 413.405 989.848 413.704C990.168 414.003 990.328 414.376 990.328 414.824C990.328 415.293 990.168 415.688 989.848 416.008C989.549 416.328 989.154 416.488 988.664 416.488ZM1002.95 437.16C1001.33 437.16 999.871 436.797 998.57 436.072C997.29 435.325 996.276 434.312 995.53 433.032C994.783 431.731 994.41 430.248 994.41 428.584C994.41 426.899 994.783 425.416 995.53 424.136C996.276 422.856 997.29 421.853 998.57 421.128C999.85 420.403 1001.31 420.04 1002.95 420.04C1004.62 420.04 1006.09 420.403 1007.37 421.128C1008.67 421.853 1009.68 422.856 1010.41 424.136C1011.16 425.416 1011.53 426.899 1011.53 428.584C1011.53 430.248 1011.16 431.731 1010.41 433.032C1009.68 434.312 1008.67 435.325 1007.37 436.072C1006.07 436.797 1004.6 437.16 1002.95 437.16ZM1002.95 435.144C1004.17 435.144 1005.25 434.877 1006.19 434.344C1007.12 433.789 1007.86 433.021 1008.39 432.04C1008.95 431.037 1009.23 429.885 1009.23 428.584C1009.23 427.261 1008.95 426.109 1008.39 425.128C1007.86 424.147 1007.12 423.389 1006.19 422.856C1005.25 422.301 1004.18 422.024 1002.99 422.024C1001.79 422.024 1000.72 422.301 999.786 422.856C998.847 423.389 998.1 424.147 997.546 425.128C996.991 426.109 996.714 427.261 996.714 428.584C996.714 429.885 996.991 431.037 997.546 432.04C998.1 433.021 998.847 433.789 999.786 434.344C1000.72 434.877 1001.78 435.144 1002.95 435.144ZM1024.74 420.04C1026.11 420.04 1027.3 420.307 1028.33 420.84C1029.37 421.352 1030.18 422.141 1030.76 423.208C1031.36 424.275 1031.66 425.619 1031.66 427.24V437H1029.38V427.464C1029.38 425.693 1028.94 424.36 1028.04 423.464C1027.17 422.547 1025.93 422.088 1024.33 422.088C1023.13 422.088 1022.09 422.333 1021.19 422.824C1020.32 423.293 1019.63 423.987 1019.14 424.904C1018.67 425.8 1018.44 426.888 1018.44 428.168V437H1016.17V420.2H1018.34V424.808L1017.99 423.944C1018.53 422.728 1019.38 421.779 1020.55 421.096C1021.73 420.392 1023.12 420.04 1024.74 420.04ZM1042.31 437.16C1040.92 437.16 1039.61 436.968 1038.37 436.584C1037.13 436.179 1036.16 435.677 1035.46 435.08L1036.48 433.288C1037.16 433.8 1038.04 434.248 1039.11 434.632C1040.17 434.995 1041.29 435.176 1042.47 435.176C1044.07 435.176 1045.22 434.931 1045.92 434.44C1046.63 433.928 1046.98 433.256 1046.98 432.424C1046.98 431.805 1046.77 431.325 1046.37 430.984C1045.99 430.621 1045.47 430.355 1044.83 430.184C1044.19 429.992 1043.48 429.832 1042.69 429.704C1041.9 429.576 1041.11 429.427 1040.32 429.256C1039.55 429.085 1038.85 428.84 1038.21 428.52C1037.57 428.179 1037.05 427.72 1036.64 427.144C1036.26 426.568 1036.07 425.8 1036.07 424.84C1036.07 423.923 1036.32 423.101 1036.83 422.376C1037.35 421.651 1038.09 421.085 1039.07 420.68C1040.08 420.253 1041.29 420.04 1042.72 420.04C1043.81 420.04 1044.9 420.189 1045.99 420.488C1047.07 420.765 1047.97 421.139 1048.67 421.608L1047.68 423.432C1046.93 422.92 1046.13 422.557 1045.28 422.344C1044.43 422.109 1043.57 421.992 1042.72 421.992C1041.21 421.992 1040.09 422.259 1039.36 422.792C1038.66 423.304 1038.31 423.965 1038.31 424.776C1038.31 425.416 1038.5 425.917 1038.88 426.28C1039.29 426.643 1039.81 426.931 1040.45 427.144C1041.11 427.336 1041.83 427.496 1042.59 427.624C1043.38 427.752 1044.16 427.912 1044.93 428.104C1045.72 428.275 1046.43 428.52 1047.07 428.84C1047.73 429.139 1048.26 429.576 1048.64 430.152C1049.05 430.707 1049.25 431.443 1049.25 432.36C1049.25 433.341 1048.97 434.195 1048.42 434.92C1047.88 435.624 1047.09 436.179 1046.05 436.584C1045.03 436.968 1043.78 437.16 1042.31 437.16Z" fill="white"/>
<path d="M656 230.932L659.802 248.402L663.324 234.406L733.421 222.897C733.421 222.897 744.953 208.578 756 203.635C767.047 198.692 798.038 211.139 818.863 225.338L852.221 216.135L835.603 231.692L844.593 245.364C843.991 239.997 843.256 237.053 839.27 231.692L856 214.222L820.259 218.02C805.673 208.825 787.069 203.054 776.913 201.309C766.756 199.564 761.233 199.563 755.62 201.309C750.007 203.055 740.224 209.625 729.004 218.02L656 230.932Z" fill="white"/>
<path d="M760.275 218.712L729.536 218.167L727.145 223.943L760.275 218.712Z" fill="white"/>
<path d="M832.812 231.812L802.073 231.268L799.682 237.044L832.812 231.812Z" fill="white"/>
<path d="M711.386 248.401C710.799 231.15 695.895 226.741 687.393 228.887L689.718 226.89C695.245 223.756 714.455 225.863 717.728 243.124L778.672 248.401H711.386Z" fill="white"/>
<g clip-path="url(#clip0_278_2865)">
<circle cx="802.472" cy="248.704" r="17.4372" fill="white"/>
</g>
<defs>
<clipPath id="clip0_278_2865">
<rect width="34.8744" height="17.4372" fill="white" transform="translate(785.035 231.267)"/>
</clipPath>
</defs>
</svg>
